<?xml version="1.0" standalone="no"?>
<!DOCTYPE svg PUBLIC "-//W3C//DTD SVG 1.1//EN" "http://www.w3.org/Graphics/SVG/1.1/DTD/svg11.dtd">
<svg t="1679468177819" class="icon" viewBox="0 0 5024 5024" version="1.1" xmlns="http://www.w3.org/2000/svg" p-id="2610" xmlns:xlink="http://www.w3.org/1999/xlink" width="5000" height="5000"><g id="groups" width="1714" height="519" transform="translate(107.7476535514122,106.06475292003233) scale(1.40053493879481117)">
<g id="ggroups" class="groups" width="486" height="543" transform="translate(58.725045605709,37.131377921362116) scale(0.8397314929441401)"><g id="gbackG" class="groups" width="486" height="543"></g><g id="garcG" class="groups" width="486" height="543"></g><g id="grelG" class="groups" width="486" height="543"></g><g id="gentSetG" class="groups" width="486" height="543"></g><g id="gentbySetG" class="groups" width="486" height="543"></g><g id="gentG" class="groups" width="486" height="543"><circle id="entStu_1441818222168891392" class="entStu" opacity="1" cx="456" cy="106.45355951267521" r="3" stroke="grey" stroke-width="0" fill="rgb(255, 255, 255)"></circle><path d="M0,-9A9,9,0,1,1,0,9A9,9,0,1,1,0,-9M0,-3A3,3,0,1,0,0,3A3,3,0,1,0,0,-3Z" class="typeB" id="stuAttrB_1441818222168891392_0" transform="translate(456,106.45355951267521)" stroke="rgb(255, 255, 255)" stroke-width="0" stroke-dasharray="0" stroke-linejoin="round" fill="rgb(230,230,230)"></path><path d="M0,-9A9,9,0,1,1,-8,4.124L-2.667,1.375A3,3,0,1,0,0,-3Z" class="type" id="stuAttr_1441818222168891392_0" transform="translate(456,106.45355951267521)" stroke="rgb(255, 77, 109)" stroke-width="0" stroke-dasharray="0" stroke-linejoin="round" fill="rgb(255, 77, 109)"></path><path d="M0,-16A16,16,0,1,1,0,16A16,16,0,1,1,0,-16M0,-10A10,10,0,1,0,0,10A10,10,0,1,0,0,-10Z" class="typeB" id="stuAttrB_1441818222168891392_2" transform="translate(456,106.45355951267521)" stroke="rgb(255, 255, 255)" stroke-width="0" stroke-dasharray="0" stroke-linejoin="round" fill="rgb(230,230,230)"></path><path d="M0,-16A16,16,0,0,1,15.999,-0.143L10,-0.089A10,10,0,0,0,0,-10Z" class="type" id="stuAttr_1441818222168891392_2" transform="translate(456,106.45355951267521)" stroke="rgb(250, 210, 50)" stroke-width="0" stroke-dasharray="0" stroke-linejoin="round" fill="rgb(250, 210, 50)"></path><circle id="entStuF_1441818222168891392_0" class="entStuF" opacity="0" cx="456" cy="106.45355951267521" r="25" stroke="grey" stroke-width="0" fill="rgb(255, 255, 255)"></circle><circle id="entStu_1568085402567503872" class="entStu" opacity="1" cx="450.55168880288403" cy="169.157344837915" r="6.094253529160131" stroke="grey" stroke-width="0" fill="rgb(144, 184, 100)"></circle><path d="M0,-12.094A12.094,12.094,0,1,1,0,12.094A12.094,12.094,0,1,1,0,-12.094M0,-6.094A6.094,6.094,0,1,0,0,6.094A6.094,6.094,0,1,0,0,-6.094Z" class="typeB" id="stuAttrB_1568085402567503872_0" transform="translate(450.55168880288403,169.157344837915)" stroke="rgb(144, 184, 100)" stroke-width="0" stroke-dasharray="0" stroke-linejoin="round" fill="rgb(230,230,230)"></path><path d="M0,-12.094A12.094,12.094,0,1,1,-9.314,7.715L-4.693,3.888A6.094,6.094,0,1,0,0,-6.094Z" class="type" id="stuAttr_1568085402567503872_0" transform="translate(450.55168880288403,169.157344837915)" stroke="rgb(255, 77, 109)" stroke-width="0" stroke-dasharray="0" stroke-linejoin="round" fill="rgb(255, 77, 109)"></path><path d="M0,-19.094A19.094,19.094,0,1,1,0,19.094A19.094,19.094,0,1,1,0,-19.094M0,-13.094A13.094,13.094,0,1,0,0,13.094A13.094,13.094,0,1,0,0,-13.094Z" class="typeB" id="stuAttrB_1568085402567503872_2" transform="translate(450.55168880288403,169.157344837915)" stroke="rgb(144, 184, 100)" stroke-width="0" stroke-dasharray="0" stroke-linejoin="round" fill="rgb(230,230,230)"></path><path d="M0,-19.094A19.094,19.094,0,1,1,-0.567,-19.086L-0.389,-13.088A13.094,13.094,0,1,0,0,-13.094Z" class="type" id="stuAttr_1568085402567503872_2" transform="translate(450.55168880288403,169.157344837915)" stroke="rgb(250, 210, 50)" stroke-width="0" stroke-dasharray="0" stroke-linejoin="round" fill="rgb(250, 210, 50)"></path><circle id="entStuF_1568085402567503872_1" class="entStuF" opacity="0" cx="450.55168880288403" cy="169.157344837915" r="25" stroke="grey" stroke-width="0" fill="rgb(144, 184, 100)"></circle><circle id="entStu_1568085284158111744" class="entStu" opacity="1" cx="252.1699122968498" cy="413.5518352314059" r="6.908455725081991" stroke="grey" stroke-width="0" fill="rgb(115, 166, 60)"></circle><path d="M0,-12.908A12.908,12.908,0,1,1,0,12.908A12.908,12.908,0,1,1,0,-12.908M0,-6.908A6.908,6.908,0,1,0,0,6.908A6.908,6.908,0,1,0,0,-6.908Z" class="typeB" id="stuAttrB_1568085284158111744_0" transform="translate(252.1699122968498,413.5518352314059)" stroke="rgb(115, 166, 60)" stroke-width="0" stroke-dasharray="0" stroke-linejoin="round" fill="rgb(230,230,230)"></path><path d="M0,-12.908A12.908,12.908,0,1,1,-3.237,-12.496L-1.732,-6.688A6.908,6.908,0,1,0,0,-6.908Z" class="type" id="stuAttr_1568085284158111744_0" transform="translate(252.1699122968498,413.5518352314059)" stroke="rgb(255, 77, 109)" stroke-width="0" stroke-dasharray="0" stroke-linejoin="round" fill="rgb(255, 77, 109)"></path><path d="M0,-19.908A19.908,19.908,0,1,1,0,19.908A19.908,19.908,0,1,1,0,-19.908M0,-13.908A13.908,13.908,0,1,0,0,13.908A13.908,13.908,0,1,0,0,-13.908Z" class="typeB" id="stuAttrB_1568085284158111744_2" transform="translate(252.1699122968498,413.5518352314059)" stroke="rgb(115, 166, 60)" stroke-width="0" stroke-dasharray="0" stroke-linejoin="round" fill="rgb(230,230,230)"></path><path d="M0,-19.908A19.908,19.908,0,0,1,9.525,17.482L6.654,12.213A13.908,13.908,0,0,0,0,-13.908Z" class="type" id="stuAttr_1568085284158111744_2" transform="translate(252.1699122968498,413.5518352314059)" stroke="rgb(250, 210, 50)" stroke-width="0" stroke-dasharray="0" stroke-linejoin="round" fill="rgb(250, 210, 50)"></path><circle id="entStuF_1568085284158111744_2" class="entStuF" opacity="0" cx="252.1699122968498" cy="413.5518352314059" r="25" stroke="grey" stroke-width="0" fill="rgb(115, 166, 60)"></circle><circle id="entStu_1568085367775752192" class="entStu" opacity="1" cx="391.03173726932306" cy="286.4495101918245" r="6.219021816626266" stroke="grey" stroke-width="0" fill="rgb(140, 182, 94)"></circle><path d="M0,-12.219A12.219,12.219,0,1,1,0,12.219A12.219,12.219,0,1,1,0,-12.219M0,-6.219A6.219,6.219,0,1,0,0,6.219A6.219,6.219,0,1,0,0,-6.219Z" class="typeB" id="stuAttrB_1568085367775752192_0" transform="translate(391.03173726932306,286.4495101918245)" stroke="rgb(140, 182, 94)" stroke-width="0" stroke-dasharray="0" stroke-linejoin="round" fill="rgb(230,230,230)"></path><path d="M0,-12.219A12.219,12.219,0,1,1,-5.931,-10.683L-3.019,-5.437A6.219,6.219,0,1,0,0,-6.219Z" class="type" id="stuAttr_1568085367775752192_0" transform="translate(391.03173726932306,286.4495101918245)" stroke="rgb(255, 77, 109)" stroke-width="0" stroke-dasharray="0" stroke-linejoin="round" fill="rgb(255, 77, 109)"></path><path d="M0,-19.219A19.219,19.219,0,1,1,0,19.219A19.219,19.219,0,1,1,0,-19.219M0,-13.219A13.219,13.219,0,1,0,0,13.219A13.219,13.219,0,1,0,0,-13.219Z" class="typeB" id="stuAttrB_1568085367775752192_2" transform="translate(391.03173726932306,286.4495101918245)" stroke="rgb(140, 182, 94)" stroke-width="0" stroke-dasharray="0" stroke-linejoin="round" fill="rgb(230,230,230)"></path><path d="M0,-19.219A19.219,19.219,0,0,1,9.692,16.596L6.666,11.415A13.219,13.219,0,0,0,0,-13.219Z" class="type" id="stuAttr_1568085367775752192_2" transform="translate(391.03173726932306,286.4495101918245)" stroke="rgb(250, 210, 50)" stroke-width="0" stroke-dasharray="0" stroke-linejoin="round" fill="rgb(250, 210, 50)"></path><circle id="entStuF_1568085367775752192_3" class="entStuF" opacity="0" cx="391.03173726932306" cy="286.4495101918245" r="25" stroke="grey" stroke-width="0" fill="rgb(140, 182, 94)"></circle><circle id="entStu_1568086487231295488" class="entStu" opacity="1" cx="50.17745084870411" cy="193.3237020056606" r="5.16169970055611" stroke="grey" stroke-width="0" fill="rgb(178, 206, 147)"></circle><path d="M0,-11.162A11.162,11.162,0,1,1,0,11.162A11.162,11.162,0,1,1,0,-11.162M0,-5.162A5.162,5.162,0,1,0,0,5.162A5.162,5.162,0,1,0,0,-5.162Z" class="typeB" id="stuAttrB_1568086487231295488_0" transform="translate(50.17745084870411,193.3237020056606)" stroke="rgb(178, 206, 147)" stroke-width="0" stroke-dasharray="0" stroke-linejoin="round" fill="rgb(230,230,230)"></path><path d="M0,-11.162A11.162,11.162,0,1,1,-7.522,-8.246L-3.479,-3.813A5.162,5.162,0,1,0,0,-5.162Z" class="type" id="stuAttr_1568086487231295488_0" transform="translate(50.17745084870411,193.3237020056606)" stroke="rgb(255, 77, 109)" stroke-width="0" stroke-dasharray="0" stroke-linejoin="round" fill="rgb(255, 77, 109)"></path><path d="M0,-18.162A18.162,18.162,0,1,1,0,18.162A18.162,18.162,0,1,1,0,-18.162M0,-12.162A12.162,12.162,0,1,0,0,12.162A12.162,12.162,0,1,0,0,-12.162Z" class="typeB" id="stuAttrB_1568086487231295488_2" transform="translate(50.17745084870411,193.3237020056606)" stroke="rgb(178, 206, 147)" stroke-width="0" stroke-dasharray="0" stroke-linejoin="round" fill="rgb(230,230,230)"></path><path d="M0,-18.162A18.162,18.162,0,0,1,3.325,17.855L2.226,11.956A12.162,12.162,0,0,0,0,-12.162Z" class="type" id="stuAttr_1568086487231295488_2" transform="translate(50.17745084870411,193.3237020056606)" stroke="rgb(250, 210, 50)" stroke-width="0" stroke-dasharray="0" stroke-linejoin="round" fill="rgb(250, 210, 50)"></path><circle id="entStuF_1568086487231295488_4" class="entStuF" opacity="0" cx="50.17745084870411" cy="193.3237020056606" r="25" stroke="grey" stroke-width="0" fill="rgb(178, 206, 147)"></circle><circle id="entStu_1568085202381762560" class="entStu" opacity="1" cx="233.73639921498932" cy="134.17236479671368" r="7.351204905176101" stroke="grey" stroke-width="0" fill="rgb(99, 156, 37)"></circle><path d="M0,-13.351A13.351,13.351,0,1,1,0,13.351A13.351,13.351,0,1,1,0,-13.351M0,-7.351A7.351,7.351,0,1,0,0,7.351A7.351,7.351,0,1,0,0,-7.351Z" class="typeB" id="stuAttrB_1568085202381762560_0" transform="translate(233.73639921498932,134.17236479671368)" stroke="rgb(99, 156, 37)" stroke-width="0" stroke-dasharray="0" stroke-linejoin="round" fill="rgb(230,230,230)"></path><path d="M0,-13.351A13.351,13.351,0,1,1,-9.487,-9.394L-5.224,-5.173A7.351,7.351,0,1,0,0,-7.351Z" class="type" id="stuAttr_1568085202381762560_0" transform="translate(233.73639921498932,134.17236479671368)" stroke="rgb(255, 77, 109)" stroke-width="0" stroke-dasharray="0" stroke-linejoin="round" fill="rgb(255, 77, 109)"></path><path d="M0,-20.351A20.351,20.351,0,1,1,0,20.351A20.351,20.351,0,1,1,0,-20.351M0,-14.351A14.351,14.351,0,1,0,0,14.351A14.351,14.351,0,1,0,0,-14.351Z" class="typeB" id="stuAttrB_1568085202381762560_2" transform="translate(233.73639921498932,134.17236479671368)" stroke="rgb(99, 156, 37)" stroke-width="0" stroke-dasharray="0" stroke-linejoin="round" fill="rgb(230,230,230)"></path><path d="M0,-20.351A20.351,20.351,0,1,1,-3.607,20.029L-2.543,14.124A14.351,14.351,0,1,0,0,-14.351Z" class="type" id="stuAttr_1568085202381762560_2" transform="translate(233.73639921498932,134.17236479671368)" stroke="rgb(250, 210, 50)" stroke-width="0" stroke-dasharray="0" stroke-linejoin="round" fill="rgb(250, 210, 50)"></path><circle id="entStuF_1568085202381762560_5" class="entStuF" opacity="0" cx="233.73639921498932" cy="134.17236479671368" r="25" stroke="grey" stroke-width="0" fill="rgb(99, 156, 37)"></circle><circle id="entStu_1568085389636472832" class="entStu" opacity="1" cx="271.21755094033324" cy="346.2709364436049" r="6.714530158277485" stroke="grey" stroke-width="0" fill="rgb(122, 170, 69)"></circle><path d="M0,-12.715A12.715,12.715,0,1,1,0,12.715A12.715,12.715,0,1,1,0,-12.715M0,-6.715A6.715,6.715,0,1,0,0,6.715A6.715,6.715,0,1,0,0,-6.715Z" class="typeB" id="stuAttrB_1568085389636472832_0" transform="translate(271.21755094033324,346.2709364436049)" stroke="rgb(122, 170, 69)" stroke-width="0" stroke-dasharray="0" stroke-linejoin="round" fill="rgb(230,230,230)"></path><path d="M0,-12.715A12.715,12.715,0,1,1,-2.86,-12.389L-1.51,-6.542A6.715,6.715,0,1,0,0,-6.715Z" class="type" id="stuAttr_1568085389636472832_0" transform="translate(271.21755094033324,346.2709364436049)" stroke="rgb(255, 77, 109)" stroke-width="0" stroke-dasharray="0" stroke-linejoin="round" fill="rgb(255, 77, 109)"></path><path d="M0,-19.715A19.715,19.715,0,1,1,0,19.715A19.715,19.715,0,1,1,0,-19.715M0,-13.715A13.715,13.715,0,1,0,0,13.715A13.715,13.715,0,1,0,0,-13.715Z" class="typeB" id="stuAttrB_1568085389636472832_2" transform="translate(271.21755094033324,346.2709364436049)" stroke="rgb(122, 170, 69)" stroke-width="0" stroke-dasharray="0" stroke-linejoin="round" fill="rgb(230,230,230)"></path><path d="M0,-19.715A19.715,19.715,0,0,1,11.701,15.866L8.14,11.038A13.715,13.715,0,0,0,0,-13.715Z" class="type" id="stuAttr_1568085389636472832_2" transform="translate(271.21755094033324,346.2709364436049)" stroke="rgb(250, 210, 50)" stroke-width="0" stroke-dasharray="0" stroke-linejoin="round" fill="rgb(250, 210, 50)"></path><circle id="entStuF_1568085389636472832_6" class="entStuF" opacity="0" cx="271.21755094033324" cy="346.2709364436049" r="25" stroke="grey" stroke-width="0" fill="rgb(122, 170, 69)"></circle><circle id="entStu_1568085277187182592" class="entStu" opacity="1" cx="338.43955157254425" cy="256.5644443323736" r="5.901040923998289" stroke="grey" stroke-width="0" fill="rgb(151, 189, 110)"></circle><path d="M0,-11.901A11.901,11.901,0,1,1,0,11.901A11.901,11.901,0,1,1,0,-11.901M0,-5.901A5.901,5.901,0,1,0,0,5.901A5.901,5.901,0,1,0,0,-5.901Z" class="typeB" id="stuAttrB_1568085277187182592_0" transform="translate(338.43955157254425,256.5644443323736)" stroke="rgb(151, 189, 110)" stroke-width="0" stroke-dasharray="0" stroke-linejoin="round" fill="rgb(230,230,230)"></path><path d="M0,-11.901A11.901,11.901,0,1,1,-5.445,-10.582L-2.7,-5.247A5.901,5.901,0,1,0,0,-5.901Z" class="type" id="stuAttr_1568085277187182592_0" transform="translate(338.43955157254425,256.5644443323736)" stroke="rgb(255, 77, 109)" stroke-width="0" stroke-dasharray="0" stroke-linejoin="round" fill="rgb(255, 77, 109)"></path><path d="M0,-18.901A18.901,18.901,0,1,1,0,18.901A18.901,18.901,0,1,1,0,-18.901M0,-12.901A12.901,12.901,0,1,0,0,12.901A12.901,12.901,0,1,0,0,-12.901Z" class="typeB" id="stuAttrB_1568085277187182592_2" transform="translate(338.43955157254425,256.5644443323736)" stroke="rgb(151, 189, 110)" stroke-width="0" stroke-dasharray="0" stroke-linejoin="round" fill="rgb(230,230,230)"></path><path d="M0,-18.901A18.901,18.901,0,0,1,8.646,16.808L5.901,11.472A12.901,12.901,0,0,0,0,-12.901Z" class="type" id="stuAttr_1568085277187182592_2" transform="translate(338.43955157254425,256.5644443323736)" stroke="rgb(250, 210, 50)" stroke-width="0" stroke-dasharray="0" stroke-linejoin="round" fill="rgb(250, 210, 50)"></path><circle id="entStuF_1568085277187182592_7" class="entStuF" opacity="0" cx="338.43955157254425" cy="256.5644443323736" r="25" stroke="grey" stroke-width="0" fill="rgb(151, 189, 110)"></circle><circle id="entStu_1568085579118350336" class="entStu" opacity="1" cx="131.4856121076703" cy="58.601757719134156" r="5.897476115784971" stroke="grey" stroke-width="0" fill="rgb(151, 189, 110)"></circle><path d="M0,-11.897A11.897,11.897,0,1,1,0,11.897A11.897,11.897,0,1,1,0,-11.897M0,-5.897A5.897,5.897,0,1,0,0,5.897A5.897,5.897,0,1,0,0,-5.897Z" class="typeB" id="stuAttrB_1568085579118350336_0" transform="translate(131.4856121076703,58.601757719134156)" stroke="rgb(151, 189, 110)" stroke-width="0" stroke-dasharray="0" stroke-linejoin="round" fill="rgb(230,230,230)"></path><path d="M0,-11.897A11.897,11.897,0,1,1,-11.189,-4.044L-5.546,-2.005A5.897,5.897,0,1,0,0,-5.897Z" class="type" id="stuAttr_1568085579118350336_0" transform="translate(131.4856121076703,58.601757719134156)" stroke="rgb(255, 77, 109)" stroke-width="0" stroke-dasharray="0" stroke-linejoin="round" fill="rgb(255, 77, 109)"></path><path d="M0,-18.897A18.897,18.897,0,1,1,0,18.897A18.897,18.897,0,1,1,0,-18.897M0,-12.897A12.897,12.897,0,1,0,0,12.897A12.897,12.897,0,1,0,0,-12.897Z" class="typeB" id="stuAttrB_1568085579118350336_2" transform="translate(131.4856121076703,58.601757719134156)" stroke="rgb(151, 189, 110)" stroke-width="0" stroke-dasharray="0" stroke-linejoin="round" fill="rgb(230,230,230)"></path><path d="M0,-18.897A18.897,18.897,0,0,1,16.621,8.992L11.344,6.137A12.897,12.897,0,0,0,0,-12.897Z" class="type" id="stuAttr_1568085579118350336_2" transform="translate(131.4856121076703,58.601757719134156)" stroke="rgb(250, 210, 50)" stroke-width="0" stroke-dasharray="0" stroke-linejoin="round" fill="rgb(250, 210, 50)"></path><circle id="entStuF_1568085579118350336_8" class="entStuF" opacity="0" cx="131.4856121076703" cy="58.601757719134156" r="25" stroke="grey" stroke-width="0" fill="rgb(151, 189, 110)"></circle><circle id="entStu_1568085343394275328" class="entStu" opacity="1" cx="417.5943841967522" cy="378.78289873278436" r="7.88592613717382" stroke="grey" stroke-width="0" fill="rgb(80, 144, 11)"></circle><path d="M0,-13.886A13.886,13.886,0,1,1,0,13.886A13.886,13.886,0,1,1,0,-13.886M0,-7.886A7.886,7.886,0,1,0,0,7.886A7.886,7.886,0,1,0,0,-7.886Z" class="typeB" id="stuAttrB_1568085343394275328_0" transform="translate(417.5943841967522,378.78289873278436)" stroke="rgb(80, 144, 11)" stroke-width="0" stroke-dasharray="0" stroke-linejoin="round" fill="rgb(230,230,230)"></path><path d="M0,-13.886A13.886,13.886,0,1,1,-13.827,1.274L-7.853,0.724A7.886,7.886,0,1,0,0,-7.886Z" class="type" id="stuAttr_1568085343394275328_0" transform="translate(417.5943841967522,378.78289873278436)" stroke="rgb(255, 77, 109)" stroke-width="0" stroke-dasharray="0" stroke-linejoin="round" fill="rgb(255, 77, 109)"></path><path d="M0,-20.886A20.886,20.886,0,1,1,0,20.886A20.886,20.886,0,1,1,0,-20.886M0,-14.886A14.886,14.886,0,1,0,0,14.886A14.886,14.886,0,1,0,0,-14.886Z" class="typeB" id="stuAttrB_1568085343394275328_2" transform="translate(417.5943841967522,378.78289873278436)" stroke="rgb(80, 144, 11)" stroke-width="0" stroke-dasharray="0" stroke-linejoin="round" fill="rgb(230,230,230)"></path><path d="M0,-20.886A20.886,20.886,0,1,1,-13.372,16.044L-9.531,11.435A14.886,14.886,0,1,0,0,-14.886Z" class="type" id="stuAttr_1568085343394275328_2" transform="translate(417.5943841967522,378.78289873278436)" stroke="rgb(250, 210, 50)" stroke-width="0" stroke-dasharray="0" stroke-linejoin="round" fill="rgb(250, 210, 50)"></path><circle id="entStuF_1568085343394275328_9" class="entStuF" opacity="0" cx="417.5943841967522" cy="378.78289873278436" r="25" stroke="grey" stroke-width="0" fill="rgb(80, 144, 11)"></circle><circle id="entStu_1568086373041373184" class="entStu" opacity="1" cx="142.85715970908154" cy="106.7984575791475" r="7.108084985027806" stroke="grey" stroke-width="0" fill="rgb(108, 161, 50)"></circle><path d="M0,-13.108A13.108,13.108,0,1,1,0,13.108A13.108,13.108,0,1,1,0,-13.108M0,-7.108A7.108,7.108,0,1,0,0,7.108A7.108,7.108,0,1,0,0,-7.108Z" class="typeB" id="stuAttrB_1568086373041373184_0" transform="translate(142.85715970908154,106.7984575791475)" stroke="rgb(108, 161, 50)" stroke-width="0" stroke-dasharray="0" stroke-linejoin="round" fill="rgb(230,230,230)"></path><path d="M0,-13.108A13.108,13.108,0,1,1,-8.674,-9.827L-4.704,-5.329A7.108,7.108,0,1,0,0,-7.108Z" class="type" id="stuAttr_1568086373041373184_0" transform="translate(142.85715970908154,106.7984575791475)" stroke="rgb(255, 77, 109)" stroke-width="0" stroke-dasharray="0" stroke-linejoin="round" fill="rgb(255, 77, 109)"></path><path d="M0,-20.108A20.108,20.108,0,1,1,0,20.108A20.108,20.108,0,1,1,0,-20.108M0,-14.108A14.108,14.108,0,1,0,0,14.108A14.108,14.108,0,1,0,0,-14.108Z" class="typeB" id="stuAttrB_1568086373041373184_2" transform="translate(142.85715970908154,106.7984575791475)" stroke="rgb(108, 161, 50)" stroke-width="0" stroke-dasharray="0" stroke-linejoin="round" fill="rgb(230,230,230)"></path><path d="M0,-20.108A20.108,20.108,0,0,1,15.71,12.551L11.023,8.806A14.108,14.108,0,0,0,0,-14.108Z" class="type" id="stuAttr_1568086373041373184_2" transform="translate(142.85715970908154,106.7984575791475)" stroke="rgb(250, 210, 50)" stroke-width="0" stroke-dasharray="0" stroke-linejoin="round" fill="rgb(250, 210, 50)"></path><circle id="entStuF_1568086373041373184_10" class="entStuF" opacity="0" cx="142.85715970908154" cy="106.7984575791475" r="25" stroke="grey" stroke-width="0" fill="rgb(108, 161, 50)"></circle><circle id="entStu_1568085541923262464" class="entStu" opacity="1" cx="136.4781863008813" cy="294.4590552351348" r="8" stroke="grey" stroke-width="0" fill="rgb(76, 141, 5)"></circle><path d="M0,-14A14,14,0,1,1,0,14A14,14,0,1,1,0,-14M0,-8A8,8,0,1,0,0,8A8,8,0,1,0,0,-8Z" class="typeB" id="stuAttrB_1568085541923262464_0" transform="translate(136.4781863008813,294.4590552351348)" stroke="rgb(76, 141, 5)" stroke-width="0" stroke-dasharray="0" stroke-linejoin="round" fill="rgb(230,230,230)"></path><path d="M0,-14A14,14,0,1,1,-7.343,-11.919L-4.196,-6.811A8,8,0,1,0,0,-8Z" class="type" id="stuAttr_1568085541923262464_0" transform="translate(136.4781863008813,294.4590552351348)" stroke="rgb(255, 77, 109)" stroke-width="0" stroke-dasharray="0" stroke-linejoin="round" fill="rgb(255, 77, 109)"></path><path d="M0,-21A21,21,0,1,1,0,21A21,21,0,1,1,0,-21M0,-15A15,15,0,1,0,0,15A15,15,0,1,0,0,-15Z" class="typeB" id="stuAttrB_1568085541923262464_2" transform="translate(136.4781863008813,294.4590552351348)" stroke="rgb(76, 141, 5)" stroke-width="0" stroke-dasharray="0" stroke-linejoin="round" fill="rgb(230,230,230)"></path><path d="M0,-21A21,21,0,1,1,-9.717,18.617L-6.94,13.298A15,15,0,1,0,0,-15Z" class="type" id="stuAttr_1568085541923262464_2" transform="translate(136.4781863008813,294.4590552351348)" stroke="rgb(250, 210, 50)" stroke-width="0" stroke-dasharray="0" stroke-linejoin="round" fill="rgb(250, 210, 50)"></path><circle id="entStuF_1568085541923262464_11" class="entStuF" opacity="0" cx="136.4781863008813" cy="294.4590552351348" r="25" stroke="grey" stroke-width="0" fill="rgb(76, 141, 5)"></circle><circle id="entStu_1568084218364493824" class="entStu" opacity="1" cx="424.6325190083779" cy="206.95613172195837" r="5.531726793098532" stroke="grey" stroke-width="0" fill="rgb(164, 197, 128)"></circle><path d="M0,-11.532A11.532,11.532,0,1,1,0,11.532A11.532,11.532,0,1,1,0,-11.532M0,-5.532A5.532,5.532,0,1,0,0,5.532A5.532,5.532,0,1,0,0,-5.532Z" class="typeB" id="stuAttrB_1568084218364493824_0" transform="translate(424.6325190083779,206.95613172195837)" stroke="rgb(164, 197, 128)" stroke-width="0" stroke-dasharray="0" stroke-linejoin="round" fill="rgb(230,230,230)"></path><path d="M0,-11.532A11.532,11.532,0,1,1,-10.685,-4.337L-5.126,-2.08A5.532,5.532,0,1,0,0,-5.532Z" class="type" id="stuAttr_1568084218364493824_0" transform="translate(424.6325190083779,206.95613172195837)" stroke="rgb(255, 77, 109)" stroke-width="0" stroke-dasharray="0" stroke-linejoin="round" fill="rgb(255, 77, 109)"></path><path d="M0,-18.532A18.532,18.532,0,1,1,0,18.532A18.532,18.532,0,1,1,0,-18.532M0,-12.532A12.532,12.532,0,1,0,0,12.532A12.532,12.532,0,1,0,0,-12.532Z" class="typeB" id="stuAttrB_1568084218364493824_2" transform="translate(424.6325190083779,206.95613172195837)" stroke="rgb(164, 197, 128)" stroke-width="0" stroke-dasharray="0" stroke-linejoin="round" fill="rgb(230,230,230)"></path><path d="M0,-18.532A18.532,18.532,0,0,1,13.239,12.967L8.953,8.769A12.532,12.532,0,0,0,0,-12.532Z" class="type" id="stuAttr_1568084218364493824_2" transform="translate(424.6325190083779,206.95613172195837)" stroke="rgb(250, 210, 50)" stroke-width="0" stroke-dasharray="0" stroke-linejoin="round" fill="rgb(250, 210, 50)"></path><circle id="entStuF_1568084218364493824_12" class="entStuF" opacity="0" cx="424.6325190083779" cy="206.95613172195837" r="25" stroke="grey" stroke-width="0" fill="rgb(164, 197, 128)"></circle><circle id="entStu_1568085363598225408" class="entStu" opacity="1" cx="93.75437086133913" cy="413.4873513787771" r="5.629402538143448" stroke="grey" stroke-width="0" fill="rgb(161, 195, 124)"></circle><path d="M0,-11.629A11.629,11.629,0,1,1,0,11.629A11.629,11.629,0,1,1,0,-11.629M0,-5.629A5.629,5.629,0,1,0,0,5.629A5.629,5.629,0,1,0,0,-5.629Z" class="typeB" id="stuAttrB_1568085363598225408_0" transform="translate(93.75437086133913,413.4873513787771)" stroke="rgb(161, 195, 124)" stroke-width="0" stroke-dasharray="0" stroke-linejoin="round" fill="rgb(230,230,230)"></path><path d="M0,-11.629A11.629,11.629,0,1,1,-8.439,-8.002L-4.085,-3.873A5.629,5.629,0,1,0,0,-5.629Z" class="type" id="stuAttr_1568085363598225408_0" transform="translate(93.75437086133913,413.4873513787771)" stroke="rgb(255, 77, 109)" stroke-width="0" stroke-dasharray="0" stroke-linejoin="round" fill="rgb(255, 77, 109)"></path><path d="M0,-18.629A18.629,18.629,0,1,1,0,18.629A18.629,18.629,0,1,1,0,-18.629M0,-12.629A12.629,12.629,0,1,0,0,12.629A12.629,12.629,0,1,0,0,-12.629Z" class="typeB" id="stuAttrB_1568085363598225408_2" transform="translate(93.75437086133913,413.4873513787771)" stroke="rgb(161, 195, 124)" stroke-width="0" stroke-dasharray="0" stroke-linejoin="round" fill="rgb(230,230,230)"></path><path d="M0,-18.629A18.629,18.629,0,0,1,9.299,16.143L6.304,10.944A12.629,12.629,0,0,0,0,-12.629Z" class="type" id="stuAttr_1568085363598225408_2" transform="translate(93.75437086133913,413.4873513787771)" stroke="rgb(250, 210, 50)" stroke-width="0" stroke-dasharray="0" stroke-linejoin="round" fill="rgb(250, 210, 50)"></path><circle id="entStuF_1568085363598225408_13" class="entStuF" opacity="0" cx="93.75437086133913" cy="413.4873513787771" r="25" stroke="grey" stroke-width="0" fill="rgb(161, 195, 124)"></circle><circle id="entStu_1568085401569259520" class="entStu" opacity="1" cx="259.72127879077203" cy="308.09232520004645" r="7.357621559960075" stroke="grey" stroke-width="0" fill="rgb(99, 156, 37)"></circle><path d="M0,-13.358A13.358,13.358,0,1,1,0,13.358A13.358,13.358,0,1,1,0,-13.358M0,-7.358A7.358,7.358,0,1,0,0,7.358A7.358,7.358,0,1,0,0,-7.358Z" class="typeB" id="stuAttrB_1568085401569259520_0" transform="translate(259.72127879077203,308.09232520004645)" stroke="rgb(99, 156, 37)" stroke-width="0" stroke-dasharray="0" stroke-linejoin="round" fill="rgb(230,230,230)"></path><path d="M0,-13.358A13.358,13.358,0,1,1,-4.317,-12.641L-2.378,-6.963A7.358,7.358,0,1,0,0,-7.358Z" class="type" id="stuAttr_1568085401569259520_0" transform="translate(259.72127879077203,308.09232520004645)" stroke="rgb(255, 77, 109)" stroke-width="0" stroke-dasharray="0" stroke-linejoin="round" fill="rgb(255, 77, 109)"></path><path d="M0,-20.358A20.358,20.358,0,1,1,0,20.358A20.358,20.358,0,1,1,0,-20.358M0,-14.358A14.358,14.358,0,1,0,0,14.358A14.358,14.358,0,1,0,0,-14.358Z" class="typeB" id="stuAttrB_1568085401569259520_2" transform="translate(259.72127879077203,308.09232520004645)" stroke="rgb(99, 156, 37)" stroke-width="0" stroke-dasharray="0" stroke-linejoin="round" fill="rgb(230,230,230)"></path><path d="M0,-20.358A20.358,20.358,0,1,1,-9.096,18.212L-6.415,12.845A14.358,14.358,0,1,0,0,-14.358Z" class="type" id="stuAttr_1568085401569259520_2" transform="translate(259.72127879077203,308.09232520004645)" stroke="rgb(250, 210, 50)" stroke-width="0" stroke-dasharray="0" stroke-linejoin="round" fill="rgb(250, 210, 50)"></path><circle id="entStuF_1568085401569259520_14" class="entStuF" opacity="0" cx="259.72127879077203" cy="308.09232520004645" r="25" stroke="grey" stroke-width="0" fill="rgb(99, 156, 37)"></circle><circle id="entStu_1568084572514750464" class="entStu" opacity="1" cx="315.17130812614636" cy="393.72308991545776" r="7.566519321260516" stroke="grey" stroke-width="0" fill="rgb(92, 151, 27)"></circle><path d="M0,-13.567A13.567,13.567,0,1,1,0,13.567A13.567,13.567,0,1,1,0,-13.567M0,-7.567A7.567,7.567,0,1,0,0,7.567A7.567,7.567,0,1,0,0,-7.567Z" class="typeB" id="stuAttrB_1568084572514750464_0" transform="translate(315.17130812614636,393.72308991545776)" stroke="rgb(92, 151, 27)" stroke-width="0" stroke-dasharray="0" stroke-linejoin="round" fill="rgb(230,230,230)"></path><path d="M0,-13.567A13.567,13.567,0,1,1,0,13.567A13.567,13.567,0,1,1,0,-13.567M0,-7.567A7.567,7.567,0,1,0,0,7.567A7.567,7.567,0,1,0,0,-7.567Z" class="type" id="stuAttr_1568084572514750464_0" transform="translate(315.17130812614636,393.72308991545776)" stroke="rgb(255, 77, 109)" stroke-width="0" stroke-dasharray="0" stroke-linejoin="round" fill="rgb(255, 77, 109)"></path><path d="M0,-20.567A20.567,20.567,0,1,1,0,20.567A20.567,20.567,0,1,1,0,-20.567M0,-14.567A14.567,14.567,0,1,0,0,14.567A14.567,14.567,0,1,0,0,-14.567Z" class="typeB" id="stuAttrB_1568084572514750464_2" transform="translate(315.17130812614636,393.72308991545776)" stroke="rgb(92, 151, 27)" stroke-width="0" stroke-dasharray="0" stroke-linejoin="round" fill="rgb(230,230,230)"></path><path d="M0,-20.567A20.567,20.567,0,0,1,18.372,9.244L13.012,6.547A14.567,14.567,0,0,0,0,-14.567Z" class="type" id="stuAttr_1568084572514750464_2" transform="translate(315.17130812614636,393.72308991545776)" stroke="rgb(250, 210, 50)" stroke-width="0" stroke-dasharray="0" stroke-linejoin="round" fill="rgb(250, 210, 50)"></path><circle id="entStuF_1568084572514750464_15" class="entStuF" opacity="0" cx="315.17130812614636" cy="393.72308991545776" r="25" stroke="grey" stroke-width="0" fill="rgb(92, 151, 27)"></circle><circle id="entStu_1568086880757678080" class="entStu" opacity="1" cx="30" cy="285.9151871175582" r="6.911307571652645" stroke="grey" stroke-width="0" fill="rgb(115, 166, 59)"></circle><path d="M0,-12.911A12.911,12.911,0,1,1,0,12.911A12.911,12.911,0,1,1,0,-12.911M0,-6.911A6.911,6.911,0,1,0,0,6.911A6.911,6.911,0,1,0,0,-6.911Z" class="typeB" id="stuAttrB_1568086880757678080_0" transform="translate(30,285.9151871175582)" stroke="rgb(115, 166, 59)" stroke-width="0" stroke-dasharray="0" stroke-linejoin="round" fill="rgb(230,230,230)"></path><path d="M0,-12.911A12.911,12.911,0,1,1,-12.911,-0.137L-6.911,-0.073A6.911,6.911,0,1,0,0,-6.911Z" class="type" id="stuAttr_1568086880757678080_0" transform="translate(30,285.9151871175582)" stroke="rgb(255, 77, 109)" stroke-width="0" stroke-dasharray="0" stroke-linejoin="round" fill="rgb(255, 77, 109)"></path><path d="M0,-19.911A19.911,19.911,0,1,1,0,19.911A19.911,19.911,0,1,1,0,-19.911M0,-13.911A13.911,13.911,0,1,0,0,13.911A13.911,13.911,0,1,0,0,-13.911Z" class="typeB" id="stuAttrB_1568086880757678080_2" transform="translate(30,285.9151871175582)" stroke="rgb(115, 166, 59)" stroke-width="0" stroke-dasharray="0" stroke-linejoin="round" fill="rgb(230,230,230)"></path><path d="M0,-19.911A19.911,19.911,0,1,1,0,19.911A19.911,19.911,0,1,1,0,-19.911M0,-13.911A13.911,13.911,0,1,0,0,13.911A13.911,13.911,0,1,0,0,-13.911Z" class="type" id="stuAttr_1568086880757678080_2" transform="translate(30,285.9151871175582)" stroke="rgb(250, 210, 50)" stroke-width="0" stroke-dasharray="0" stroke-linejoin="round" fill="rgb(250, 210, 50)"></path><circle id="entStuF_1568086880757678080_16" class="entStuF" opacity="0" cx="30" cy="285.9151871175582" r="25" stroke="grey" stroke-width="0" fill="rgb(115, 166, 59)"></circle><circle id="entStu_1568084333154205696" class="entStu" opacity="1" cx="401.1924454470324" cy="30" r="6.45216027377727" stroke="grey" stroke-width="0" fill="rgb(131, 176, 82)"></circle><path d="M0,-12.452A12.452,12.452,0,1,1,0,12.452A12.452,12.452,0,1,1,0,-12.452M0,-6.452A6.452,6.452,0,1,0,0,6.452A6.452,6.452,0,1,0,0,-6.452Z" class="typeB" id="stuAttrB_1568084333154205696_0" transform="translate(401.1924454470324,30)" stroke="rgb(131, 176, 82)" stroke-width="0" stroke-dasharray="0" stroke-linejoin="round" fill="rgb(230,230,230)"></path><path d="M0,-12.452A12.452,12.452,0,1,1,-10.825,-6.155L-5.609,-3.189A6.452,6.452,0,1,0,0,-6.452Z" class="type" id="stuAttr_1568084333154205696_0" transform="translate(401.1924454470324,30)" stroke="rgb(255, 77, 109)" stroke-width="0" stroke-dasharray="0" stroke-linejoin="round" fill="rgb(255, 77, 109)"></path><path d="M0,-19.452A19.452,19.452,0,1,1,0,19.452A19.452,19.452,0,1,1,0,-19.452M0,-13.452A13.452,13.452,0,1,0,0,13.452A13.452,13.452,0,1,0,0,-13.452Z" class="typeB" id="stuAttrB_1568084333154205696_2" transform="translate(401.1924454470324,30)" stroke="rgb(131, 176, 82)" stroke-width="0" stroke-dasharray="0" stroke-linejoin="round" fill="rgb(230,230,230)"></path><path d="M0,-19.452A19.452,19.452,0,1,1,-16.407,10.45L-11.346,7.227A13.452,13.452,0,1,0,0,-13.452Z" class="type" id="stuAttr_1568084333154205696_2" transform="translate(401.1924454470324,30)" stroke="rgb(250, 210, 50)" stroke-width="0" stroke-dasharray="0" stroke-linejoin="round" fill="rgb(250, 210, 50)"></path><circle id="entStuF_1568084333154205696_17" class="entStuF" opacity="0" cx="401.1924454470324" cy="30" r="25" stroke="grey" stroke-width="0" fill="rgb(131, 176, 82)"></circle><circle id="entStu_1568085534277042176" class="entStu" opacity="1" cx="285.91413689718485" cy="266.53171697628784" r="7.734778268929132" stroke="grey" stroke-width="0" fill="rgb(85, 147, 18)"></circle><path d="M0,-13.735A13.735,13.735,0,1,1,0,13.735A13.735,13.735,0,1,1,0,-13.735M0,-7.735A7.735,7.735,0,1,0,0,7.735A7.735,7.735,0,1,0,0,-7.735Z" class="typeB" id="stuAttrB_1568085534277042176_0" transform="translate(285.91413689718485,266.53171697628784)" stroke="rgb(85, 147, 18)" stroke-width="0" stroke-dasharray="0" stroke-linejoin="round" fill="rgb(230,230,230)"></path><path d="M0,-13.735A13.735,13.735,0,1,1,-6.473,-12.114L-3.645,-6.822A7.735,7.735,0,1,0,0,-7.735Z" class="type" id="stuAttr_1568085534277042176_0" transform="translate(285.91413689718485,266.53171697628784)" stroke="rgb(255, 77, 109)" stroke-width="0" stroke-dasharray="0" stroke-linejoin="round" fill="rgb(255, 77, 109)"></path><path d="M0,-20.735A20.735,20.735,0,1,1,0,20.735A20.735,20.735,0,1,1,0,-20.735M0,-14.735A14.735,14.735,0,1,0,0,14.735A14.735,14.735,0,1,0,0,-14.735Z" class="typeB" id="stuAttrB_1568085534277042176_2" transform="translate(285.91413689718485,266.53171697628784)" stroke="rgb(85, 147, 18)" stroke-width="0" stroke-dasharray="0" stroke-linejoin="round" fill="rgb(230,230,230)"></path><path d="M0,-20.735A20.735,20.735,0,1,1,-12.307,16.688L-8.746,11.859A14.735,14.735,0,1,0,0,-14.735Z" class="type" id="stuAttr_1568085534277042176_2" transform="translate(285.91413689718485,266.53171697628784)" stroke="rgb(250, 210, 50)" stroke-width="0" stroke-dasharray="0" stroke-linejoin="round" fill="rgb(250, 210, 50)"></path><circle id="entStuF_1568085534277042176_18" class="entStuF" opacity="0" cx="285.91413689718485" cy="266.53171697628784" r="25" stroke="grey" stroke-width="0" fill="rgb(85, 147, 18)"></circle><circle id="entStu_1568086086675263488" class="entStu" opacity="1" cx="422.4278484343216" cy="54.64800784903446" r="5.262940253814344" stroke="grey" stroke-width="0" fill="rgb(174, 203, 142)"></circle><path d="M0,-11.263A11.263,11.263,0,1,1,0,11.263A11.263,11.263,0,1,1,0,-11.263M0,-5.263A5.263,5.263,0,1,0,0,5.263A5.263,5.263,0,1,0,0,-5.263Z" class="typeB" id="stuAttrB_1568086086675263488_0" transform="translate(422.4278484343216,54.64800784903446)" stroke="rgb(174, 203, 142)" stroke-width="0" stroke-dasharray="0" stroke-linejoin="round" fill="rgb(230,230,230)"></path><path d="M0,-11.263A11.263,11.263,0,1,1,-9.206,6.489L-4.302,3.032A5.263,5.263,0,1,0,0,-5.263Z" class="type" id="stuAttr_1568086086675263488_0" transform="translate(422.4278484343216,54.64800784903446)" stroke="rgb(255, 77, 109)" stroke-width="0" stroke-dasharray="0" stroke-linejoin="round" fill="rgb(255, 77, 109)"></path><path d="M0,-18.263A18.263,18.263,0,1,1,0,18.263A18.263,18.263,0,1,1,0,-18.263M0,-12.263A12.263,12.263,0,1,0,0,12.263A12.263,12.263,0,1,0,0,-12.263Z" class="typeB" id="stuAttrB_1568086086675263488_2" transform="translate(422.4278484343216,54.64800784903446)" stroke="rgb(174, 203, 142)" stroke-width="0" stroke-dasharray="0" stroke-linejoin="round" fill="rgb(230,230,230)"></path><path d="M0,-18.263A18.263,18.263,0,1,1,-3.237,17.974L-2.173,12.069A12.263,12.263,0,1,0,0,-12.263Z" class="type" id="stuAttr_1568086086675263488_2" transform="translate(422.4278484343216,54.64800784903446)" stroke="rgb(250, 210, 50)" stroke-width="0" stroke-dasharray="0" stroke-linejoin="round" fill="rgb(250, 210, 50)"></path><circle id="entStuF_1568086086675263488_19" class="entStuF" opacity="0" cx="422.4278484343216" cy="54.64800784903446" r="25" stroke="grey" stroke-width="0" fill="rgb(174, 203, 142)"></circle><circle id="entStu_1568085440383348736" class="entStu" opacity="1" cx="238.67705116070854" cy="82.85803994204917" r="7.324112362754883" stroke="grey" stroke-width="0" fill="rgb(100, 156, 39)"></circle><path d="M0,-13.324A13.324,13.324,0,1,1,0,13.324A13.324,13.324,0,1,1,0,-13.324M0,-7.324A7.324,7.324,0,1,0,0,7.324A7.324,7.324,0,1,0,0,-7.324Z" class="typeB" id="stuAttrB_1568085440383348736_0" transform="translate(238.67705116070854,82.85803994204917)" stroke="rgb(100, 156, 39)" stroke-width="0" stroke-dasharray="0" stroke-linejoin="round" fill="rgb(230,230,230)"></path><path d="M0,-13.324A13.324,13.324,0,1,1,-13.322,0.222L-7.323,0.122A7.324,7.324,0,1,0,0,-7.324Z" class="type" id="stuAttr_1568085440383348736_0" transform="translate(238.67705116070854,82.85803994204917)" stroke="rgb(255, 77, 109)" stroke-width="0" stroke-dasharray="0" stroke-linejoin="round" fill="rgb(255, 77, 109)"></path><path d="M0,-20.324A20.324,20.324,0,1,1,0,20.324A20.324,20.324,0,1,1,0,-20.324M0,-14.324A14.324,14.324,0,1,0,0,14.324A14.324,14.324,0,1,0,0,-14.324Z" class="typeB" id="stuAttrB_1568085440383348736_2" transform="translate(238.67705116070854,82.85803994204917)" stroke="rgb(100, 156, 39)" stroke-width="0" stroke-dasharray="0" stroke-linejoin="round" fill="rgb(230,230,230)"></path><path d="M0,-20.324A20.324,20.324,0,1,1,-13.916,14.812L-9.808,10.439A14.324,14.324,0,1,0,0,-14.324Z" class="type" id="stuAttr_1568085440383348736_2" transform="translate(238.67705116070854,82.85803994204917)" stroke="rgb(250, 210, 50)" stroke-width="0" stroke-dasharray="0" stroke-linejoin="round" fill="rgb(250, 210, 50)"></path><circle id="entStuF_1568085440383348736_20" class="entStuF" opacity="0" cx="238.67705116070854" cy="82.85803994204917" r="25" stroke="grey" stroke-width="0" fill="rgb(100, 156, 39)"></circle><circle id="entStu_1568085384024494080" class="entStu" opacity="1" cx="261.26610705009745" cy="209.5444419177563" r="7.753315271638386" stroke="grey" stroke-width="0" fill="rgb(85, 147, 17)"></circle><path d="M0,-13.753A13.753,13.753,0,1,1,0,13.753A13.753,13.753,0,1,1,0,-13.753M0,-7.753A7.753,7.753,0,1,0,0,7.753A7.753,7.753,0,1,0,0,-7.753Z" class="typeB" id="stuAttrB_1568085384024494080_0" transform="translate(261.26610705009745,209.5444419177563)" stroke="rgb(85, 147, 17)" stroke-width="0" stroke-dasharray="0" stroke-linejoin="round" fill="rgb(230,230,230)"></path><path d="M0,-13.753A13.753,13.753,0,1,1,-6.378,-12.185L-3.596,-6.869A7.753,7.753,0,1,0,0,-7.753Z" class="type" id="stuAttr_1568085384024494080_0" transform="translate(261.26610705009745,209.5444419177563)" stroke="rgb(255, 77, 109)" stroke-width="0" stroke-dasharray="0" stroke-linejoin="round" fill="rgb(255, 77, 109)"></path><path d="M0,-20.753A20.753,20.753,0,1,1,0,20.753A20.753,20.753,0,1,1,0,-20.753M0,-14.753A14.753,14.753,0,1,0,0,14.753A14.753,14.753,0,1,0,0,-14.753Z" class="typeB" id="stuAttrB_1568085384024494080_2" transform="translate(261.26610705009745,209.5444419177563)" stroke="rgb(85, 147, 17)" stroke-width="0" stroke-dasharray="0" stroke-linejoin="round" fill="rgb(230,230,230)"></path><path d="M0,-20.753A20.753,20.753,0,1,1,-1.232,20.717L-0.876,14.727A14.753,14.753,0,1,0,0,-14.753Z" class="type" id="stuAttr_1568085384024494080_2" transform="translate(261.26610705009745,209.5444419177563)" stroke="rgb(250, 210, 50)" stroke-width="0" stroke-dasharray="0" stroke-linejoin="round" fill="rgb(250, 210, 50)"></path><circle id="entStuF_1568085384024494080_21" class="entStuF" opacity="0" cx="261.26610705009745" cy="209.5444419177563" r="25" stroke="grey" stroke-width="0" fill="rgb(85, 147, 17)"></circle><circle id="entStu_1568085246644256768" class="entStu" opacity="1" cx="190.3777707788107" cy="222.7655951573169" r="6.283188364465992" stroke="grey" stroke-width="0" fill="rgb(137, 180, 91)"></circle><path d="M0,-12.283A12.283,12.283,0,1,1,0,12.283A12.283,12.283,0,1,1,0,-12.283M0,-6.283A6.283,6.283,0,1,0,0,6.283A6.283,6.283,0,1,0,0,-6.283Z" class="typeB" id="stuAttrB_1568085246644256768_0" transform="translate(190.3777707788107,222.7655951573169)" stroke="rgb(137, 180, 91)" stroke-width="0" stroke-dasharray="0" stroke-linejoin="round" fill="rgb(230,230,230)"></path><path d="M0,-12.283A12.283,12.283,0,1,1,-7.929,-9.382L-4.056,-4.799A6.283,6.283,0,1,0,0,-6.283Z" class="type" id="stuAttr_1568085246644256768_0" transform="translate(190.3777707788107,222.7655951573169)" stroke="rgb(255, 77, 109)" stroke-width="0" stroke-dasharray="0" stroke-linejoin="round" fill="rgb(255, 77, 109)"></path><path d="M0,-19.283A19.283,19.283,0,1,1,0,19.283A19.283,19.283,0,1,1,0,-19.283M0,-13.283A13.283,13.283,0,1,0,0,13.283A13.283,13.283,0,1,0,0,-13.283Z" class="typeB" id="stuAttrB_1568085246644256768_2" transform="translate(190.3777707788107,222.7655951573169)" stroke="rgb(137, 180, 91)" stroke-width="0" stroke-dasharray="0" stroke-linejoin="round" fill="rgb(230,230,230)"></path><path d="M0,-19.283A19.283,19.283,0,0,1,5.861,18.371L4.037,12.655A13.283,13.283,0,0,0,0,-13.283Z" class="type" id="stuAttr_1568085246644256768_2" transform="translate(190.3777707788107,222.7655951573169)" stroke="rgb(250, 210, 50)" stroke-width="0" stroke-dasharray="0" stroke-linejoin="round" fill="rgb(250, 210, 50)"></path><circle id="entStuF_1568085246644256768_22" class="entStuF" opacity="0" cx="190.3777707788107" cy="222.7655951573169" r="25" stroke="grey" stroke-width="0" fill="rgb(137, 180, 91)"></circle><circle id="entStu_1568085489523822592" class="entStu" opacity="1" cx="108.80494972378783" cy="247.0943380586477" r="7.777555967488949" stroke="grey" stroke-width="0" fill="rgb(84, 146, 16)"></circle><path d="M0,-13.778A13.778,13.778,0,1,1,0,13.778A13.778,13.778,0,1,1,0,-13.778M0,-7.778A7.778,7.778,0,1,0,0,7.778A7.778,7.778,0,1,0,0,-7.778Z" class="typeB" id="stuAttrB_1568085489523822592_0" transform="translate(108.80494972378783,247.0943380586477)" stroke="rgb(84, 146, 16)" stroke-width="0" stroke-dasharray="0" stroke-linejoin="round" fill="rgb(230,230,230)"></path><path d="M0,-13.778A13.778,13.778,0,1,1,-5.861,-12.469L-3.309,-7.039A7.778,7.778,0,1,0,0,-7.778Z" class="type" id="stuAttr_1568085489523822592_0" transform="translate(108.80494972378783,247.0943380586477)" stroke="rgb(255, 77, 109)" stroke-width="0" stroke-dasharray="0" stroke-linejoin="round" fill="rgb(255, 77, 109)"></path><path d="M0,-20.778A20.778,20.778,0,1,1,0,20.778A20.778,20.778,0,1,1,0,-20.778M0,-14.778A14.778,14.778,0,1,0,0,14.778A14.778,14.778,0,1,0,0,-14.778Z" class="typeB" id="stuAttrB_1568085489523822592_2" transform="translate(108.80494972378783,247.0943380586477)" stroke="rgb(84, 146, 16)" stroke-width="0" stroke-dasharray="0" stroke-linejoin="round" fill="rgb(230,230,230)"></path><path d="M0,-20.778A20.778,20.778,0,0,1,9.723,18.362L6.915,13.06A14.778,14.778,0,0,0,0,-14.778Z" class="type" id="stuAttr_1568085489523822592_2" transform="translate(108.80494972378783,247.0943380586477)" stroke="rgb(250, 210, 50)" stroke-width="0" stroke-dasharray="0" stroke-linejoin="round" fill="rgb(250, 210, 50)"></path><circle id="entStuF_1568085489523822592_23" class="entStuF" opacity="0" cx="108.80494972378783" cy="247.0943380586477" r="25" stroke="grey" stroke-width="0" fill="rgb(84, 146, 16)"></circle><circle id="entStu_1568085460331458560" class="entStu" opacity="1" cx="153.68936666695083" cy="327.1921087097386" r="7.764722657921004" stroke="grey" stroke-width="0" fill="rgb(84, 146, 17)"></circle><path d="M0,-13.765A13.765,13.765,0,1,1,0,13.765A13.765,13.765,0,1,1,0,-13.765M0,-7.765A7.765,7.765,0,1,0,0,7.765A7.765,7.765,0,1,0,0,-7.765Z" class="typeB" id="stuAttrB_1568085460331458560_0" transform="translate(153.68936666695083,327.1921087097386)" stroke="rgb(84, 146, 17)" stroke-width="0" stroke-dasharray="0" stroke-linejoin="round" fill="rgb(230,230,230)"></path><path d="M0,-13.765A13.765,13.765,0,1,1,-3.141,-13.402L-1.772,-7.56A7.765,7.765,0,1,0,0,-7.765Z" class="type" id="stuAttr_1568085460331458560_0" transform="translate(153.68936666695083,327.1921087097386)" stroke="rgb(255, 77, 109)" stroke-width="0" stroke-dasharray="0" stroke-linejoin="round" fill="rgb(255, 77, 109)"></path><path d="M0,-20.765A20.765,20.765,0,1,1,0,20.765A20.765,20.765,0,1,1,0,-20.765M0,-14.765A14.765,14.765,0,1,0,0,14.765A14.765,14.765,0,1,0,0,-14.765Z" class="typeB" id="stuAttrB_1568085460331458560_2" transform="translate(153.68936666695083,327.1921087097386)" stroke="rgb(84, 146, 17)" stroke-width="0" stroke-dasharray="0" stroke-linejoin="round" fill="rgb(230,230,230)"></path><path d="M0,-20.765A20.765,20.765,0,0,1,5.602,19.995L3.983,14.217A14.765,14.765,0,0,0,0,-14.765Z" class="type" id="stuAttr_1568085460331458560_2" transform="translate(153.68936666695083,327.1921087097386)" stroke="rgb(250, 210, 50)" stroke-width="0" stroke-dasharray="0" stroke-linejoin="round" fill="rgb(250, 210, 50)"></path><circle id="entStuF_1568085460331458560_24" class="entStuF" opacity="0" cx="153.68936666695083" cy="327.1921087097386" r="25" stroke="grey" stroke-width="0" fill="rgb(84, 146, 17)"></circle><circle id="entStu_1568085357629739008" class="entStu" opacity="1" cx="318.47675341213085" cy="346.23284353279905" r="7.067446171395979" stroke="grey" stroke-width="0" fill="rgb(109, 162, 52)"></circle><path d="M0,-13.067A13.067,13.067,0,1,1,0,13.067A13.067,13.067,0,1,1,0,-13.067M0,-7.067A7.067,7.067,0,1,0,0,7.067A7.067,7.067,0,1,0,0,-7.067Z" class="typeB" id="stuAttrB_1568085357629739008_0" transform="translate(318.47675341213085,346.23284353279905)" stroke="rgb(109, 162, 52)" stroke-width="0" stroke-dasharray="0" stroke-linejoin="round" fill="rgb(230,230,230)"></path><path d="M0,-13.067A13.067,13.067,0,1,1,-1.586,-12.971L-0.858,-7.015A7.067,7.067,0,1,0,0,-7.067Z" class="type" id="stuAttr_1568085357629739008_0" transform="translate(318.47675341213085,346.23284353279905)" stroke="rgb(255, 77, 109)" stroke-width="0" stroke-dasharray="0" stroke-linejoin="round" fill="rgb(255, 77, 109)"></path><path d="M0,-20.067A20.067,20.067,0,1,1,0,20.067A20.067,20.067,0,1,1,0,-20.067M0,-14.067A14.067,14.067,0,1,0,0,14.067A14.067,14.067,0,1,0,0,-14.067Z" class="typeB" id="stuAttrB_1568085357629739008_2" transform="translate(318.47675341213085,346.23284353279905)" stroke="rgb(109, 162, 52)" stroke-width="0" stroke-dasharray="0" stroke-linejoin="round" fill="rgb(230,230,230)"></path><path d="M0,-20.067A20.067,20.067,0,0,1,14.169,14.211L9.932,9.962A14.067,14.067,0,0,0,0,-14.067Z" class="type" id="stuAttr_1568085357629739008_2" transform="translate(318.47675341213085,346.23284353279905)" stroke="rgb(250, 210, 50)" stroke-width="0" stroke-dasharray="0" stroke-linejoin="round" fill="rgb(250, 210, 50)"></path><circle id="entStuF_1568085357629739008_25" class="entStuF" opacity="0" cx="318.47675341213085" cy="346.23284353279905" r="25" stroke="grey" stroke-width="0" fill="rgb(109, 162, 52)"></circle><circle id="entStu_1568085219708432384" class="entStu" opacity="1" cx="204.53242740229243" cy="365.65605017513616" r="7.547269356908598" stroke="grey" stroke-width="0" fill="rgb(92, 151, 28)"></circle><path d="M0,-13.547A13.547,13.547,0,1,1,0,13.547A13.547,13.547,0,1,1,0,-13.547M0,-7.547A7.547,7.547,0,1,0,0,7.547A7.547,7.547,0,1,0,0,-7.547Z" class="typeB" id="stuAttrB_1568085219708432384_0" transform="translate(204.53242740229243,365.65605017513616)" stroke="rgb(92, 151, 28)" stroke-width="0" stroke-dasharray="0" stroke-linejoin="round" fill="rgb(230,230,230)"></path><path d="M0,-13.547A13.547,13.547,0,1,1,-3.678,-13.038L-2.049,-7.264A7.547,7.547,0,1,0,0,-7.547Z" class="type" id="stuAttr_1568085219708432384_0" transform="translate(204.53242740229243,365.65605017513616)" stroke="rgb(255, 77, 109)" stroke-width="0" stroke-dasharray="0" stroke-linejoin="round" fill="rgb(255, 77, 109)"></path><path d="M0,-20.547A20.547,20.547,0,1,1,0,20.547A20.547,20.547,0,1,1,0,-20.547M0,-14.547A14.547,14.547,0,1,0,0,14.547A14.547,14.547,0,1,0,0,-14.547Z" class="typeB" id="stuAttrB_1568085219708432384_2" transform="translate(204.53242740229243,365.65605017513616)" stroke="rgb(92, 151, 28)" stroke-width="0" stroke-dasharray="0" stroke-linejoin="round" fill="rgb(230,230,230)"></path><path d="M0,-20.547A20.547,20.547,0,0,1,13.527,15.467L9.577,10.95A14.547,14.547,0,0,0,0,-14.547Z" class="type" id="stuAttr_1568085219708432384_2" transform="translate(204.53242740229243,365.65605017513616)" stroke="rgb(250, 210, 50)" stroke-width="0" stroke-dasharray="0" stroke-linejoin="round" fill="rgb(250, 210, 50)"></path><circle id="entStuF_1568085219708432384_26" class="entStuF" opacity="0" cx="204.53242740229243" cy="365.65605017513616" r="25" stroke="grey" stroke-width="0" fill="rgb(92, 151, 28)"></circle><circle id="entStu_1568085473270894592" class="entStu" opacity="1" cx="355.9428441155186" cy="399.2798126990531" r="7.774347640096963" stroke="grey" stroke-width="0" fill="rgb(84, 146, 16)"></circle><path d="M0,-13.774A13.774,13.774,0,1,1,0,13.774A13.774,13.774,0,1,1,0,-13.774M0,-7.774A7.774,7.774,0,1,0,0,7.774A7.774,7.774,0,1,0,0,-7.774Z" class="typeB" id="stuAttrB_1568085473270894592_0" transform="translate(355.9428441155186,399.2798126990531)" stroke="rgb(84, 146, 16)" stroke-width="0" stroke-dasharray="0" stroke-linejoin="round" fill="rgb(230,230,230)"></path><path d="M0,-13.774A13.774,13.774,0,1,1,-6.295,-12.252L-3.553,-6.915A7.774,7.774,0,1,0,0,-7.774Z" class="type" id="stuAttr_1568085473270894592_0" transform="translate(355.9428441155186,399.2798126990531)" stroke="rgb(255, 77, 109)" stroke-width="0" stroke-dasharray="0" stroke-linejoin="round" fill="rgb(255, 77, 109)"></path><path d="M0,-20.774A20.774,20.774,0,1,1,0,20.774A20.774,20.774,0,1,1,0,-20.774M0,-14.774A14.774,14.774,0,1,0,0,14.774A14.774,14.774,0,1,0,0,-14.774Z" class="typeB" id="stuAttrB_1568085473270894592_2" transform="translate(355.9428441155186,399.2798126990531)" stroke="rgb(84, 146, 16)" stroke-width="0" stroke-dasharray="0" stroke-linejoin="round" fill="rgb(230,230,230)"></path><path d="M0,-20.774A20.774,20.774,0,0,1,0.37,20.771L0.263,14.772A14.774,14.774,0,0,0,0,-14.774Z" class="type" id="stuAttr_1568085473270894592_2" transform="translate(355.9428441155186,399.2798126990531)" stroke="rgb(250, 210, 50)" stroke-width="0" stroke-dasharray="0" stroke-linejoin="round" fill="rgb(250, 210, 50)"></path><circle id="entStuF_1568085473270894592_27" class="entStuF" opacity="0" cx="355.9428441155186" cy="399.2798126990531" r="25" stroke="grey" stroke-width="0" fill="rgb(84, 146, 16)"></circle><circle id="entStu_1568085312821989376" class="entStu" opacity="1" cx="329.6635544405336" cy="455.5633506329965" r="7.06174247825467" stroke="grey" stroke-width="0" fill="rgb(110, 162, 52)"></circle><path d="M0,-13.062A13.062,13.062,0,1,1,0,13.062A13.062,13.062,0,1,1,0,-13.062M0,-7.062A7.062,7.062,0,1,0,0,7.062A7.062,7.062,0,1,0,0,-7.062Z" class="typeB" id="stuAttrB_1568085312821989376_0" transform="translate(329.6635544405336,455.5633506329965)" stroke="rgb(110, 162, 52)" stroke-width="0" stroke-dasharray="0" stroke-linejoin="round" fill="rgb(230,230,230)"></path><path d="M0,-13.062A13.062,13.062,0,1,1,-0.962,-13.026L-0.52,-7.043A7.062,7.062,0,1,0,0,-7.062Z" class="type" id="stuAttr_1568085312821989376_0" transform="translate(329.6635544405336,455.5633506329965)" stroke="rgb(255, 77, 109)" stroke-width="0" stroke-dasharray="0" stroke-linejoin="round" fill="rgb(255, 77, 109)"></path><path d="M0,-20.062A20.062,20.062,0,1,1,0,20.062A20.062,20.062,0,1,1,0,-20.062M0,-14.062A14.062,14.062,0,1,0,0,14.062A14.062,14.062,0,1,0,0,-14.062Z" class="typeB" id="stuAttrB_1568085312821989376_2" transform="translate(329.6635544405336,455.5633506329965)" stroke="rgb(110, 162, 52)" stroke-width="0" stroke-dasharray="0" stroke-linejoin="round" fill="rgb(230,230,230)"></path><path d="M0,-20.062A20.062,20.062,0,0,1,17.588,9.65L12.328,6.764A14.062,14.062,0,0,0,0,-14.062Z" class="type" id="stuAttr_1568085312821989376_2" transform="translate(329.6635544405336,455.5633506329965)" stroke="rgb(250, 210, 50)" stroke-width="0" stroke-dasharray="0" stroke-linejoin="round" fill="rgb(250, 210, 50)"></path><circle id="entStuF_1568085312821989376_28" class="entStuF" opacity="0" cx="329.6635544405336" cy="455.5633506329965" r="25" stroke="grey" stroke-width="0" fill="rgb(110, 162, 52)"></circle><circle id="entStu_1568085354429485056" class="entStu" opacity="1" cx="181.61719291398362" cy="279.0944523861921" r="5.8835733637530305" stroke="grey" stroke-width="0" fill="rgb(152, 189, 111)"></circle><path d="M0,-11.884A11.884,11.884,0,1,1,0,11.884A11.884,11.884,0,1,1,0,-11.884M0,-5.884A5.884,5.884,0,1,0,0,5.884A5.884,5.884,0,1,0,0,-5.884Z" class="typeB" id="stuAttrB_1568085354429485056_0" transform="translate(181.61719291398362,279.0944523861921)" stroke="rgb(152, 189, 111)" stroke-width="0" stroke-dasharray="0" stroke-linejoin="round" fill="rgb(230,230,230)"></path><path d="M0,-11.884A11.884,11.884,0,1,1,-5.206,-10.683L-2.577,-5.289A5.884,5.884,0,1,0,0,-5.884Z" class="type" id="stuAttr_1568085354429485056_0" transform="translate(181.61719291398362,279.0944523861921)" stroke="rgb(255, 77, 109)" stroke-width="0" stroke-dasharray="0" stroke-linejoin="round" fill="rgb(255, 77, 109)"></path><path d="M0,-18.884A18.884,18.884,0,1,1,0,18.884A18.884,18.884,0,1,1,0,-18.884M0,-12.884A12.884,12.884,0,1,0,0,12.884A12.884,12.884,0,1,0,0,-12.884Z" class="typeB" id="stuAttrB_1568085354429485056_2" transform="translate(181.61719291398362,279.0944523861921)" stroke="rgb(152, 189, 111)" stroke-width="0" stroke-dasharray="0" stroke-linejoin="round" fill="rgb(230,230,230)"></path><path d="M0,-18.884A18.884,18.884,0,0,1,14.251,12.389L9.723,8.453A12.884,12.884,0,0,0,0,-12.884Z" class="type" id="stuAttr_1568085354429485056_2" transform="translate(181.61719291398362,279.0944523861921)" stroke="rgb(250, 210, 50)" stroke-width="0" stroke-dasharray="0" stroke-linejoin="round" fill="rgb(250, 210, 50)"></path><circle id="entStuF_1568085354429485056_29" class="entStuF" opacity="0" cx="181.61719291398362" cy="279.0944523861921" r="25" stroke="grey" stroke-width="0" fill="rgb(152, 189, 111)"></circle><circle id="entStu_1568084246709600256" class="entStu" opacity="1" cx="224.40416502412378" cy="318.73542715038485" r="5.866818765150435" stroke="grey" stroke-width="0" fill="rgb(152, 190, 112)"></circle><path d="M0,-11.867A11.867,11.867,0,1,1,0,11.867A11.867,11.867,0,1,1,0,-11.867M0,-5.867A5.867,5.867,0,1,0,0,5.867A5.867,5.867,0,1,0,0,-5.867Z" class="typeB" id="stuAttrB_1568084246709600256_0" transform="translate(224.40416502412378,318.73542715038485)" stroke="rgb(152, 190, 112)" stroke-width="0" stroke-dasharray="0" stroke-linejoin="round" fill="rgb(230,230,230)"></path><path d="M0,-11.867A11.867,11.867,0,1,1,-0.192,-11.865L-0.095,-5.866A5.867,5.867,0,1,0,0,-5.867Z" class="type" id="stuAttr_1568084246709600256_0" transform="translate(224.40416502412378,318.73542715038485)" stroke="rgb(255, 77, 109)" stroke-width="0" stroke-dasharray="0" stroke-linejoin="round" fill="rgb(255, 77, 109)"></path><path d="M0,-18.867A18.867,18.867,0,1,1,0,18.867A18.867,18.867,0,1,1,0,-18.867M0,-12.867A12.867,12.867,0,1,0,0,12.867A12.867,12.867,0,1,0,0,-12.867Z" class="typeB" id="stuAttrB_1568084246709600256_2" transform="translate(224.40416502412378,318.73542715038485)" stroke="rgb(152, 190, 112)" stroke-width="0" stroke-dasharray="0" stroke-linejoin="round" fill="rgb(230,230,230)"></path><path d="M0,-18.867A18.867,18.867,0,0,1,14.741,11.776L10.053,8.031A12.867,12.867,0,0,0,0,-12.867Z" class="type" id="stuAttr_1568084246709600256_2" transform="translate(224.40416502412378,318.73542715038485)" stroke="rgb(250, 210, 50)" stroke-width="0" stroke-dasharray="0" stroke-linejoin="round" fill="rgb(250, 210, 50)"></path><circle id="entStuF_1568084246709600256_30" class="entStuF" opacity="0" cx="224.40416502412378" cy="318.73542715038485" r="25" stroke="grey" stroke-width="0" fill="rgb(152, 190, 112)"></circle><circle id="entStu_1568100814042628096" class="entStu" opacity="1" cx="233.43906794494328" cy="256.9299463282535" r="7.360473406530729" stroke="grey" stroke-width="0" fill="rgb(99, 156, 37)"></circle><path d="M0,-13.36A13.36,13.36,0,1,1,0,13.36A13.36,13.36,0,1,1,0,-13.36M0,-7.36A7.36,7.36,0,1,0,0,7.36A7.36,7.36,0,1,0,0,-7.36Z" class="typeB" id="stuAttrB_1568100814042628096_0" transform="translate(233.43906794494328,256.9299463282535)" stroke="rgb(99, 156, 37)" stroke-width="0" stroke-dasharray="0" stroke-linejoin="round" fill="rgb(230,230,230)"></path><path d="M0,-13.36A13.36,13.36,0,1,1,-8.969,-9.903L-4.941,-5.456A7.36,7.36,0,1,0,0,-7.36Z" class="type" id="stuAttr_1568100814042628096_0" transform="translate(233.43906794494328,256.9299463282535)" stroke="rgb(255, 77, 109)" stroke-width="0" stroke-dasharray="0" stroke-linejoin="round" fill="rgb(255, 77, 109)"></path><path d="M0,-20.36A20.36,20.36,0,1,1,0,20.36A20.36,20.36,0,1,1,0,-20.36M0,-14.36A14.36,14.36,0,1,0,0,14.36A14.36,14.36,0,1,0,0,-14.36Z" class="typeB" id="stuAttrB_1568100814042628096_2" transform="translate(233.43906794494328,256.9299463282535)" stroke="rgb(99, 156, 37)" stroke-width="0" stroke-dasharray="0" stroke-linejoin="round" fill="rgb(230,230,230)"></path><path d="M0,-20.36A20.36,20.36,0,1,1,-16.908,11.343L-11.925,8A14.36,14.36,0,1,0,0,-14.36Z" class="type" id="stuAttr_1568100814042628096_2" transform="translate(233.43906794494328,256.9299463282535)" stroke="rgb(250, 210, 50)" stroke-width="0" stroke-dasharray="0" stroke-linejoin="round" fill="rgb(250, 210, 50)"></path><circle id="entStuF_1568100814042628096_31" class="entStuF" opacity="0" cx="233.43906794494328" cy="256.9299463282535" r="25" stroke="grey" stroke-width="0" fill="rgb(99, 156, 37)"></circle><circle id="entStu_1568086237561163776" class="entStu" opacity="1" cx="156.428323191615" cy="399.3276047607695" r="5.8482817624411805" stroke="grey" stroke-width="0" fill="rgb(153, 190, 113)"></circle><path d="M0,-11.848A11.848,11.848,0,1,1,0,11.848A11.848,11.848,0,1,1,0,-11.848M0,-5.848A5.848,5.848,0,1,0,0,5.848A5.848,5.848,0,1,0,0,-5.848Z" class="typeB" id="stuAttrB_1568086237561163776_0" transform="translate(156.428323191615,399.3276047607695)" stroke="rgb(153, 190, 113)" stroke-width="0" stroke-dasharray="0" stroke-linejoin="round" fill="rgb(230,230,230)"></path><path d="M0,-11.848A11.848,11.848,0,1,1,-5.859,-10.298L-2.892,-5.083A5.848,5.848,0,1,0,0,-5.848Z" class="type" id="stuAttr_1568086237561163776_0" transform="translate(156.428323191615,399.3276047607695)" stroke="rgb(255, 77, 109)" stroke-width="0" stroke-dasharray="0" stroke-linejoin="round" fill="rgb(255, 77, 109)"></path><path d="M0,-18.848A18.848,18.848,0,1,1,0,18.848A18.848,18.848,0,1,1,0,-18.848M0,-12.848A12.848,12.848,0,1,0,0,12.848A12.848,12.848,0,1,0,0,-12.848Z" class="typeB" id="stuAttrB_1568086237561163776_2" transform="translate(156.428323191615,399.3276047607695)" stroke="rgb(153, 190, 113)" stroke-width="0" stroke-dasharray="0" stroke-linejoin="round" fill="rgb(230,230,230)"></path><path d="M0,-18.848A18.848,18.848,0,0,1,8.721,16.709L5.945,11.39A12.848,12.848,0,0,0,0,-12.848Z" class="type" id="stuAttr_1568086237561163776_2" transform="translate(156.428323191615,399.3276047607695)" stroke="rgb(250, 210, 50)" stroke-width="0" stroke-dasharray="0" stroke-linejoin="round" fill="rgb(250, 210, 50)"></path><circle id="entStuF_1568086237561163776_32" class="entStuF" opacity="0" cx="156.428323191615" cy="399.3276047607695" r="25" stroke="grey" stroke-width="0" fill="rgb(153, 190, 113)"></circle><circle id="entStu_1568085194316124160" class="entStu" opacity="1" cx="90.53841817763332" cy="337.5296763343053" r="5.819050335091973" stroke="grey" stroke-width="0" fill="rgb(154, 191, 114)"></circle><path d="M0,-11.819A11.819,11.819,0,1,1,0,11.819A11.819,11.819,0,1,1,0,-11.819M0,-5.819A5.819,5.819,0,1,0,0,5.819A5.819,5.819,0,1,0,0,-5.819Z" class="typeB" id="stuAttrB_1568085194316124160_0" transform="translate(90.53841817763332,337.5296763343053)" stroke="rgb(154, 191, 114)" stroke-width="0" stroke-dasharray="0" stroke-linejoin="round" fill="rgb(230,230,230)"></path><path d="M0,-11.819A11.819,11.819,0,1,1,-9.269,-7.334L-4.563,-3.611A5.819,5.819,0,1,0,0,-5.819Z" class="type" id="stuAttr_1568085194316124160_0" transform="translate(90.53841817763332,337.5296763343053)" stroke="rgb(255, 77, 109)" stroke-width="0" stroke-dasharray="0" stroke-linejoin="round" fill="rgb(255, 77, 109)"></path><path d="M0,-18.819A18.819,18.819,0,1,1,0,18.819A18.819,18.819,0,1,1,0,-18.819M0,-12.819A12.819,12.819,0,1,0,0,12.819A12.819,12.819,0,1,0,0,-12.819Z" class="typeB" id="stuAttrB_1568085194316124160_2" transform="translate(90.53841817763332,337.5296763343053)" stroke="rgb(154, 191, 114)" stroke-width="0" stroke-dasharray="0" stroke-linejoin="round" fill="rgb(230,230,230)"></path><path d="M0,-18.819A18.819,18.819,0,0,1,10.807,15.407L7.361,10.495A12.819,12.819,0,0,0,0,-12.819Z" class="type" id="stuAttr_1568085194316124160_2" transform="translate(90.53841817763332,337.5296763343053)" stroke="rgb(250, 210, 50)" stroke-width="0" stroke-dasharray="0" stroke-linejoin="round" fill="rgb(250, 210, 50)"></path><circle id="entStuF_1568085194316124160_33" class="entStuF" opacity="0" cx="90.53841817763332" cy="337.5296763343053" r="25" stroke="grey" stroke-width="0" fill="rgb(154, 191, 114)"></circle><circle id="entStu_1568085777081106432" class="entStu" opacity="1" cx="305.2822087204109" cy="513" r="5.681448738057893" stroke="grey" stroke-width="0" fill="rgb(159, 194, 121)"></circle><path d="M0,-11.681A11.681,11.681,0,1,1,0,11.681A11.681,11.681,0,1,1,0,-11.681M0,-5.681A5.681,5.681,0,1,0,0,5.681A5.681,5.681,0,1,0,0,-5.681Z" class="typeB" id="stuAttrB_1568085777081106432_0" transform="translate(305.2822087204109,513)" stroke="rgb(159, 194, 121)" stroke-width="0" stroke-dasharray="0" stroke-linejoin="round" fill="rgb(230,230,230)"></path><path d="M0,-11.681A11.681,11.681,0,1,1,-6.82,-9.484L-3.317,-4.613A5.681,5.681,0,1,0,0,-5.681Z" class="type" id="stuAttr_1568085777081106432_0" transform="translate(305.2822087204109,513)" stroke="rgb(255, 77, 109)" stroke-width="0" stroke-dasharray="0" stroke-linejoin="round" fill="rgb(255, 77, 109)"></path><path d="M0,-18.681A18.681,18.681,0,1,1,0,18.681A18.681,18.681,0,1,1,0,-18.681M0,-12.681A12.681,12.681,0,1,0,0,12.681A12.681,12.681,0,1,0,0,-12.681Z" class="typeB" id="stuAttrB_1568085777081106432_2" transform="translate(305.2822087204109,513)" stroke="rgb(159, 194, 121)" stroke-width="0" stroke-dasharray="0" stroke-linejoin="round" fill="rgb(230,230,230)"></path><path d="M0,-18.681A18.681,18.681,0,0,1,18.268,3.909L12.401,2.654A12.681,12.681,0,0,0,0,-12.681Z" class="type" id="stuAttr_1568085777081106432_2" transform="translate(305.2822087204109,513)" stroke="rgb(250, 210, 50)" stroke-width="0" stroke-dasharray="0" stroke-linejoin="round" fill="rgb(250, 210, 50)"></path><circle id="entStuF_1568085777081106432_34" class="entStuF" opacity="0" cx="305.2822087204109" cy="513" r="25" stroke="grey" stroke-width="0" fill="rgb(159, 194, 121)"></circle><circle id="entStu_1568085054486409216" class="entStu" opacity="1" cx="238.1227163594737" cy="458.89153233447644" r="7.987166690432055" stroke="grey" stroke-width="0" fill="rgb(76, 141, 6)"></circle><path d="M0,-13.987A13.987,13.987,0,1,1,0,13.987A13.987,13.987,0,1,1,0,-13.987M0,-7.987A7.987,7.987,0,1,0,0,7.987A7.987,7.987,0,1,0,0,-7.987Z" class="typeB" id="stuAttrB_1568085054486409216_0" transform="translate(238.1227163594737,458.89153233447644)" stroke="rgb(76, 141, 6)" stroke-width="0" stroke-dasharray="0" stroke-linejoin="round" fill="rgb(230,230,230)"></path><path d="M0,-13.987A13.987,13.987,0,1,1,-6.088,-12.593L-3.476,-7.191A7.987,7.987,0,1,0,0,-7.987Z" class="type" id="stuAttr_1568085054486409216_0" transform="translate(238.1227163594737,458.89153233447644)" stroke="rgb(255, 77, 109)" stroke-width="0" stroke-dasharray="0" stroke-linejoin="round" fill="rgb(255, 77, 109)"></path><path d="M0,-20.987A20.987,20.987,0,1,1,0,20.987A20.987,20.987,0,1,1,0,-20.987M0,-14.987A14.987,14.987,0,1,0,0,14.987A14.987,14.987,0,1,0,0,-14.987Z" class="typeB" id="stuAttrB_1568085054486409216_2" transform="translate(238.1227163594737,458.89153233447644)" stroke="rgb(76, 141, 6)" stroke-width="0" stroke-dasharray="0" stroke-linejoin="round" fill="rgb(230,230,230)"></path><path d="M0,-20.987A20.987,20.987,0,1,1,-8.816,19.046L-6.296,13.601A14.987,14.987,0,1,0,0,-14.987Z" class="type" id="stuAttr_1568085054486409216_2" transform="translate(238.1227163594737,458.89153233447644)" stroke="rgb(250, 210, 50)" stroke-width="0" stroke-dasharray="0" stroke-linejoin="round" fill="rgb(250, 210, 50)"></path><circle id="entStuF_1568085054486409216_35" class="entStuF" opacity="0" cx="238.1227163594737" cy="458.89153233447644" r="25" stroke="grey" stroke-width="0" fill="rgb(76, 141, 6)"></circle><circle id="entStu_1568085466115416064" class="entStu" opacity="1" cx="299.271339644538" cy="172.62565491145384" r="7.115927563097105" stroke="grey" stroke-width="0" fill="rgb(108, 161, 49)"></circle><path d="M0,-13.116A13.116,13.116,0,1,1,0,13.116A13.116,13.116,0,1,1,0,-13.116M0,-7.116A7.116,7.116,0,1,0,0,7.116A7.116,7.116,0,1,0,0,-7.116Z" class="typeB" id="stuAttrB_1568085466115416064_0" transform="translate(299.271339644538,172.62565491145384)" stroke="rgb(108, 161, 49)" stroke-width="0" stroke-dasharray="0" stroke-linejoin="round" fill="rgb(230,230,230)"></path><path d="M0,-13.116A13.116,13.116,0,1,1,-13.101,-0.624L-7.108,-0.338A7.116,7.116,0,1,0,0,-7.116Z" class="type" id="stuAttr_1568085466115416064_0" transform="translate(299.271339644538,172.62565491145384)" stroke="rgb(255, 77, 109)" stroke-width="0" stroke-dasharray="0" stroke-linejoin="round" fill="rgb(255, 77, 109)"></path><path d="M0,-20.116A20.116,20.116,0,1,1,0,20.116A20.116,20.116,0,1,1,0,-20.116M0,-14.116A14.116,14.116,0,1,0,0,14.116A14.116,14.116,0,1,0,0,-14.116Z" class="typeB" id="stuAttrB_1568085466115416064_2" transform="translate(299.271339644538,172.62565491145384)" stroke="rgb(108, 161, 49)" stroke-width="0" stroke-dasharray="0" stroke-linejoin="round" fill="rgb(230,230,230)"></path><path d="M0,-20.116A20.116,20.116,0,1,1,-5.657,19.304L-3.97,13.546A14.116,14.116,0,1,0,0,-14.116Z" class="type" id="stuAttr_1568085466115416064_2" transform="translate(299.271339644538,172.62565491145384)" stroke="rgb(250, 210, 50)" stroke-width="0" stroke-dasharray="0" stroke-linejoin="round" fill="rgb(250, 210, 50)"></path><circle id="entStuF_1568085466115416064_36" class="entStuF" opacity="0" cx="299.271339644538" cy="172.62565491145384" r="25" stroke="grey" stroke-width="0" fill="rgb(108, 161, 49)"></circle><circle id="entStu_1568085386184560640" class="entStu" opacity="1" cx="150.63026650320725" cy="472.00220579874934" r="7.3269642093255385" stroke="grey" stroke-width="0" fill="rgb(100, 156, 39)"></circle><path d="M0,-13.327A13.327,13.327,0,1,1,0,13.327A13.327,13.327,0,1,1,0,-13.327M0,-7.327A7.327,7.327,0,1,0,0,7.327A7.327,7.327,0,1,0,0,-7.327Z" class="typeB" id="stuAttrB_1568085386184560640_0" transform="translate(150.63026650320725,472.00220579874934)" stroke="rgb(100, 156, 39)" stroke-width="0" stroke-dasharray="0" stroke-linejoin="round" fill="rgb(230,230,230)"></path><path d="M0,-13.327A13.327,13.327,0,1,1,-10.575,-8.11L-5.814,-4.459A7.327,7.327,0,1,0,0,-7.327Z" class="type" id="stuAttr_1568085386184560640_0" transform="translate(150.63026650320725,472.00220579874934)" stroke="rgb(255, 77, 109)" stroke-width="0" stroke-dasharray="0" stroke-linejoin="round" fill="rgb(255, 77, 109)"></path><path d="M0,-20.327A20.327,20.327,0,1,1,0,20.327A20.327,20.327,0,1,1,0,-20.327M0,-14.327A14.327,14.327,0,1,0,0,14.327A14.327,14.327,0,1,0,0,-14.327Z" class="typeB" id="stuAttrB_1568085386184560640_2" transform="translate(150.63026650320725,472.00220579874934)" stroke="rgb(100, 156, 39)" stroke-width="0" stroke-dasharray="0" stroke-linejoin="round" fill="rgb(230,230,230)"></path><path d="M0,-20.327A20.327,20.327,0,0,1,9.512,17.964L6.704,12.661A14.327,14.327,0,0,0,0,-14.327Z" class="type" id="stuAttr_1568085386184560640_2" transform="translate(150.63026650320725,472.00220579874934)" stroke="rgb(250, 210, 50)" stroke-width="0" stroke-dasharray="0" stroke-linejoin="round" fill="rgb(250, 210, 50)"></path><circle id="entStuF_1568085386184560640_37" class="entStuF" opacity="0" cx="150.63026650320725" cy="472.00220579874934" r="25" stroke="grey" stroke-width="0" fill="rgb(100, 156, 39)"></circle><circle id="entStu_1568084277583872000" class="entStu" opacity="1" cx="33.4668519370563" cy="387.09061270149823" r="6.251105090546129" stroke="grey" stroke-width="0" fill="rgb(139, 181, 92)"></circle><path d="M0,-12.251A12.251,12.251,0,1,1,0,12.251A12.251,12.251,0,1,1,0,-12.251M0,-6.251A6.251,6.251,0,1,0,0,6.251A6.251,6.251,0,1,0,0,-6.251Z" class="typeB" id="stuAttrB_1568084277583872000_0" transform="translate(33.4668519370563,387.09061270149823)" stroke="rgb(139, 181, 92)" stroke-width="0" stroke-dasharray="0" stroke-linejoin="round" fill="rgb(230,230,230)"></path><path d="M0,-12.251A12.251,12.251,0,1,1,-12.062,-2.147L-6.154,-1.095A6.251,6.251,0,1,0,0,-6.251Z" class="type" id="stuAttr_1568084277583872000_0" transform="translate(33.4668519370563,387.09061270149823)" stroke="rgb(255, 77, 109)" stroke-width="0" stroke-dasharray="0" stroke-linejoin="round" fill="rgb(255, 77, 109)"></path><path d="M0,-19.251A19.251,19.251,0,1,1,0,19.251A19.251,19.251,0,1,1,0,-19.251M0,-13.251A13.251,13.251,0,1,0,0,13.251A13.251,13.251,0,1,0,0,-13.251Z" class="typeB" id="stuAttrB_1568084277583872000_2" transform="translate(33.4668519370563,387.09061270149823)" stroke="rgb(139, 181, 92)" stroke-width="0" stroke-dasharray="0" stroke-linejoin="round" fill="rgb(230,230,230)"></path><path d="M0,-19.251A19.251,19.251,0,1,1,-6.822,18.002L-4.696,12.391A13.251,13.251,0,1,0,0,-13.251Z" class="type" id="stuAttr_1568084277583872000_2" transform="translate(33.4668519370563,387.09061270149823)" stroke="rgb(250, 210, 50)" stroke-width="0" stroke-dasharray="0" stroke-linejoin="round" fill="rgb(250, 210, 50)"></path><circle id="entStuF_1568084277583872000_38" class="entStuF" opacity="0" cx="33.4668519370563" cy="387.09061270149823" r="25" stroke="grey" stroke-width="0" fill="rgb(139, 181, 92)"></circle><circle id="entStu_1568083537633157120" class="entStu" opacity="1" cx="144.08735418999922" cy="160.67200009780728" r="7.350491943533438" stroke="grey" stroke-width="0" fill="rgb(99, 156, 37)"></circle><path d="M0,-13.35A13.35,13.35,0,1,1,0,13.35A13.35,13.35,0,1,1,0,-13.35M0,-7.35A7.35,7.35,0,1,0,0,7.35A7.35,7.35,0,1,0,0,-7.35Z" class="typeB" id="stuAttrB_1568083537633157120_0" transform="translate(144.08735418999922,160.67200009780728)" stroke="rgb(99, 156, 37)" stroke-width="0" stroke-dasharray="0" stroke-linejoin="round" fill="rgb(230,230,230)"></path><path d="M0,-13.35A13.35,13.35,0,1,1,-6.409,-11.711L-3.529,-6.448A7.35,7.35,0,1,0,0,-7.35Z" class="type" id="stuAttr_1568083537633157120_0" transform="translate(144.08735418999922,160.67200009780728)" stroke="rgb(255, 77, 109)" stroke-width="0" stroke-dasharray="0" stroke-linejoin="round" fill="rgb(255, 77, 109)"></path><path d="M0,-20.35A20.35,20.35,0,1,1,0,20.35A20.35,20.35,0,1,1,0,-20.35M0,-14.35A14.35,14.35,0,1,0,0,14.35A14.35,14.35,0,1,0,0,-14.35Z" class="typeB" id="stuAttrB_1568083537633157120_2" transform="translate(144.08735418999922,160.67200009780728)" stroke="rgb(99, 156, 37)" stroke-width="0" stroke-dasharray="0" stroke-linejoin="round" fill="rgb(230,230,230)"></path><path d="M0,-20.35A20.35,20.35,0,0,1,7.662,18.853L5.403,13.295A14.35,14.35,0,0,0,0,-14.35Z" class="type" id="stuAttr_1568083537633157120_2" transform="translate(144.08735418999922,160.67200009780728)" stroke="rgb(250, 210, 50)" stroke-width="0" stroke-dasharray="0" stroke-linejoin="round" fill="rgb(250, 210, 50)"></path><circle id="entStuF_1568083537633157120_39" class="entStuF" opacity="0" cx="144.08735418999922" cy="160.67200009780728" r="25" stroke="grey" stroke-width="0" fill="rgb(99, 156, 37)"></circle><path class="counter" d="M-24.73,7.69A25.897,25.897,0,0,1,17.707,-18.898A25.897,25.897,0,0,0,-24.73,7.69Z" style="stroke: rgb(253, 174, 134); stroke-width: 3px; opacity: 1;" transform="translate(131.4856121076703,58.601757719134156)"></path><path class="counter" d="M-8.856,-25.849A27.324,27.324,0,0,1,15.763,-22.319A27.324,27.324,0,0,0,-8.856,-25.849Z" style="stroke: rgb(253, 174, 134); stroke-width: 3px; opacity: 1;" transform="translate(238.67705116070854,82.85803994204917)"></path><path class="counter" d="M-24.998,-8.649A26.452,26.452,0,0,1,22.944,-13.163A26.452,26.452,0,0,0,-24.998,-8.649Z" style="stroke: rgb(253, 174, 134); stroke-width: 3px; opacity: 1;" transform="translate(401.1924454470324,30)"></path><path class="counter" d="M17.064,-18.629A25.263,25.263,0,0,1,24.543,-5.986A25.263,25.263,0,0,0,17.064,-18.629Z" style="stroke: rgb(253, 174, 134); stroke-width: 3px; opacity: 1;" transform="translate(422.4278484343216,54.64800784903446)"></path><path class="counter" d="M15.339,-17.138A23,23,0,0,1,21.643,7.782A23,23,0,0,0,15.339,-17.138Z" style="stroke: rgb(253, 174, 134); stroke-width: 3px; opacity: 1;" transform="translate(456,106.45355951267521)"></path><path class="counter" d="M25.179,-6.85A26.094,26.094,0,0,1,17.585,19.279A26.094,26.094,0,0,0,25.179,-6.85Z" style="stroke: rgb(253, 174, 134); stroke-width: 3px; opacity: 1;" transform="translate(450.55168880288403,169.157344837915)"></path><path class="counter" d="M23.568,9.819A25.532,25.532,0,0,1,0.915,25.515A25.532,25.532,0,0,0,23.568,9.819Z" style="stroke: rgb(253, 174, 134); stroke-width: 3px; opacity: 1;" transform="translate(424.6325190083779,206.95613172195837)"></path><path class="counter" d="M22.005,13.661A25.901,25.901,0,0,1,-12.399,22.741A25.901,25.901,0,0,0,22.005,13.661Z" style="stroke: rgb(253, 174, 134); stroke-width: 3px; opacity: 1;" transform="translate(338.43955157254425,256.5644443323736)"></path><path class="counter" d="M13.84,23.602A27.36,27.36,0,0,1,-17.545,20.994A27.36,27.36,0,0,0,13.84,23.602Z" style="stroke: rgb(253, 174, 134); stroke-width: 3px; opacity: 1;" transform="translate(233.43906794494328,256.9299463282535)"></path><path class="counter" d="M14.378,23.767A27.778,27.778,0,0,1,-25.415,11.209A27.778,27.778,0,0,0,14.378,23.767Z" style="stroke: rgb(253, 174, 134); stroke-width: 3px; opacity: 1;" transform="translate(108.80494972378783,247.0943380586477)"></path><path class="counter" d="M-9.567,23.272A25.162,25.162,0,0,1,-4.741,-24.711A25.162,25.162,0,0,0,-9.567,23.272Z" style="stroke: rgb(253, 174, 134); stroke-width: 3px; opacity: 1;" transform="translate(50.17745084870411,193.3237020056606)"></path><path class="counter" d="M76.392,-23.754A80,80,0,0,1,15.073,78.567A80,80,0,0,0,76.392,-23.754Z" style="stroke: rgb(253, 174, 134); stroke-width: 3px; opacity: 1;" transform="translate(30.364031919852025,90.04538136546165)"></path><path class="counter" d="M25.928,75.682A80,80,0,0,1,-54.7,58.377A80,80,0,0,0,25.928,75.682Z" style="stroke: rgb(253, 174, 134); stroke-width: 3px; opacity: 1;" transform="translate(203.89335664347578,-18.673037517933793)"></path><path class="counter" d="M75.603,26.158A80,80,0,0,1,-46.151,65.346A80,80,0,0,0,75.603,26.158Z" style="stroke: rgb(253, 174, 134); stroke-width: 3px; opacity: 1;" transform="translate(300.5914124433597,-4.80653078874591)"></path><path class="counter" d="M-54.037,58.992A80,80,0,0,1,-69.392,39.81A80,80,0,0,0,-54.037,58.992Z" style="stroke: rgb(253, 174, 134); stroke-width: 3px; opacity: 1;" transform="translate(493.5285219682577,-22.972742043624635)"></path><path class="counter" d="M-53.354,59.61A80,80,0,0,1,-77.722,18.956A80,80,0,0,0,-53.354,59.61Z" style="stroke: rgb(253, 174, 134); stroke-width: 3px; opacity: 1;" transform="translate(524.6929647047806,29.7054220755506)"></path><path class="counter" d="M-77.194,21.002A80,80,0,0,1,-75.281,-27.069A80,80,0,0,0,-77.194,21.002Z" style="stroke: rgb(253, 174, 134); stroke-width: 3px; opacity: 1;" transform="translate(552.9246661208298,141.3048019204528)"></path><path class="counter" d="M-73.847,-30.768A80,80,0,0,1,-53.911,-59.107A80,80,0,0,0,-73.847,-30.768Z" style="stroke: rgb(253, 174, 134); stroke-width: 3px; opacity: 1;" transform="translate(522.0471532239164,247.54349922203176)"></path><path class="counter" d="M-67.968,-42.195A80,80,0,0,1,-2.866,-79.949A80,80,0,0,0,-67.968,-42.195Z" style="stroke: rgb(253, 174, 134); stroke-width: 3px; opacity: 1;" transform="translate(428.41272876238367,312.42013209245874)"></path><path class="counter" d="M-40.466,-69.011A80,80,0,0,1,38.296,-70.238A80,80,0,0,0,-40.466,-69.011Z" style="stroke: rgb(253, 174, 134); stroke-width: 3px; opacity: 1;" transform="translate(287.7444203619957,349.54312006144403)"></path><path class="counter" d="M-41.41,-68.449A80,80,0,0,1,51.301,-61.386A80,80,0,0,0,-41.41,-68.449Z" style="stroke: rgb(253, 174, 134); stroke-width: 3px; opacity: 1;" transform="translate(164.5928033621147,339.30993845659464)"></path><path class="counter" d="M30.418,-73.992A80,80,0,0,1,73.197,-32.284A80,80,0,0,0,30.418,-73.992Z" style="stroke: rgb(253, 174, 134); stroke-width: 3px; opacity: 1;" transform="translate(10.192761047029975,290.5873008768408)"></path><path class="counter" d="M-12.152,-25.225A28,28,0,0,1,-1.684,-27.949A28,28,0,0,0,-12.152,-25.225Z" style="stroke: rgb(203, 64, 156); stroke-width: 3px; opacity: 1;" transform="translate(136.4781863008813,294.4590552351348)"></path><path class="counter" d="M-12.622,-22.597A25.884,25.884,0,0,1,22.144,-13.401A25.884,25.884,0,0,0,-12.622,-22.597Z" style="stroke: rgb(203, 64, 156); stroke-width: 3px; opacity: 1;" transform="translate(181.61719291398362,279.0944523861921)"></path><path class="counter" d="M11.679,-23.08A25.867,25.867,0,0,1,21.208,14.809A25.867,25.867,0,0,0,11.679,-23.08Z" style="stroke: rgb(203, 64, 156); stroke-width: 3px; opacity: 1;" transform="translate(224.40416502412378,318.73542715038485)"></path><path class="counter" d="M27.323,3.506A27.547,27.547,0,0,1,27.322,3.517A27.547,27.547,0,0,0,27.323,3.506Z" style="stroke: rgb(203, 64, 156); stroke-width: 3px; opacity: 1;" transform="translate(204.53242740229243,365.65605017513616)"></path><path class="counter" d="M18.939,-20.605A27.987,27.987,0,0,1,-7.774,26.886A27.987,27.987,0,0,0,18.939,-20.605Z" style="stroke: rgb(203, 64, 156); stroke-width: 3px; opacity: 1;" transform="translate(238.1227163594737,458.89153233447644)"></path><path class="counter" d="M14.639,23.075A27.327,27.327,0,0,1,-25.587,9.596A27.327,27.327,0,0,0,14.639,23.075Z" style="stroke: rgb(203, 64, 156); stroke-width: 3px; opacity: 1;" transform="translate(150.63026650320725,472.00220579874934)"></path><path class="counter" d="M-10.583,23.342A25.629,25.629,0,0,1,-16.891,19.276A25.629,25.629,0,0,0,-10.583,23.342Z" style="stroke: rgb(203, 64, 156); stroke-width: 3px; opacity: 1;" transform="translate(93.75437086133913,413.4873513787771)"></path><path class="counter" d="M-2.304,26.15A26.251,26.251,0,0,1,-23.582,-11.533A26.251,26.251,0,0,0,-2.304,26.15Z" style="stroke: rgb(203, 64, 156); stroke-width: 3px; opacity: 1;" transform="translate(33.4668519370563,387.09061270149823)"></path><path class="counter" d="M-23.153,13.717A26.911,26.911,0,0,1,15.004,-22.341A26.911,26.911,0,0,0,-23.153,13.717Z" style="stroke: rgb(203, 64, 156); stroke-width: 3px; opacity: 1;" transform="translate(30,285.9151871175582)"></path><path class="counter" d="M34.721,72.073A80,80,0,0,1,-44.601,66.413A80,80,0,0,0,34.721,72.073Z" style="stroke: rgb(203, 64, 156); stroke-width: 3px; opacity: 1;" transform="translate(89.60486542770164,197.16110155511166)"></path><path class="counter" d="M39.013,69.843A80,80,0,0,1,4.812,79.855A80,80,0,0,0,39.013,69.843Z" style="stroke: rgb(203, 64, 156); stroke-width: 3px; opacity: 1;" transform="translate(129.98186417419623,186.65461284602756)"></path><path class="counter" d="M-36.121,71.381A80,80,0,0,1,-68.443,41.419A80,80,0,0,0,-36.121,71.381Z" style="stroke: rgb(203, 64, 156); stroke-width: 3px; opacity: 1;" transform="translate(272.20464224084424,224.27433625414864)"></path><path class="counter" d="M-79.349,-10.182A80,80,0,0,1,-65.593,-45.8A80,80,0,0,0,-79.349,-10.182Z" style="stroke: rgb(203, 64, 156); stroke-width: 3px; opacity: 1;" transform="translate(311.2051010584864,379.3438491642577)"></path><path class="counter" d="M-54.137,58.899A80,80,0,0,1,-79.345,-10.214A80,80,0,0,0,-54.137,58.899Z" style="stroke: rgb(203, 64, 156); stroke-width: 3px; opacity: 1;" transform="translate(311.1995792288105,379.3868137134832)"></path><path class="counter" d="M-42.857,-67.552A80,80,0,0,1,22.222,-76.852A80,80,0,0,0,-42.857,-67.552Z" style="stroke: rgb(203, 64, 156); stroke-width: 3px; opacity: 1;" transform="translate(208.1268027958817,562.629053701206)"></path><path class="counter" d="M33.033,-72.862A80,80,0,0,1,74.905,-28.093A80,80,0,0,0,33.033,-72.862Z" style="stroke: rgb(203, 64, 156); stroke-width: 3px; opacity: 1;" transform="translate(50.13847718077501,509.69142873005603)"></path><path class="counter" d="M7.023,-79.691A80,80,0,0,1,52.724,-60.168A80,80,0,0,0,7.023,-79.691Z" style="stroke: rgb(203, 64, 156); stroke-width: 3px; opacity: 1;" transform="translate(24.13978450852347,492.931545927476)"></path><path class="counter" d="M68.827,-40.777A80,80,0,0,1,71.865,35.148A80,80,0,0,0,68.827,-40.777Z" style="stroke: rgb(203, 64, 156); stroke-width: 3px; opacity: 1;" transform="translate(-61.98038910204204,340.40955111345653)"></path><path class="counter" d="M-24.655,11.857A27.358,27.358,0,0,1,-19.347,-19.343A27.358,27.358,0,0,0,-24.655,11.857Z" style="stroke: rgb(85, 6, 134); stroke-width: 3px; opacity: 1;" transform="translate(259.72127879077203,308.09232520004645)"></path><path class="counter" d="M-26.288,-8.842A27.735,27.735,0,0,1,18.353,-20.794A27.735,27.735,0,0,0,-26.288,-8.842Z" style="stroke: rgb(85, 6, 134); stroke-width: 3px; opacity: 1;" transform="translate(285.91413689718485,266.53171697628784)"></path><path class="counter" d="M-8.349,-24.854A26.219,26.219,0,0,1,25.843,4.427A26.219,26.219,0,0,0,-8.349,-24.854Z" style="stroke: rgb(85, 6, 134); stroke-width: 3px; opacity: 1;" transform="translate(391.03173726932306,286.4495101918245)"></path><path class="counter" d="M20.195,-19.23A27.886,27.886,0,0,1,3.83,27.622A27.886,27.886,0,0,0,20.195,-19.23Z" style="stroke: rgb(85, 6, 134); stroke-width: 3px; opacity: 1;" transform="translate(417.5943841967522,378.78289873278436)"></path><path class="counter" d="M25.971,7.604A27.062,27.062,0,0,1,20.342,17.848A27.062,27.062,0,0,0,25.971,7.604Z" style="stroke: rgb(85, 6, 134); stroke-width: 3px; opacity: 1;" transform="translate(329.6635544405336,455.5633506329965)"></path><path class="counter" d="M25.481,3.201A25.681,25.681,0,0,1,-25.636,-1.52A25.681,25.681,0,0,0,25.481,3.201Z" style="stroke: rgb(85, 6, 134); stroke-width: 3px; opacity: 1;" transform="translate(305.2822087204109,513)"></path><path class="counter" d="M-13.185,23.457A26.908,26.908,0,0,1,-22.451,-14.833A26.908,26.908,0,0,0,-13.185,23.457Z" style="stroke: rgb(85, 6, 134); stroke-width: 3px; opacity: 1;" transform="translate(252.1699122968498,413.5518352314059)"></path><path class="counter" d="M72.096,-34.672A80,80,0,0,1,66.748,44.098A80,80,0,0,0,72.096,-34.672Z" style="stroke: rgb(85, 6, 134); stroke-width: 3px; opacity: 1;" transform="translate(162.97032279952316,354.6209338380772)"></path><path class="counter" d="M75.826,25.504A80,80,0,0,1,56.574,56.563A80,80,0,0,0,75.826,25.504Z" style="stroke: rgb(85, 6, 134); stroke-width: 3px; opacity: 1;" transform="translate(183.80054649190618,232.18645379199563)"></path><path class="counter" d="M25.475,75.835A80,80,0,0,1,-52.94,59.978A80,80,0,0,0,25.475,75.835Z" style="stroke: rgb(85, 6, 134); stroke-width: 3px; opacity: 1;" transform="translate(357.20724206798906,185.7599669410189)"></path><path class="counter" d="M-57.936,55.167A80,80,0,0,1,-78.851,-13.509A80,80,0,0,0,-57.936,55.167Z" style="stroke: rgb(85, 6, 134); stroke-width: 3px; opacity: 1;" transform="translate(495.72541807878036,304.3858920524005)"></path><path class="counter" d="M-76.777,-22.479A80,80,0,0,1,-10.988,-79.242A80,80,0,0,0,-76.777,-22.479Z" style="stroke: rgb(85, 6, 134); stroke-width: 3px; opacity: 1;" transform="translate(432.4119128417211,485.6464280743293)"></path><path class="counter" d="M-79.376,-9.973A80,80,0,0,1,-60.134,-52.763A80,80,0,0,0,-79.376,-9.973Z" style="stroke: rgb(85, 6, 134); stroke-width: 3px; opacity: 1;" transform="translate(410.1393188241844,526.1740300614458)"></path><path class="counter" d="M39.199,-69.738A80,80,0,0,1,79.86,4.733A80,80,0,0,0,39.199,-69.738Z" style="stroke: rgb(85, 6, 134); stroke-width: 3px; opacity: 1;" transform="translate(199.78591343588403,506.74697764159885)"></path></g><g id="gfrontG" class="groups" width="486" height="543"></g></g></g></svg>