<?xml version="1.0" standalone="no"?>
<!DOCTYPE svg PUBLIC "-//W3C//DTD SVG 1.1//EN" "http://www.w3.org/Graphics/SVG/1.1/DTD/svg11.dtd">
<svg t="1679468177819" class="icon" viewBox="0 0 5024 5024" version="1.1" xmlns="http://www.w3.org/2000/svg" p-id="2610" xmlns:xlink="http://www.w3.org/1999/xlink" width="5000" height="5000"><g id="groups" width="1714" height="519" transform="translate(107.7476535514122,106.06475292003233) scale(1.40053493879481117)">
<g id="entG" width="474" height="525"><g id="groups" width="474" height="525"><g id="proRbackG" width="474" height="525"></g><g id="proRarcG" width="474" height="525"></g><g id="proRrelG" width="474" height="525"><path class="&quot;net_0-s-1570609751279202312-t-1" d="M139.9987597884291,85.22570014956537Q139.9987597884291,85.22570014956537,284.64421389290936,317.3304879375355" style="stroke: grey; stroke-opacity: 0.3; stroke-width: 2px;"></path><path class="&quot;net_0-s-1570609751279202312-t-1-1" d="M139.9987597884291,85.22570014956537Q139.9987597884291,85.22570014956537,185.2805683985639,386.9121259414812" style="stroke: red; stroke-opacity: 0.3; stroke-width: 2px;"></path><path class="&quot;net_0-s-1570609751279202312-t-2-9" d="M139.9987597884291,85.22570014956537Q139.9987597884291,85.22570014956537,284.2825678539011,316.007714869835" style="stroke: grey; stroke-opacity: 0.3; stroke-width: 2px;"></path><path class="&quot;net_0-s-1570609751279202321-t-2" d="M184.91071155362403,380.8968823542177Q184.91071155362403,380.8968823542177,77.4286437226269,244.37367177486516" style="stroke: grey; stroke-opacity: 0.3; stroke-width: 2px;"></path><path class="&quot;net_0-s-1570609751279202321-t-2-9" d="M184.91071155362403,380.8968823542177Q184.91071155362403,380.8968823542177,284.2825678539011,316.007714869835" style="stroke: grey; stroke-opacity: 0.3; stroke-width: 2px;"></path><path class="&quot;net_0-s-1573619795449196551-t-2-9" d="M309.8702340201568,150.9965086657764Q309.8702340201568,150.9965086657764,284.2825678539011,316.007714869835" style="stroke: grey; stroke-opacity: 0.3; stroke-width: 2px;"></path><path class="&quot;net_0-s-1573619795449196551-t-2" d="M309.8702340201568,150.9965086657764Q309.8702340201568,150.9965086657764,77.4286437226269,244.37367177486516" style="stroke: grey; stroke-opacity: 0.3; stroke-width: 2px;"></path><path class="&quot;net_0-s-1573619795449196551-t-2-1" d="M309.8702340201568,150.9965086657764Q309.8702340201568,150.9965086657764,283.88094833982143,315.43047718582125" style="stroke: grey; stroke-opacity: 0.3; stroke-width: 2px;"></path><path class="&quot;net_1-s-1573619795449196551-t-2-1-3" d="M309.8702340201568,150.9965086657764Q309.8702340201568,150.9965086657764,284.6875342812686,314.5968099379287" style="stroke: blue; stroke-opacity: 0.3; stroke-width: 2px;"></path><path class="&quot;net_1-s-1573619795449196551-t-2-1-4" d="M309.8702340201568,150.9965086657764Q309.8702340201568,150.9965086657764,284.34618631771366,318.1003109489385" style="stroke: blue; stroke-opacity: 0.3; stroke-width: 2px;"></path><path class="&quot;net_1-s-1570609751279202321-t-2-9" d="M184.91071155362403,380.8968823542177Q184.91071155362403,380.8968823542177,284.2825678539011,316.007714869835" style="stroke: blue; stroke-opacity: 0.3; stroke-width: 2px;"></path><path class="&quot;net_0-s-1570609751279202312-t-2" d="M139.9987597884291,85.22570014956537Q139.9987597884291,85.22570014956537,77.4286437226269,244.37367177486516" style="stroke: grey; stroke-opacity: 0.3; stroke-width: 2px;"></path><path class="&quot;net_0-s-1573619795449196551-t-2-10" d="M309.8702340201568,150.9965086657764Q309.8702340201568,150.9965086657764,382.54094750809054,280.8730946343577" style="stroke: grey; stroke-opacity: 0.3; stroke-width: 2px;"></path></g><g id="proRentG" width="474" height="525"><g id="astPro_1570609751279202312" transform="translate(143.9987597884291,86.22570014956537) scale(1)"><polygon points="0,27.307692307692307,-23.64915525719044,-13.653846153846148,23.649155257190433,-13.653846153846166" id="pro_1570609751279202312" stroke-linejoin="round" stroke-width="0px" fill="rgb(230,230,230)" stroke="rgb(230,230,230)"></polygon><polygon points="0,12.307692307692307,-10.65877420042386,-6.153846153846151,10.658774200423858,-6.153846153846159" id="pro_1570609751279202312" stroke-linejoin="round" stroke-width="0px" fill="rgb(255, 19, 19)" stroke="rgb(255, 19, 19)"></polygon><polygon points="0,16.153846153846153,0,26.153846153846153,-16.945785545205123,-7.8221153846153815,-10.93773430645058,-5.103365384615383" id="proAttr_1570609751279202312_1" stroke-linejoin="round" stroke-width="1px" fill="rgb(115, 230, 163)" stroke="rgb(115, 230, 163)"></polygon><polygon points="-13.989641138056317,-8.076923076923073,-22.649895175900703,-13.076923076923071,-19.125623061244426,-12.861869313482211,-11.769063179634678,-7.969396195202643" id="proAttr_1570609751279202312_2" stroke-linejoin="round" stroke-width="1px" fill="rgb(250, 210, 50)" stroke="rgb(250, 210, 50)"></polygon><polygon points="13.989641138056314,-8.076923076923084,22.6498951759007,-13.076923076923089,16.178496554214785,-3.2967032967033063,9.992600812897368,-1.868131868131874" id="proAttr_1570609751279202312_3" stroke-linejoin="round" stroke-width="1px" fill="rgb(255, 120, 90)" stroke="rgb(255, 120, 90)"></polygon></g><g id="astCon_2-9" transform="translate(284.2825678539011,316.007714869835) scale(1)"><circle id="astcon" class="astcon_2-9" opacity="1" cx="0" cy="0" r="5.256410256410256" stroke="none" stroke-width="1" fill="rgb(59, 126, 187)"></circle><path d="M3.172,-14.923A15.256,15.256,0,0,1,13.712,6.688L4.724,2.304A5.256,5.256,0,0,0,1.093,-5.142Z" class="typeB" transform="translate(0,0)" stroke="rgb(230, 230, 230)" stroke-width="0" stroke-dasharray="0" stroke-linejoin="round" fill="rgb(230, 230, 230)"></path><path d="M3.172,-14.923A15.256,15.256,0,0,0,0.574,-15.246L0.198,-5.253A5.256,5.256,0,0,1,1.093,-5.142Z" class="type" transform="translate(0,0)" stroke="rgb(115, 230, 163)" stroke-width="0" stroke-dasharray="0" stroke-linejoin="round" fill="rgb(115, 230, 163)"></path><path d="M12.022,9.393A15.256,15.256,0,0,1,-12.022,9.393L-4.142,3.236A5.256,5.256,0,0,0,4.142,3.236Z" class="typeB" transform="translate(0,0)" stroke="rgb(230, 230, 230)" stroke-width="0" stroke-dasharray="0" stroke-linejoin="round" fill="rgb(230, 230, 230)"></path><path d="M12.022,9.393A15.256,15.256,0,0,1,-8.408,12.73L-2.897,4.386A5.256,5.256,0,0,0,4.142,3.236Z" class="type" transform="translate(0,0)" stroke="rgb(250, 210, 50)" stroke-width="0" stroke-dasharray="0" stroke-linejoin="round" fill="rgb(250, 210, 50)"></path><path d="M-13.712,6.688A15.256,15.256,0,0,1,-3.172,-14.923L-1.093,-5.142A5.256,5.256,0,0,0,-4.724,2.304Z" class="typeB" transform="translate(0,0)" stroke="rgb(230, 230, 230)" stroke-width="0" stroke-dasharray="0" stroke-linejoin="round" fill="rgb(230, 230, 230)"></path><path d="M-13.712,6.688A15.256,15.256,0,0,0,-12.843,8.235L-4.425,2.837A5.256,5.256,0,0,1,-4.724,2.304Z" class="type" transform="translate(0,0)" stroke="rgb(255, 120, 90)" stroke-width="0" stroke-dasharray="0" stroke-linejoin="round" fill="rgb(255, 120, 90)"></path></g><g><polygon points="0,26.53846153846154,-22.982981869663952,-13.269230769230765,22.982981869663945,-13.269230769230782" id="pro_1570609751279202315" stroke-linejoin="round" stroke-width="0px" fill="rgb(230,230,230)" stroke="rgb(230,230,230)"></polygon><polygon points="0,11.538461538461538,-9.99260081289737,-5.7692307692307665,9.992600812897367,-5.7692307692307745" id="pro_1570609751279202315" stroke-linejoin="round" stroke-width="0px" fill="rgb(255, 6, 6)" stroke="rgb(255, 6, 6)"></polygon><polygon points="0,15.76923076923077,0,25.76923076923077,-17.537014426634883,-9.480769230769225,-11.204203661461177,-6.074519230769228" id="proAttr_1570609751279202315_1" stroke-linejoin="round" stroke-width="1px" fill="rgb(115, 230, 163)" stroke="rgb(115, 230, 163)"></polygon><polygon points="-13.656554444293073,-7.8846153846153815,-22.31680848213746,-12.88461538461538,-18.849841605117874,-12.66956162117452,-11.493281723508122,-7.777088502894952" id="proAttr_1570609751279202315_2" stroke-linejoin="round" stroke-width="1px" fill="rgb(250, 210, 50)" stroke="rgb(250, 210, 50)"></polygon><polygon points="13.65655444429307,-7.884615384615392,22.316808482137453,-12.884615384615396,17.53463523596514,-5.673076923076932,10.730149920515982,-3.351648351648357" id="proAttr_1570609751279202315_3" stroke-linejoin="round" stroke-width="1px" fill="rgb(255, 120, 90)" stroke="rgb(255, 120, 90)"></polygon></g><g id="astCon_2" transform="translate(77.4286437226269,244.37367177486516) scale(1)"><circle id="astcon" class="astcon_2" opacity="1" cx="0" cy="0" r="9.65811965811966" stroke="none" stroke-width="1" fill="rgb(119, 165, 207)"></circle><path d="M4.087,-19.229A19.658,19.658,0,0,1,17.669,8.618L8.681,4.234A9.658,9.658,0,0,0,2.008,-9.447Z" class="typeB" transform="translate(0,0)" stroke="rgb(230, 230, 230)" stroke-width="0" stroke-dasharray="0" stroke-linejoin="round" fill="rgb(230, 230, 230)"></path><path d="M4.087,-19.229A19.658,19.658,0,0,1,19.469,-2.72L9.565,-1.336A9.658,9.658,0,0,0,2.008,-9.447Z" class="type" transform="translate(0,0)" stroke="rgb(115, 230, 163)" stroke-width="0" stroke-dasharray="0" stroke-linejoin="round" fill="rgb(115, 230, 163)"></path><path d="M15.491,12.103A19.658,19.658,0,0,1,-15.491,12.103L-7.611,5.946A9.658,9.658,0,0,0,7.611,5.946Z" class="typeB" transform="translate(0,0)" stroke="rgb(230, 230, 230)" stroke-width="0" stroke-dasharray="0" stroke-linejoin="round" fill="rgb(230, 230, 230)"></path><path d="M15.491,12.103A19.658,19.658,0,0,1,6.234,18.644L3.063,9.16A9.658,9.658,0,0,0,7.611,5.946Z" class="type" transform="translate(0,0)" stroke="rgb(250, 210, 50)" stroke-width="0" stroke-dasharray="0" stroke-linejoin="round" fill="rgb(250, 210, 50)"></path><path d="M-17.669,8.618A19.658,19.658,0,0,1,-4.087,-19.229L-2.008,-9.447A9.658,9.658,0,0,0,-8.681,4.234Z" class="typeB" transform="translate(0,0)" stroke="rgb(230, 230, 230)" stroke-width="0" stroke-dasharray="0" stroke-linejoin="round" fill="rgb(230, 230, 230)"></path><path d="M-17.669,8.618A19.658,19.658,0,0,1,-10.157,-16.831L-4.99,-8.269A9.658,9.658,0,0,0,-8.681,4.234Z" class="type" transform="translate(0,0)" stroke="rgb(255, 120, 90)" stroke-width="0" stroke-dasharray="0" stroke-linejoin="round" fill="rgb(255, 120, 90)"></path></g><g id="astPro_1570609751279202321" transform="translate(184.91071155362403,380.8968823542177) scale(1)"><polygon points="0,26.53846153846154,-22.982981869663952,-13.269230769230765,22.982981869663945,-13.269230769230782" id="pro_1570609751279202321" stroke-linejoin="round" stroke-width="0px" fill="rgb(230,230,230)" stroke="rgb(230,230,230)"></polygon><polygon points="0,11.538461538461538,-9.99260081289737,-5.7692307692307665,9.992600812897367,-5.7692307692307745" id="pro_1570609751279202321" stroke-linejoin="round" stroke-width="0px" fill="rgb(255, 19, 19)" stroke="rgb(255, 19, 19)"></polygon><polygon points="0,15.76923076923077,0,25.76923076923077,-16.63768035347412,-7.67307692307692,-10.62962911471958,-4.954326923076922" id="proAttr_1570609751279202321_1" stroke-linejoin="round" stroke-width="1px" fill="rgb(115, 230, 163)" stroke="rgb(115, 230, 163)"></polygon><polygon points="-13.656554444293073,-7.8846153846153815,-22.31680848213746,-12.88461538461538,-18.849841605117874,-12.66956162117452,-11.493281723508122,-7.777088502894952" id="proAttr_1570609751279202321_2" stroke-linejoin="round" stroke-width="1px" fill="rgb(250, 210, 50)" stroke="rgb(250, 210, 50)"></polygon><polygon points="13.65655444429307,-7.884615384615392,22.316808482137453,-12.884615384615396,17.53463523596514,-5.673076923076932,10.730149920515982,-3.351648351648357" id="proAttr_1570609751279202321_3" stroke-linejoin="round" stroke-width="1px" fill="rgb(255, 120, 90)" stroke="rgb(255, 120, 90)"></polygon></g><g id="astPro_1573619795449196551" transform="translate(309.8702340201568,150.9965086657764) scale(1)"><polygon points="0,28.846153846153847,-24.981502032243426,-14.423076923076916,24.98150203224342,-14.423076923076936" id="pro_1573619795449196551" stroke-linejoin="round" stroke-width="0px" fill="rgb(230,230,230)" stroke="rgb(230,230,230)"></polygon><polygon points="0,13.846153846153847,-11.991120975476845,-6.923076923076921,11.991120975476841,-6.92307692307693" id="pro_1573619795449196551" stroke-linejoin="round" stroke-width="0px" fill="rgb(255, 27, 27)" stroke="rgb(255, 27, 27)"></polygon><polygon points="0,16.923076923076923,0,26.923076923076923,-16.98742138192553,-6.9736842105263115,-11.175935119687848,-4.671052631578944" id="proAttr_1573619795449196551_1" stroke-linejoin="round" stroke-width="1px" fill="rgb(115, 230, 163)" stroke="rgb(115, 230, 163)"></polygon><polygon points="-14.655814525582809,-8.461538461538458,-23.316068563427198,-13.461538461538456,-19.85913010299403,-13.25723738626964,-12.437385513572545,-8.35938792390405" id="proAttr_1573619795449196551_2" stroke-linejoin="round" stroke-width="1px" fill="rgb(250, 210, 50)" stroke="rgb(250, 210, 50)"></polygon><polygon points="14.655814525582805,-8.461538461538469,23.31606856342719,-13.461538461538474,13.323467750529824,1.7032967032966972,8.37475115747589,1.3461538461538414" id="proAttr_1573619795449196551_3" stroke-linejoin="round" stroke-width="1px" fill="rgb(255, 120, 90)" stroke="rgb(255, 120, 90)"></polygon></g><g id="astCon_2-1" transform="translate(283.88094833982143,315.43047718582125) scale(1)"><circle id="astcon" class="astcon_2-1" opacity="1" cx="0" cy="0" r="8.076923076923077" stroke="none" stroke-width="1" fill="rgb(124, 169, 209)"></circle><path d="M3.758,-17.682A18.077,18.077,0,0,1,16.247,7.924L7.259,3.541A8.077,8.077,0,0,0,1.679,-7.9Z" class="typeB" transform="translate(0,0)" stroke="rgb(230, 230, 230)" stroke-width="0" stroke-dasharray="0" stroke-linejoin="round" fill="rgb(230, 230, 230)"></path><path d="M3.758,-17.682A18.077,18.077,0,0,1,15.708,-8.945L7.019,-3.997A8.077,8.077,0,0,0,1.679,-7.9Z" class="type" transform="translate(0,0)" stroke="rgb(115, 230, 163)" stroke-width="0" stroke-dasharray="0" stroke-linejoin="round" fill="rgb(115, 230, 163)"></path><path d="M14.245,11.129A18.077,18.077,0,0,1,-14.245,11.129L-6.365,4.973A8.077,8.077,0,0,0,6.365,4.973Z" class="typeB" transform="translate(0,0)" stroke="rgb(230, 230, 230)" stroke-width="0" stroke-dasharray="0" stroke-linejoin="round" fill="rgb(230, 230, 230)"></path><path d="M14.245,11.129A18.077,18.077,0,0,1,6.93,16.696L3.096,7.46A8.077,8.077,0,0,0,6.365,4.973Z" class="type" transform="translate(0,0)" stroke="rgb(250, 210, 50)" stroke-width="0" stroke-dasharray="0" stroke-linejoin="round" fill="rgb(250, 210, 50)"></path><path d="M-16.247,7.924A18.077,18.077,0,0,1,-3.758,-17.682L-1.679,-7.9A8.077,8.077,0,0,0,-7.259,3.541Z" class="typeB" transform="translate(0,0)" stroke="rgb(230, 230, 230)" stroke-width="0" stroke-dasharray="0" stroke-linejoin="round" fill="rgb(230, 230, 230)"></path><path d="M-16.247,7.924A18.077,18.077,0,0,1,-16.247,-7.924L-7.259,-3.541A8.077,8.077,0,0,0,-7.259,3.541Z" class="type" transform="translate(0,0)" stroke="rgb(255, 120, 90)" stroke-width="0" stroke-dasharray="0" stroke-linejoin="round" fill="rgb(255, 120, 90)"></path></g><g id="astCon_2-1-3" transform="translate(284.6875342812686,314.5968099379287) scale(1)"><circle id="astcon" class="astcon_2-1-3" opacity="1" cx="0" cy="0" r="5.427350427350428" stroke="none" stroke-width="1" fill="rgb(75, 136, 192)"></circle><path d="M3.208,-15.09A15.427,15.427,0,0,1,13.866,6.763L4.878,2.379A5.427,5.427,0,0,0,1.128,-5.309Z" class="typeB" transform="translate(0,0)" stroke="rgb(230, 230, 230)" stroke-width="0" stroke-dasharray="0" stroke-linejoin="round" fill="rgb(230, 230, 230)"></path><path d="M3.208,-15.09A15.427,15.427,0,0,0,0.961,-15.397L0.338,-5.417A5.427,5.427,0,0,1,1.128,-5.309Z" class="type" transform="translate(0,0)" stroke="rgb(115, 230, 163)" stroke-width="0" stroke-dasharray="0" stroke-linejoin="round" fill="rgb(115, 230, 163)"></path><path d="M12.157,9.498A15.427,15.427,0,0,1,-12.157,9.498L-4.277,3.341A5.427,5.427,0,0,0,4.277,3.341Z" class="typeB" transform="translate(0,0)" stroke="rgb(230, 230, 230)" stroke-width="0" stroke-dasharray="0" stroke-linejoin="round" fill="rgb(230, 230, 230)"></path><path d="M12.157,9.498A15.427,15.427,0,0,1,-6.637,13.927L-2.335,4.899A5.427,5.427,0,0,0,4.277,3.341Z" class="type" transform="translate(0,0)" stroke="rgb(250, 210, 50)" stroke-width="0" stroke-dasharray="0" stroke-linejoin="round" fill="rgb(250, 210, 50)"></path><path d="M-13.866,6.763A15.427,15.427,0,0,1,-3.208,-15.09L-1.128,-5.309A5.427,5.427,0,0,0,-4.878,2.379Z" class="typeB" transform="translate(0,0)" stroke="rgb(230, 230, 230)" stroke-width="0" stroke-dasharray="0" stroke-linejoin="round" fill="rgb(230, 230, 230)"></path><path d="M-13.866,6.763A15.427,15.427,0,0,0,-13.479,7.505L-4.742,2.64A5.427,5.427,0,0,1,-4.878,2.379Z" class="type" transform="translate(0,0)" stroke="rgb(255, 120, 90)" stroke-width="0" stroke-dasharray="0" stroke-linejoin="round" fill="rgb(255, 120, 90)"></path></g><g id="astCon_2-1-4" transform="translate(284.34618631771366,318.1003109489385) scale(1)"><circle id="astcon" class="astcon_2-1-4" opacity="1" cx="0" cy="0" r="5.683760683760685" stroke="none" stroke-width="1" fill="rgb(95, 149, 199)"></circle><path d="M3.261,-15.341A15.684,15.684,0,0,1,14.096,6.875L5.109,2.492A5.684,5.684,0,0,0,1.182,-5.56Z" class="typeB" transform="translate(0,0)" stroke="rgb(230, 230, 230)" stroke-width="0" stroke-dasharray="0" stroke-linejoin="round" fill="rgb(230, 230, 230)"></path><path d="M3.261,-15.341A15.684,15.684,0,0,0,1.602,-15.602L0.58,-5.654A5.684,5.684,0,0,1,1.182,-5.56Z" class="type" transform="translate(0,0)" stroke="rgb(115, 230, 163)" stroke-width="0" stroke-dasharray="0" stroke-linejoin="round" fill="rgb(115, 230, 163)"></path><path d="M12.359,9.656A15.684,15.684,0,0,1,-12.359,9.656L-4.479,3.499A5.684,5.684,0,0,0,4.479,3.499Z" class="typeB" transform="translate(0,0)" stroke="rgb(230, 230, 230)" stroke-width="0" stroke-dasharray="0" stroke-linejoin="round" fill="rgb(230, 230, 230)"></path><path d="M12.359,9.656A15.684,15.684,0,0,1,-3.912,15.188L-1.418,5.504A5.684,5.684,0,0,0,4.479,3.499Z" class="type" transform="translate(0,0)" stroke="rgb(250, 210, 50)" stroke-width="0" stroke-dasharray="0" stroke-linejoin="round" fill="rgb(250, 210, 50)"></path><path d="M-14.096,6.875A15.684,15.684,0,0,1,-3.261,-15.341L-1.182,-5.56A5.684,5.684,0,0,0,-5.109,2.492Z" class="typeB" transform="translate(0,0)" stroke="rgb(230, 230, 230)" stroke-width="0" stroke-dasharray="0" stroke-linejoin="round" fill="rgb(230, 230, 230)"></path><path d="M-14.096,6.875A15.684,15.684,0,0,1,-14.352,6.324L-5.201,2.292A5.684,5.684,0,0,0,-5.109,2.492Z" class="type" transform="translate(0,0)" stroke="rgb(255, 120, 90)" stroke-width="0" stroke-dasharray="0" stroke-linejoin="round" fill="rgb(255, 120, 90)"></path></g><g id="astCon_2-10" transform="translate(382.54094750809054,280.8730946343577) scale(1)"><circle id="astcon" class="astcon_2-10" opacity="1" cx="0" cy="0" r="5.042735042735043" stroke="none" stroke-width="1" fill="rgb(68, 132, 190)"></circle><path d="M3.128,-14.714A15.043,15.043,0,0,1,13.52,6.594L4.532,2.211A5.043,5.043,0,0,0,1.048,-4.933Z" class="typeB" transform="translate(0,0)" stroke="rgb(230, 230, 230)" stroke-width="0" stroke-dasharray="0" stroke-linejoin="round" fill="rgb(230, 230, 230)"></path><path d="M3.128,-14.714A15.043,15.043,0,0,0,0.09,-15.042L0.03,-5.043A5.043,5.043,0,0,1,1.048,-4.933Z" class="type" transform="translate(0,0)" stroke="rgb(115, 230, 163)" stroke-width="0" stroke-dasharray="0" stroke-linejoin="round" fill="rgb(115, 230, 163)"></path><path d="M11.854,9.261A15.043,15.043,0,0,1,-11.854,9.261L-3.974,3.105A5.043,5.043,0,0,0,3.974,3.105Z" class="typeB" transform="translate(0,0)" stroke="rgb(230, 230, 230)" stroke-width="0" stroke-dasharray="0" stroke-linejoin="round" fill="rgb(230, 230, 230)"></path><path d="M11.854,9.261A15.043,15.043,0,0,1,-7.305,13.15L-2.449,4.408A5.043,5.043,0,0,0,3.974,3.105Z" class="type" transform="translate(0,0)" stroke="rgb(250, 210, 50)" stroke-width="0" stroke-dasharray="0" stroke-linejoin="round" fill="rgb(250, 210, 50)"></path><path d="M-13.52,6.594A15.043,15.043,0,0,1,-3.128,-14.714L-1.048,-4.933A5.043,5.043,0,0,0,-4.532,2.211Z" class="typeB" transform="translate(0,0)" stroke="rgb(230, 230, 230)" stroke-width="0" stroke-dasharray="0" stroke-linejoin="round" fill="rgb(230, 230, 230)"></path><path d="M-13.52,6.594A15.043,15.043,0,0,0,-11.996,9.076L-4.021,3.043A5.043,5.043,0,0,1,-4.532,2.211Z" class="type" transform="translate(0,0)" stroke="rgb(255, 120, 90)" stroke-width="0" stroke-dasharray="0" stroke-linejoin="round" fill="rgb(255, 120, 90)"></path></g><g id="astCon_1" transform="translate(284.64421389290936,317.3304879375355) scale(1)"><circle id="astcon" class="astcon_1" opacity="1" cx="0" cy="0" r="10" stroke="none" stroke-width="1" fill="rgb(128, 171, 211)"></circle><path d="M4.158,-19.563A20,20,0,0,1,17.976,8.767L8.988,4.384A10,10,0,0,0,2.079,-9.781Z" class="typeB" transform="translate(0,0)" stroke="rgb(230, 230, 230)" stroke-width="0" stroke-dasharray="0" stroke-linejoin="round" fill="rgb(230, 230, 230)"></path><path d="M4.158,-19.563A20,20,0,0,1,19.406,4.838L9.703,2.419A10,10,0,0,0,2.079,-9.781Z" class="type" transform="translate(0,0)" stroke="rgb(115, 230, 163)" stroke-width="0" stroke-dasharray="0" stroke-linejoin="round" fill="rgb(115, 230, 163)"></path><path d="M15.76,12.313A20,20,0,0,1,-15.76,12.313L-7.88,6.157A10,10,0,0,0,7.88,6.157Z" class="typeB" transform="translate(0,0)" stroke="rgb(230, 230, 230)" stroke-width="0" stroke-dasharray="0" stroke-linejoin="round" fill="rgb(230, 230, 230)"></path><path d="M15.76,12.313A20,20,0,0,1,8.158,18.261L4.079,9.13A10,10,0,0,0,7.88,6.157Z" class="type" transform="translate(0,0)" stroke="rgb(250, 210, 50)" stroke-width="0" stroke-dasharray="0" stroke-linejoin="round" fill="rgb(250, 210, 50)"></path><path d="M-17.976,8.767A20,20,0,0,1,-4.158,-19.563L-2.079,-9.781A10,10,0,0,0,-8.988,4.384Z" class="typeB" transform="translate(0,0)" stroke="rgb(230, 230, 230)" stroke-width="0" stroke-dasharray="0" stroke-linejoin="round" fill="rgb(230, 230, 230)"></path><path d="M-17.976,8.767A20,20,0,0,1,-8.135,-18.271L-4.067,-9.135A10,10,0,0,0,-8.988,4.384Z" class="type" transform="translate(0,0)" stroke="rgb(255, 120, 90)" stroke-width="0" stroke-dasharray="0" stroke-linejoin="round" fill="rgb(255, 120, 90)"></path></g></g><g id="proRfrontG" width="474" height="525"><circle id="1570609751279202312" class="problem" cx="143.9987597884291" cy="85.22570014956537" r="5" opacity="0"></circle><circle id="1" class="concept" cx="284.64421389290936" cy="317.3304879375355" r="5" opacity="0"></circle><circle id="1-1" class="concept" cx="185.2805683985639" cy="386.9121259414812" r="5" opacity="0"></circle><circle id="2-9" class="concept" cx="284.2825678539011" cy="316.007714869835" r="5" opacity="0"></circle><circle id="1570609751279202315" class="problem" cx="143.10196591607746" cy="42.286077745278604" r="5" opacity="0"></circle><circle id="2" class="concept" cx="77.4286437226269" cy="244.37367177486516" r="5" opacity="0"></circle><circle id="1570609751279202321" class="problem" cx="184.91071155362403" cy="380.8968823542177" r="5" opacity="0"></circle><circle id="1573619795449196551" class="problem" cx="309.8702340201568" cy="150.9965086657764" r="5" opacity="0"></circle><circle id="2-1" class="concept" cx="283.88094833982143" cy="315.43047718582125" r="5" opacity="0"></circle><circle id="2-1-3" class="concept" cx="284.6875342812686" cy="314.5968099379287" r="5" opacity="0"></circle><circle id="2-1-4" class="concept" cx="284.34618631771366" cy="318.1003109489385" r="5" opacity="0"></circle><circle id="2-10" class="concept" cx="382.54094750809054" cy="280.8730946343577" r="5" opacity="0"></circle></g></g></g><g id="sonG" width="474" height="525"></g><text y="15" x="16" id="FigNet_con" fill="black" font-size="10" style="text-anchor: start;">AcceptedRate</text><text y="35" x="16" id="FigNet_con" fill="black" font-size="10" style="text-anchor: start;">Attempts</text><text y="55" x="16" id="FigNet_con" fill="black" font-size="10" style="text-anchor: start;">Connection nums</text><text y="15" x="136" id="FigNet_con" fill="black" font-size="10" style="text-anchor: start;">Concepts</text><text y="35" x="136" id="FigNet_con" fill="black" font-size="10" style="text-anchor: start;">problems</text><rect x="1" y="2" width="10" height="15" id="FigNet_conRectColoraB" class="FigNet" opacity="1" fill="rgb(230,230,230)" rx="0" stroke="grey" stroke-width="1"></rect><rect x="1" y="5" width="10" height="12" id="FigNet_conRectColora" class="FigNet" opacity="1" fill="rgb(254, 33, 79)" rx="0" stroke="grey" stroke-width="1"></rect><rect x="1" y="22" width="10" height="15" id="FigNet_conRectColorB" class="FigNet" opacity="1" fill="rgb(230,230,230)" rx="0" stroke="grey" stroke-width="1"></rect><rect x="1" y="25" width="10" height="12" id="FigNet_conRectColor" class="FigNet" opacity="1" fill="rgb(115, 230, 163)" rx="0" stroke="grey" stroke-width="1"></rect><rect x="1" y="42" width="10" height="15" id="FigNet_conRectB" class="FigNet" opacity="1" fill="rgb(230,230,230)" rx="0" stroke="grey" stroke-width="1"></rect><rect x="1" y="45" width="10" height="12" id="FigNet_conRect" class="FigNet" opacity="1" fill="rgb(250, 210, 50)" rx="0" stroke="grey" stroke-width="1"></rect><circle id="FigNet_conColorc" class="FigNet" opacity="1" cx="120" cy="12" r="7" stroke="grey" stroke-width="1" fill="rgb(46, 117, 182)"></circle><polygon points="120,40,112.20577136594005,26.5,127.79422863405995,26.499999999999996" id="FigNet_Proc" stroke-linejoin="round" stroke-width="1px" fill="rgb(255, 0, 0)" stroke="grey"></polygon>
</g></svg>