<?xml version="1.0" standalone="no"?>
<!DOCTYPE svg PUBLIC "-//W3C//DTD SVG 1.1//EN" "http://www.w3.org/Graphics/SVG/1.1/DTD/svg11.dtd">
<svg t="1679468177819" class="icon" viewBox="0 0 5024 5024" version="1.1" xmlns="http://www.w3.org/2000/svg" p-id="2610" xmlns:xlink="http://www.w3.org/1999/xlink" width="5000" height="5000"><g id="groups" width="1714" height="519" transform="translate(107.7476535514122,106.06475292003233) scale(1.40053493879481117)">
<circle id="astcon" class="astcon_2" opacity="1" cx="0" cy="0" r="9.695652173913045" stroke="none" stroke-width="1" fill="rgb(118, 164, 207)"></circle><path d="M4.095,-19.265A19.696,19.696,0,0,1,17.702,8.634L8.714,4.25A9.696,9.696,0,0,0,2.016,-9.484Z" class="typeB" transform="translate(0,0)" stroke="rgb(230, 230, 230)" stroke-width="0" stroke-dasharray="0" stroke-linejoin="round" fill="rgb(230, 230, 230)"></path><path d="M4.095,-19.265A19.696,19.696,0,0,1,19.562,-2.289L9.63,-1.127A9.696,9.696,0,0,0,2.016,-9.484Z" class="type" transform="translate(0,0)" stroke="rgb(115, 230, 163)" stroke-width="0" stroke-dasharray="0" stroke-linejoin="round" fill="rgb(115, 230, 163)"></path><path d="M15.52,12.126A19.696,19.696,0,0,1,-15.52,12.126L-7.64,5.969A9.696,9.696,0,0,0,7.64,5.969Z" class="typeB" transform="translate(0,0)" stroke="rgb(230, 230, 230)" stroke-width="0" stroke-dasharray="0" stroke-linejoin="round" fill="rgb(230, 230, 230)"></path><path d="M15.52,12.126A19.696,19.696,0,0,1,6.133,18.716L3.019,9.214A9.696,9.696,0,0,0,7.64,5.969Z" class="type" transform="translate(0,0)" stroke="rgb(250, 210, 50)" stroke-width="0" stroke-dasharray="0" stroke-linejoin="round" fill="rgb(250, 210, 50)"></path><path d="M-17.702,8.634A19.696,19.696,0,0,1,-4.095,-19.265L-2.016,-9.484A9.696,9.696,0,0,0,-8.714,4.25Z" class="typeB" transform="translate(0,0)" stroke="rgb(230, 230, 230)" stroke-width="0" stroke-dasharray="0" stroke-linejoin="round" fill="rgb(230, 230, 230)"></path><path d="M-17.702,8.634A19.696,19.696,0,0,1,-9.946,-17L-4.896,-8.369A9.696,9.696,0,0,0,-8.714,4.25Z" class="type" transform="translate(0,0)" stroke="rgb(255, 120, 90)" stroke-width="0" stroke-dasharray="0" stroke-linejoin="round" fill="rgb(255, 120, 90)"></path>
</g></svg>