<?xml version="1.0" standalone="no"?>
<!DOCTYPE svg PUBLIC "-//W3C//DTD SVG 1.1//EN" "http://www.w3.org/Graphics/SVG/1.1/DTD/svg11.dtd">
<svg t="1679468177819" class="icon" viewBox="0 0 5024 5024" version="1.1" xmlns="http://www.w3.org/2000/svg" p-id="2610" xmlns:xlink="http://www.w3.org/1999/xlink" width="5000" height="5000"><g id="groups" width="1714" height="519" transform="translate(17.7476535514122,16.06475292003233) scale(1.40053493879481117)">
<circle id="entStu_1568084277583872000" class="entStu" opacity="1" cx="33.4668519370563" cy="387.09061270149823" r="6.251105090546129" stroke="grey" stroke-width="0" fill="rgb(139, 181, 92)"></circle>
<path d="M0,-12.251A12.251,12.251,0,1,1,0,12.251A12.251,12.251,0,1,1,0,-12.251M0,-6.251A6.251,6.251,0,1,0,0,6.251A6.251,6.251,0,1,0,0,-6.251Z" class="typeB" id="stuAttrB_1568084277583872000_0" transform="translate(33.4668519370563,387.09061270149823)" stroke="rgb(139, 181, 92)" stroke-width="0" stroke-dasharray="0" stroke-linejoin="round" fill="rgb(230,230,230)"></path>
<path d="M0,-12.251A12.251,12.251,0,1,1,-12.062,-2.147L-6.154,-1.095A6.251,6.251,0,1,0,0,-6.251Z" class="type" id="stuAttr_1568084277583872000_0" transform="translate(33.4668519370563,387.09061270149823)" stroke="rgb(255, 77, 109)" stroke-width="0" stroke-dasharray="0" stroke-linejoin="round" fill="rgb(255, 77, 109)"></path>
<path d="M0,-19.251A19.251,19.251,0,1,1,0,19.251A19.251,19.251,0,1,1,0,-19.251M0,-13.251A13.251,13.251,0,1,0,0,13.251A13.251,13.251,0,1,0,0,-13.251Z" class="typeB" id="stuAttrB_1568084277583872000_2" transform="translate(33.4668519370563,387.09061270149823)" stroke="rgb(139, 181, 92)" stroke-width="0" stroke-dasharray="0" stroke-linejoin="round" fill="rgb(230,230,230)"></path>
<path d="M0,-19.251A19.251,19.251,0,1,1,-6.822,18.002L-4.696,12.391A13.251,13.251,0,1,0,0,-13.251Z" class="type" id="stuAttr_1568084277583872000_2" transform="translate(33.4668519370563,387.09061270149823)" stroke="rgb(250, 210, 50)" stroke-width="0" stroke-dasharray="0" stroke-linejoin="round" fill="rgb(250, 210, 50)"></path>
<circle id="entStuF_1568084277583872000_38" class="entStuF" opacity="0" cx="33.4668519370563" cy="387.09061270149823" r="25" stroke="grey" stroke-width="0" fill="rgb(139, 181, 92)"></circle>
</g></svg>