<?xml version="1.0" standalone="no"?>
<!DOCTYPE svg PUBLIC "-//W3C//DTD SVG 1.1//EN" "http://www.w3.org/Graphics/SVG/1.1/DTD/svg11.dtd">
<svg t="1679468177819" class="icon" viewBox="0 0 5024 5024" version="1.1" xmlns="http://www.w3.org/2000/svg" p-id="2610" xmlns:xlink="http://www.w3.org/1999/xlink" width="5000" height="5000"><g id="groups" width="1714" height="519" transform="translate(17.7476535514122,16.06475292003233) scale(1.40053493879481117)">
<path d="M671,811.9C671,816.783,671,821.667,671,826.55C671,831.433,671,836.317,665,841.2C659,846.083,647,850.967,647,855.85C647,860.733,659,865.617,653,868.058C647,870.5,623,870.5,611,868.058C599,865.617,599,860.733,599,855.85C599,850.967,599,846.083,599,841.2C599,836.317,599,831.433,599,826.55C599,821.667,599,816.783,599,811.9C599,807.017,599,802.133,611,799.692C623,797.25,647,797.25,659,799.692C671,802.133,671,807.017,671,811.9" stroke="none" class="setstuScoreLine" id="setstuScoreLine_proSetValuePoly_1595937666900742144" stroke-dasharray="0" stroke-width="1" style="stroke-opacity: 1;" fill="rgba(253, 195, 190,1)"></path><path d="M649.076,811.9C642.084,816.783,633.05,821.667,633.243,826.55C633.437,831.433,642.857,836.317,639.95,841.2C637.043,846.083,621.807,850.967,615.902,855.85C609.998,860.733,613.424,865.617,613.763,868.058C614.103,870.5,611.356,870.5,609.295,868.058C607.235,865.617,605.86,860.733,609.687,855.85C613.514,850.967,622.542,846.083,622.374,841.2C622.206,836.317,612.842,831.433,611.981,826.55C611.119,821.667,618.76,816.783,626.799,811.9C634.837,807.017,643.273,802.133,649.868,799.692C656.462,797.25,661.215,797.25,661.116,799.692C661.018,802.133,656.068,807.017,649.076,811.9" stroke="none" class="setstuScoreLine" id="setstuScoreLinefc_proSetValuePoly_1595937666900742144" stroke-dasharray="0" stroke-width="1" style="stroke-opacity: 1;" fill="rgba(255, 77, 109,1)"></path><path d="M658.838,797.25L655.492,799.692C652.146,802.133,645.453,807.017,637.937,811.9C630.422,816.783,622.085,821.667,622.612,826.55C623.14,831.433,632.532,836.317,631.162,841.2C629.792,846.083,617.661,850.967,612.795,855.85C607.929,860.733,610.329,865.617,611.529,868.058L612.729,870.5" stroke="white" class="setstuScoreLine" id="setstuScoreLineAv_proSetValuePoly_1595937666900742144" stroke-dasharray="0" stroke-width="1" style="stroke-opacity: 1;" fill="none"></path><path d="M729.639,811.9C728.556,816.783,714.111,821.667,706.889,826.55C699.667,831.433,699.667,836.317,705.444,841.2C711.222,846.083,722.778,850.967,723.5,855.85C724.222,860.733,714.111,865.617,704.722,868.058C695.333,870.5,686.667,870.5,682.333,868.058C678,865.617,678,860.733,678,855.85C678,850.967,678,846.083,678,841.2C678,836.317,678,831.433,678,826.55C678,821.667,678,816.783,678,811.9C678,807.017,678,802.133,682.694,799.692C687.389,797.25,696.778,797.25,707.611,799.692C718.444,802.133,730.722,807.017,729.639,811.9" stroke="none" class="setstuAttemptsLine" id="setstuAttemptsLine_proSetValuePoly_1595937666900742144" stroke-dasharray="0" stroke-width="1" style="stroke-opacity: 1;" fill="rgba(250, 210, 50,1)"></path><path d="M693.238,811.9C693.29,816.783,689.804,821.667,688.506,826.55C687.209,831.433,688.1,836.317,691.244,841.2C694.387,846.083,699.782,850.967,700.279,855.85C700.776,860.733,696.374,865.617,692.062,868.058C687.749,870.5,683.526,870.5,681.669,868.058C679.812,865.617,680.321,860.733,680.06,855.85C679.798,850.967,678.766,846.083,677.865,841.2C676.964,836.317,676.194,831.433,675.167,826.55C674.141,821.667,672.857,816.783,673.144,811.9C673.431,807.017,675.289,802.133,677.694,799.692C680.099,797.25,683.051,797.25,686.323,799.692C689.595,802.133,693.186,807.017,693.238,811.9" stroke="none" class="setstuAttemptsLine" id="setstuAttemptsLinefc_proSetValuePoly_1595937666900742144" stroke-dasharray="0" stroke-width="1" style="stroke-opacity: 1;" fill="rgba(181, 146, 9,1)"></path><path d="M681.575,797.25L682.008,799.692C682.442,802.133,683.308,807.017,683.191,811.9C683.074,816.783,681.972,821.667,681.837,826.55C681.701,831.433,682.532,836.317,684.554,841.2C686.576,846.083,689.79,850.967,690.169,855.85C690.549,860.733,688.093,865.617,686.865,868.058L685.638,870.5" stroke="white" class="setstuAttemptsLine" id="setstuAttemptsLineAv_proSetValuePoly_1595937666900742144" stroke-dasharray="0" stroke-width="1" style="stroke-opacity: 1;" fill="none"></path>
</g></svg>