<?xml version="1.0" standalone="no"?><!DOCTYPE svg PUBLIC "-//W3C//DTD SVG 1.1//EN" "http://www.w3.org/Graphics/SVG/1.1/DTD/svg11.dtd"><svg t="1679468220191" class="icon" viewBox="0 0 1024 1024" version="1.1" xmlns="http://www.w3.org/2000/svg" p-id="3592" xmlns:xlink="http://www.w3.org/1999/xlink" width="200" height="200"><path d="M512 1024c-282.304 0-512-229.696-512-512s229.696-512 512-512 512 229.696 512 512S794.304 1024 512 1024zM512 48.768C256.576 48.768 48.768 256.576 48.768 512S256.576 975.168 512 975.168 975.168 767.424 975.168 512 767.424 48.768 512 48.768z" fill="#d81e06" p-id="3593"></path><path d="M764.8 312.256 711.68 259.136 512 458.88 312.256 259.136 259.136 312.256 458.88 512 259.136 711.68 312.256 764.8 512 565.12 711.68 764.8 764.8 711.68 565.12 512Z" fill="#d81e06" p-id="3594"></path></svg>