<?xml version="1.0" standalone="no"?>
<!DOCTYPE svg PUBLIC "-//W3C//DTD SVG 1.1//EN" "http://www.w3.org/Graphics/SVG/1.1/DTD/svg11.dtd">
<svg t="1679468177819" class="icon" viewBox="0 0 5024 5024" version="1.1" xmlns="http://www.w3.org/2000/svg" p-id="2610" xmlns:xlink="http://www.w3.org/1999/xlink" width="5000" height="5000"><g width="724" height="659"></g><g width="744" height="659" transform="translate(35,600)"><path d="M0,0L3.57,-0.048C7.14,-0.096,14.28,-0.192,21.419,0.13C28.559,0.452,35.699,1.193,42.839,1.193C49.978,1.193,57.118,0.452,64.258,0.082C71.398,-0.288,78.538,-0.288,85.677,-0.288C92.817,-0.288,99.957,-0.288,107.097,1.378C114.237,3.045,121.376,6.378,128.516,8.045C135.656,9.712,142.796,9.712,149.935,8.017C157.075,6.323,164.215,2.934,171.355,1.505C178.495,0.077,185.634,0.608,192.774,0.636C199.914,0.664,207.054,0.188,214.194,-0.05C221.333,-0.288,228.473,-0.288,235.613,-0.288C242.753,-0.288,249.892,-0.288,257.032,-0.137C264.172,0.015,271.312,0.318,278.452,1.984C285.591,3.651,292.731,6.681,299.871,8.196C307.011,9.712,314.151,9.712,321.29,9.712C328.43,9.712,335.57,9.712,342.71,9.712C349.849,9.712,356.989,9.712,364.129,9.712C371.269,9.712,378.409,9.712,385.548,9.712C392.688,9.712,399.828,9.712,406.968,9.712C414.108,9.712,421.247,9.712,428.387,9.712C435.527,9.712,442.667,9.712,449.806,9.712C456.946,9.712,464.086,9.712,471.226,9.712C478.366,9.712,485.505,9.712,492.645,9.712C499.785,9.712,506.925,9.712,514.065,9.712C521.204,9.712,528.344,9.712,535.484,9.712C542.624,9.712,549.763,9.712,556.903,9.712C564.043,9.712,571.183,9.712,578.323,9.712C585.462,9.712,592.602,9.712,599.742,9.712C606.882,9.712,614.022,9.712,621.161,9.712C628.301,9.712,635.441,9.712,639.011,9.712L642.581,9.712L642.581,9.712L639.011,9.712C635.441,9.712,628.301,9.712,621.161,9.712C614.022,9.712,606.882,9.712,599.742,9.712C592.602,9.712,585.462,9.712,578.323,9.712C571.183,9.712,564.043,9.712,556.903,9.712C549.763,9.712,542.624,9.712,535.484,9.712C528.344,9.712,521.204,9.712,514.065,9.712C506.925,9.712,499.785,9.712,492.645,9.712C485.505,9.712,478.366,9.712,471.226,9.712C464.086,9.712,456.946,9.712,449.806,9.712C442.667,9.712,435.527,9.712,428.387,9.712C421.247,9.712,414.108,9.712,406.968,9.712C399.828,9.712,392.688,9.712,385.548,9.712C378.409,9.712,371.269,9.712,364.129,9.712C356.989,9.712,349.849,9.712,342.71,9.712C335.57,9.712,328.43,9.712,321.29,9.712C314.151,9.712,307.011,9.712,299.871,11.227C292.731,12.742,285.591,15.772,278.452,17.439C271.312,19.105,264.172,19.409,257.032,19.56C249.892,19.712,242.753,19.712,235.613,19.712C228.473,19.712,221.333,19.712,214.194,19.473C207.054,19.235,199.914,18.759,192.774,18.787C185.634,18.815,178.495,19.346,171.355,17.918C164.215,16.489,157.075,13.1,149.935,11.406C142.796,9.712,135.656,9.712,128.516,11.378C121.376,13.045,114.237,16.378,107.097,18.045C99.957,19.712,92.817,19.712,85.677,19.712C78.538,19.712,71.398,19.712,64.258,19.341C57.118,18.971,49.978,18.23,42.839,18.23C35.699,18.23,28.559,18.971,21.419,19.293C14.28,19.615,7.14,19.519,3.57,19.471L0,19.423Z" fill="#ff9c9c"></path><path d="M0,19.423L3.57,19.471C7.14,19.519,14.28,19.615,21.419,19.293C28.559,18.971,35.699,18.23,42.839,18.23C49.978,18.23,57.118,18.971,64.258,19.341C71.398,19.712,78.538,19.712,85.677,19.712C92.817,19.712,99.957,19.712,107.097,18.045C114.237,16.378,121.376,13.045,128.516,11.378C135.656,9.712,142.796,9.712,149.935,11.406C157.075,13.1,164.215,16.489,171.355,17.918C178.495,19.346,185.634,18.815,192.774,18.787C199.914,18.759,207.054,19.235,214.194,19.473C221.333,19.712,228.473,19.712,235.613,19.712C242.753,19.712,249.892,19.712,257.032,19.56C264.172,19.409,271.312,19.105,278.452,17.439C285.591,15.772,292.731,12.742,299.871,11.227C307.011,9.712,314.151,9.712,321.29,9.712C328.43,9.712,335.57,9.712,342.71,9.712C349.849,9.712,356.989,9.712,364.129,9.712C371.269,9.712,378.409,9.712,385.548,9.712C392.688,9.712,399.828,9.712,406.968,9.712C414.108,9.712,421.247,9.712,428.387,9.712C435.527,9.712,442.667,9.712,449.806,9.712C456.946,9.712,464.086,9.712,471.226,9.712C478.366,9.712,485.505,9.712,492.645,9.712C499.785,9.712,506.925,9.712,514.065,9.712C521.204,9.712,528.344,9.712,535.484,9.712C542.624,9.712,549.763,9.712,556.903,9.712C564.043,9.712,571.183,9.712,578.323,9.712C585.462,9.712,592.602,9.712,599.742,9.712C606.882,9.712,614.022,9.712,621.161,9.712C628.301,9.712,635.441,9.712,639.011,9.712L642.581,9.712L642.581,49.712L639.011,49.712C635.441,49.712,628.301,49.712,621.161,49.712C614.022,49.712,606.882,49.712,599.742,49.712C592.602,49.712,585.462,49.712,578.323,49.712C571.183,49.712,564.043,49.712,556.903,49.712C549.763,49.712,542.624,49.712,535.484,49.712C528.344,49.712,521.204,49.712,514.065,49.712C506.925,49.712,499.785,49.712,492.645,49.712C485.505,49.712,478.366,49.712,471.226,49.712C464.086,49.712,456.946,49.712,449.806,49.712C442.667,49.712,435.527,49.712,428.387,49.712C421.247,49.712,414.108,49.712,406.968,49.712C399.828,49.712,392.688,49.712,385.548,49.712C378.409,49.712,371.269,49.712,364.129,49.712C356.989,49.712,349.849,49.712,342.71,49.712C335.57,49.712,328.43,49.712,321.29,49.712C314.151,49.712,307.011,49.712,299.871,48.196C292.731,46.681,285.591,43.651,278.452,41.984C271.312,40.318,264.172,40.015,257.032,39.863C249.892,39.712,242.753,39.712,235.613,39.712C228.473,39.712,221.333,39.712,214.194,39.95C207.054,40.188,199.914,40.664,192.774,40.636C185.634,40.608,178.495,40.077,171.355,41.505C164.215,42.934,157.075,46.323,149.935,48.017C142.796,49.712,135.656,49.712,128.516,48.045C121.376,46.378,114.237,43.045,107.097,41.378C99.957,39.712,92.817,39.712,85.677,39.712C78.538,39.712,71.398,39.712,64.258,40.082C57.118,40.452,49.978,41.193,42.839,41.193C35.699,41.193,28.559,40.452,21.419,40.13C14.28,39.808,7.14,39.904,3.57,39.952L0,40Z" fill="#f4f4d0"></path><path d="M0,19.423L3.57,19.471C7.14,19.519,14.28,19.615,21.419,19.293C28.559,18.971,35.699,18.23,42.839,18.23C49.978,18.23,57.118,18.971,64.258,19.341C71.398,19.712,78.538,19.712,85.677,19.712C92.817,19.712,99.957,19.712,107.097,18.045C114.237,16.378,121.376,13.045,128.516,11.378C135.656,9.712,142.796,9.712,149.935,11.406C157.075,13.1,164.215,16.489,171.355,17.918C178.495,19.346,185.634,18.815,192.774,18.787C199.914,18.759,207.054,19.235,214.194,19.473C221.333,19.712,228.473,19.712,235.613,19.712C242.753,19.712,249.892,19.712,257.032,19.56C264.172,19.409,271.312,19.105,278.452,17.439C285.591,15.772,292.731,12.742,299.871,11.227C307.011,9.712,314.151,9.712,321.29,9.712C328.43,9.712,335.57,9.712,342.71,9.712C349.849,9.712,356.989,9.712,364.129,9.712C371.269,9.712,378.409,9.712,385.548,9.712C392.688,9.712,399.828,9.712,406.968,9.712C414.108,9.712,421.247,9.712,428.387,9.712C435.527,9.712,442.667,9.712,449.806,9.712C456.946,9.712,464.086,9.712,471.226,9.712C478.366,9.712,485.505,9.712,492.645,9.712C499.785,9.712,506.925,9.712,514.065,9.712C521.204,9.712,528.344,9.712,535.484,9.712C542.624,9.712,549.763,9.712,556.903,9.712C564.043,9.712,571.183,9.712,578.323,9.712C585.462,9.712,592.602,9.712,599.742,9.712C606.882,9.712,614.022,9.712,621.161,9.712C628.301,9.712,635.441,9.712,639.011,9.712L642.581,9.712L642.581,9.712L639.011,9.712C635.441,9.712,628.301,9.712,621.161,9.712C614.022,9.712,606.882,9.712,599.742,9.712C592.602,9.712,585.462,9.712,578.323,9.712C571.183,9.712,564.043,9.712,556.903,9.712C549.763,9.712,542.624,9.712,535.484,9.712C528.344,9.712,521.204,9.712,514.065,9.712C506.925,9.712,499.785,9.712,492.645,9.712C485.505,9.712,478.366,9.712,471.226,9.712C464.086,9.712,456.946,9.712,449.806,9.712C442.667,9.712,435.527,9.712,428.387,9.712C421.247,9.712,414.108,9.712,406.968,9.712C399.828,9.712,392.688,9.712,385.548,9.712C378.409,9.712,371.269,9.712,364.129,9.712C356.989,9.712,349.849,9.712,342.71,9.712C335.57,9.712,328.43,9.712,321.29,9.712C314.151,9.712,307.011,9.712,299.871,11.227C292.731,12.742,285.591,15.772,278.452,17.439C271.312,19.105,264.172,19.409,257.032,19.56C249.892,19.712,242.753,19.712,235.613,19.712C228.473,19.712,221.333,19.712,214.194,19.473C207.054,19.235,199.914,18.759,192.774,18.787C185.634,18.815,178.495,19.346,171.355,17.918C164.215,16.489,157.075,13.1,149.935,11.406C142.796,9.712,135.656,9.712,128.516,11.378C121.376,13.045,114.237,16.378,107.097,18.045C99.957,19.712,92.817,19.712,85.677,19.712C78.538,19.712,71.398,19.712,64.258,19.341C57.118,18.971,49.978,18.23,42.839,18.23C35.699,18.23,28.559,18.971,21.419,19.293C14.28,19.615,7.14,19.519,3.57,19.471L0,19.423Z" fill="#6f8be0"></path><polygon points="437.682095959921,-23,461.93080726588533,-23,449.8064516129032,-44" fill="rgb(250, 199, 88)" stroke-linejoin="round" opacity="1" stroke="rgb(250, 199, 88)" stroke-width="5px"></polygon><text y="-23" x="449.8064516129032" fill="white" font-size="18" style="text-anchor: middle;" transform="rotate(0 449.8064516129032 -23)">T</text><polygon points="630.4562895083081,-23,654.7050008142724,-23,642.5806451612902,-44" fill="rgb(250, 199, 88)" stroke-linejoin="round" opacity="1" stroke="rgb(250, 199, 88)" stroke-width="5px"></polygon><text y="-23" x="642.5806451612902" fill="white" font-size="18" style="text-anchor: middle;" transform="rotate(0 642.5806451612902 -23)">T</text><polygon points="287.7466120889533,-23,311.99532339491765,-23,299.8709677419355,-44" fill="rgb(250, 199, 88)" stroke-linejoin="round" opacity="1" stroke="rgb(250, 199, 88)" stroke-width="5px"></polygon><text y="-23" x="299.8709677419355" fill="white" font-size="18" style="text-anchor: middle;" transform="rotate(0 299.8709677419355 -23)">E</text><polygon points="330.58532176637266,-23,354.834033072337,-23,342.7096774193548,-44" fill="rgb(250, 199, 88)" stroke-linejoin="round" opacity="1" stroke="rgb(250, 199, 88)" stroke-width="5px"></polygon><text y="-23" x="342.7096774193548" fill="white" font-size="18" style="text-anchor: middle;" transform="rotate(0 342.7096774193548 -23)">E</text><polygon points="373.424031443792,-23,397.6727427497563,-23,385.54838709677415,-44" fill="rgb(250, 199, 88)" stroke-linejoin="round" opacity="1" stroke="rgb(250, 199, 88)" stroke-width="5px"></polygon><text y="-23" x="385.54838709677415" fill="white" font-size="18" style="text-anchor: middle;" transform="rotate(0 385.54838709677415 -23)">E</text><polygon points="416.2627411212114,-23,440.5114524271757,-23,428.38709677419354,-44" fill="rgb(250, 199, 88)" stroke-linejoin="round" opacity="1" stroke="rgb(250, 199, 88)" stroke-width="5px"></polygon><text y="-23" x="428.38709677419354" fill="white" font-size="18" style="text-anchor: middle;" transform="rotate(0 428.38709677419354 -23)">E</text><polygon points="480.5208056373404,-23,504.7695169433047,-23,492.64516129032256,-44" fill="rgb(250, 199, 88)" stroke-linejoin="round" opacity="1" stroke="rgb(250, 199, 88)" stroke-width="5px"></polygon><text y="-23" x="492.64516129032256" fill="white" font-size="18" style="text-anchor: middle;" transform="rotate(0 492.64516129032256 -23)">E</text></g><g width="724" height="659"></g><g width="724" height="659"></g><g width="724" height="659"></g><g></g></svg>