<?xml version="1.0" standalone="no"?>
<!DOCTYPE svg PUBLIC "-//W3C//DTD SVG 1.1//EN" "http://www.w3.org/Graphics/SVG/1.1/DTD/svg11.dtd">
<svg t="1679468177819" class="icon" viewBox="0 0 5024 5024" version="1.1" xmlns="http://www.w3.org/2000/svg" p-id="2610" xmlns:xlink="http://www.w3.org/1999/xlink" width="5000" height="5000"><g id="groups" width="1018" height="47"><g id="tootTopicEntG" width="1018" height="47"><rect x="5" y="5" id="rootEnt_0" class="rootEnt" opacity="0.8" width="114.56547619047619" height="37" fill="rgb(91, 107, 255)" rx="23.5" stroke="rgb(150,150,150)" stroke-width="2"></rect><rect x="119.56547619047619" y="5" id="rootEnt_5" class="rootEnt" opacity="0.8" width="114.56547619047619" height="37" fill="rgb(6, 214, 160)" rx="23.5" stroke="rgb(150,150,150)" stroke-width="2"></rect><rect x="234.13095238095238" y="5" id="rootEnt_9" class="rootEnt" opacity="0.8" width="100.9985119047619" height="37" fill="rgb(255, 120, 90)" rx="23.5" stroke="rgb(150,150,150)" stroke-width="2"></rect><rect x="335.1294642857143" y="5" id="rootEnt_11" class="rootEnt" opacity="0.8" width="123.6101190476191" height="37" fill="rgb(125, 98, 211)" rx="23.5" stroke="rgb(150,150,150)" stroke-width="2"></rect><rect x="458.73958333333337" y="5" id="rootEnt_15" class="rootEnt" opacity="0.8" width="102.50595238095241" height="37" fill="rgb(255, 113, 212)" rx="23.5" stroke="rgb(150,150,150)" stroke-width="2"></rect><rect x="559.7380952380953" y="5" id="rootEnt_19" class="rootEnt" opacity="0.8" width="54.267857142857" height="37" fill="rgb(250, 199, 88)" rx="23.5" stroke="rgb(150,150,150)" stroke-width="2"></rect><rect x="614.0059523809523" y="5" id="rootEnt_20" class="rootEnt" opacity="0.8" width="217.07142857142867" height="37" fill="rgb(112, 214, 255)" rx="23.5" stroke="rgb(150,150,150)" stroke-width="2"></rect><rect x="831.077380952381" y="5" id="rootEnt_30" class="rootEnt" opacity="0.8" width="82.90922619047626" height="37" fill="rgb(250, 199, 88)" rx="23.5" stroke="rgb(150,150,150)" stroke-width="2"></rect><rect x="913.9866071428572" y="5" id="rootEnt_31" class="rootEnt" opacity="0.8" width="75.37202380952374" height="37" fill="rgb(255, 159, 28)" rx="23.5" stroke="rgb(150,150,150)" stroke-width="2"></rect><rect x="989.358630952381" y="5" id="rootEnt_34" class="rootEnt" opacity="0.8" width="28.641369047619037" height="37" fill="rgb(255, 77, 109)" rx="23.5" stroke="rgb(150,150,150)" stroke-width="2"></rect></g><g id="rootOriLineG" width="1018" height="47"><line x1="0" y1="23.5" x2="1018" y2="23.5" stroke="rgb(200,200,200)" stroke-width="5px"></line><rect x="0" y="18.5" id="division_0" class="rootdivisionLine" opacity="1" width="10" height="10" fill="rgb(250,250,250)" rx="23.5" stroke="" stroke-width="0"></rect><rect x="114.56547619047619" y="18.5" id="division_5" class="rootdivisionLine" opacity="1" width="10" height="10" fill="rgb(250,250,250)" rx="23.5" stroke="" stroke-width="0"></rect><rect x="229.13095238095238" y="18.5" id="division_9" class="rootdivisionLine" opacity="1" width="10" height="10" fill="rgb(250,250,250)" rx="23.5" stroke="" stroke-width="0"></rect><rect x="330.1294642857143" y="18.5" id="division_11" class="rootdivisionLine" opacity="1" width="10" height="10" fill="rgb(250,250,250)" rx="23.5" stroke="" stroke-width="0"></rect><rect x="453.73958333333337" y="18.5" id="division_15" class="rootdivisionLine" opacity="1" width="10" height="10" fill="rgb(250,250,250)" rx="23.5" stroke="" stroke-width="0"></rect><rect x="554.7380952380953" y="18.5" id="division_19" class="rootdivisionLine" opacity="1" width="10" height="10" fill="rgb(250,250,250)" rx="23.5" stroke="" stroke-width="0"></rect><rect x="609.0059523809523" y="18.5" id="division_20" class="rootdivisionLine" opacity="1" width="10" height="10" fill="rgb(250,250,250)" rx="23.5" stroke="" stroke-width="0"></rect><rect x="826.077380952381" y="18.5" id="division_30" class="rootdivisionLine" opacity="1" width="10" height="10" fill="rgb(250,250,250)" rx="23.5" stroke="" stroke-width="0"></rect><rect x="908.9866071428572" y="18.5" id="division_31" class="rootdivisionLine" opacity="1" width="10" height="10" fill="rgb(250,250,250)" rx="23.5" stroke="" stroke-width="0"></rect><rect x="984.358630952381" y="18.5" id="division_34" class="rootdivisionLine" opacity="1" width="10" height="10" fill="rgb(250,250,250)" rx="23.5" stroke="" stroke-width="0"></rect></g></g></svg>