<?xml version="1.0" standalone="no"?>
<!DOCTYPE svg PUBLIC "-//W3C//DTD SVG 1.1//EN" "http://www.w3.org/Graphics/SVG/1.1/DTD/svg11.dtd">
<svg t="1679468177819" class="icon" viewBox="0 0 5024 5024" version="1.1" xmlns="http://www.w3.org/2000/svg" p-id="2610" xmlns:xlink="http://www.w3.org/1999/xlink" width="5000" height="5000"><g id="groups" width="1714" height="519" transform="translate(517.7476535514122,216.06475292003233) scale(0.40053493879481117)">
<path d="M671,211.107C671,214.643,671,218.179,671,221.714C671,225.25,671,228.786,671,232.321C671,235.857,671,239.393,671,242.929C671,246.464,671,250,671,253.536C671,257.071,671,260.607,671,264.143C671,267.679,671,271.214,671,274.75C671,278.286,671,281.821,671,285.357C671,288.893,671,292.429,671,295.964C671,299.5,671,303.036,671,306.571C671,310.107,671,313.643,671,317.179C671,320.714,671,324.25,671,327.786C671,331.321,671,334.857,671,338.393C671,341.929,671,345.464,659,347.232C647,349,623,349,611,347.232C599,345.464,599,341.929,601.24,338.393C603.48,334.857,607.96,331.321,608.08,327.786C608.2,324.25,603.96,320.714,603.053,317.179C602.147,313.643,604.573,310.107,604.453,306.571C604.333,303.036,601.667,299.5,600.333,295.964C599,292.429,599,288.893,599,285.357C599,281.821,599,278.286,599,274.75C599,271.214,599,267.679,599,264.143C599,260.607,599,257.071,599,253.536C599,250,599,246.464,599,242.929C599,239.393,599,235.857,599,232.321C599,228.786,599,225.25,599,221.714C599,218.179,599,214.643,599,211.107C599,207.571,599,204.036,611,202.268C623,200.5,647,200.5,659,202.268C671,204.036,671,207.571,671,211.107" stroke="none" class="setstuScoreLine" id="setstuScoreLine_proSetValuePoly_1573619795390476288" stroke-dasharray="0" stroke-width="1" style="stroke-opacity: 1;" fill="rgba(253, 195, 190,1)"></path>
<path d="M668.33,211.107C666.68,214.643,663.08,218.179,662.72,221.714C662.36,225.25,665.24,228.786,662.84,232.321C660.44,235.857,652.76,239.393,651.32,242.929C649.88,246.464,654.68,250,658.933,253.536C663.185,257.071,666.89,260.607,668.54,264.143C670.19,267.679,669.785,271.214,663.103,274.75C656.42,278.286,643.46,281.821,641.023,285.357C638.585,288.893,646.67,292.429,652.25,295.964C657.829,299.5,660.903,303.036,661.434,306.571C661.965,310.107,659.952,313.643,658.726,317.179C657.499,320.714,657.058,324.25,657.966,327.786C658.874,331.321,661.13,334.857,660.183,338.393C659.236,341.929,655.086,345.464,650.962,347.232C646.838,349,642.741,349,643.4,347.232C644.06,345.464,649.474,341.929,651.216,338.393C652.958,334.857,651.026,331.321,648.906,327.786C646.785,324.25,644.475,320.714,645.348,317.179C646.221,313.643,650.277,310.107,646.39,306.571C642.504,303.036,630.674,299.5,622.202,295.964C613.73,292.429,608.615,288.893,613.978,285.357C619.34,281.821,635.18,278.286,644.698,274.75C654.215,271.214,657.41,267.679,653.06,264.143C648.71,260.607,636.815,257.071,628.468,253.536C620.12,250,615.32,246.464,618.68,242.929C622.04,239.393,633.56,235.857,635.96,232.321C638.36,228.786,631.64,225.25,633.68,221.714C635.72,218.179,646.52,214.643,650.87,211.107C655.22,207.571,653.12,204.036,655.13,202.268C657.14,200.5,663.26,200.5,666.47,202.268C669.68,204.036,669.98,207.571,668.33,211.107" stroke="none" class="setstuScoreLine" id="setstuScoreLinefc_proSetValuePoly_1573619795390476288" stroke-dasharray="0" stroke-width="1" style="stroke-opacity: 1;" fill="rgba(255, 77, 109,1)"></path>
<path d="M660.2,200.5L660.8,202.268C661.4,204.036,662.6,207.571,659.6,211.107C656.6,214.643,649.4,218.179,648.2,221.714C647,225.25,651.8,228.786,649.4,232.321C647,235.857,637.4,239.393,635,242.929C632.6,246.464,637.4,250,643.7,253.536C650,257.071,657.8,260.607,660.8,264.143C663.8,267.679,662,271.214,653.9,274.75C645.8,278.286,631.4,281.821,627.5,285.357C623.6,288.893,630.2,292.429,637.226,295.964C644.252,299.5,651.703,303.036,653.912,306.571C656.121,310.107,653.086,313.643,652.037,317.179C650.987,320.714,651.921,324.25,653.436,327.786C654.95,331.321,657.044,334.857,655.7,338.393C654.355,341.929,649.573,345.464,647.181,347.232L644.79,349" stroke="white" class="setstuScoreLine" id="setstuScoreLineAv_proSetValuePoly_1573619795390476288" stroke-dasharray="0" stroke-width="1" style="stroke-opacity: 1;" fill="none"></path>
<path d="M688.833,211.107C688.833,214.643,688.833,218.179,688.833,221.714C688.833,225.25,688.833,228.786,688.833,232.321C688.833,235.857,688.833,239.393,688.833,242.929C688.833,246.464,688.833,250,688.833,253.536C688.833,257.071,688.833,260.607,688.833,264.143C688.833,267.679,688.833,271.214,688.833,274.75C688.833,278.286,688.833,281.821,688.833,285.357C688.833,288.893,688.833,292.429,691,295.964C693.167,299.5,697.5,303.036,699.306,306.571C701.111,310.107,700.389,313.643,703.278,317.179C706.167,320.714,712.667,324.25,710.861,327.786C709.056,331.321,698.944,334.857,698.944,338.393C698.944,341.929,709.056,345.464,707.25,347.232C705.444,349,691.722,349,684.861,347.232C678,345.464,678,341.929,678.361,338.393C678.722,334.857,679.444,331.321,679.806,327.786C680.167,324.25,680.167,320.714,680.167,317.179C680.167,313.643,680.167,310.107,679.806,306.571C679.444,303.036,678.722,299.5,678.361,295.964C678,292.429,678,288.893,678,285.357C678,281.821,678,278.286,678,274.75C678,271.214,678,267.679,678,264.143C678,260.607,678,257.071,678,253.536C678,250,678,246.464,678,242.929C678,239.393,678,235.857,678,232.321C678,228.786,678,225.25,678,221.714C678,218.179,678,214.643,678,211.107C678,207.571,678,204.036,679.806,202.268C681.611,200.5,685.222,200.5,687.028,202.268C688.833,204.036,688.833,207.571,688.833,211.107" stroke="none" class="setstuAttemptsLine" id="setstuAttemptsLine_proSetValuePoly_1573619795390476288" stroke-dasharray="0" stroke-width="1" style="stroke-opacity: 1;" fill="rgba(250, 210, 50,1)"></path>
<path d="M680.531,211.107C680.531,214.643,680.531,218.179,680.531,221.714C680.531,225.25,680.531,228.786,680.531,232.321C680.531,235.857,680.531,239.393,680.531,242.929C680.531,246.464,680.531,250,680.531,253.536C680.531,257.071,680.531,260.607,680.531,264.143C680.531,267.679,680.531,271.214,680.531,274.75C680.531,278.286,680.531,281.821,680.531,285.357C680.531,288.893,680.531,292.429,681.912,295.964C683.293,299.5,686.056,303.036,687.576,306.571C689.096,310.107,689.374,313.643,690.516,317.179C691.657,320.714,693.661,324.25,692.69,327.786C691.719,331.321,687.771,334.857,688.303,338.393C688.835,341.929,693.847,345.464,693.047,347.232C692.247,349,685.636,349,682.381,347.232C679.125,345.464,679.226,341.929,679.108,338.393C678.99,334.857,678.654,331.321,678.639,327.786C678.625,324.25,678.932,320.714,678.828,317.179C678.723,313.643,678.207,310.107,678.264,306.571C678.322,303.036,678.954,299.5,679.27,295.964C679.586,292.429,679.586,288.893,679.586,285.357C679.586,281.821,679.586,278.286,679.586,274.75C679.586,271.214,679.586,267.679,679.586,264.143C679.586,260.607,679.586,257.071,679.586,253.536C679.586,250,679.586,246.464,679.586,242.929C679.586,239.393,679.586,235.857,679.586,232.321C679.586,228.786,679.586,225.25,679.586,221.714C679.586,218.179,679.586,214.643,679.586,211.107C679.586,207.571,679.586,204.036,679.744,202.268C679.901,200.5,680.216,200.5,680.373,202.268C680.531,204.036,680.531,207.571,680.531,211.107" stroke="none" class="setstuAttemptsLine" id="setstuAttemptsLinefc_proSetValuePoly_1573619795390476288" stroke-dasharray="0" stroke-width="1" style="stroke-opacity: 1;" fill="rgba(181, 146, 9,1)"></path>
<path d="M680.058,200.5L680.058,202.268C680.058,204.036,680.058,207.571,680.058,211.107C680.058,214.643,680.058,218.179,680.058,221.714C680.058,225.25,680.058,228.786,680.058,232.321C680.058,235.857,680.058,239.393,680.058,242.929C680.058,246.464,680.058,250,680.058,253.536C680.058,257.071,680.058,260.607,680.058,264.143C680.058,267.679,680.058,271.214,680.058,274.75C680.058,278.286,680.058,281.821,680.058,285.357C680.058,288.893,680.058,292.429,680.591,295.964C681.124,299.5,682.189,303.036,682.92,306.571C683.651,310.107,684.049,313.643,684.672,317.179C685.294,320.714,686.143,324.25,685.665,327.786C685.186,331.321,683.381,334.857,683.706,338.393C684.031,341.929,686.486,345.464,687.714,347.232L688.942,349" stroke="white" class="setstuAttemptsLine" id="setstuAttemptsLineAv_proSetValuePoly_1573619795390476288" stroke-dasharray="0" stroke-width="1" style="stroke-opacity: 1;" fill="none"></path>

</g></svg>