<?xml version="1.0" standalone="no"?>
<!DOCTYPE svg PUBLIC "-//W3C//DTD SVG 1.1//EN" "http://www.w3.org/Graphics/SVG/1.1/DTD/svg11.dtd">
<svg t="1679468177819" class="icon" viewBox="0 0 5024 5024" version="1.1" xmlns="http://www.w3.org/2000/svg" p-id="2610" xmlns:xlink="http://www.w3.org/1999/xlink" width="5000" height="5000"><g id="groups" width="1714" height="519" transform="translate(517.7476535514122,216.06475292003233) scale(0.40053493879481117)"><g id="backG" width="1714" height="519"></g><g id="arcG" width="1714" height="519"><path d="M232.66019642841837,23.12851314179916A67.60326660002693,67.60326660002693,0,0,1,262.1694311987402,65.62989206043821" stroke="rgb(200,200,200)" class="midArc " id="midArc " stroke-dasharray="9,5" stroke-width="3" fill="none"></path><path d="M1287.4105970983064,1.5468692036128573A83.96152422706632,83.96152422706632,0,0,1,1322.6299023276881,27.01289427305864" stroke="rgb(200,200,200)" class="midArc " id="midArc " stroke-dasharray="9,5" stroke-width="3" fill="none"></path><path d="M1332.3391695410924,41.9390455593679A83.96152422706632,83.96152422706632,0,0,1,1341.3430992410326,84.45783133267666" stroke="rgb(200,200,200)" class="midArc " id="midArc " stroke-dasharray="9,5" stroke-width="3" fill="none"></path><path d="M1239.7942144338278,162.07339829699373A83.96152422706632,83.96152422706632,0,0,1,1201.1296407572383,142.22475511702902" stroke="rgb(200,200,200)" class="midArc " id="midArc " stroke-dasharray="9,5" stroke-width="3" fill="none"></path><path d="M1650.6900037771197,50.928802642365596A61.34863868380597,61.34863868380597,0,0,1,1655.4233754685906,97.64382722433243" stroke="rgb(200,200,200)" class="midArc " id="midArc " stroke-dasharray="9,5" stroke-width="3" fill="none"></path></g><g id="timeLineG" width="1714" height="519"><path d="M20,80C75,80,45,80,100,80M292.22222222222223,80C347.22222222222223,80,221.1111111111111,80,276.1111111111111,80M468.33333333333337,80C523.3333333333334,80,397.2222222222223,80,452.2222222222223,80M639.4444444444445,80C694.4444444444445,80,570.8333333333333,80,625.8333333333333,80M821.3888888888889,80C876.3888888888889,80,748.6111111111111,80,803.6111111111111,80M991.3888888888889,80C1046.388888888889,80,950,80,1027,80M1098,80C1153,80,1087.5,80,1142.5,80M1372.5,80C1427.5,80,1310,80,1387,80M1468.5555555555557,80C1523.5555555555557,80,1452.7777777777778,80,1507.7777777777778,80M1685.5555555555557,80C1740.5555555555557,80,1649.1666666666667,80,1726.1666666666667,80M1787.7222222222224,80" stroke="rgb(200,200,200)" class="timeLine " id="timeLine " stroke-dasharray="0" stroke-width="5" fill="none"></path><path d="M897.5,21.111111111111114C1077.5,-61.44444444444444,1077.5,-61.44444444444444,1257.5,0" stroke="rgb(200,200,200)" class="basicRel source20 target15" id="basicRel20_15" stroke-dasharray="9,9" stroke-width="5" fill="none"></path><path d="M1257.5,0C1342.638888888889,-12.69444444444445,1342.638888888889,-12.69444444444445,1427.7777777777778,42.72222222222223" stroke="rgb(200,200,200)" class="basicRel source30 target20" id="basicRel30_20" stroke-dasharray="9,9" stroke-width="5" fill="none"></path><path d="M216.66666666666669,18.888888888888886L216.66666666666669,16.311107491267123L351.6666666666667,16.311107491267123L351.6666666666667,18.888888888888886" stroke="rgb(200,200,200)" class="similarityRel source0 target5" id="similarityRel0_5" stroke-dasharray="0" stroke-width="5" fill="none"></path></g><g id="circleG" width="1714" height="519"><circle id="entCircle_0" class="entCircle" opacity="1" cx="196.11111111111111" cy="80" r="41.111111111111114" fill="rgb(125, 193, 208)"></circle><path d="M161.278,97.802L162.138,97.802C162.998,97.802,164.718,97.802,165.917,88.725C167.117,79.648,167.794,61.495,169.28,65.063C170.765,68.631,173.058,93.92,174.782,94.223C176.506,94.526,177.661,69.843,178.916,66.275C180.171,62.707,181.524,80.254,190.34,89.028C199.157,97.802,215.436,97.802,223.575,97.802L231.714,97.802" stroke="white" class="sonLine " id="sonLine " stroke-dasharray="0" stroke-width="2" fill="none"></path><circle id="linePoint_0" class="linePoint" opacity="0" cx="165.59865940603305" cy="53.35706429763233" r="5" fill="red"></circle><circle id="linePoint_5" class="linePoint" opacity="0" cx="168.62538929589033" cy="53.35706429763233" r="5" fill="red"></circle><path d="M0,-60.603A60.603,60.603,0,1,1,-0.742,60.599L-0.558,45.6A45.603,45.603,0,1,0,0,-45.603Z" class="type f0 t1" transform="translate(196.11111111111111,80)" stroke="#ff9c9c" stroke-width="3" stroke-dasharray="0" stroke-linejoin="round" fill="#ff9c9c"></path><path d="M-0.742,60.599A60.603,60.603,0,0,1,0,-60.603L0,-45.603A45.603,45.603,0,0,0,-0.558,45.6Z" class="type f0 t2" transform="translate(196.11111111111111,80)" stroke="#f4f4d0" stroke-width="3" stroke-dasharray="0" stroke-linejoin="round" fill="#f4f4d0"></path><path d="M0,-75.603A75.603,75.603,0,0,1,40.874,-63.602L34.387,-53.506A63.603,63.603,0,0,0,0,-63.603Z" class="son f0 s1" transform="translate(196.11111111111111,80)" stroke="rgb(203, 230, 209)" stroke-width="3" stroke-dasharray="0" stroke-linejoin="round" fill="rgb(203, 230, 209)"></path><path d="M73.875,-16.071A75.603,75.603,0,1,1,-53.46,-53.46L-44.974,-44.974A63.603,63.603,0,1,0,62.15,-13.52Z" class="son f0 s2" transform="translate(196.11111111111111,80)" stroke="rgb(151, 205, 208)" stroke-width="3" stroke-dasharray="0" stroke-linejoin="round" fill="rgb(151, 205, 208)"></path><text y="193.4048999000404" x="196.11111111111111" id="text_0_1" fill="grey" font-size="16" style="text-anchor: middle;"> Random Variables</text><circle id="entCircle_5" class="entCircle" opacity="1" cx="372.22222222222223" cy="80" r="41.111111111111114" fill="rgb(151, 205, 208)"></circle><path d="M337.389,97.802L338.249,97.802C339.109,97.802,340.829,97.802,342.029,88.725C343.228,79.648,343.906,61.495,345.391,65.063C346.876,68.631,349.169,93.92,350.893,94.223C352.617,94.526,353.772,69.843,355.027,66.275C356.282,62.707,357.635,80.254,366.452,89.028C375.268,97.802,391.547,97.802,399.686,97.802L407.825,97.802" stroke="white" class="sonLine " id="sonLine " stroke-dasharray="0" stroke-width="2" fill="none"></path><circle id="linePoint_0" class="linePoint" opacity="0" cx="341.7097705171442" cy="53.35706429763233" r="5" fill="red"></circle><circle id="linePoint_5" class="linePoint" opacity="0" cx="344.7365004070015" cy="53.35706429763233" r="5" fill="red"></circle><path d="M0,-60.603A60.603,60.603,0,1,1,0,60.603L0,45.603A45.603,45.603,0,1,0,0,-45.603Z" class="type f5 t1" transform="translate(372.22222222222223,80)" stroke="#ff9c9c" stroke-width="3" stroke-dasharray="0" stroke-linejoin="round" fill="#ff9c9c"></path><path d="M0,60.603A60.603,60.603,0,1,1,0,-60.603L0,-45.603A45.603,45.603,0,1,0,0,45.603Z" class="type f5 t2" transform="translate(372.22222222222223,80)" stroke="#f4f4d0" stroke-width="3" stroke-dasharray="0" stroke-linejoin="round" fill="#f4f4d0"></path><path d="M0,-75.603A75.603,75.603,0,1,1,-65.474,-37.802L-55.082,-31.802A63.603,63.603,0,1,0,0,-63.603Z" class="son f5 s6" transform="translate(372.22222222222223,80)" stroke="rgb(22, 144, 207)" stroke-width="3" stroke-dasharray="0" stroke-linejoin="round" fill="rgb(22, 144, 207)"></path><text y="193.4048999000404" x="372.22222222222223" id="text_5_1" fill="grey" font-size="16" style="text-anchor: middle;"> Random Variables</text><circle id="entCircle_9" class="entCircle" opacity="1" cx="545.8333333333334" cy="80" r="38.611111111111114" fill="rgb(151, 205, 208)"></circle><path d="M512.875,96.719L513.861,96.719C514.846,96.719,516.817,96.719,518.411,88.294C520.005,79.87,521.221,63.02,523.124,66.179C525.027,69.337,527.616,92.503,529.527,93.064C531.438,93.625,532.67,71.581,533.88,68.422C535.09,65.264,536.278,80.991,543.839,88.855C551.401,96.719,565.336,96.719,572.304,96.719L579.272,96.719" stroke="white" class="sonLine " id="sonLine " stroke-dasharray="0" stroke-width="2" fill="none"></path><circle id="linePoint_6" class="linePoint" opacity="0" cx="520.21966976596" cy="57.376109891774846" r="5" fill="red"></circle><circle id="linePoint_9" class="linePoint" opacity="0" cx="524.8007035893675" cy="58.57554342762547" r="5" fill="red"></circle><path d="M0,-58.438A58.438,58.438,0,0,1,58.302,-3.988L43.337,-2.964A43.438,43.438,0,0,0,0,-43.438Z" class="type f9 t1" transform="translate(545.8333333333334,80)" stroke="#ff9c9c" stroke-width="3" stroke-dasharray="0" stroke-linejoin="round" fill="#ff9c9c"></path><path d="M58.302,-3.988A58.438,58.438,0,1,1,0,-58.438L0,-43.438A43.438,43.438,0,1,0,43.337,-2.964Z" class="type f9 t2" transform="translate(545.8333333333334,80)" stroke="#f4f4d0" stroke-width="3" stroke-dasharray="0" stroke-linejoin="round" fill="#f4f4d0"></path><path d="M0,-73.438A73.438,73.438,0,1,1,-63.599,-36.719L-53.207,-30.719A61.438,61.438,0,1,0,0,-61.438Z" class="son f9 s10" transform="translate(545.8333333333334,80)" stroke="rgb(151, 205, 208)" stroke-width="3" stroke-dasharray="0" stroke-linejoin="round" fill="rgb(151, 205, 208)"></path><text y="190.15730463584873" x="545.8333333333334" id="text_9_0" fill="grey" font-size="16" style="text-anchor: middle;"> expectation</text><text y="215.15730463584873" x="545.8333333333334" id="text_9_3" fill="grey" font-size="16" style="text-anchor: middle;"> of linear functions</text><circle id="entCircle_11" class="entCircle" opacity="1" cx="723.6111111111111" cy="80" r="42.77777777777777" fill="rgb(177, 218, 209)"></circle><path d="M687.528,98.523L690.147,98.523C692.766,98.523,698.005,98.523,701.512,89.779C705.019,81.034,706.793,63.545,708.568,63.545C710.343,63.545,712.118,81.034,720.8,89.779C729.481,98.523,745.069,98.523,752.864,98.523L760.658,98.523" stroke="white" class="sonLine " id="sonLine " stroke-dasharray="0" stroke-width="2" fill="none"></path><circle id="linePoint_11" class="linePoint" opacity="0" cx="705.8287228200707" cy="49.61920766366432" r="5" fill="red"></circle><path d="M0,-62.047A62.047,62.047,0,1,1,0,62.047L0,47.047A47.047,47.047,0,1,0,0,-47.047Z" class="type f11 t1" transform="translate(723.6111111111111,80)" stroke="#ff9c9c" stroke-width="3" stroke-dasharray="0" stroke-linejoin="round" fill="#ff9c9c"></path><path d="M0,62.047A62.047,62.047,0,1,1,0,-62.047L0,-47.047A47.047,47.047,0,1,0,0,47.047Z" class="type f11 t2" transform="translate(723.6111111111111,80)" stroke="#f4f4d0" stroke-width="3" stroke-dasharray="0" stroke-linejoin="round" fill="#f4f4d0"></path><path d="M0,-77.047A77.047,77.047,0,1,1,-66.724,-38.523L-56.332,-32.523A65.047,65.047,0,1,0,0,-65.047Z" class="son f11 s12" transform="translate(723.6111111111111,80)" stroke="rgb(151, 205, 208)" stroke-width="3" stroke-dasharray="0" stroke-linejoin="round" fill="rgb(151, 205, 208)"></path><text y="195.56996340950147" x="723.6111111111111" id="text_11_1" fill="grey" font-size="16" style="text-anchor: middle;"> Two random</text><text y="220.56996340950147" x="723.6111111111111" id="text_11_2" fill="grey" font-size="16" style="text-anchor: middle;"> variables</text><circle id="entCircle_15" class="entCircle" opacity="1" cx="897.5" cy="80" r="38.888888888888886" fill="rgb(151, 205, 208)"></circle><path d="M864.333,96.839L867.551,96.839C870.768,96.839,877.203,96.839,881.163,89.449C885.123,82.058,886.607,67.277,888.092,67.277C889.576,67.277,891.06,82.058,898.242,89.449C905.423,96.839,918.301,96.839,924.74,96.839L931.179,96.839" stroke="white" class="sonLine " id="sonLine " stroke-dasharray="0" stroke-width="2" fill="none"></path><circle id="linePoint_15" class="linePoint" opacity="0" cx="886.3860073180997" cy="58.01872312849787" r="5" fill="red"></circle><path d="M0,-58.679A58.679,58.679,0,0,1,0.07,58.679L0.052,43.679A43.679,43.679,0,0,0,0,-43.679Z" class="type f15 t1" transform="translate(897.5,80)" stroke="#ff9c9c" stroke-width="3" stroke-dasharray="0" stroke-linejoin="round" fill="#ff9c9c"></path><path d="M0.07,58.679A58.679,58.679,0,1,1,0,-58.679L0,-43.679A43.679,43.679,0,1,0,0.052,43.679Z" class="type f15 t2" transform="translate(897.5,80)" stroke="#f4f4d0" stroke-width="3" stroke-dasharray="0" stroke-linejoin="round" fill="#f4f4d0"></path><path d="M0,-73.679A73.679,73.679,0,1,1,-63.808,-36.839L-53.415,-30.839A61.679,61.679,0,1,0,0,-61.679Z" class="son f15 s16" transform="translate(897.5,80)" stroke="rgb(151, 205, 208)" stroke-width="3" stroke-dasharray="0" stroke-linejoin="round" fill="rgb(151, 205, 208)"></path><text y="190.51814855409225" x="897.5" id="text_15_2" fill="grey" font-size="16" style="text-anchor: middle;"> Sum of two</text><text y="215.51814855409225" x="897.5" id="text_15_4" fill="grey" font-size="16" style="text-anchor: middle;"> random variables</text><polygon points="1036.519237886467,95,1088.480762113533,95,1062.5,50" fill="rgb(250, 199, 88)" stroke-linejoin="round" opacity="1" stroke="rgb(250, 199, 88)" stroke-width="15px"></polygon><text y="88" x="1062.5" id="T_0" fill="white" font-size="28" style="text-anchor: middle;"> T</text><text y="140" x="1062.5" id="text_19_0" fill="grey" font-size="16" style="text-anchor: middle;"> Test</text><circle id="entCircle_20" class="entCircle" opacity="1" cx="1257.5" cy="80" r="60" fill="rgb(48, 156, 207)"></circle><path d="M1208.5,105.981L1214.659,105.981C1220.819,105.981,1233.137,105.981,1240.988,97.636C1248.838,89.291,1252.22,72.601,1255.602,72.601C1258.984,72.601,1262.366,89.291,1271.343,97.636C1280.319,105.981,1294.89,105.981,1302.176,105.981L1309.462,105.981" stroke="white" class="sonLine " id="sonLine " stroke-dasharray="0" stroke-width="2" fill="none"></path><circle id="linePoint_20" class="linePoint" opacity="0" cx="1255.0058468371008" cy="-1.1319578589119743" r="5" fill="red"></circle><path d="M0,-76.962A76.962,76.962,0,1,1,-0.932,76.956L-0.75,61.957A61.962,61.962,0,1,0,0,-61.962Z" class="type f20 t1" transform="translate(1257.5,80)" stroke="#ff9c9c" stroke-width="3" stroke-dasharray="0" stroke-linejoin="round" fill="#ff9c9c"></path><path d="M-0.932,76.956A76.962,76.962,0,0,1,0,-76.962L0,-61.962A61.962,61.962,0,0,0,-0.75,61.957Z" class="type f20 t2" transform="translate(1257.5,80)" stroke="#f4f4d0" stroke-width="3" stroke-dasharray="0" stroke-linejoin="round" fill="#f4f4d0"></path><path d="M0,-91.962A91.962,91.962,0,0,1,32.761,-85.928L28.486,-74.716A79.962,79.962,0,0,0,0,-79.962Z" class="son f20 s21" transform="translate(1257.5,80)" stroke="rgb(203, 230, 209)" stroke-width="3" stroke-dasharray="0" stroke-linejoin="round" fill="rgb(203, 230, 209)"></path><path d="M71.336,-58.036A91.962,91.962,0,0,1,81.97,-41.687L71.274,-36.248A79.962,79.962,0,0,0,62.027,-50.463Z" class="son f20 s22" transform="translate(1257.5,80)" stroke="rgb(203, 230, 209)" stroke-width="3" stroke-dasharray="0" stroke-linejoin="round" fill="rgb(203, 230, 209)"></path><path d="M91.832,4.883A91.962,91.962,0,0,1,-19.393,89.893L-16.862,78.163A79.962,79.962,0,0,0,79.849,4.245Z" class="son f20 s23" transform="translate(1257.5,80)" stroke="rgb(151, 205, 208)" stroke-width="3" stroke-dasharray="0" stroke-linejoin="round" fill="rgb(151, 205, 208)"></path><path d="M-61.741,68.154A91.962,91.962,0,0,1,-45.981,-79.641L-39.981,-69.249A79.962,79.962,0,0,0,-53.685,59.26Z" class="son f20 s27" transform="translate(1257.5,80)" stroke="rgb(151, 205, 208)" stroke-width="3" stroke-dasharray="0" stroke-linejoin="round" fill="rgb(151, 205, 208)"></path><text y="217.94228634059948" x="1257.5" id="text_20_2" fill="grey" font-size="16" style="text-anchor: middle;"> n Random Variables</text><polygon points="1397.2263260331601,97.63888888888889,1458.3292295223955,97.63888888888889,1427.7777777777778,44.72222222222223" fill="rgb(250, 199, 88)" stroke-linejoin="round" opacity="1" stroke="rgb(250, 199, 88)" stroke-width="15px"></polygon><text y="88" x="1427.7777777777778" id="T_0" fill="white" font-size="28" style="text-anchor: middle;"> T</text><text y="150.55555555555554" x="1427.7777777777778" id="text_30_0" fill="grey" font-size="16" style="text-anchor: middle;"> Test</text><circle id="entCircle_31" class="entCircle" opacity="1" cx="1596.6666666666667" cy="80" r="33.888888888888886" fill="rgb(151, 205, 208)"></circle><path d="M1567.25,94.674L1572.641,94.674C1578.032,94.674,1588.815,94.674,1594.781,88.048C1600.747,81.422,1601.897,68.17,1603.048,68.17C1604.198,68.17,1605.349,81.422,1609.176,88.048C1613.004,94.674,1619.51,94.674,1622.763,94.674L1626.015,94.674" stroke="white" class="sonLine " id="sonLine " stroke-dasharray="0" stroke-width="2" fill="none"></path><circle id="linePoint_31" class="linePoint" opacity="0" cx="1604.179918169721" cy="67.16132865195473" r="5" fill="red"></circle><path d="M0,-54.349A54.349,54.349,0,1,1,0,54.349L0,39.349A39.349,39.349,0,1,0,0,-39.349Z" class="type f31 t1" transform="translate(1596.6666666666667,80)" stroke="#ff9c9c" stroke-width="3" stroke-dasharray="0" stroke-linejoin="round" fill="#ff9c9c"></path><path d="M0,54.349A54.349,54.349,0,1,1,0,-54.349L0,-39.349A39.349,39.349,0,1,0,0,39.349Z" class="type f31 t2" transform="translate(1596.6666666666667,80)" stroke="#f4f4d0" stroke-width="3" stroke-dasharray="0" stroke-linejoin="round" fill="#f4f4d0"></path><path d="M0,-69.349A69.349,69.349,0,0,1,61.068,-32.862L50.501,-27.176A57.349,57.349,0,0,0,0,-57.349Z" class="son f31 s32" transform="translate(1596.6666666666667,80)" stroke="rgb(177, 218, 209)" stroke-width="3" stroke-dasharray="0" stroke-linejoin="round" fill="rgb(177, 218, 209)"></path><path d="M66.419,19.945A69.349,69.349,0,1,1,-49.037,-49.037L-40.552,-40.552A57.349,57.349,0,1,0,54.926,16.493Z" class="son f31 s33" transform="translate(1596.6666666666667,80)" stroke="rgb(177, 218, 209)" stroke-width="3" stroke-dasharray="0" stroke-linejoin="round" fill="rgb(177, 218, 209)"></path><text y="184.02295802570896" x="1596.6666666666667" id="text_31_1" fill="grey" font-size="16" style="text-anchor: middle;"> linear transformations</text><text y="209.02295802570896" x="1596.6666666666667" id="text_31_4" fill="grey" font-size="16" style="text-anchor: middle;"> of the n</text><text y="234.02295802570896" x="1596.6666666666667" id="text_31_5" fill="grey" font-size="16" style="text-anchor: middle;"> random</text><text y="259.02295802570893" x="1596.6666666666667" id="text_31_6" fill="grey" font-size="16" style="text-anchor: middle;"> variables</text><circle id="entCircle_34" class="entCircle" opacity="1" cx="1756.9444444444446" cy="80" r="25.27777777777778" fill="rgb(203, 230, 209)"></circle><path d="M1733.986,90.946L1738.468,90.946C1742.95,90.946,1751.913,90.946,1756.734,87.957C1761.555,84.969,1762.233,78.993,1762.912,78.993C1763.59,78.993,1764.269,84.969,1766.923,87.957C1769.577,90.946,1774.206,90.946,1776.521,90.946L1778.836,90.946" stroke="white" class="sonLine " id="sonLine " stroke-dasharray="0" stroke-width="2" fill="none"></path><circle id="linePoint_34" class="linePoint" opacity="0" cx="1764.059083699146" cy="78.53776748282323" r="5" fill="red"></circle><text y="134.72799426693328" x="1756.9444444444446" id="text_34_0" fill="grey" font-size="16" style="text-anchor: middle;"> invite</text></g></g></svg>