<?xml version="1.0" standalone="no"?>
<!DOCTYPE svg PUBLIC "-//W3C//DTD SVG 1.1//EN" "http://www.w3.org/Graphics/SVG/1.1/DTD/svg11.dtd">
<svg t="1679468177819" class="icon" viewBox="0 0 5024 5024" version="1.1" xmlns="http://www.w3.org/2000/svg" p-id="2610" xmlns:xlink="http://www.w3.org/1999/xlink" width="5000" height="5000"><g id="groups" width="1714" height="519" transform="translate(168.48914428882108,159.70558577578458) scale(0.8327757708805498)"><g id="backG" width="1714" height="519"><rect x="115" y="-10.833333333333329" rx="20" ry="20" height="348.6111111111111" width="1603.2222222222222" fill="rgb(91, 107, 255)" opacity="0.1" stroke="white" stroke-width="1.5px"></rect><rect x="460.55555555555554" y="116.94444444444446" rx="20" ry="20" height="204.72222222222223" width="630.6111111111112" fill="rgb(6, 214, 160)" opacity="0.1" stroke="white" stroke-width="1.5px"></rect><rect x="1144.5" y="102.5" rx="20" ry="20" height="235.27777777777777" width="491" fill="rgb(255, 120, 90)" opacity="0.1" stroke="white" stroke-width="1.5px"></rect><rect x="1767.6666666666665" y="0.5555555555555571" rx="20" ry="20" height="227.77777777777777" width="286.94444444444434" fill="rgb(6, 214, 160)" opacity="0.1" stroke="white" stroke-width="1.5px"></rect><rect x="2101.2777777777774" y="7.2222222222222285" rx="20" ry="20" height="221.66666666666666" width="281.11111111111086" fill="rgb(255, 120, 90)" opacity="0.1" stroke="white" stroke-width="1.5px"></rect><rect x="2428.4999999999995" y="4.7222222222222285" rx="20" ry="20" height="238.6111111111111" width="305.2777777777778" fill="rgb(125, 98, 211)" opacity="0.1" stroke="white" stroke-width="1.5px"></rect><rect x="2765.444444444444" y="3.8888888888888857" rx="20" ry="20" height="236.66666666666666" width="374.38888888888914" fill="rgb(255, 113, 212)" opacity="0.1" stroke="white" stroke-width="1.5px"></rect><rect x="3194.2777777777774" y="1.9444444444444429" rx="20" ry="20" height="235.83333333333331" width="299.7222222222222" fill="rgb(112, 214, 255)" opacity="0.1" stroke="white" stroke-width="1.5px"></rect><rect x="3531.2222222222217" y="-20" rx="20" ry="20" height="267.22222222222223" width="709.2222222222226" fill="rgb(255, 159, 28)" opacity="0.1" stroke="white" stroke-width="1.5px"></rect></g><g id="arcG" width="1714" height="519"><path d="M255.10132347628348,22.102199573275065A76.02295802570896,76.02295802570896,0,0,1,277.449564603892,54.49302907868979" stroke="rgb(200,200,200)" class="midArc " id="midArc " stroke-dasharray="9,5" stroke-width="3" fill="none"></path><path d="M281.36238591612835,88.65172600838035A76.02295802570896,76.02295802570896,0,0,1,266.91754858961434,125.25714080123745" stroke="rgb(200,200,200)" class="midArc " id="midArc " stroke-dasharray="9,5" stroke-width="3" fill="none"></path><path d="M130.26044407157383,71.7399421546489A76.02295802570896,76.02295802570896,0,0,1,144.51532031793695,35.060135438317246" stroke="rgb(200,200,200)" class="midArc " id="midArc " stroke-dasharray="9,5" stroke-width="3" fill="none"></path><path d="M567.6125708536524,152.35205038681232A51.966696809474556,51.966696809474556,0,0,1,575.2510522385062,174.18157601690774" stroke="rgb(200,200,200)" class="midArc " id="midArc " stroke-dasharray="9,5" stroke-width="3" fill="none"></path><path d="M571.6220786656042,199.88679390372567A51.966696809474556,51.966696809474556,0,0,1,558.2389416975738,218.7485603108437" stroke="rgb(200,200,200)" class="midArc " id="midArc " stroke-dasharray="9,5" stroke-width="3" fill="none"></path><path d="M535.17478901978,230.66378322344687A51.966696809474556,51.966696809474556,0,0,1,512.0474332024422,230.66378322344687" stroke="rgb(200,200,200)" class="midArc " id="midArc " stroke-dasharray="9,5" stroke-width="3" fill="none"></path><path d="M488.9832805246484,218.74856031084371A51.966696809474556,51.966696809474556,0,0,1,475.600143556618,199.8867939037257" stroke="rgb(200,200,200)" class="midArc " id="midArc " stroke-dasharray="9,5" stroke-width="3" fill="none"></path><path d="M1258.2124610118371,126.65390233064059A64.47595264191645,64.47595264191645,0,0,1,1282.6525458441197,158.12725093387644" stroke="rgb(200,200,200)" class="midArc " id="midArc " stroke-dasharray="9,5" stroke-width="3" fill="none"></path><path d="M1252.9411162321992,236.566737535306A64.47595264191645,64.47595264191645,0,0,1,1213.7827947632277,243.9501837931637" stroke="rgb(200,200,200)" class="midArc " id="midArc " stroke-dasharray="9,5" stroke-width="3" fill="none"></path><path d="M2778.7683170046503,87.82642112345955A63.27313958110473,63.27313958110473,0,0,1,2791.624157955413,41.136833297497674" stroke="rgb(200,200,200)" class="midArc " id="midArc " stroke-dasharray="9,5" stroke-width="3" fill="none"></path><path d="M3715.1584588079527,77.93948104681154A83.96152422706632,83.96152422706632,0,0,1,3707.7401839427894,114.56210474872722" stroke="rgb(200,200,200)" class="midArc " id="midArc " stroke-dasharray="9,5" stroke-width="3" fill="none"></path><path d="M3672.6067057306,153.0538299836293A83.96152422706632,83.96152422706632,0,0,1,3636.8114845673363,163.77528094235038" stroke="rgb(200,200,200)" class="midArc " id="midArc " stroke-dasharray="9,5" stroke-width="3" fill="none"></path><path d="M3577.7303569127503,144.7159786779556A83.96152422706632,83.96152422706632,0,0,1,3554.9485060829147,115.09783151182846" stroke="rgb(200,200,200)" class="midArc " id="midArc " stroke-dasharray="9,5" stroke-width="3" fill="none"></path><path d="M3547.724760077574,71.18459496475849A83.96152422706632,83.96152422706632,0,0,1,3559.8184691795595,35.82940342315064" stroke="rgb(200,200,200)" class="midArc " id="midArc " stroke-dasharray="9,5" stroke-width="3" fill="none"></path></g><g id="timeLineG" width="1714" height="519"><path d="M20,80C75,80,45,80,99.99999999999999,80M311.66666666666663,80C366.66666666666663,80,258.3333333333333,180,335.3333333333333,180M395.77777777777777,180C450.77777777777777,180,390.55555555555554,180,445.55555555555554,180M601.6666666666666,180C656.6666666666666,180,576.1111111111111,280,653.1111111111111,280M705.2222222222222,280C760.2222222222222,280,668.8333333333333,280,745.8333333333333,280M797.3888888888889,280C852.3888888888889,280,761.2777777777777,280,838.2777777777777,280M889.8333333333334,280C944.8333333333334,280,853.7222222222222,280,930.7222222222222,280M982.2777777777778,280C1037.2777777777778,280,946.1666666666667,280,1023.1666666666666,280M1075.8333333333333,280C1130.8333333333333,280,1074.5,180,1129.5,180M1314.5,180C1369.5,180,1274.5,280,1351.5,280M1406.9444444444443,280C1461.9444444444443,280,1368.8888888888887,280,1445.8888888888887,280M1507.4444444444443,280C1562.4444444444443,280,1466.3333333333333,280,1543.3333333333333,280M1612.111111111111,280C1667.111111111111,280,1567.3888888888887,180,1644.3888888888887,180M1700.9444444444443,180C1755.9444444444443,180,1697.6666666666665,80,1752.6666666666665,80M1941.5555555555552,80C1996.5555555555552,80,1899.6111111111109,180,1976.6111111111109,180M2035.9444444444443,180C2090.9444444444443,180,2031.2777777777774,80,2086.2777777777774,80M2261.833333333333,80C2316.833333333333,80,2226.555555555555,180,2303.555555555555,180M2363.444444444444,180C2418.444444444444,180,2358.4999999999995,80,2413.4999999999995,80M2594.055555555555,80C2649.055555555555,80,2556.2777777777774,180,2633.2777777777774,180M2707.6111111111104,180C2762.6111111111104,180,2695.444444444444,80,2750.444444444444,80M2932.6666666666665,80C2987.6666666666665,80,2894.055555555555,180,2971.055555555555,180M3042.611111111111,180C3097.611111111111,180,2996.4999999999995,180,3073.4999999999995,180M3125.055555555555,180C3180.055555555555,180,3124.2777777777774,80,3179.2777777777774,80M3365.3888888888887,80C3420.3888888888887,80,3324.833333333333,180,3401.833333333333,180M3470.6111111111104,180C3525.6111111111104,180,3461.2222222222217,80,3516.2222222222217,80M3746.2222222222217,80C3801.2222222222217,80,3683.7222222222217,180,3760.7222222222217,180M3838.9444444444443,180C3893.9444444444443,180,3789.4999999999995,180,3866.4999999999995,180M3928.611111111111,180C3983.611111111111,180,3887.222222222222,180,3964.222222222222,180M4028.555555555555,180C4083.555555555555,180,3986.055555555555,180,4063.055555555555,180M4123.5,180C4178.5,180,4082.9444444444443,180,4159.944444444444,180M4220.944444444444,180C4275.944444444444,180,4180.111111111111,80,4257.111111111111,80M4308.666666666666,80" stroke="rgb(200,200,200)" class="timeLine " id="timeLine " stroke-dasharray="0" stroke-width="5" fill="none"></path><path d="M3799.833333333333,144.38888888888889C4041.361111111111,4.444444444444429,4041.361111111111,4.444444444444429,4282.888888888889,57.72222222222222" stroke="rgb(200,200,200)" class="basicRel source25 target30" id="basicRel25_30" stroke-dasharray="9,9" stroke-width="5" fill="none"></path><path d="M689.4444444444445,257.44444444444446L689.4444444444445,26.08980648582198L1827.3888888888887,26.08980648582198L1827.3888888888887,20.555555555555557" stroke="rgb(200,200,200)" class="similarityRel source13 target3" id="similarityRel13_3" stroke-dasharray="0" stroke-width="5" fill="none"></path><path d="M781.75,257.72222222222223L781.75,-18.72501553516375L2157.6666666666665,-18.72501553516375L2157.6666666666665,27.22222222222223" stroke="rgb(200,200,200)" class="similarityRel source15 target4" id="similarityRel15_4" stroke-dasharray="0" stroke-width="5" fill="none"></path><path d="M874.1944444444445,257.72222222222223L874.1944444444445,-76.37661418228058L2486.1388888888887,-76.37661418228058L2486.1388888888887,24.72222222222223" stroke="rgb(200,200,200)" class="similarityRel source17 target5" id="similarityRel17_5" stroke-dasharray="0" stroke-width="5" fill="none"></path><path d="M966.6388888888889,257.72222222222223L966.6388888888889,-143.8687859344928L2823.4999999999995,-143.8687859344928L2823.4999999999995,23.888888888888886" stroke="rgb(200,200,200)" class="similarityRel source19 target6" id="similarityRel19_6" stroke-dasharray="0" stroke-width="5" fill="none"></path><path d="M1059.9166666666667,302.8333333333333L1059.9166666666667,486.8997443150014L3253.305555555555,486.8997443150014L3253.305555555555,138.05555555555554" stroke="rgb(200,200,200)" class="similarityRel source22 target7" id="similarityRel22_7" stroke-dasharray="0" stroke-width="5" fill="none"></path><path d="M1866.833333333333,139.44444444444446L1866.833333333333,530.1324262523822L3783.0277777777774,530.1324262523822L3783.0277777777774,215.61111111111111" stroke="rgb(200,200,200)" class="similarityRel source25 target13" id="similarityRel25_13" stroke-dasharray="0" stroke-width="5" fill="none"></path><path d="M2190.444444444444,132.77777777777777L2190.444444444444,486.5597535690656L3884.7777777777774,486.5597535690656L3884.7777777777774,207.55555555555554" stroke="rgb(200,200,200)" class="similarityRel source26 target15" id="similarityRel26_15" stroke-dasharray="0" stroke-width="5" fill="none"></path><path d="M2521.416666666666,135.27777777777777L2521.416666666666,447.0817349878703L3983.055555555555,447.0817349878703L3983.055555555555,208.66666666666666" stroke="rgb(200,200,200)" class="similarityRel source27 target17" id="similarityRel27_17" stroke-dasharray="0" stroke-width="5" fill="none"></path><path d="M2859.611111111111,136.11111111111111L2859.611111111111,401.03871134056885L4080.916666666666,401.03871134056885L4080.916666666666,206.72222222222223" stroke="rgb(200,200,200)" class="similarityRel source28 target19" id="similarityRel28_19" stroke-dasharray="0" stroke-width="5" fill="none"></path><path d="M3291.361111111111,21.944444444444443L3291.361111111111,-113.65151736821255L4177.944444444444,-113.65151736821255L4177.944444444444,153" stroke="rgb(200,200,200)" class="similarityRel source29 target22" id="similarityRel29_22" stroke-dasharray="0" stroke-width="5" fill="none"></path></g><g id="circleG" width="1714" height="519"><circle id="entCircle_0" class="entCircle" opacity="1" cx="205.83333333333331" cy="80" r="50.83333333333333" fill="rgb(58, 161, 207)"></circle><path d="M163.708,102.011L164.813,102.011C165.919,102.011,168.129,102.011,170.047,90.757C171.965,79.502,173.591,56.993,175.216,56.993C176.842,56.993,178.468,79.502,190.908,90.757C203.348,102.011,226.602,102.011,238.229,102.011L249.856,102.011" stroke="white" class="sonLine " id="sonLine " stroke-dasharray="0" stroke-width="2" fill="none"></path><circle id="linePoint_0" class="linePoint" opacity="0" cx="169.6459026613325" cy="28.633416093758157" r="5" fill="red"></circle><path d="M0,-69.023A69.023,69.023,0,0,1,8.517,68.496L6.666,53.61A54.023,54.023,0,0,0,0,-54.023Z" class="type f0 t1" transform="translate(205.83333333333331,80)" stroke="#ff9c9c" stroke-width="3" stroke-dasharray="0" stroke-linejoin="round" fill="#ff9c9c"></path><path d="M8.517,68.496A69.023,69.023,0,1,1,0,-69.023L0,-54.023A54.023,54.023,0,1,0,6.666,53.61Z" class="type f0 t2" transform="translate(205.83333333333331,80)" stroke="#f4f4d0" stroke-width="3" stroke-dasharray="0" stroke-linejoin="round" fill="#f4f4d0"></path><path d="M0,-84.023A84.023,84.023,0,0,1,54.453,-63.99L46.676,-54.851A72.023,72.023,0,0,0,0,-72.023Z" class="son f0 s1" transform="translate(205.83333333333331,80)" stroke="rgb(203, 230, 209)" stroke-width="3" stroke-dasharray="0" stroke-linejoin="round" fill="rgb(203, 230, 209)"></path><path d="M79.153,-28.191A84.023,84.023,0,0,1,83.477,9.562L71.555,8.197A72.023,72.023,0,0,0,67.848,-24.165Z" class="son f0 s2" transform="translate(205.83333333333331,80)" stroke="rgb(22, 144, 207)" stroke-width="3" stroke-dasharray="0" stroke-linejoin="round" fill="rgb(22, 144, 207)"></path><path d="M67.512,50.02A84.023,84.023,0,0,1,-83.526,-9.129L-71.597,-7.825A72.023,72.023,0,0,0,57.87,42.876Z" class="son f0 s8" transform="translate(205.83333333333331,80)" stroke="rgb(94, 178, 208)" stroke-width="3" stroke-dasharray="0" stroke-linejoin="round" fill="rgb(94, 178, 208)"></path><path d="M-67.771,-49.669A84.023,84.023,0,0,1,-42.011,-72.766L-36.011,-62.374A72.023,72.023,0,0,0,-58.092,-42.575Z" class="son f0 s12" transform="translate(205.83333333333331,80)" stroke="rgb(203, 230, 209)" stroke-width="3" stroke-dasharray="0" stroke-linejoin="round" fill="rgb(203, 230, 209)"></path><text y="206.03443703856345" x="205.83333333333331" id="text_0_0" fill="grey" font-size="16" style="text-anchor: middle;"> Fundamental</text><text y="231.03443703856345" x="205.83333333333331" id="text_0_1" fill="grey" font-size="16" style="text-anchor: middle;"> Graphs</text><circle id="entCircle_1" class="entCircle" opacity="1" cx="365.55555555555554" cy="180" r="24.72222222222222" fill="rgb(203, 230, 209)"></circle><path d="M343.014,190.705L343.855,190.705C344.697,190.705,346.379,190.705,347.374,187.906C348.369,185.107,348.676,179.508,348.983,179.508C349.289,179.508,349.596,185.107,355.927,187.906C362.257,190.705,374.611,190.705,380.789,190.705L386.966,190.705" stroke="white" class="sonLine " id="sonLine " stroke-dasharray="0" stroke-width="2" fill="none"></path><circle id="linePoint_1" class="linePoint" opacity="0" cx="346.157757938024" cy="179.0818928770055" r="5" fill="red"></circle><text y="233.52518120612154" x="365.55555555555554" id="text_1_0" fill="grey" font-size="16" style="text-anchor: middle;"> Purpose</text><circle id="entCircle_2" class="entCircle" opacity="1" cx="523.6111111111111" cy="180" r="23.055555555555557" fill="rgb(22, 144, 207)"></circle><path d="M502.319,189.983L503.144,189.983C503.969,189.983,505.618,189.983,506.618,187.718C507.618,185.452,507.97,180.921,508.322,180.921C508.674,180.921,509.025,185.452,514.901,187.718C520.777,189.983,532.178,189.983,537.878,189.983L543.578,189.983" stroke="white" class="sonLine " id="sonLine " stroke-dasharray="0" stroke-width="2" fill="none"></path><circle id="linePoint_2" class="linePoint" opacity="0" cx="505.7406638518005" cy="180.57620476765575" r="5" fill="red"></circle><path d="M0,-44.967A44.967,44.967,0,0,1,37.967,24.094L25.302,16.057A29.967,29.967,0,0,0,0,-29.967Z" class="type f2 t1" transform="translate(523.6111111111111,180)" stroke="#ff9c9c" stroke-width="3" stroke-dasharray="0" stroke-linejoin="round" fill="#ff9c9c"></path><path d="M37.967,24.094A44.967,44.967,0,1,1,0,-44.967L0,-29.967A29.967,29.967,0,1,0,25.302,16.057Z" class="type f2 t2" transform="translate(523.6111111111111,180)" stroke="#f4f4d0" stroke-width="3" stroke-dasharray="0" stroke-linejoin="round" fill="#f4f4d0"></path><path d="M0,-59.967A59.967,59.967,0,0,1,50.775,-31.904L40.615,-25.52A47.967,47.967,0,0,0,0,-47.967Z" class="son f2 s3" transform="translate(523.6111111111111,180)" stroke="rgb(167, 213, 209)" stroke-width="3" stroke-dasharray="0" stroke-linejoin="round" fill="rgb(167, 213, 209)"></path><path d="M59.59,-6.714A59.967,59.967,0,0,1,55.402,22.948L44.315,18.356A47.967,47.967,0,0,0,47.665,-5.371Z" class="son f2 s4" transform="translate(523.6111111111111,180)" stroke="rgb(167, 213, 209)" stroke-width="3" stroke-dasharray="0" stroke-linejoin="round" fill="rgb(167, 213, 209)"></path><path d="M39.959,44.714A59.967,59.967,0,0,1,13.344,58.463L10.674,46.764A47.967,47.967,0,0,0,31.962,35.766Z" class="son f2 s5" transform="translate(523.6111111111111,180)" stroke="rgb(167, 213, 209)" stroke-width="3" stroke-dasharray="0" stroke-linejoin="round" fill="rgb(167, 213, 209)"></path><path d="M-13.344,58.463A59.967,59.967,0,0,1,-39.959,44.714L-31.962,35.766A47.967,47.967,0,0,0,-10.674,46.764Z" class="son f2 s6" transform="translate(523.6111111111111,180)" stroke="rgb(167, 213, 209)" stroke-width="3" stroke-dasharray="0" stroke-linejoin="round" fill="rgb(167, 213, 209)"></path><path d="M-55.402,22.948A59.967,59.967,0,0,1,-26.019,-54.028L-20.812,-43.217A47.967,47.967,0,0,0,-44.315,18.356Z" class="son f2 s7" transform="translate(523.6111111111111,180)" stroke="rgb(167, 213, 209)" stroke-width="3" stroke-dasharray="0" stroke-linejoin="round" fill="rgb(167, 213, 209)"></path><text y="269.95004521421185" x="523.6111111111111" id="text_2_0" fill="grey" font-size="16" style="text-anchor: middle;"> Graph</text><text y="294.95004521421185" x="523.6111111111111" id="text_2_1" fill="grey" font-size="16" style="text-anchor: middle;"> Types</text><circle id="entCircle_3" class="entCircle" opacity="1" cx="679.1666666666666" cy="280" r="20.555555555555554" fill="rgb(167, 213, 209)"></circle><path d="M659.75,288.901L660.433,288.901C661.116,288.901,662.482,288.901,663.193,287.342C663.904,285.784,663.96,282.667,665.001,283.186C666.042,283.706,668.067,287.862,669.494,285.453C670.922,283.043,671.752,274.069,673.948,275.231C676.144,276.393,679.705,287.691,682.156,287.691C684.608,287.691,685.95,276.392,686.861,274.711C687.772,273.03,688.251,280.965,689.864,284.933C691.477,288.901,694.223,288.901,695.595,288.901L696.968,288.901" stroke="white" class="sonLine " id="sonLine " stroke-dasharray="0" stroke-width="2" fill="none"></path><circle id="linePoint_3" class="linePoint" opacity="0" cx="663.127168948927" cy="282.42936678267233" r="5" fill="red"></circle><circle id="linePoint_13" class="linePoint" opacity="0" cx="666.5631102902571" cy="267.95562684885857" r="5" fill="red"></circle><circle id="linePoint_25" class="linePoint" opacity="0" cx="677.2262886369651" cy="272.42545829900695" r="5" fill="red"></circle><text y="324.50408325003366" x="669.1666666666666" id="text_3_1" fill="grey" font-size="16" style="text-anchor: middle;"> Bar Chart</text><circle id="entCircle_4" class="entCircle" opacity="1" cx="771.6111111111111" cy="280" r="20.27777777777778" fill="rgb(167, 213, 209)"></circle><path d="M752.403,288.781L753.084,288.781C753.766,288.781,755.129,288.781,755.841,287.294C756.553,285.807,756.614,282.833,757.865,283.329C759.116,283.824,761.558,287.789,763.262,285.514C764.967,283.238,765.934,274.722,768.093,275.48C770.253,276.239,773.605,286.272,775.917,287.587C778.228,288.902,779.499,281.498,780.299,280.244C781.099,278.99,781.428,283.885,782.828,286.333C784.229,288.781,786.701,288.781,787.936,288.781L789.172,288.781" stroke="white" class="sonLine " id="sonLine " stroke-dasharray="0" stroke-width="2" fill="none"></path><circle id="linePoint_4" class="linePoint" opacity="0" cx="755.8059244332179" cy="282.60651027908466" r="5" fill="red"></circle><circle id="linePoint_15" class="linePoint" opacity="0" cx="761.2149572639032" cy="273.15773530241967" r="5" fill="red"></circle><circle id="linePoint_26" class="linePoint" opacity="0" cx="770.9086682835971" cy="278.61702751115945" r="5" fill="red"></circle><text y="323.90267671962783" x="781.6111111111111" id="text_4_0" fill="grey" font-size="16" style="text-anchor: middle;"> Scatter</text><text y="348.90267671962783" x="781.6111111111111" id="text_4_1" fill="grey" font-size="16" style="text-anchor: middle;"> Plot</text><circle id="entCircle_5" class="entCircle" opacity="1" cx="864.0555555555555" cy="280" r="20.27777777777778" fill="rgb(167, 213, 209)"></circle><path d="M844.847,288.781L845.529,288.781C846.21,288.781,847.574,288.781,848.288,287.294C849.002,285.807,849.068,282.833,850.508,283.329C851.949,283.824,854.763,287.789,856.717,285.892C858.67,283.994,859.761,276.234,861.877,277.144C863.992,278.054,867.132,287.635,869.302,288.37C871.471,289.104,872.671,280.992,873.445,279.586C874.22,278.181,874.569,283.481,875.86,286.131C877.151,288.781,879.384,288.781,880.5,288.781L881.617,288.781" stroke="white" class="sonLine " id="sonLine " stroke-dasharray="0" stroke-width="2" fill="none"></path><circle id="linePoint_5" class="linePoint" opacity="0" cx="848.2679299483502" cy="282.60651027908466" r="5" fill="red"></circle><circle id="linePoint_17" class="linePoint" opacity="0" cx="855.4330698478207" cy="271.26798030708665" r="5" fill="red"></circle><circle id="linePoint_27" class="linePoint" opacity="0" cx="864.1257998383069" cy="277.77713640212255" r="5" fill="red"></circle><text y="323.90267671962783" x="864.0555555555555" id="text_5_0" fill="grey" font-size="16" style="text-anchor: middle;"> Matrix</text><circle id="entCircle_6" class="entCircle" opacity="1" cx="956.5" cy="280" r="20.27777777777778" fill="rgb(167, 213, 209)"></circle><path d="M937.292,288.781L937.973,288.781C938.655,288.781,940.018,288.781,940.735,287.294C941.452,285.807,941.522,282.833,943.174,283.329C944.826,283.824,948.059,287.789,950.291,286.356C952.522,284.922,953.753,278.09,955.804,279.051C957.855,280.012,960.726,288.766,962.716,289.39C964.707,290.014,965.817,282.509,966.529,281.053C967.241,279.597,967.556,284.189,968.745,286.485C969.934,288.781,971.997,288.781,973.029,288.781L974.061,288.781" stroke="white" class="sonLine " id="sonLine " stroke-dasharray="0" stroke-width="2" fill="none"></path><circle id="linePoint_6" class="linePoint" opacity="0" cx="940.7299354634824" cy="282.60651027908466" r="5" fill="red"></circle><circle id="linePoint_19" class="linePoint" opacity="0" cx="949.8619152799922" cy="270.638061975309" r="5" fill="red"></circle><circle id="linePoint_28" class="linePoint" opacity="0" cx="957.2902481809533" cy="279.2469458429371" r="5" fill="red"></circle><text y="323.90267671962783" x="956.5" id="text_6_1" fill="grey" font-size="16" style="text-anchor: middle;"> Line Chart</text><circle id="entCircle_7" class="entCircle" opacity="1" cx="1049.5" cy="280" r="20.833333333333332" fill="rgb(167, 213, 209)"></circle><path d="M1029.875,289.021L1030.559,289.021C1031.244,289.021,1032.613,289.021,1033.341,287.39C1034.068,285.758,1034.156,282.495,1036.075,283.039C1037.995,283.583,1041.746,287.933,1044.326,284.712C1046.906,281.491,1048.313,270.698,1050.308,271.772C1052.303,272.845,1054.885,285.786,1056.685,288.228C1058.485,290.67,1059.503,282.613,1060.176,280.995C1060.848,279.378,1061.176,284.199,1062.346,286.61C1063.516,289.021,1065.529,289.021,1066.536,289.021L1067.542,289.021" stroke="white" class="sonLine " id="sonLine " stroke-dasharray="0" stroke-width="2" fill="none"></path><circle id="linePoint_7" class="linePoint" opacity="0" cx="1033.3520054885748" cy="282.246470607431" r="5" fill="red"></circle><circle id="linePoint_22" class="linePoint" opacity="0" cx="1044.8992400423951" cy="268.87149232996" r="5" fill="red"></circle><circle id="linePoint_29" class="linePoint" opacity="0" cx="1050.943375672974" cy="279.0105887661074" r="5" fill="red"></circle><text y="325.1054897804395" x="1049.5" id="text_7_0" fill="grey" font-size="16" style="text-anchor: middle;"> Symbol</text><text y="350.1054897804395" x="1049.5" id="text_7_1" fill="grey" font-size="16" style="text-anchor: middle;"> Map</text><circle id="entCircle_8" class="entCircle" opacity="1" cx="1222" cy="180" r="37.5" fill="rgb(94, 178, 208)"></circle><path d="M1189.875,196.238L1190.845,196.238C1191.816,196.238,1193.757,196.238,1195.287,188.002C1196.818,179.765,1197.938,163.292,1199.059,163.292C1200.179,163.292,1201.3,179.765,1210.536,188.002C1219.772,196.238,1237.124,196.238,1245.8,196.238L1254.476,196.238" stroke="white" class="sonLine " id="sonLine " stroke-dasharray="0" stroke-width="2" fill="none"></path><circle id="linePoint_8" class="linePoint" opacity="0" cx="1194.9795948958754" cy="160.74529783584572" r="5" fill="red"></circle><path d="M0,-57.476A57.476,57.476,0,0,1,2.586,57.418L1.911,42.433A42.476,42.476,0,0,0,0,-42.476Z" class="type f8 t1" transform="translate(1222,180)" stroke="#ff9c9c" stroke-width="3" stroke-dasharray="0" stroke-linejoin="round" fill="#ff9c9c"></path><path d="M2.586,57.418A57.476,57.476,0,1,1,0,-57.476L0,-42.476A42.476,42.476,0,1,0,1.911,42.433Z" class="type f8 t2" transform="translate(1222,180)" stroke="#f4f4d0" stroke-width="3" stroke-dasharray="0" stroke-linejoin="round" fill="#f4f4d0"></path><path d="M0,-72.476A72.476,72.476,0,0,1,40.706,-59.965L33.966,-50.037A60.476,60.476,0,0,0,0,-60.476Z" class="son f8 s9" transform="translate(1222,180)" stroke="rgb(203, 230, 209)" stroke-width="3" stroke-dasharray="0" stroke-linejoin="round" fill="rgb(203, 230, 209)"></path><path d="M68.178,-24.587A72.476,72.476,0,0,1,34.78,63.585L29.022,53.057A60.476,60.476,0,0,0,56.89,-20.516Z" class="son f8 s10" transform="translate(1222,180)" stroke="rgb(203, 230, 209)" stroke-width="3" stroke-dasharray="0" stroke-linejoin="round" fill="rgb(203, 230, 209)"></path><path d="M-9.237,71.885A72.476,72.476,0,0,1,-42.6,-58.634L-35.547,-48.926A60.476,60.476,0,0,0,-7.707,59.983Z" class="son f8 s11" transform="translate(1222,180)" stroke="rgb(203, 230, 209)" stroke-width="3" stroke-dasharray="0" stroke-linejoin="round" fill="rgb(203, 230, 209)"></path><text y="288.71392896287466" x="1222" id="text_8_1" fill="grey" font-size="16" style="text-anchor: middle;"> Purpose of</text><text y="313.71392896287466" x="1222" id="text_8_2" fill="grey" font-size="16" style="text-anchor: middle;"> Introduction</text><circle id="entCircle_9" class="entCircle" opacity="1" cx="1379.2222222222222" cy="280" r="22.22222222222222" fill="rgb(203, 230, 209)"></circle><path d="M1358.556,289.623L1359.372,289.623C1360.188,289.623,1361.82,289.623,1362.839,287.605C1363.859,285.588,1364.265,281.553,1364.671,281.553C1365.077,281.553,1365.484,285.588,1371.116,287.605C1376.749,289.623,1387.608,289.623,1393.038,289.623L1398.467,289.623" stroke="white" class="sonLine " id="sonLine " stroke-dasharray="0" stroke-width="2" fill="none"></path><circle id="linePoint_9" class="linePoint" opacity="0" cx="1362.2286348510443" cy="281.24569954878916" r="5" fill="red"></circle><text y="328.11252243246884" x="1379.2222222222222" id="text_9_0" fill="grey" font-size="16" style="text-anchor: middle;"> Widely</text><text y="353.11252243246884" x="1379.2222222222222" id="text_9_1" fill="grey" font-size="16" style="text-anchor: middle;"> adopted</text><text y="378.11252243246884" x="1379.2222222222222" id="text_9_2" fill="grey" font-size="16" style="text-anchor: middle;"> effective</text><text y="403.11252243246884" x="1379.2222222222222" id="text_9_3" fill="grey" font-size="16" style="text-anchor: middle;"> useful</text><circle id="entCircle_10" class="entCircle" opacity="1" cx="1476.6666666666665" cy="280" r="25.27777777777778" fill="rgb(203, 230, 209)"></circle><path d="M1453.708,290.946L1454.555,290.946C1455.402,290.946,1457.096,290.946,1458.23,287.957C1459.363,284.969,1459.936,278.993,1460.509,278.993C1461.083,278.993,1461.656,284.969,1467.997,287.957C1474.338,290.946,1486.448,290.946,1492.503,290.946L1498.558,290.946" stroke="white" class="sonLine " id="sonLine " stroke-dasharray="0" stroke-width="2" fill="none"></path><circle id="linePoint_10" class="linePoint" opacity="0" cx="1457.7523937883807" cy="278.5377674828232" r="5" fill="red"></circle><text y="334.72799426693325" x="1476.6666666666665" id="text_10_1" fill="grey" font-size="16" style="text-anchor: middle;"> Solve very</text><text y="359.72799426693325" x="1476.6666666666665" id="text_10_3" fill="grey" font-size="16" style="text-anchor: middle;"> large percentage</text><text y="384.72799426693325" x="1476.6666666666665" id="text_10_6" fill="grey" font-size="16" style="text-anchor: middle;"> of via problems</text><circle id="entCircle_11" class="entCircle" opacity="1" cx="1577.7222222222222" cy="280" r="28.888888888888886" fill="rgb(203, 230, 209)"></circle><path d="M1552.056,292.509L1552.953,292.509C1553.851,292.509,1555.646,292.509,1556.974,288.158C1558.302,283.806,1559.163,275.103,1560.023,275.103C1560.883,275.103,1561.744,283.806,1568.863,288.158C1575.983,292.509,1589.362,292.509,1596.051,292.509L1602.741,292.509" stroke="white" class="sonLine " id="sonLine " stroke-dasharray="0" stroke-width="2" fill="none"></path><circle id="linePoint_11" class="linePoint" opacity="0" cx="1556.9568575403687" cy="274.4400662348092" r="5" fill="red"></circle><text y="342.5462791622095" x="1577.7222222222222" id="text_11_0" fill="grey" font-size="16" style="text-anchor: middle;"> Training</text><text y="367.5462791622095" x="1577.7222222222222" id="text_11_1" fill="grey" font-size="16" style="text-anchor: middle;"> ground</text><text y="392.5462791622095" x="1577.7222222222222" id="text_11_3" fill="grey" font-size="16" style="text-anchor: middle;"> for more</text><text y="417.5462791622095" x="1577.7222222222222" id="text_11_4" fill="grey" font-size="16" style="text-anchor: middle;"> sophisticated</text><text y="442.5462791622095" x="1577.7222222222222" id="text_11_5" fill="grey" font-size="16" style="text-anchor: middle;"> graphs</text><circle id="entCircle_12" class="entCircle" opacity="1" cx="1672.6666666666665" cy="180" r="22.77777777777778" fill="rgb(203, 230, 209)"></circle><path d="M1651.583,189.863L1652.595,189.863C1653.607,189.863,1655.631,189.863,1656.925,187.682C1658.22,185.5,1658.786,181.137,1659.352,181.137C1659.918,181.137,1660.484,185.5,1665.991,187.682C1671.498,189.863,1681.945,189.863,1687.169,189.863L1692.393,189.863" stroke="white" class="sonLine " id="sonLine " stroke-dasharray="0" stroke-width="2" fill="none"></path><circle id="linePoint_12" class="linePoint" opacity="0" cx="1657.1224729191845" cy="180.80512237352923" r="5" fill="red"></circle><text y="229.31533549328054" x="1672.6666666666665" id="text_12_0" fill="grey" font-size="16" style="text-anchor: middle;"> Combinations</text><text y="254.31533549328054" x="1672.6666666666665" id="text_12_2" fill="grey" font-size="16" style="text-anchor: middle;"> of Attributes</text><circle id="entCircle_13" class="entCircle" opacity="1" cx="1847.1111111111109" cy="80" r="39.44444444444444" fill="rgb(94, 178, 208)"></circle><path d="M1813.528,97.08L1814.306,97.08C1815.085,97.08,1816.641,97.08,1817.462,94.089C1818.283,91.099,1818.367,85.117,1819.853,86.114C1821.339,87.111,1824.226,95.086,1826.292,89.82C1828.358,84.553,1829.602,66.045,1833.142,68.275C1836.681,70.504,1842.515,93.472,1846.545,94.115C1850.576,94.758,1852.803,73.077,1854.365,69.851C1855.927,66.624,1856.825,81.852,1861.199,89.466C1865.572,97.08,1873.422,97.08,1877.346,97.08L1881.271,97.08" stroke="white" class="sonLine " id="sonLine " stroke-dasharray="0" stroke-width="2" fill="none"></path><circle id="linePoint_3" class="linePoint" opacity="0" cx="1816.3326154905835" cy="84.66175788026314" r="5" fill="red"></circle><circle id="linePoint_13" class="linePoint" opacity="0" cx="1822.9259083347574" cy="56.88782449375561" r="5" fill="red"></circle><circle id="linePoint_25" class="linePoint" opacity="0" cx="1843.387683000062" cy="65.46506862782411" r="5" fill="red"></circle><path d="M0,-59.16A59.16,59.16,0,0,1,55.315,-20.978L41.29,-15.659A44.16,44.16,0,0,0,0,-44.16Z" class="type f13 t1" transform="translate(1847.1111111111109,80)" stroke="#ff9c9c" stroke-width="3" stroke-dasharray="0" stroke-linejoin="round" fill="#ff9c9c"></path><path d="M55.315,-20.978A59.16,59.16,0,1,1,0,-59.16L0,-44.16A44.16,44.16,0,1,0,41.29,-15.659Z" class="type f13 t2" transform="translate(1847.1111111111109,80)" stroke="#f4f4d0" stroke-width="3" stroke-dasharray="0" stroke-linejoin="round" fill="#f4f4d0"></path><path d="M0,-74.16A74.16,74.16,0,1,1,-64.224,-37.08L-53.832,-31.08A62.16,62.16,0,1,0,0,-62.16Z" class="son f13 s14" transform="translate(1847.1111111111109,80)" stroke="rgb(203, 230, 209)" stroke-width="3" stroke-dasharray="0" stroke-linejoin="round" fill="rgb(203, 230, 209)"></path><text y="191.23983639057928" x="1847.1111111111109" id="text_13_1" fill="grey" font-size="16" style="text-anchor: middle;"> Bar Chart</text><polygon points="1985.3488305196536,192.08333333333334,2027.2067250359016,192.08333333333334,2006.2777777777776,155.83333333333334" fill="rgb(250, 199, 88)" stroke-linejoin="round" opacity="1" stroke="rgb(250, 199, 88)" stroke-width="15px"></polygon><text y="188" x="2006.2777777777776" id="E_0" fill="white" font-size="28" style="text-anchor: middle;"> E</text><text y="228.33333333333334" x="2006.2777777777776" id="text_14_0" fill="grey" font-size="16" style="text-anchor: middle;"> Example</text><circle id="entCircle_15" class="entCircle" opacity="1" cx="2174.055555555555" cy="80" r="32.77777777777777" fill="rgb(94, 178, 208)"></circle><path d="M2145.472,94.193L2146.217,94.193C2146.962,94.193,2148.451,94.193,2149.237,91.79C2150.023,89.386,2150.106,84.579,2151.785,85.38C2153.465,86.182,2156.742,92.591,2159.045,88.913C2161.348,85.234,2162.677,71.468,2165.716,72.694C2168.755,73.92,2173.503,90.139,2176.788,92.264C2180.072,94.389,2181.892,82.421,2183.06,80.394C2184.229,78.367,2184.746,86.28,2187.868,90.237C2190.989,94.193,2196.716,94.193,2199.579,94.193L2202.442,94.193" stroke="white" class="sonLine " id="sonLine " stroke-dasharray="0" stroke-width="2" fill="none"></path><circle id="linePoint_4" class="linePoint" opacity="0" cx="2148.5074455830704" cy="84.21326319084915" r="5" fill="red"></circle><circle id="linePoint_15" class="linePoint" opacity="0" cx="2157.2508137203426" cy="68.93990089980161" r="5" fill="red"></circle><circle id="linePoint_26" class="linePoint" opacity="0" cx="2172.9201000261487" cy="77.76451022351796" r="5" fill="red"></circle><path d="M0,-53.386A53.386,53.386,0,1,1,0,53.386A53.386,53.386,0,1,1,0,-53.386M0,-38.386A38.386,38.386,0,1,0,0,38.386A38.386,38.386,0,1,0,0,-38.386Z" class="type f15 t2" transform="translate(2174.055555555555,80)" stroke="#f4f4d0" stroke-width="3" stroke-dasharray="0" stroke-linejoin="round" fill="#f4f4d0"></path><path d="M0,-68.386A68.386,68.386,0,1,1,-59.224,-34.193L-48.832,-28.193A56.386,56.386,0,1,0,0,-56.386Z" class="son f15 s16" transform="translate(2174.055555555555,80)" stroke="rgb(203, 230, 209)" stroke-width="3" stroke-dasharray="0" stroke-linejoin="round" fill="rgb(203, 230, 209)"></path><text y="182.5795823527349" x="2174.055555555555" id="text_15_1" fill="grey" font-size="16" style="text-anchor: middle;"> Line Chart</text><polygon points="2312.3304901297133,192.22222222222223,2354.6695098702858,192.22222222222223,2333.4999999999995,155.55555555555554" fill="rgb(250, 199, 88)" stroke-linejoin="round" opacity="1" stroke="rgb(250, 199, 88)" stroke-width="15px"></polygon><text y="188" x="2333.4999999999995" id="E_0" fill="white" font-size="28" style="text-anchor: middle;"> E</text><text y="228.88888888888889" x="2333.4999999999995" id="text_16_0" fill="grey" font-size="16" style="text-anchor: middle;"> Example</text><circle id="entCircle_17" class="entCircle" opacity="1" cx="2503.7777777777774" cy="80" r="35.27777777777777" fill="rgb(94, 178, 208)"></circle><path d="M2473.319,95.276L2474.077,95.276C2474.834,95.276,2476.349,95.276,2477.154,92.689C2477.959,90.102,2478.055,84.928,2480.149,85.791C2482.243,86.653,2486.336,93.551,2489.192,89.47C2492.047,85.39,2493.666,70.33,2496.804,71.914C2499.942,73.497,2504.599,91.724,2507.831,93.781C2511.063,95.839,2512.87,81.726,2514.068,79.281C2515.266,76.835,2515.855,86.055,2519.13,90.665C2522.406,95.276,2528.367,95.276,2531.348,95.276L2534.329,95.276" stroke="white" class="sonLine " id="sonLine " stroke-dasharray="0" stroke-width="2" fill="none"></path><circle id="linePoint_5" class="linePoint" opacity="0" cx="2476.311634598119" cy="84.53461377320204" r="5" fill="red"></circle><circle id="linePoint_17" class="linePoint" opacity="0" cx="2488.77701497117" cy="64.80867806849318" r="5" fill="red"></circle><circle id="linePoint_27" class="linePoint" opacity="0" cx="2503.899983584756" cy="76.13282634341863" r="5" fill="red"></circle><path d="M0,-55.551A55.551,55.551,0,1,1,0,55.551A55.551,55.551,0,1,1,0,-55.551M0,-40.551A40.551,40.551,0,1,0,0,40.551A40.551,40.551,0,1,0,0,-40.551Z" class="type f17 t2" transform="translate(2503.7777777777774,80)" stroke="#f4f4d0" stroke-width="3" stroke-dasharray="0" stroke-linejoin="round" fill="#f4f4d0"></path><path d="M0,-70.551A70.551,70.551,0,1,1,-61.099,-35.276L-50.707,-29.276A58.551,58.551,0,1,0,0,-58.551Z" class="son f17 s18" transform="translate(2503.7777777777774,80)" stroke="rgb(203, 230, 209)" stroke-width="3" stroke-dasharray="0" stroke-linejoin="round" fill="rgb(203, 230, 209)"></path><text y="185.82717761692652" x="2503.7777777777774" id="text_17_1" fill="grey" font-size="16" style="text-anchor: middle;"> Scatter Plot</text><polygon points="2643.0203066579365,195.83333333333334,2697.8685822309512,195.83333333333334,2670.444444444444,148.33333333333334" fill="rgb(250, 199, 88)" stroke-linejoin="round" opacity="1" stroke="rgb(250, 199, 88)" stroke-width="15px"></polygon><text y="188" x="2670.444444444444" id="E_0" fill="white" font-size="28" style="text-anchor: middle;"> E</text><text y="243.33333333333331" x="2670.444444444444" id="text_18_0" fill="grey" font-size="16" style="text-anchor: middle;"> Example</text><circle id="entCircle_19" class="entCircle" opacity="1" cx="2841.555555555555" cy="80" r="36.111111111111114" fill="rgb(58, 161, 207)"></circle><path d="M2810.472,95.637L2811.234,95.637C2811.995,95.637,2813.518,95.637,2814.333,92.989C2815.148,90.341,2815.254,85.045,2817.761,85.928C2820.268,86.81,2825.176,93.871,2828.578,90.204C2831.98,86.536,2833.876,72.14,2836.955,73.851C2840.035,75.562,2844.298,93.38,2847.27,95.607C2850.243,97.834,2851.923,84.469,2853.034,81.875C2854.145,79.281,2854.685,87.459,2857.889,91.548C2861.093,95.637,2866.961,95.637,2869.895,95.637L2872.829,95.637" stroke="white" class="sonLine " id="sonLine " stroke-dasharray="0" stroke-width="2" fill="none"></path><circle id="linePoint_6" class="linePoint" opacity="0" cx="2813.4718789836747" cy="84.64173063398633" r="5" fill="red"></circle><circle id="linePoint_19" class="linePoint" opacity="0" cx="2829.734308793897" cy="63.32805557246802" r="5" fill="red"></circle><circle id="linePoint_28" class="linePoint" opacity="0" cx="2842.962846836705" cy="78.65894465180575" r="5" fill="red"></circle><path d="M0,-56.273A56.273,56.273,0,1,1,0,56.273A56.273,56.273,0,1,1,0,-56.273M0,-41.273A41.273,41.273,0,1,0,0,41.273A41.273,41.273,0,1,0,0,-41.273Z" class="type f19 t2" transform="translate(2841.555555555555,80)" stroke="#f4f4d0" stroke-width="3" stroke-dasharray="0" stroke-linejoin="round" fill="#f4f4d0"></path><path d="M0,-71.273A71.273,71.273,0,1,1,-70.726,8.816L-58.818,7.332A59.273,59.273,0,1,0,0,-59.273Z" class="son f19 s20" transform="translate(2841.555555555555,80)" stroke="rgb(203, 230, 209)" stroke-width="3" stroke-dasharray="0" stroke-linejoin="round" fill="rgb(203, 230, 209)"></path><path d="M-56.245,-43.777A71.273,71.273,0,0,1,-50.398,-50.398L-41.912,-41.912A59.273,59.273,0,0,0,-46.775,-36.406Z" class="son f19 s21" transform="translate(2841.555555555555,80)" stroke="rgb(203, 230, 209)" stroke-width="3" stroke-dasharray="0" stroke-linejoin="round" fill="rgb(203, 230, 209)"></path><text y="186.90970937165707" x="2841.555555555555" id="text_19_0" fill="grey" font-size="16" style="text-anchor: middle;"> Matrix</text><polygon points="2980.6120086076376,195.13888888888889,3033.0546580590285,195.13888888888889,3006.833333333333,149.72222222222223" fill="rgb(250, 199, 88)" stroke-linejoin="round" opacity="1" stroke="rgb(250, 199, 88)" stroke-width="15px"></polygon><text y="188" x="3006.833333333333" id="E_0" fill="white" font-size="28" style="text-anchor: middle;"> E</text><text y="240.55555555555554" x="3006.833333333333" id="text_20_0" fill="grey" font-size="16" style="text-anchor: middle;"> Example</text><polygon points="3081.7167070899263,190.13888888888889,3116.8388484656284,190.13888888888889,3099.2777777777774,159.72222222222223" fill="rgb(250, 199, 88)" stroke-linejoin="round" opacity="1" stroke="rgb(250, 199, 88)" stroke-width="15px"></polygon><text y="188" x="3099.2777777777774" id="T_0" fill="white" font-size="28" style="text-anchor: middle;"> T</text><text y="220.55555555555554" x="3099.2777777777774" id="text_21_0" fill="grey" font-size="16" style="text-anchor: middle;"> Test</text><circle id="entCircle_22" class="entCircle" opacity="1" cx="3272.333333333333" cy="80" r="38.05555555555556" fill="rgb(94, 178, 208)"></circle><path d="M3239.792,96.479L3240.563,96.479C3241.334,96.479,3242.877,96.479,3243.718,93.498C3244.558,90.518,3244.697,84.557,3247.744,85.551C3250.79,86.544,3256.744,94.492,3260.85,91.645C3264.956,88.799,3267.213,75.159,3270.251,77.12C3273.289,79.082,3277.107,96.644,3279.789,98.067C3282.471,99.49,3284.016,84.773,3285.078,81.818C3286.139,78.863,3286.717,87.671,3290.005,92.075C3293.293,96.479,3299.292,96.479,3302.291,96.479L3305.29,96.479" stroke="white" class="sonLine " id="sonLine " stroke-dasharray="0" stroke-width="2" fill="none"></path><circle id="linePoint_7" class="linePoint" opacity="0" cx="3242.836330025796" cy="84.10355297624066" r="5" fill="red"></circle><circle id="linePoint_22" class="linePoint" opacity="0" cx="3263.9292784774416" cy="59.671925989393635" r="5" fill="red"></circle><circle id="linePoint_29" class="linePoint" opacity="0" cx="3274.9698995626322" cy="78.19267547942283" r="5" fill="red"></circle><path d="M0,-57.957A57.957,57.957,0,1,1,0,57.957A57.957,57.957,0,1,1,0,-57.957M0,-42.957A42.957,42.957,0,1,0,0,42.957A42.957,42.957,0,1,0,0,-42.957Z" class="type f22 t2" transform="translate(3272.333333333333,80)" stroke="#f4f4d0" stroke-width="3" stroke-dasharray="0" stroke-linejoin="round" fill="#f4f4d0"></path><path d="M0,-72.957A72.957,72.957,0,1,1,-63.183,-36.479L-52.79,-30.479A60.957,60.957,0,1,0,0,-60.957Z" class="son f22 s23" transform="translate(3272.333333333333,80)" stroke="rgb(203, 230, 209)" stroke-width="3" stroke-dasharray="0" stroke-linejoin="round" fill="rgb(203, 230, 209)"></path><text y="189.4356167993617" x="3272.333333333333" id="text_22_1" fill="grey" font-size="16" style="text-anchor: middle;"> Symbol Map</text><polygon points="3411.203710557338,194.44444444444446,3461.2407338871053,194.44444444444446,3436.2222222222217,151.11111111111111" fill="rgb(250, 199, 88)" stroke-linejoin="round" opacity="1" stroke="rgb(250, 199, 88)" stroke-width="15px"></polygon><text y="188" x="3436.2222222222217" id="E_0" fill="white" font-size="28" style="text-anchor: middle;"> E</text><text y="237.77777777777777" x="3436.2222222222217" id="text_23_0" fill="grey" font-size="16" style="text-anchor: middle;"> Example</text><circle id="entCircle_24" class="entCircle" opacity="1" cx="3631.2222222222217" cy="80" r="60" fill="rgb(22, 144, 207)"></circle><path d="M3582.222,105.981L3588.396,105.981C3594.57,105.981,3606.918,105.981,3614.783,97.682C3622.649,89.384,3626.031,72.786,3629.413,72.786C3632.795,72.786,3636.177,89.384,3645.139,97.682C3654.1,105.981,3668.642,105.981,3675.913,105.981L3683.184,105.981" stroke="white" class="sonLine " id="sonLine " stroke-dasharray="0" stroke-width="2" fill="none"></path><circle id="linePoint_24" class="linePoint" opacity="0" cx="3628.8319921077764" cy="-1.1319578589119743" r="5" fill="red"></circle><path d="M0,-76.962A76.962,76.962,0,1,1,0,76.962A76.962,76.962,0,1,1,0,-76.962M0,-61.962A61.962,61.962,0,1,0,0,61.962A61.962,61.962,0,1,0,0,-61.962Z" class="type f24 t2" transform="translate(3631.2222222222217,80)" stroke="#f4f4d0" stroke-width="3" stroke-dasharray="0" stroke-linejoin="round" fill="#f4f4d0"></path><path d="M0,-91.962A91.962,91.962,0,0,1,91.934,-2.257L79.937,-1.962A79.962,79.962,0,0,0,0,-79.962Z" class="son f24 s25" transform="translate(3631.2222222222217,80)" stroke="rgb(131, 196, 208)" stroke-width="3" stroke-dasharray="0" stroke-linejoin="round" fill="rgb(131, 196, 208)"></path><path d="M83.809,37.855A91.962,91.962,0,0,1,45.328,80.015L39.413,69.573A79.962,79.962,0,0,0,72.873,32.916Z" class="son f24 s26" transform="translate(3631.2222222222217,80)" stroke="rgb(167, 213, 209)" stroke-width="3" stroke-dasharray="0" stroke-linejoin="round" fill="rgb(167, 213, 209)"></path><path d="M6.122,91.758A91.962,91.962,0,0,1,-58.589,70.882L-50.943,61.633A79.962,79.962,0,0,0,5.323,79.784Z" class="son f24 s27" transform="translate(3631.2222222222217,80)" stroke="rgb(167, 213, 209)" stroke-width="3" stroke-dasharray="0" stroke-linejoin="round" fill="rgb(167, 213, 209)"></path><path d="M-83.541,38.442A91.962,91.962,0,0,1,-91.453,-9.655L-79.52,-8.395A79.962,79.962,0,0,0,-72.64,33.426Z" class="son f24 s28" transform="translate(3631.2222222222217,80)" stroke="rgb(167, 213, 209)" stroke-width="3" stroke-dasharray="0" stroke-linejoin="round" fill="rgb(167, 213, 209)"></path><path d="M-78.207,-48.379A91.962,91.962,0,0,1,-39.901,-82.854L-34.694,-72.043A79.962,79.962,0,0,0,-68.002,-42.066Z" class="son f24 s29" transform="translate(3631.2222222222217,80)" stroke="rgb(167, 213, 209)" stroke-width="3" stroke-dasharray="0" stroke-linejoin="round" fill="rgb(167, 213, 209)"></path><text y="217.94228634059948" x="3631.2222222222217" id="text_24_2" fill="grey" font-size="16" style="text-anchor: middle;"> Summary of the</text><text y="242.94228634059948" x="3631.2222222222217" id="text_24_3" fill="grey" font-size="16" style="text-anchor: middle;"> graphs</text><circle id="entCircle_25" class="entCircle" opacity="1" cx="3799.833333333333" cy="180" r="33.611111111111114" fill="rgb(131, 196, 208)"></circle><path d="M3770.625,194.554L3771.374,194.554C3772.123,194.554,3773.621,194.554,3774.407,192.006C3775.194,189.457,3775.27,184.36,3776.619,185.21C3777.967,186.059,3780.588,192.855,3782.457,188.462C3784.325,184.07,3785.442,168.488,3788.566,170.388C3791.691,172.288,3796.823,191.669,3800.366,192.122C3803.908,192.576,3805.862,174.101,3807.223,171.352C3808.584,168.602,3809.353,181.578,3812.874,188.066C3816.395,194.554,3822.668,194.554,3825.805,194.554L3828.941,194.554" stroke="white" class="sonLine " id="sonLine " stroke-dasharray="0" stroke-width="2" fill="none"></path><circle id="linePoint_3" class="linePoint" opacity="0" cx="3773.6065870651373" cy="183.97234298247773" r="5" fill="red"></circle><circle id="linePoint_13" class="linePoint" opacity="0" cx="3779.2248154746094" cy="160.30582227989032" r="5" fill="red"></circle><circle id="linePoint_25" class="linePoint" opacity="0" cx="3796.6605530415236" cy="167.61460073215997" r="5" fill="red"></circle><text y="252.77019017910908" x="3799.833333333333" id="text_25_1" fill="grey" font-size="16" style="text-anchor: middle;"> Bar Chart</text><circle id="entCircle_26" class="entCircle" opacity="1" cx="3897.555555555555" cy="180" r="25.555555555555557" fill="rgb(167, 213, 209)"></circle><path d="M3874.389,191.066L3875.097,191.066C3875.805,191.066,3877.222,191.066,3877.965,189.192C3878.708,187.318,3878.778,183.57,3880.21,184.195C3881.642,184.819,3884.437,189.817,3886.394,186.949C3888.351,184.081,3889.471,173.348,3892.002,174.304C3894.533,175.26,3898.475,187.905,3901.197,189.562C3903.919,191.219,3905.422,181.888,3906.377,180.307C3907.333,178.727,3907.741,184.896,3909.868,187.981C3911.996,191.066,3915.841,191.066,3917.764,191.066L3919.687,191.066" stroke="white" class="sonLine " id="sonLine " stroke-dasharray="0" stroke-width="2" fill="none"></path><circle id="linePoint_4" class="linePoint" opacity="0" cx="3877.6366901532792" cy="183.28491706405188" r="5" fill="red"></circle><circle id="linePoint_15" class="linePoint" opacity="0" cx="3884.4535534467454" cy="171.3768718879809" r="5" fill="red"></circle><circle id="linePoint_26" class="linePoint" opacity="0" cx="3896.6702851427976" cy="178.25707576748857" r="5" fill="red"></circle><text y="235.32940079733913" x="3897.555555555555" id="text_26_0" fill="grey" font-size="16" style="text-anchor: middle;"> Scatter</text><text y="260.32940079733913" x="3897.555555555555" id="text_26_1" fill="grey" font-size="16" style="text-anchor: middle;"> Plot</text><circle id="entCircle_27" class="entCircle" opacity="1" cx="3996.3888888888887" cy="180" r="26.666666666666668" fill="rgb(167, 213, 209)"></circle><path d="M3972.389,191.547L3973.103,191.547C3973.817,191.547,3975.244,191.547,3975.997,189.592C3976.75,187.636,3976.829,183.725,3978.548,184.377C3980.267,185.029,3983.626,190.243,3985.963,187.397C3988.301,184.551,3989.617,173.644,3992.168,174.841C3994.719,176.038,3998.505,189.339,4001.127,190.656C4003.749,191.972,4005.207,181.305,4006.162,179.456C4007.117,177.607,4007.568,184.577,4009.704,188.062C4011.841,191.547,4015.662,191.547,4017.572,191.547L4019.483,191.547" stroke="white" class="sonLine " id="sonLine " stroke-dasharray="0" stroke-width="2" fill="none"></path><circle id="linePoint_5" class="linePoint" opacity="0" cx="3975.627079871194" cy="183.4277395450976" r="5" fill="red"></circle><circle id="linePoint_17" class="linePoint" opacity="0" cx="3985.049729602004" cy="168.51679602027832" r="5" fill="red"></circle><circle id="linePoint_27" class="linePoint" opacity="0" cx="3996.4812649319592" cy="177.07678211785975" r="5" fill="red"></circle><text y="237.73502691896257" x="3996.3888888888887" id="text_27_0" fill="grey" font-size="16" style="text-anchor: middle;"> Matrix</text><circle id="entCircle_28" class="entCircle" opacity="1" cx="4093.2777777777774" cy="180" r="24.72222222222222" fill="rgb(167, 213, 209)"></circle><path d="M4070.736,190.705L4071.44,190.705C4072.144,190.705,4073.552,190.705,4074.297,188.892C4075.041,187.079,4075.122,183.454,4077.013,184.058C4078.905,184.662,4082.608,189.496,4085.169,187.396C4087.729,185.295,4089.146,176.258,4091.486,177.43C4093.826,178.601,4097.087,189.98,4099.353,191.095C4101.619,192.209,4102.89,183.059,4103.714,181.284C4104.538,179.508,4104.916,185.107,4106.67,187.906C4108.425,190.705,4111.556,190.705,4113.122,190.705L4114.688,190.705" stroke="white" class="sonLine " id="sonLine " stroke-dasharray="0" stroke-width="2" fill="none"></path><circle id="linePoint_6" class="linePoint" opacity="0" cx="4074.0512607401056" cy="183.17780020326757" r="5" fill="red"></circle><circle id="linePoint_19" class="linePoint" opacity="0" cx="4085.184770379412" cy="168.58613035345888" r="5" fill="red"></circle><circle id="linePoint_28" class="linePoint" opacity="0" cx="4094.2412310394875" cy="179.0818928770055" r="5" fill="red"></circle><text y="233.52518120612154" x="4093.2777777777774" id="text_28_1" fill="grey" font-size="16" style="text-anchor: middle;"> Line Chart</text><circle id="entCircle_29" class="entCircle" opacity="1" cx="4190.444444444444" cy="180" r="25" fill="rgb(167, 213, 209)"></circle><path d="M4167.694,190.825L4168.4,190.825C4169.105,190.825,4170.516,190.825,4171.271,188.867C4172.027,186.91,4172.126,182.994,4174.318,183.646C4176.511,184.299,4180.795,189.52,4183.744,188.436C4186.693,187.352,4188.306,179.964,4190.553,181.252C4192.8,182.541,4195.682,192.506,4197.695,192.655C4199.708,192.804,4200.854,183.135,4201.621,181.194C4202.387,179.253,4202.775,185.039,4204.458,187.932C4206.14,190.825,4209.118,190.825,4210.606,190.825L4212.095,190.825" stroke="white" class="sonLine " id="sonLine " stroke-dasharray="0" stroke-width="2" fill="none"></path><circle id="linePoint_7" class="linePoint" opacity="0" cx="4171.066851030734" cy="182.69576472891723" r="5" fill="red"></circle><circle id="linePoint_22" class="linePoint" opacity="0" cx="4184.923532495319" cy="166.645790795952" r="5" fill="red"></circle><circle id="linePoint_29" class="linePoint" opacity="0" cx="4192.176495252013" cy="178.81270651932886" r="5" fill="red"></circle><text y="234.1265877365274" x="4190.444444444444" id="text_29_0" fill="grey" font-size="16" style="text-anchor: middle;"> Symbol</text><text y="259.1265877365274" x="4190.444444444444" id="text_29_1" fill="grey" font-size="16" style="text-anchor: middle;"> Map</text><polygon points="4265.327818201037,90.13888888888889,4300.44995957674,90.13888888888889,4282.888888888889,59.72222222222222" fill="rgb(250, 199, 88)" stroke-linejoin="round" opacity="1" stroke="rgb(250, 199, 88)" stroke-width="15px"></polygon><text y="88" x="4282.888888888889" id="T_0" fill="white" font-size="28" style="text-anchor: middle;"> T</text><text y="120.55555555555556" x="4282.888888888889" id="text_30_0" fill="grey" font-size="16" style="text-anchor: middle;"> Test</text></g></g></svg>