<?xml version="1.0" standalone="no"?>
<!DOCTYPE svg PUBLIC "-//W3C//DTD SVG 1.1//EN" "http://www.w3.org/Graphics/SVG/1.1/DTD/svg11.dtd">
<svg t="1679468177819" class="icon" viewBox="0 0 5024 5024" version="1.1" xmlns="http://www.w3.org/2000/svg" p-id="2610" xmlns:xlink="http://www.w3.org/1999/xlink" width="5000" height="5000">
<g width="724" height="659"></g><g width="744" height="659" transform="translate(35,600)"><path d="M0,20L4.812,20C9.623,20,19.246,20,28.87,20C38.493,20,48.116,20,57.739,20C67.362,20,76.986,20,86.609,22.327C96.232,24.654,105.855,29.308,115.478,30.584C125.101,31.86,134.725,29.757,144.348,27.43C153.971,25.103,163.594,22.551,173.217,21.276C182.841,20,192.464,20,202.087,20C211.71,20,221.333,20,230.957,22.793C240.58,25.586,250.203,31.171,259.826,31.722C269.449,32.272,279.072,27.787,288.696,24.995C298.319,22.202,307.942,21.101,317.565,20.55C327.188,20,336.812,20,346.435,20C356.058,20,365.681,20,375.304,20C384.928,20,394.551,20,404.174,20C413.797,20,423.42,20,433.043,22.308C442.667,24.615,452.29,29.231,461.913,29.231C471.536,29.231,481.159,24.615,490.783,23.141C500.406,21.667,510.029,23.333,519.652,24.587C529.275,25.841,538.899,26.682,548.522,28.457C558.145,30.233,567.768,32.944,577.391,33.343C587.014,33.743,596.638,31.831,606.261,29.816C615.884,27.802,625.507,25.684,630.319,24.625L635.13,23.566L635.13,43.566L630.319,43.566C625.507,43.566,615.884,43.566,606.261,43.566C596.638,43.566,587.014,43.566,577.391,40.892C567.768,38.218,558.145,32.871,548.522,32.269C538.899,31.667,529.275,35.811,519.652,37.89C510.029,39.97,500.406,39.985,490.783,39.992C481.159,40,471.536,40,461.913,40C452.29,40,442.667,40,433.043,40C423.42,40,413.797,40,404.174,40C394.551,40,384.928,40,375.304,40C365.681,40,356.058,40,346.435,40C336.812,40,327.188,40,317.565,40C307.942,40,298.319,40,288.696,40C279.072,40,269.449,40,259.826,40C250.203,40,240.58,40,230.957,40C221.333,40,211.71,40,202.087,40C192.464,40,182.841,40,173.217,40C163.594,40,153.971,40,144.348,40C134.725,40,125.101,40,115.478,40C105.855,40,96.232,40,86.609,40C76.986,40,67.362,40,57.739,40C48.116,40,38.493,40,28.87,40C19.246,40,9.623,40,4.812,40L0,40Z" fill="#ff9c9c"></path><path d="M0,0L4.812,0C9.623,0,19.246,0,28.87,0C38.493,0,48.116,0,57.739,0C67.362,0,76.986,0,86.609,0C96.232,0,105.855,0,115.478,0C125.101,0,134.725,0,144.348,0C153.971,0,163.594,0,173.217,0C182.841,0,192.464,0,202.087,0C211.71,0,221.333,0,230.957,0C240.58,0,250.203,0,259.826,0C269.449,0,279.072,0,288.696,0C298.319,0,307.942,0,317.565,0C327.188,0,336.812,0,346.435,0C356.058,0,365.681,0,375.304,0C384.928,0,394.551,0,404.174,0C413.797,0,423.42,0,433.043,0C442.667,0,452.29,0,461.913,0C471.536,0,481.159,0,490.783,-0.008C500.406,-0.015,510.029,-0.03,519.652,-2.11C529.275,-4.189,538.899,-8.333,548.522,-7.731C558.145,-7.129,567.768,-1.782,577.391,0.892C587.014,3.566,596.638,3.566,606.261,3.566C615.884,3.566,625.507,3.566,630.319,3.566L635.13,3.566L635.13,23.566L630.319,22.508C625.507,21.449,615.884,19.331,606.261,17.317C596.638,15.302,587.014,13.39,577.391,15.108C567.768,16.827,558.145,22.175,548.522,22.776C538.899,23.378,529.275,19.234,519.652,17.98C510.029,16.727,500.406,18.363,490.783,16.874C481.159,15.385,471.536,10.769,461.913,10.769C452.29,10.769,442.667,15.385,433.043,17.692C423.42,20,413.797,20,404.174,20C394.551,20,384.928,20,375.304,20C365.681,20,356.058,20,346.435,20C336.812,20,327.188,20,317.565,19.45C307.942,18.899,298.319,17.798,288.696,15.005C279.072,12.213,269.449,7.728,259.826,8.278C250.203,8.829,240.58,14.414,230.957,17.207C221.333,20,211.71,20,202.087,20C192.464,20,182.841,20,173.217,18.724C163.594,17.449,153.971,14.897,144.348,12.57C134.725,10.243,125.101,8.14,115.478,9.416C105.855,10.692,96.232,15.346,86.609,17.673C76.986,20,67.362,20,57.739,20C48.116,20,38.493,20,28.87,20C19.246,20,9.623,20,4.812,20L0,20Z" fill="#f4f4d0"></path><path d="M0,20L4.812,20C9.623,20,19.246,20,28.87,20C38.493,20,48.116,20,57.739,20C67.362,20,76.986,20,86.609,17.673C96.232,15.346,105.855,10.692,115.478,9.416C125.101,8.14,134.725,10.243,144.348,12.57C153.971,14.897,163.594,17.449,173.217,18.724C182.841,20,192.464,20,202.087,20C211.71,20,221.333,20,230.957,17.207C240.58,14.414,250.203,8.829,259.826,8.278C269.449,7.728,279.072,12.213,288.696,15.005C298.319,17.798,307.942,18.899,317.565,19.45C327.188,20,336.812,20,346.435,20C356.058,20,365.681,20,375.304,20C384.928,20,394.551,20,404.174,20C413.797,20,423.42,20,433.043,17.692C442.667,15.385,452.29,10.769,461.913,10.769C471.536,10.769,481.159,15.385,490.783,16.874C500.406,18.363,510.029,16.727,519.652,17.98C529.275,19.234,538.899,23.378,548.522,22.776C558.145,22.175,567.768,16.827,577.391,15.108C587.014,13.39,596.638,15.302,606.261,17.317C615.884,19.331,625.507,21.449,630.319,22.508L635.13,23.566L635.13,23.566L630.319,24.625C625.507,25.684,615.884,27.802,606.261,29.816C596.638,31.831,587.014,33.743,577.391,33.343C567.768,32.944,558.145,30.233,548.522,28.457C538.899,26.682,529.275,25.841,519.652,24.587C510.029,23.333,500.406,21.667,490.783,23.141C481.159,24.615,471.536,29.231,461.913,29.231C452.29,29.231,442.667,24.615,433.043,22.308C423.42,20,413.797,20,404.174,20C394.551,20,384.928,20,375.304,20C365.681,20,356.058,20,346.435,20C336.812,20,327.188,20,317.565,20.55C307.942,21.101,298.319,22.202,288.696,24.995C279.072,27.787,269.449,32.272,259.826,31.722C250.203,31.171,240.58,25.586,230.957,22.793C221.333,20,211.71,20,202.087,20C192.464,20,182.841,20,173.217,21.276C163.594,22.551,153.971,25.103,144.348,27.43C134.725,29.757,125.101,31.86,115.478,30.584C105.855,29.308,96.232,24.654,86.609,22.327C76.986,20,67.362,20,57.739,20C48.116,20,38.493,20,28.87,20C19.246,20,9.623,20,4.812,20L0,20Z" fill="#6f8be0"></path><polygon points="536.3973834774526,-23,560.6460947834169,-23,548.5217391304348,-44" fill="rgb(250, 199, 88)" stroke-linejoin="round" opacity="1" stroke="rgb(250, 199, 88)" stroke-width="5px"></polygon><text y="-23" x="548.5217391304348" fill="white" font-size="18" style="text-anchor: middle;" transform="rotate(0 548.5217391304348 -23)">T</text><polygon points="103.35390521658307,-23,127.60261652254736,-23,115.47826086956522,-44" fill="rgb(250, 199, 88)" stroke-linejoin="round" opacity="1" stroke="rgb(250, 199, 88)" stroke-width="5px"></polygon><text y="-23" x="115.47826086956522" fill="white" font-size="18" style="text-anchor: middle;" transform="rotate(0 115.47826086956522 -23)">E</text><polygon points="247.70173130353962,-23,271.9504426095039,-23,259.82608695652175,-44" fill="rgb(250, 199, 88)" stroke-linejoin="round" opacity="1" stroke="rgb(250, 199, 88)" stroke-width="5px"></polygon><text y="-23" x="259.82608695652175" fill="white" font-size="18" style="text-anchor: middle;" transform="rotate(0 259.82608695652175 -23)">E</text><polygon points="449.7886878252787,-23,474.03739913124303,-23,461.9130434782609,-44" fill="rgb(250, 199, 88)" stroke-linejoin="round" opacity="1" stroke="rgb(250, 199, 88)" stroke-width="5px"></polygon><text y="-23" x="461.9130434782609" fill="white" font-size="18" style="text-anchor: middle;" transform="rotate(0 461.9130434782609 -23)">E</text><polygon points="565.266948694844,-23,589.5156600008082,-23,577.3913043478261,-44" fill="rgb(250, 199, 88)" stroke-linejoin="round" opacity="1" stroke="rgb(250, 199, 88)" stroke-width="5px"></polygon><text y="-23" x="577.3913043478261" fill="white" font-size="18" style="text-anchor: middle;" transform="rotate(0 577.3913043478261 -23)">E</text></g><g width="724" height="659"></g><g width="724" height="659"></g><g width="724" height="659"></g><g></g></svg>