<?xml version="1.0" standalone="no"?>
<!DOCTYPE svg PUBLIC "-//W3C//DTD SVG 1.1//EN" "http://www.w3.org/Graphics/SVG/1.1/DTD/svg11.dtd">
<svg t="1679468177819" class="icon" viewBox="0 0 5024 5024" version="1.1" xmlns="http://www.w3.org/2000/svg" p-id="2610" xmlns:xlink="http://www.w3.org/1999/xlink" width="5000" height="5000"><g id="groups" width="1714" height="519" transform="translate(80.28879954476884,329.71943272064516) scale(0.2008034274852093)"><g id="backG" width="1714" height="519"><rect x="115" y="12.533333333333331" rx="20" ry="20" height="212.8" width="458.26666666666665" fill="rgb(91, 107, 255)" opacity="0.1" stroke="white" stroke-width="1.5px"></rect><rect x="727.0999999999999" y="4.266666666666666" rx="20" ry="20" height="235.4666666666667" width="580.5666666666666" fill="rgb(255, 120, 90)" opacity="0.1" stroke="white" stroke-width="1.5px"></rect><rect x="1342.9333333333332" y="-20" rx="20" ry="20" height="275.73333333333335" width="909.8666666666666" fill="rgb(125, 98, 211)" opacity="0.1" stroke="white" stroke-width="1.5px"></rect><rect x="2284.8666666666663" y="-17.06666666666667" rx="20" ry="20" height="276" width="442.9000000000001" fill="rgb(255, 113, 212)" opacity="0.1" stroke="white" stroke-width="1.5px"></rect><rect x="2743.833333333333" y="5.066666666666663" rx="20" ry="20" height="219.2" width="276.3333333333335" fill="rgb(112, 214, 255)" opacity="0.1" stroke="white" stroke-width="1.5px"></rect></g><g id="arcG" width="1714" height="519"><path d="M228.04282809415602,47.82883227689785A55.78683109061258,55.78683109061258,0,0,1,238.2482937365486,80.7619741263029" stroke="rgb(200,200,200)" class="midArc " id="midArc " stroke-dasharray="9,5" stroke-width="3" fill="none"></path><path d="M183.9904727592296,135.76601597859406A55.78683109061258,55.78683109061258,0,0,1,150.9210099203582,126.01132538382936" stroke="rgb(200,200,200)" class="midArc " id="midArc " stroke-dasharray="9,5" stroke-width="3" fill="none"></path><path d="M837.0619514782977,27.173894742772944A62.94597442856394,62.94597442856394,0,0,1,858.8892388119231,51.365559936732936" stroke="rgb(200,200,200)" class="midArc " id="midArc " stroke-dasharray="9,5" stroke-width="3" fill="none"></path><path d="M864.1805115121896,65.90321220089187A62.94597442856394,62.94597442856394,0,0,1,863.0099419862672,98.46541274364198" stroke="rgb(200,200,200)" class="midArc " id="midArc " stroke-dasharray="9,5" stroke-width="3" fill="none"></path><path d="M853.8335594856974,116.89407308998486A62.94597442856394,62.94597442856394,0,0,1,828.5537882350396,137.45131762118876" stroke="rgb(200,200,200)" class="midArc " id="midArc " stroke-dasharray="9,5" stroke-width="3" fill="none"></path><path d="M1462.6215878197875,-1.6205255178429496A83.96152422706632,83.96152422706632,0,0,1,1489.3501046263384,10.035574087504415" stroke="rgb(200,200,200)" class="midArc " id="midArc " stroke-dasharray="9,5" stroke-width="3" fill="none"></path><path d="M1496.4400482606789,15.296298342243205A83.96152422706632,83.96152422706632,0,0,1,1515.3431678277425,37.498783323009484" stroke="rgb(200,200,200)" class="midArc " id="midArc " stroke-dasharray="9,5" stroke-width="3" fill="none"></path><path d="M1521.1223019729416,49.40551138511107A83.96152422706632,83.96152422706632,0,0,1,1526.870861571874,77.9927870724755" stroke="rgb(200,200,200)" class="midArc " id="midArc " stroke-dasharray="9,5" stroke-width="3" fill="none"></path><path d="M1524.5065537163678,99.8833414413456A83.96152422706632,83.96152422706632,0,0,1,1512.786583291451,126.58391375594094" stroke="rgb(200,200,200)" class="midArc " id="midArc " stroke-dasharray="9,5" stroke-width="3" fill="none"></path><path d="M1503.0786380713364,138.58395572599184A83.96152422706632,83.96152422706632,0,0,1,1479.4145394365662,155.62181663902078" stroke="rgb(200,200,200)" class="midArc " id="midArc " stroke-dasharray="9,5" stroke-width="3" fill="none"></path><path d="M1361.7553172074277,101.43985187435896A83.96152422706632,83.96152422706632,0,0,1,1359.3180893988308,72.38235388680239" stroke="rgb(200,200,200)" class="midArc " id="midArc " stroke-dasharray="9,5" stroke-width="3" fill="none"></path><path d="M2387.114806472324,-1.2561467470104617A81.42118304263197,81.42118304263197,0,0,1,2443.0539605043496,26.207082415215943" stroke="rgb(200,200,200)" class="midArc " id="midArc " stroke-dasharray="9,5" stroke-width="3" fill="none"></path></g><g id="timeLineG" width="1714" height="519"><path d="M20,80C75,80,45,80,100,80M264.93333333333334,80C319.93333333333334,80,234.96666666666664,180,311.96666666666664,180M365.63333333333327,180C420.63333333333327,180,328.46666666666664,180,405.46666666666664,180M460.7333333333333,180C515.7333333333333,180,422.7666666666666,180,499.7666666666666,180M556.0999999999999,180C611.0999999999999,180,517.5999999999999,80,594.5999999999999,80M669.5999999999999,80C724.5999999999999,80,657.0999999999999,80,712.0999999999999,80M893.5666666666666,80C948.5666666666666,80,855.3333333333333,180,932.3333333333333,180M987.0666666666666,180C1042.0666666666666,180,949.3666666666666,180,1026.3666666666666,180M1078.9666666666665,180C1133.9666666666665,180,1042.3333333333333,180,1119.3333333333333,180M1172.4666666666665,180C1227.4666666666665,180,1135.5666666666666,180,1212.5666666666666,180M1283.2999999999997,180C1338.2999999999997,180,1272.9333333333332,80,1327.9333333333332,80M1557.9333333333332,80C1612.9333333333332,80,1495.4333333333332,180,1572.4333333333332,180M1628.2333333333333,180C1683.2333333333333,180,1590,180,1667,180M1720.1333333333332,180C1775.1333333333332,180,1683.2333333333333,180,1760.2333333333333,180M1814.4333333333332,180C1869.4333333333332,180,1776.9999999999998,180,1853.9999999999998,180M1910.3333333333333,180C1965.3333333333333,180,1871.8333333333333,180,1948.8333333333333,180M2003.5666666666664,180C2058.5666666666666,180,1965.8666666666663,180,2042.8666666666666,180M2129.6,180C2184.6,180,2075.8999999999996,180,2152.8999999999996,180M2226.833333333333,180C2281.833333333333,180,2214.8666666666663,80,2269.8666666666663,80M2493.9999999999995,80C2548.9999999999995,80,2434.433333333333,180,2511.433333333333,180M2562.9666666666667,180C2617.9666666666667,180,2526.8666666666663,180,2603.8666666666663,180M2693.7999999999997,180C2748.7999999999997,180,2673.833333333333,80,2728.833333333333,80M2908.7,80C2963.7,80,2871.2666666666664,180,2948.2666666666664,180M3003.533333333333,180" stroke="rgb(200,200,200)" class="timeLine " id="timeLine " stroke-dasharray="0" stroke-width="5" fill="none"></path><path d="M338.79999999999995,156.66666666666666C485.44999999999993,42.67333333333334,485.44999999999993,42.67333333333334,632.0999999999999,46" stroke="rgb(200,200,200)" class="basicRel source1 target4" id="basicRel1_4" stroke-dasharray="9,9" stroke-width="5" fill="none"></path><path d="M433.09999999999997,155.86666666666667C532.5999999999999,61.13333333333335,532.5999999999999,61.13333333333335,632.0999999999999,46" stroke="rgb(200,200,200)" class="basicRel source2 target4" id="basicRel2_4" stroke-dasharray="9,9" stroke-width="5" fill="none"></path><path d="M527.9333333333333,155.33333333333334C580.0166666666667,79.83333333333334,580.0166666666667,79.83333333333334,632.0999999999999,46" stroke="rgb(200,200,200)" class=" basicRel source3 target4" id="basicRel3_4" stroke-dasharray="9,9" stroke-width="5" fill="none"></path><path d="M338.79999999999995,156.66666666666666C649.25,-107.78000000000002,649.25,-107.78000000000002,959.6999999999999,156.13333333333333" stroke="rgb(200,200,200)" class="basicRel source1 target6" id="basicRel1_6" stroke-dasharray="9,9" stroke-width="5" fill="none"></path><path d="M433.09999999999997,204.13333333333333C696.4,309.32,696.4,309.32,959.6999999999999,203.86666666666667" stroke="rgb(200,200,200)" class="basicRel source2 target6   " id="basicRel2_6" stroke-dasharray="9,9" stroke-width="5" fill="none"></path><path d="M433.09999999999997,155.86666666666667C742.8833333333332,-107.38,742.8833333333332,-107.38,1052.6666666666665,157.2" stroke="rgb(200,200,200)" class="basicRel source2 target7" id="basicRel2_7" stroke-dasharray="9,9" stroke-width="5" fill="none"></path><path d="M527.9333333333333,204.66666666666666C790.3,308.68,790.3,308.68,1052.6666666666665,202.8" stroke="rgb(200,200,200)" class=" basicRel source3 target7" id="basicRel3_7" stroke-dasharray="9,9" stroke-width="5" fill="none"></path><path d="M338.79999999999995,203.33333333333334C742.3499999999999,364.62,742.3499999999999,364.62,1145.8999999999999,203.06666666666666" stroke="rgb(200,200,200)" class="basicRel source1 target8  " id="basicRel1_8" stroke-dasharray="9,9" stroke-width="5" fill="none"></path><path d="M527.9333333333333,155.33333333333334C836.9166666666665,-107.46,836.9166666666665,-107.46,1145.8999999999999,156.93333333333334" stroke="rgb(200,200,200)" class=" basicRel source3 target8" id="basicRel3_8" stroke-dasharray="9,9" stroke-width="5" fill="none"></path><path d="M959.6999999999999,203.86666666666667C1103.8166666666666,265.5133333333333,1103.8166666666666,265.5133333333333,1247.9333333333332,211.86666666666667" stroke="rgb(200,200,200)" class="basicRel source6 target9 " id="basicRel6_9" stroke-dasharray="9,9" stroke-width="5" fill="none"></path><path d="M1052.6666666666665,202.8C1150.2999999999997,246.38666666666666,1150.2999999999997,246.38666666666666,1247.9333333333332,211.86666666666667" stroke="rgb(200,200,200)" class="basicRel source7 target9" id="basicRel7_9" stroke-dasharray="9,9" stroke-width="5" fill="none"></path><path d="M1145.8999999999999,203.06666666666666C1196.9166666666665,227.87333333333333,1196.9166666666665,227.87333333333333,1247.9333333333332,211.86666666666667" stroke="rgb(200,200,200)" class="basicRel source8 target9" id="basicRel8_9" stroke-dasharray="9,9" stroke-width="5" fill="none"></path><path d="M970.6333333333332,156.13333333333333L970.6333333333332,44.133864726430296L1412.9333333333332,44.133864726430296L1412.9333333333332,0" stroke="rgb(200,200,200)" class="similarityRel source6 target10" id="similarityRel6_10" stroke-dasharray="0" stroke-width="5" fill="none"></path><path d="M1063.0666666666666,157.2L1063.0666666666666,-104.81743316863037L2353.3999999999996,-104.81743316863037L2353.3999999999996,2.93333333333333" stroke="rgb(200,200,200)" class="similarityRel source7 target18" id="similarityRel7_18" stroke-dasharray="0" stroke-width="5" fill="none"></path></g><g id="circleG" width="1714" height="519"><circle id="entCircle_0" class="entCircle" opacity="1" cx="182.46666666666667" cy="80" r="27.46666666666667" fill="rgb(143, 201, 208)"></circle><path d="M157.867,91.893L158.736,91.893C159.605,91.893,161.343,91.893,162.383,88.145C163.423,84.397,163.765,76.9,164.107,76.9C164.449,76.9,164.792,84.397,171.816,88.145C178.84,91.893,192.547,91.893,199.4,91.893L206.253,91.893" stroke="white" class="sonLine " id="sonLine " stroke-dasharray="0" stroke-width="2" fill="none"></path><circle id="linePoint_0" class="linePoint" opacity="0" cx="160.9392823918975" cy="76.32924871756393" r="5" fill="red"></circle><path d="M0,-48.787A48.787,48.787,0,1,1,0,48.787L0,33.787A33.787,33.787,0,1,0,0,-33.787Z" class="type f0 t1" transform="translate(182.46666666666667,80)" stroke="#ff9c9c" stroke-width="3" stroke-dasharray="0" stroke-linejoin="round" fill="#ff9c9c"></path><path d="M0,48.787A48.787,48.787,0,1,1,0,-48.787L0,-33.787A33.787,33.787,0,1,0,0,33.787Z" class="type f0 t2" transform="translate(182.46666666666667,80)" stroke="#f4f4d0" stroke-width="3" stroke-dasharray="0" stroke-linejoin="round" fill="#f4f4d0"></path><path d="M0,-63.787A63.787,63.787,0,0,1,52.112,-36.785L42.308,-29.864A51.787,51.787,0,0,0,0,-51.787Z" class="son f0 s1" transform="translate(182.46666666666667,80)" stroke="rgb(123, 192, 208)" stroke-width="3" stroke-dasharray="0" stroke-linejoin="round" fill="rgb(123, 192, 208)"></path><path d="M63.781,0.871A63.787,63.787,0,0,1,1.742,63.763L1.415,51.768A51.787,51.787,0,0,0,51.782,0.707Z" class="son f0 s2" transform="translate(182.46666666666667,80)" stroke="rgb(102, 182, 208)" stroke-width="3" stroke-dasharray="0" stroke-linejoin="round" fill="rgb(102, 182, 208)"></path><path d="M-36.069,52.609A63.787,63.787,0,0,1,-37.493,-51.605L-30.44,-41.896A51.787,51.787,0,0,0,-29.284,42.712Z" class="son f0 s3" transform="translate(182.46666666666667,80)" stroke="rgb(123, 192, 208)" stroke-width="3" stroke-dasharray="0" stroke-linejoin="round" fill="rgb(123, 192, 208)"></path><text y="175.68024663591888" x="182.46666666666667" id="text_0_0" fill="grey" font-size="16" style="text-anchor: middle;"> definitions</text><text y="200.68024663591888" x="182.46666666666667" id="text_0_2" fill="grey" font-size="16" style="text-anchor: middle;"> of trees</text><circle id="entCircle_1" class="entCircle" opacity="1" cx="338.79999999999995" cy="180" r="21.333333333333332" fill="rgb(123, 192, 208)"></circle><path d="M318.8,189.238L319.607,189.238C320.414,189.238,322.029,189.238,322.927,187.476C323.825,185.715,324.008,182.193,324.191,182.193C324.373,182.193,324.556,185.715,330.07,187.476C335.584,189.238,346.43,189.238,351.852,189.238L357.275,189.238" stroke="white" class="sonLine " id="sonLine " stroke-dasharray="0" stroke-width="2" fill="none"></path><circle id="linePoint_1" class="linePoint" opacity="0" cx="321.7471477791066" cy="181.92485102805097" r="5" fill="red"></circle><text y="226.18802153517007" x="338.79999999999995" id="text_1_0" fill="grey" font-size="16" style="text-anchor: middle;"> Definition</text><text y="251.18802153517007" x="338.79999999999995" id="text_1_1" fill="grey" font-size="16" style="text-anchor: middle;"> 1</text><circle id="entCircle_2" class="entCircle" opacity="1" cx="433.09999999999997" cy="180" r="22.133333333333333" fill="rgb(102, 182, 208)"></circle><path d="M412.5,189.584L413.315,189.584C414.13,189.584,415.761,189.584,416.692,187.601C417.622,185.618,417.853,181.653,418.084,181.653C418.316,181.653,418.547,185.618,424.244,187.601C429.941,189.584,441.105,189.584,446.686,189.584L452.268,189.584" stroke="white" class="sonLine " id="sonLine " stroke-dasharray="0" stroke-width="2" fill="none"></path><circle id="linePoint_2" class="linePoint" opacity="0" cx="415.5610100523199" cy="181.3507263783771" r="5" fill="red"></circle><text y="227.92007234273893" x="433.09999999999997" id="text_2_0" fill="grey" font-size="16" style="text-anchor: middle;"> Definition</text><text y="252.92007234273893" x="433.09999999999997" id="text_2_1" fill="grey" font-size="16" style="text-anchor: middle;"> 2</text><circle id="entCircle_3" class="entCircle" opacity="1" cx="527.9333333333333" cy="180" r="22.666666666666668" fill="rgb(123, 192, 208)"></circle><path d="M506.933,189.815L507.754,189.815C508.575,189.815,510.216,189.815,511.182,187.678C512.148,185.541,512.439,181.267,512.73,181.267C513.021,181.267,513.312,185.541,519.118,187.678C524.923,189.815,536.243,189.815,541.903,189.815L547.563,189.815" stroke="white" class="sonLine " id="sonLine " stroke-dasharray="0" stroke-width="2" fill="none"></path><circle id="linePoint_3" class="linePoint" opacity="0" cx="510.16801621337817" cy="180.9420205250513" r="5" fill="red"></circle><text y="229.07477288111818" x="517.9333333333333" id="text_3_0" fill="grey" font-size="16" style="text-anchor: middle;"> Definition</text><text y="254.07477288111818" x="517.9333333333333" id="text_3_1" fill="grey" font-size="16" style="text-anchor: middle;"> 3</text><polygon points="604.3871870788979,96,659.8128129211019,96,632.0999999999999,48" fill="rgb(250, 199, 88)" stroke-linejoin="round" opacity="1" stroke="rgb(250, 199, 88)" stroke-width="15px"></polygon><text y="88" x="632.0999999999999" id="E_0" fill="white" font-size="28" style="text-anchor: middle;"> E</text><text y="144" x="642.0999999999999" id="text_4_0" fill="grey" font-size="16" style="text-anchor: middle;"> Example</text><circle id="entCircle_5" class="entCircle" opacity="1" cx="802.8333333333333" cy="80" r="35.733333333333334" fill="rgb(123, 192, 208)"></circle><path d="M772.033,95.473L773.074,95.473C774.114,95.473,776.195,95.473,777.88,88C779.565,80.527,780.854,65.58,782.143,65.58C783.432,65.58,784.721,80.527,793.327,88C801.933,95.473,817.856,95.473,825.818,95.473L833.779,95.473" stroke="white" class="sonLine " id="sonLine " stroke-dasharray="0" stroke-width="2" fill="none"></path><circle id="linePoint_5" class="linePoint" opacity="0" cx="778.4788514580534" cy="64.44230100812297" r="5" fill="red"></circle><path d="M0,-55.946A55.946,55.946,0,0,1,52.191,20.15L38.198,14.748A40.946,40.946,0,0,0,0,-40.946Z" class="type f5 t1" transform="translate(802.8333333333333,80)" stroke="#ff9c9c" stroke-width="3" stroke-dasharray="0" stroke-linejoin="round" fill="#ff9c9c"></path><path d="M52.191,20.15A55.946,55.946,0,0,1,-37.596,41.43L-27.516,30.322A40.946,40.946,0,0,0,38.198,14.748Z" class="type f5 t2" transform="translate(802.8333333333333,80)" stroke="#f4f4d0" stroke-width="3" stroke-dasharray="0" stroke-linejoin="round" fill="#f4f4d0"></path><path d="M-37.596,41.43A55.946,55.946,0,0,1,0,-55.946L0,-40.946A40.946,40.946,0,0,0,-27.516,30.322Z" class="type f5 t3" transform="translate(802.8333333333333,80)" stroke="#6f8be0" stroke-width="3" stroke-dasharray="0" stroke-linejoin="round" fill="#6f8be0"></path><path d="M0,-70.946A70.946,70.946,0,0,1,38.579,-59.54L32.054,-49.469A58.946,58.946,0,0,0,0,-58.946Z" class="son f5 s6" transform="translate(802.8333333333333,80)" stroke="rgb(143, 201, 208)" stroke-width="3" stroke-dasharray="0" stroke-linejoin="round" fill="rgb(143, 201, 208)"></path><path d="M63.18,-32.274A70.946,70.946,0,0,1,69.144,-15.888L57.449,-13.201A58.946,58.946,0,0,0,52.494,-26.815Z" class="son f5 s7" transform="translate(802.8333333333333,80)" stroke="rgb(143, 201, 208)" stroke-width="3" stroke-dasharray="0" stroke-linejoin="round" fill="rgb(143, 201, 208)"></path><path d="M67.825,20.812A70.946,70.946,0,0,1,57.482,41.583L47.759,34.55A58.946,58.946,0,0,0,56.353,17.292Z" class="son f5 s8" transform="translate(802.8333333333333,80)" stroke="rgb(143, 201, 208)" stroke-width="3" stroke-dasharray="0" stroke-linejoin="round" fill="rgb(143, 201, 208)"></path><path d="M28.989,64.753A70.946,70.946,0,0,1,-35.473,-61.441L-29.473,-51.049A58.946,58.946,0,0,0,24.086,53.8Z" class="son f5 s9" transform="translate(802.8333333333333,80)" stroke="rgb(143, 201, 208)" stroke-width="3" stroke-dasharray="0" stroke-linejoin="round" fill="rgb(143, 201, 208)"></path><text y="186.41896164284591" x="802.8333333333333" id="text_5_0" fill="grey" font-size="16" style="text-anchor: middle;"> Equivalent</text><text y="211.41896164284591" x="802.8333333333333" id="text_5_1" fill="grey" font-size="16" style="text-anchor: middle;"> Definitions</text><circle id="entCircle_6" class="entCircle" opacity="1" cx="959.6999999999999" cy="180" r="21.866666666666667" fill="rgb(143, 201, 208)"></circle><path d="M939.3,189.469L940.209,189.469C941.118,189.469,942.937,189.469,944.11,187.561C945.284,185.653,945.814,181.838,946.343,181.838C946.872,181.838,947.401,185.653,952.784,187.561C958.166,189.469,968.402,189.469,973.519,189.469L978.637,189.469" stroke="white" class="sonLine " id="sonLine " stroke-dasharray="0" stroke-width="2" fill="none"></path><circle id="linePoint_6" class="linePoint" opacity="0" cx="944.1147758933876" cy="181.54729247897703" r="5" fill="red"></circle><text y="227.3427220735493" x="959.6999999999999" id="text_6_0" fill="grey" font-size="16" style="text-anchor: middle;"> (I)-&gt;(II)</text><circle id="entCircle_7" class="entCircle" opacity="1" cx="1052.6666666666665" cy="180" r="20.8" fill="rgb(143, 201, 208)"></circle><path d="M1033.067,189.007L1033.996,189.007C1034.925,189.007,1036.784,189.007,1037.956,187.387C1039.129,185.767,1039.614,182.528,1040.1,182.528C1040.585,182.528,1041.071,185.767,1046.167,187.387C1051.264,189.007,1060.972,189.007,1065.826,189.007L1070.68,189.007" stroke="white" class="sonLine " id="sonLine " stroke-dasharray="0" stroke-width="2" fill="none"></path><circle id="linePoint_7" class="linePoint" opacity="0" cx="1038.0218306785102" cy="182.28164470762366" r="5" fill="red"></circle><text y="225.03332099679082" x="1052.6666666666665" id="text_7_0" fill="grey" font-size="16" style="text-anchor: middle;"> (II)-&gt;(III)</text><circle id="entCircle_8" class="entCircle" opacity="1" cx="1145.8999999999999" cy="180" r="21.06666666666667" fill="rgb(143, 201, 208)"></circle><path d="M1126.1,189.122L1127.049,189.122C1127.998,189.122,1129.897,189.122,1131.094,187.432C1132.292,185.743,1132.788,182.363,1133.284,182.363C1133.78,182.363,1134.277,185.743,1139.42,187.432C1144.563,189.122,1154.354,189.122,1159.249,189.122L1164.144,189.122" stroke="white" class="sonLine " id="sonLine " stroke-dasharray="0" stroke-width="2" fill="none"></path><circle id="linePoint_8" class="linePoint" opacity="0" cx="1131.1951195838478" cy="182.10584347652497" r="5" fill="red"></circle><text y="225.61067126598044" x="1145.8999999999999" id="text_8_0" fill="grey" font-size="16" style="text-anchor: middle;"> (III)-&gt;(I)</text><polygon points="1222.0680412736378,194.93333333333334,1273.7986253930285,194.93333333333334,1247.9333333333332,150.13333333333333" fill="rgb(250, 199, 88)" stroke-linejoin="round" opacity="1" stroke="rgb(250, 199, 88)" stroke-width="15px"></polygon><text y="188" x="1247.9333333333332" id="E_0" fill="white" font-size="28" style="text-anchor: middle;"> E</text><text y="239.73333333333335" x="1247.9333333333332" id="text_9_0" fill="grey" font-size="16" style="text-anchor: middle;"> Example</text><circle id="entCircle_10" class="entCircle" opacity="1" cx="1442.9333333333332" cy="80" r="60" fill="rgb(22, 144, 207)"></circle><path d="M1393.933,105.981L1396.147,105.981C1398.361,105.981,1402.788,105.981,1406.737,93.215C1410.686,80.45,1414.156,54.92,1417.627,54.92C1421.097,54.92,1424.568,80.45,1437.446,93.215C1450.324,105.981,1472.609,105.981,1483.752,105.981L1494.895,105.981" stroke="white" class="sonLine " id="sonLine " stroke-dasharray="0" stroke-width="2" fill="none"></path><circle id="linePoint_10" class="linePoint" opacity="0" cx="1412.8995723300886" cy="0.7319100816904296" r="5" fill="red"></circle><path d="M0,-76.962A76.962,76.962,0,0,1,38.16,66.835L30.723,53.808A61.962,61.962,0,0,0,0,-61.962Z" class="type f10 t1" transform="translate(1442.9333333333332,80) scale(1)" stroke="#ff9c9c" stroke-width="3" stroke-dasharray="0" stroke-linejoin="round" fill="#ff9c9c"></path><path d="M38.16,66.835A76.962,76.962,0,0,1,-66.278,-39.119L-53.36,-31.495A61.962,61.962,0,0,0,30.723,53.808Z" class="type f10 t2" transform="translate(1442.9333333333332,80) scale(1)" stroke="#f4f4d0" stroke-width="3" stroke-dasharray="0" stroke-linejoin="round" fill="#f4f4d0"></path><path d="M-66.278,-39.119A76.962,76.962,0,0,1,0,-76.962L0,-61.962A61.962,61.962,0,0,0,-53.36,-31.495Z" class="type f10 t3" transform="translate(1442.9333333333332,80) scale(1)" stroke="#6f8be0" stroke-width="3" stroke-dasharray="0" stroke-linejoin="round" fill="#6f8be0"></path><path d="M0,-91.962A91.962,91.962,0,0,1,21.564,-89.397L18.75,-77.732A79.962,79.962,0,0,0,0,-79.962Z" class="son f10 s11" transform="translate(1442.9333333333332,80) scale(1)" stroke="rgb(183, 220, 209)" stroke-width="3" stroke-dasharray="0" stroke-linejoin="round" fill="rgb(183, 220, 209)"></path><path d="M50.839,-76.631A91.962,91.962,0,0,1,58.605,-70.869L50.958,-61.621A79.962,79.962,0,0,0,44.205,-66.631Z" class="son f10 s12" transform="translate(1442.9333333333332,80) scale(1)" stroke="rgb(203, 230, 209)" stroke-width="3" stroke-dasharray="0" stroke-linejoin="round" fill="rgb(203, 230, 209)"></path><path d="M79.309,-46.551A91.962,91.962,0,0,1,85.639,-33.51L74.464,-29.137A79.962,79.962,0,0,0,68.96,-40.476Z" class="son f10 s13" transform="translate(1442.9333333333332,80) scale(1)" stroke="rgb(183, 220, 209)" stroke-width="3" stroke-dasharray="0" stroke-linejoin="round" fill="rgb(183, 220, 209)"></path><path d="M91.935,-2.198A91.962,91.962,0,0,1,89.346,21.778L77.687,18.936A79.962,79.962,0,0,0,79.939,-1.912Z" class="son f10 s14" transform="translate(1442.9333333333332,80) scale(1)" stroke="rgb(203, 230, 209)" stroke-width="3" stroke-dasharray="0" stroke-linejoin="round" fill="rgb(203, 230, 209)"></path><path d="M76.509,51.023A91.962,91.962,0,0,1,65.876,64.166L57.28,55.793A79.962,79.962,0,0,0,66.525,44.365Z" class="son f10 s15" transform="translate(1442.9333333333332,80) scale(1)" stroke="rgb(203, 230, 209)" stroke-width="3" stroke-dasharray="0" stroke-linejoin="round" fill="rgb(203, 230, 209)"></path><path d="M39.957,82.827A91.962,91.962,0,0,1,-88.913,23.483L-77.311,20.418A79.962,79.962,0,0,0,34.743,72.019Z" class="son f10 s16" transform="translate(1442.9333333333332,80) scale(1)" stroke="rgb(203, 230, 209)" stroke-width="3" stroke-dasharray="0" stroke-linejoin="round" fill="rgb(203, 230, 209)"></path><path d="M-91.582,-8.343A91.962,91.962,0,0,1,-31.453,-86.416L-27.348,-75.139A79.962,79.962,0,0,0,-79.632,-7.255Z" class="son f10 s17" transform="translate(1442.9333333333332,80) scale(1)" stroke="rgb(203, 230, 209)" stroke-width="3" stroke-dasharray="0" stroke-linejoin="round" fill="rgb(203, 230, 209)"></path><text y="217.94228634059948" x="1442.9333333333332" id="text_10_0" fill="grey" font-size="16" style="text-anchor: middle;"> (I)-&gt;(II)</text><circle id="entCircle_11" class="entCircle" opacity="1" cx="1600.3333333333333" cy="180" r="22.4" fill="rgb(183, 220, 209)"></circle><path d="M1579.533,189.699L1580.669,189.699C1581.804,189.699,1584.075,189.699,1585.403,187.64C1586.731,185.581,1587.115,181.462,1588.053,182.149C1588.992,182.835,1590.484,188.327,1591.591,188.484C1592.697,188.642,1593.418,183.465,1593.962,182.779C1594.507,182.093,1594.875,185.896,1599.14,187.798C1603.406,189.699,1611.569,189.699,1615.651,189.699L1619.732,189.699" stroke="white" class="sonLine " id="sonLine " stroke-dasharray="0" stroke-width="2" fill="none"></path><circle id="linePoint_11" class="linePoint" opacity="0" cx="1586.5406663425008" cy="181.14896906040184" r="5" fill="red"></circle><circle id="linePoint_13" class="linePoint" opacity="0" cx="1586.9868426305306" cy="181.8030624496906" r="5" fill="red"></circle><text y="228.49742261192856" x="1600.3333333333333" id="text_11_0" fill="grey" font-size="16" style="text-anchor: middle;"> connected</text><text y="253.49742261192856" x="1600.3333333333333" id="text_11_1" fill="grey" font-size="16" style="text-anchor: middle;"> graph</text><circle id="entCircle_12" class="entCircle" opacity="1" cx="1693.5666666666666" cy="180" r="21.06666666666667" fill="rgb(203, 230, 209)"></circle><path d="M1673.767,189.122L1674.995,189.122C1676.223,189.122,1678.68,189.122,1680.157,187.432C1681.633,185.743,1682.129,182.363,1682.626,182.363C1683.122,182.363,1683.618,185.743,1688.482,187.432C1693.347,189.122,1702.579,189.122,1707.195,189.122L1711.811,189.122" stroke="white" class="sonLine " id="sonLine " stroke-dasharray="0" stroke-width="2" fill="none"></path><circle id="linePoint_12" class="linePoint" opacity="0" cx="1680.8321672492048" cy="182.10584347652497" r="5" fill="red"></circle><text y="225.61067126598044" x="1693.5666666666666" id="text_12_0" fill="grey" font-size="16" style="text-anchor: middle;"> induction</text><text y="250.61067126598044" x="1693.5666666666666" id="text_12_2" fill="grey" font-size="16" style="text-anchor: middle;"> on n</text><circle id="entCircle_13" class="entCircle" opacity="1" cx="1787.3333333333333" cy="180" r="21.599999999999998" fill="rgb(183, 220, 209)"></circle><path d="M1767.133,189.353L1768.249,189.353C1769.365,189.353,1771.596,189.353,1772.898,187.367C1774.2,185.382,1774.572,181.41,1775.497,182.072C1776.422,182.734,1777.9,188.029,1778.993,188.181C1780.087,188.333,1780.796,183.342,1781.328,182.68C1781.861,182.018,1782.217,185.685,1786.306,187.519C1790.395,189.353,1798.217,189.353,1802.128,189.353L1806.039,189.353" stroke="white" class="sonLine " id="sonLine " stroke-dasharray="0" stroke-width="2" fill="none"></path><circle id="linePoint_11" class="linePoint" opacity="0" cx="1774.0332615921734" cy="181.10793445110178" r="5" fill="red"></circle><circle id="linePoint_13" class="linePoint" opacity="0" cx="1774.4635030127733" cy="181.73866736220165" r="5" fill="red"></circle><text y="226.7653718043597" x="1787.3333333333333" id="text_13_1" fill="grey" font-size="16" style="text-anchor: middle;"> Base case</text><circle id="entCircle_14" class="entCircle" opacity="1" cx="1882.1666666666665" cy="180" r="22.666666666666668" fill="rgb(203, 230, 209)"></circle><path d="M1861.167,189.815L1862.499,189.815C1863.831,189.815,1866.496,189.815,1868.11,187.678C1869.724,185.541,1870.288,181.267,1870.851,181.267C1871.415,181.267,1871.978,185.541,1877.136,187.678C1882.293,189.815,1892.045,189.815,1896.921,189.815L1901.797,189.815" stroke="white" class="sonLine " id="sonLine " stroke-dasharray="0" stroke-width="2" fill="none"></path><circle id="linePoint_14" class="linePoint" opacity="0" cx="1868.9753677162219" cy="180.9420205250513" r="5" fill="red"></circle><text y="229.07477288111818" x="1882.1666666666665" id="text_14_0" fill="grey" font-size="16" style="text-anchor: middle;"> induction</text><text y="254.07477288111818" x="1882.1666666666665" id="text_14_1" fill="grey" font-size="16" style="text-anchor: middle;"> hypothesis</text><circle id="entCircle_15" class="entCircle" opacity="1" cx="1976.1999999999998" cy="180" r="21.866666666666667" fill="rgb(203, 230, 209)"></circle><path d="M1955.8,189.469L1957.16,189.469C1958.52,189.469,1961.239,189.469,1962.864,187.561C1964.489,185.653,1965.018,181.838,1965.547,181.838C1966.076,181.838,1966.606,185.653,1971.537,187.561C1976.469,189.469,1985.803,189.469,1990.47,189.469L1995.137,189.469" stroke="white" class="sonLine " id="sonLine " stroke-dasharray="0" stroke-width="2" fill="none"></path><circle id="linePoint_15" class="linePoint" opacity="0" cx="1963.7962068167299" cy="181.54729247897703" r="5" fill="red"></circle><text y="227.3427220735493" x="1976.1999999999998" id="text_15_0" fill="grey" font-size="16" style="text-anchor: middle;"> induction</text><text y="252.3427220735493" x="1976.1999999999998" id="text_15_1" fill="grey" font-size="16" style="text-anchor: middle;"> step</text><polygon points="2053.439838043362,198.93333333333334,2119.026828623304,198.93333333333334,2086.233333333333,142.13333333333333" fill="rgb(250, 199, 88)" stroke-linejoin="round" opacity="1" stroke="rgb(250, 199, 88)" stroke-width="15px"></polygon><text y="188" x="2086.233333333333" id="E_0" fill="white" font-size="28" style="text-anchor: middle;"> E</text><text y="255.73333333333335" x="2086.233333333333" id="text_16_0" fill="grey" font-size="16" style="text-anchor: middle;"> Example</text><circle id="entCircle_17" class="entCircle" opacity="1" cx="2189.8666666666663" cy="180" r="31.46666666666667" fill="rgb(203, 230, 209)"></circle><path d="M2162.267,193.625L2164.535,193.625C2166.804,193.625,2171.341,193.625,2174.118,188.225C2176.895,182.824,2177.913,172.023,2178.931,172.023C2179.948,172.023,2180.966,182.824,2187.33,188.225C2193.695,193.625,2205.406,193.625,2211.262,193.625L2217.118,193.625" stroke="white" class="sonLine " id="sonLine " stroke-dasharray="0" stroke-width="2" fill="none"></path><circle id="linePoint_17" class="linePoint" opacity="0" cx="2177.0314773622576" cy="171.20044591093585" r="5" fill="red"></circle><text y="248.12733176437587" x="2189.8666666666663" id="text_17_0" fill="grey" font-size="16" style="text-anchor: middle;"> summery</text><circle id="entCircle_18" class="entCircle" opacity="1" cx="2381.933333333333" cy="80" r="57.06666666666667" fill="rgb(123, 192, 208)"></circle><path d="M2335.133,104.711L2339.368,104.711C2343.603,104.711,2352.073,104.711,2357.882,94.007C2363.691,83.304,2366.84,61.897,2369.99,61.897C2373.139,61.897,2376.288,83.304,2386.515,94.007C2396.743,104.711,2414.049,104.711,2422.702,104.711L2431.355,104.711" stroke="white" class="sonLine " id="sonLine " stroke-dasharray="0" stroke-width="2" fill="none"></path><circle id="linePoint_18" class="linePoint" opacity="0" cx="2367.650611434012" cy="10.717301772878002" r="5" fill="red"></circle><path d="M0,-74.421A74.421,74.421,0,0,1,52.995,52.25L42.313,41.719A59.421,59.421,0,0,0,0,-59.421Z" class="type f18 t1" transform="translate(2381.933333333333,80)" stroke="#ff9c9c" stroke-width="3" stroke-dasharray="0" stroke-linejoin="round" fill="#ff9c9c"></path><path d="M52.995,52.25A74.421,74.421,0,0,1,-74.414,-1.053L-59.415,-0.841A59.421,59.421,0,0,0,42.313,41.719Z" class="type f18 t2" transform="translate(2381.933333333333,80)" stroke="#f4f4d0" stroke-width="3" stroke-dasharray="0" stroke-linejoin="round" fill="#f4f4d0"></path><path d="M-74.414,-1.053A74.421,74.421,0,0,1,0,-74.421L0,-59.421A59.421,59.421,0,0,0,-59.415,-0.841Z" class="type f18 t3" transform="translate(2381.933333333333,80)" stroke="#6f8be0" stroke-width="3" stroke-dasharray="0" stroke-linejoin="round" fill="#6f8be0"></path><path d="M0,-89.421A89.421,89.421,0,0,1,5.691,-89.24L4.927,-77.264A77.421,77.421,0,0,0,0,-77.421Z" class="son f18 s19" transform="translate(2381.933333333333,80)" stroke="rgb(203, 230, 209)" stroke-width="3" stroke-dasharray="0" stroke-linejoin="round" fill="rgb(203, 230, 209)"></path><path d="M67.126,-59.078A89.421,89.421,0,1,1,-63.23,-63.23L-54.745,-54.745A77.421,77.421,0,1,0,58.118,-51.15Z" class="son f18 s20" transform="translate(2381.933333333333,80)" stroke="rgb(203, 230, 209)" stroke-width="3" stroke-dasharray="0" stroke-linejoin="round" fill="rgb(203, 230, 209)"></path><text y="214.13177456394794" x="2381.933333333333" id="text_18_0" fill="grey" font-size="16" style="text-anchor: middle;"> (II)-&gt;(III)</text><polygon points="2519.648551816635,190.13333333333333,2554.7514481833646,190.13333333333333,2537.2,159.73333333333335" fill="rgb(250, 199, 88)" stroke-linejoin="round" opacity="1" stroke="rgb(250, 199, 88)" stroke-width="15px"></polygon><text y="188" x="2537.2" id="T_0" fill="white" font-size="28" style="text-anchor: middle;"> T</text><text y="220.53333333333333" x="2537.2" id="text_19_0" fill="grey" font-size="16" style="text-anchor: middle;"> Test</text><polygon points="2614.654197397307,199.73333333333335,2683.012469269359,199.73333333333335,2648.833333333333,140.53333333333333" fill="rgb(250, 199, 88)" stroke-linejoin="round" opacity="1" stroke="rgb(250, 199, 88)" stroke-width="15px"></polygon><text y="188" x="2648.833333333333" id="E_0" fill="white" font-size="28" style="text-anchor: middle;"> E</text><text y="258.93333333333334" x="2648.833333333333" id="text_20_0" fill="grey" font-size="16" style="text-anchor: middle;"> Example</text><circle id="entCircle_21" class="entCircle" opacity="1" cx="2818.7666666666664" cy="80" r="34.93333333333334" fill="rgb(183, 220, 209)"></circle><path d="M2788.567,95.127L2792.58,95.127C2796.593,95.127,2804.62,95.127,2809.251,89.884C2813.882,84.642,2815.118,74.157,2816.353,74.157C2817.589,74.157,2818.825,84.642,2824.269,89.884C2829.714,95.127,2839.367,95.127,2844.193,95.127L2849.02,95.127" stroke="white" class="sonLine " id="sonLine " stroke-dasharray="0" stroke-width="2" fill="none"></path><circle id="linePoint_21" class="linePoint" opacity="0" cx="2815.922870180746" cy="65.81068191621887" r="5" fill="red"></circle><path d="M0,-55.253A55.253,55.253,0,0,1,46.432,29.95L33.826,21.819A40.253,40.253,0,0,0,0,-40.253Z" class="type f21 t1" transform="translate(2818.7666666666664,80)" stroke="#ff9c9c" stroke-width="3" stroke-dasharray="0" stroke-linejoin="round" fill="#ff9c9c"></path><path d="M46.432,29.95A55.253,55.253,0,0,1,-50.337,22.784L-36.672,16.599A40.253,40.253,0,0,0,33.826,21.819Z" class="type f21 t2" transform="translate(2818.7666666666664,80)" stroke="#f4f4d0" stroke-width="3" stroke-dasharray="0" stroke-linejoin="round" fill="#f4f4d0"></path><path d="M-50.337,22.784A55.253,55.253,0,0,1,0,-55.253L0,-40.253A40.253,40.253,0,0,0,-36.672,16.599Z" class="type f21 t3" transform="translate(2818.7666666666664,80)" stroke="#6f8be0" stroke-width="3" stroke-dasharray="0" stroke-linejoin="round" fill="#6f8be0"></path><path d="M0,-70.253A70.253,70.253,0,1,1,-60.841,-35.127L-50.449,-29.127A58.253,58.253,0,1,0,0,-58.253Z" class="son f21 s22" transform="translate(2818.7666666666664,80)" stroke="rgb(203, 230, 209)" stroke-width="3" stroke-dasharray="0" stroke-linejoin="round" fill="rgb(203, 230, 209)"></path><text y="185.3797311583046" x="2818.7666666666664" id="text_21_1" fill="grey" font-size="16" style="text-anchor: middle;"> third one</text><circle id="entCircle_22" class="entCircle" opacity="1" cx="2975.8999999999996" cy="180" r="22.133333333333333" fill="rgb(203, 230, 209)"></circle><path d="M2955.3,189.584L2958.32,189.584C2961.34,189.584,2967.381,189.584,2970.672,187.601C2973.962,185.618,2974.503,181.653,2975.043,181.653C2975.584,181.653,2976.124,185.618,2979.462,187.601C2982.799,189.584,2988.934,189.584,2992.001,189.584L2995.068,189.584" stroke="white" class="sonLine " id="sonLine " stroke-dasharray="0" stroke-width="2" fill="none"></path><circle id="linePoint_22" class="linePoint" opacity="0" cx="2975.018270668893" cy="181.3507263783771" r="5" fill="red"></circle><text y="227.92007234273893" x="2975.8999999999996" id="text_22_0" fill="grey" font-size="16" style="text-anchor: middle;"> summery</text></g></g></svg>