<?xml version="1.0" standalone="no"?>
<!DOCTYPE svg PUBLIC "-//W3C//DTD SVG 1.1//EN" "http://www.w3.org/Graphics/SVG/1.1/DTD/svg11.dtd">
<svg t="1679468177819" class="icon" viewBox="0 0 5024 5024" version="1.1" xmlns="http://www.w3.org/2000/svg" p-id="2610" xmlns:xlink="http://www.w3.org/1999/xlink" width="5000" height="5000"><g id="groups" width="1714" height="519" transform="translate(248.71444872754137,291.7957459922485) scale(0.5775428922767922)"><g id="backG" width="1714" height="519"><rect x="115" y="-1.1111111111111143" rx="20" ry="20" height="253.33333333333334" width="572.7777777777778" fill="rgb(91, 107, 255)" opacity="0.1" stroke="white" stroke-width="1.5px"></rect><rect x="619.4444444444445" y="-1.1111111111111143" rx="20" ry="20" height="260" width="428.8888888888888" fill="rgb(6, 214, 160)" opacity="0.1" stroke="white" stroke-width="1.5px"></rect><rect x="970" y="1.3888888888888857" rx="20" ry="20" height="231.94444444444446" width="293.6111111111111" fill="rgb(255, 120, 90)" opacity="0.1" stroke="white" stroke-width="1.5px"></rect><rect x="1305.2777777777778" y="-2.7777777777777715" rx="20" ry="20" height="263.3333333333333" width="433.88888888888914" fill="rgb(125, 98, 211)" opacity="0.1" stroke="white" stroke-width="1.5px"></rect><rect x="1658.3333333333335" y="1.1111111111111143" rx="20" ry="20" height="256.1111111111111" width="423.3333333333335" fill="rgb(255, 113, 212)" opacity="0.1" stroke="white" stroke-width="1.5px"></rect><rect x="2170.8333333333335" y="-20" rx="20" ry="20" height="274.44444444444446" width="862.166666666667" fill="rgb(112, 214, 255)" opacity="0.1" stroke="white" stroke-width="1.5px"></rect><rect x="3131.6111111111118" y="6.111111111111114" rx="20" ry="20" height="228.88888888888889" width="385.7777777777774" fill="rgb(255, 159, 28)" opacity="0.1" stroke="white" stroke-width="1.5px"></rect></g><g id="arcG" width="1714" height="519"><path d="M232.66019642841837,23.12851314179916A67.60326660002693,67.60326660002693,0,0,1,262.1694311987402,65.62989206043821" stroke="rgb(200,200,200)" class="midArc " id="midArc " stroke-dasharray="9,5" stroke-width="3" fill="none"></path><path d="M577.0541372811105,215.15267290095616A63.27313958110473,63.27313958110473,0,0,1,536.7884216202937,242.05736394604654" stroke="rgb(200,200,200)" class="midArc " id="midArc " stroke-dasharray="9,5" stroke-width="3" fill="none"></path><path d="M894.5705008663984,243.19910334267274A66.15989092705286,66.15989092705286,0,0,1,844.1499193353342,238.5269484123608" stroke="rgb(200,200,200)" class="midArc " id="midArc " stroke-dasharray="9,5" stroke-width="3" fill="none"></path><path d="M1621.9421075757034,212.22044629905858A66.88157876353989,66.88157876353989,0,0,1,1581.9926989662233,244.22595777473248" stroke="rgb(200,200,200)" class="midArc " id="midArc " stroke-dasharray="9,5" stroke-width="3" fill="none"></path><path d="M1962.1447244834355,220.6115693117537A65.43820309056582,65.43820309056582,0,0,1,1918.3992499127176,244.99934868932104" stroke="rgb(200,200,200)" class="midArc " id="midArc " stroke-dasharray="9,5" stroke-width="3" fill="none"></path><path d="M2300.74393043164,1.5468692036128573A83.96152422706632,83.96152422706632,0,0,1,2335.9632356610214,27.01289427305864" stroke="rgb(200,200,200)" class="midArc " id="midArc " stroke-dasharray="9,5" stroke-width="3" fill="none"></path><path d="M2345.672502874426,41.9390455593679A83.96152422706632,83.96152422706632,0,0,1,2354.676432574366,84.45783133267666" stroke="rgb(200,200,200)" class="midArc " id="midArc " stroke-dasharray="9,5" stroke-width="3" fill="none"></path><path d="M2253.1275477671616,162.07339829699373A83.96152422706632,83.96152422706632,0,0,1,2214.4629740905716,142.22475511702902" stroke="rgb(200,200,200)" class="midArc " id="midArc " stroke-dasharray="9,5" stroke-width="3" fill="none"></path><path d="M2740.485685138507,137.3091972068542A63.03257696894239,63.03257696894239,0,0,1,2757.0898430298516,182.60481962007788" stroke="rgb(200,200,200)" class="midArc " id="midArc " stroke-dasharray="9,5" stroke-width="3" fill="none"></path><path d="M2898.969751299747,235.3267526120614A64.23539002975411,64.23539002975411,0,0,1,2850.2888438380037,242.1993544107081" stroke="rgb(200,200,200)" class="midArc " id="midArc " stroke-dasharray="9,5" stroke-width="3" fill="none"></path><path d="M3259.523337110453,50.928802642365596A61.34863868380597,61.34863868380597,0,0,1,3264.2567088019246,97.64382722433243" stroke="rgb(200,200,200)" class="midArc " id="midArc " stroke-dasharray="9,5" stroke-width="3" fill="none"></path></g><g id="timeLineG" width="1714" height="519"><path d="M20,80C75,80,45,80,100,80M292.22222222222223,80C347.22222222222223,80,248.61111111111114,180,325.61111111111114,180M381.0555555555556,180C436.0555555555556,180,378.33333333333337,180,433.33333333333337,180M615.5555555555555,180C670.5555555555555,180,549.4444444444445,80,604.4444444444445,80M796.6666666666666,80C851.6666666666666,80,725.5555555555555,180,780.5555555555555,180M969.4444444444445,180C1024.4444444444443,180,900,80,955,80M1142.2222222222222,80C1197.2222222222222,80,1101.111111111111,180,1178.111111111111,180M1242.4444444444446,180C1297.4444444444446,180,1235.2777777777778,80,1290.2777777777778,80M1485.8333333333335,80C1540.8333333333335,80,1413.0555555555557,180,1468.0555555555557,180M1658.6111111111113,180C1713.6111111111113,180,1588.3333333333335,80,1643.3333333333335,80M1831.1111111111113,80C1886.1111111111113,80,1762.2222222222224,180,1817.2222222222224,180M2004.4444444444446,180C2059.4444444444443,180,1963.3333333333335,80,2040.3333333333335,80M2111.3333333333335,80C2166.3333333333335,80,2100.8333333333335,80,2155.8333333333335,80M2385.8333333333335,80C2440.8333333333335,80,2323.3333333333335,180,2400.3333333333335,180M2458.0000000000005,180C2513.0000000000005,180,2418.833333333334,180,2495.833333333334,180M2550.7222222222226,180C2605.7222222222226,180,2548.2777777777783,180,2603.2777777777783,180M2784.9444444444453,180C2839.9444444444453,180,2719.1111111111118,180,2774.1111111111118,180M2958.555555555556,180C3013.555555555556,180,2918.833333333334,80,2995.833333333334,80M3077.3888888888896,80C3132.3888888888896,80,3061.6111111111118,80,3116.6111111111118,80M3294.388888888889,80C3349.388888888889,80,3258.0000000000005,180,3335.0000000000005,180M3390.444444444445,180C3445.444444444445,180,3352.388888888889,180,3429.388888888889,180M3495.388888888889,180C3550.388888888889,180,3452.0555555555557,80,3529.0555555555557,80M3590.6111111111113,80" stroke="rgb(200,200,200)" class="timeLine " id="timeLine " stroke-dasharray="0" stroke-width="5" fill="none"></path><path d="M875,239.44444444444446C1042.638888888889,291.1111111111111,1042.638888888889,291.1111111111111,1210.2777777777778,208.66666666666666" stroke="rgb(200,200,200)" class="basicRel source10 target6" id="basicRel10_6" stroke-dasharray="9,9" stroke-width="5" fill="none"></path><path d="M875,120.55555555555554C1475.4166666666667,-155.8888888888889,1475.4166666666667,-155.8888888888889,2075.8333333333335,48" stroke="rgb(200,200,200)" class="basicRel source19 target6" id="basicRel19_6" stroke-dasharray="9,9" stroke-width="5" fill="none"></path><path d="M1737.2222222222224,21.111111111111114C2004.0277777777778,-96.16666666666666,2004.0277777777778,-96.16666666666666,2270.8333333333335,0" stroke="rgb(200,200,200)" class="basicRel source20 target15" id="basicRel20_15" stroke-dasharray="9,9" stroke-width="5" fill="none"></path><path d="M2270.8333333333335,0C2653.7222222222226,-131.79444444444454,2653.7222222222226,-131.79444444444454,3036.6111111111118,42.72222222222223" stroke="rgb(200,200,200)" class="basicRel source30 target20" id="basicRel30_20" stroke-dasharray="9,9" stroke-width="5" fill="none"></path><path d="M216.66666666666669,18.888888888888886L216.66666666666669,1.7815062170820397L680,1.7815062170820397L680,18.888888888888886" stroke="rgb(200,200,200)" class="similarityRel source0 target5" id="similarityRel0_5" stroke-dasharray="0" stroke-width="5" fill="none"></path><path d="M894.7222222222222,120.55555555555554L894.7222222222222,63.450510071210374L1029.3055555555554,63.450510071210374L1029.3055555555554,21.388888888888886" stroke="rgb(200,200,200)" class="similarityRel source9 target6" id="similarityRel9_6" stroke-dasharray="0" stroke-width="5" fill="none"></path></g><g id="circleG" width="1714" height="519"><circle id="entCircle_0" class="entCircle" opacity="1" cx="196.11111111111111" cy="80" r="41.111111111111114" fill="rgb(125, 193, 208)"></circle><path d="M161.278,97.802L162.138,97.802C162.998,97.802,164.718,97.802,165.917,88.725C167.117,79.648,167.794,61.495,169.28,65.063C170.765,68.631,173.058,93.92,174.782,94.223C176.506,94.526,177.661,69.843,178.916,66.275C180.171,62.707,181.524,80.254,190.34,89.028C199.157,97.802,215.436,97.802,223.575,97.802L231.714,97.802" stroke="white" class="sonLine " id="sonLine " stroke-dasharray="0" stroke-width="2" fill="none"></path><circle id="linePoint_0" class="linePoint" opacity="0" cx="165.59865940603305" cy="53.35706429763233" r="5" fill="red"></circle><circle id="linePoint_5" class="linePoint" opacity="0" cx="168.62538929589033" cy="53.35706429763233" r="5" fill="red"></circle><path d="M0,-60.603A60.603,60.603,0,1,1,-0.065,60.603L-0.049,45.603A45.603,45.603,0,1,0,0,-45.603Z" class="type f0 t1" transform="translate(196.11111111111111,80)" stroke="#ff9c9c" stroke-width="3" stroke-dasharray="0" stroke-linejoin="round" fill="#ff9c9c"></path><path d="M-0.065,60.603A60.603,60.603,0,0,1,0,-60.603L0,-45.603A45.603,45.603,0,0,0,-0.049,45.603Z" class="type f0 t2" transform="translate(196.11111111111111,80)" stroke="#f4f4d0" stroke-width="3" stroke-dasharray="0" stroke-linejoin="round" fill="#f4f4d0"></path><path d="M0,-75.603A75.603,75.603,0,0,1,40.874,-63.602L34.387,-53.506A63.603,63.603,0,0,0,0,-63.603Z" class="son f0 s1" transform="translate(196.11111111111111,80)" stroke="rgb(203, 230, 209)" stroke-width="3" stroke-dasharray="0" stroke-linejoin="round" fill="rgb(203, 230, 209)"></path><path d="M73.875,-16.071A75.603,75.603,0,1,1,-53.46,-53.46L-44.974,-44.974A63.603,63.603,0,1,0,62.15,-13.52Z" class="son f0 s2" transform="translate(196.11111111111111,80)" stroke="rgb(151, 205, 208)" stroke-width="3" stroke-dasharray="0" stroke-linejoin="round" fill="rgb(151, 205, 208)"></path><text y="193.4048999000404" x="196.11111111111111" id="text_0_1" fill="grey" font-size="16" style="text-anchor: middle;"> Random Variables</text><circle id="entCircle_1" class="entCircle" opacity="1" cx="353.33333333333337" cy="180" r="22.22222222222222" fill="rgb(203, 230, 209)"></circle><path d="M332.667,189.623L333.483,189.623C334.299,189.623,335.931,189.623,336.863,187.605C337.795,185.588,338.027,181.553,338.259,181.553C338.49,181.553,338.722,185.588,344.442,187.605C350.162,189.623,361.37,189.623,366.974,189.623L372.578,189.623" stroke="white" class="sonLine " id="sonLine " stroke-dasharray="0" stroke-width="2" fill="none"></path><circle id="linePoint_1" class="linePoint" opacity="0" cx="335.72390567502003" cy="181.24569954878913" r="5" fill="red"></circle><text y="228.1125224324688" x="353.33333333333337" id="text_1_0" fill="grey" font-size="16" style="text-anchor: middle;"> Mean</text><text y="253.1125224324688" x="353.33333333333337" id="text_1_2" fill="grey" font-size="16" style="text-anchor: middle;"> and Variance</text><circle id="entCircle_2" class="entCircle" opacity="1" cx="524.4444444444445" cy="180" r="36.111111111111114" fill="rgb(151, 205, 208)"></circle><path d="M493.361,195.637L494.318,195.637C495.274,195.637,497.187,195.637,498.573,187.856C499.959,180.075,500.818,164.513,501.677,164.513C502.537,164.513,503.396,180.075,512.403,187.856C521.409,195.637,538.564,195.637,547.141,195.637L555.718,195.637" stroke="white" class="sonLine " id="sonLine " stroke-dasharray="0" stroke-width="2" fill="none"></path><circle id="linePoint_2" class="linePoint" opacity="0" cx="497.64296659538945" cy="163.32805557246803" r="5" fill="red"></circle><path d="M0,-56.273A56.273,56.273,0,1,1,0,56.273L0,41.273A41.273,41.273,0,1,0,0,-41.273Z" class="type f2 t1" transform="translate(524.4444444444445,180)" stroke="#ff9c9c" stroke-width="3" stroke-dasharray="0" stroke-linejoin="round" fill="#ff9c9c"></path><path d="M0,56.273A56.273,56.273,0,1,1,0,-56.273L0,-41.273A41.273,41.273,0,1,0,0,41.273Z" class="type f2 t2" transform="translate(524.4444444444445,180)" stroke="#f4f4d0" stroke-width="3" stroke-dasharray="0" stroke-linejoin="round" fill="#f4f4d0"></path><path d="M0,-71.273A71.273,71.273,0,0,1,59.261,39.597L49.284,32.93A59.273,59.273,0,0,0,0,-59.273Z" class="son f2 s3" transform="translate(524.4444444444445,180)" stroke="rgb(151, 205, 208)" stroke-width="3" stroke-dasharray="0" stroke-linejoin="round" fill="rgb(151, 205, 208)"></path><path d="M13.905,69.904A71.273,71.273,0,0,1,-50.398,-50.398L-41.912,-41.912A59.273,59.273,0,0,0,11.564,58.134Z" class="son f2 s4" transform="translate(524.4444444444445,180)" stroke="rgb(177, 218, 209)" stroke-width="3" stroke-dasharray="0" stroke-linejoin="round" fill="rgb(177, 218, 209)"></path><text y="286.9097093716571" x="524.4444444444445" id="text_2_0" fill="grey" font-size="16" style="text-anchor: middle;"> Continuous</text><text y="311.9097093716571" x="524.4444444444445" id="text_2_1" fill="grey" font-size="16" style="text-anchor: middle;"> Random</text><text y="336.9097093716571" x="524.4444444444445" id="text_2_2" fill="grey" font-size="16" style="text-anchor: middle;"> Variables</text><circle id="entCircle_5" class="entCircle" opacity="1" cx="700.5555555555555" cy="80" r="41.111111111111114" fill="rgb(151, 205, 208)"></circle><path d="M665.722,97.802L666.582,97.802C667.443,97.802,669.163,97.802,670.362,88.725C671.561,79.648,672.239,61.495,673.724,65.063C675.209,68.631,677.502,93.92,679.226,94.223C680.95,94.526,682.106,69.843,683.36,66.275C684.615,62.707,685.969,80.254,694.785,89.028C703.601,97.802,719.88,97.802,728.019,97.802L736.159,97.802" stroke="white" class="sonLine " id="sonLine " stroke-dasharray="0" stroke-width="2" fill="none"></path><circle id="linePoint_0" class="linePoint" opacity="0" cx="670.0431038504775" cy="53.35706429763233" r="5" fill="red"></circle><circle id="linePoint_5" class="linePoint" opacity="0" cx="673.0698337403347" cy="53.35706429763233" r="5" fill="red"></circle><path d="M0,-60.603A60.603,60.603,0,1,1,0,60.603L0,45.603A45.603,45.603,0,1,0,0,-45.603Z" class="type f5 t1" transform="translate(700.5555555555555,80)" stroke="#ff9c9c" stroke-width="3" stroke-dasharray="0" stroke-linejoin="round" fill="#ff9c9c"></path><path d="M0,60.603A60.603,60.603,0,1,1,0,-60.603L0,-45.603A45.603,45.603,0,1,0,0,45.603Z" class="type f5 t2" transform="translate(700.5555555555555,80)" stroke="#f4f4d0" stroke-width="3" stroke-dasharray="0" stroke-linejoin="round" fill="#f4f4d0"></path><path d="M0,-75.603A75.603,75.603,0,1,1,-65.474,-37.802L-55.082,-31.802A63.603,63.603,0,1,0,0,-63.603Z" class="son f5 s6" transform="translate(700.5555555555555,80)" stroke="rgb(22, 144, 207)" stroke-width="3" stroke-dasharray="0" stroke-linejoin="round" fill="rgb(22, 144, 207)"></path><text y="193.4048999000404" x="700.5555555555555" id="text_5_1" fill="grey" font-size="16" style="text-anchor: middle;"> Random Variables</text><circle id="entCircle_6" class="entCircle" opacity="1" cx="875" cy="180" r="39.44444444444444" fill="rgb(22, 144, 207)"></circle><path d="M841.417,197.08L842.411,197.08C843.405,197.08,845.394,197.08,847.009,188.467C848.624,179.855,849.866,162.63,851.798,165.856C853.73,169.083,856.351,192.761,858.287,193.325C860.223,193.888,861.473,171.337,862.705,168.111C863.936,164.884,865.149,180.982,872.889,189.031C880.628,197.08,894.894,197.08,902.027,197.08L909.16,197.08" stroke="white" class="sonLine " id="sonLine " stroke-dasharray="0" stroke-width="2" fill="none"></path><circle id="linePoint_6" class="linePoint" opacity="0" cx="848.8335235498776" cy="156.8878244937556" r="5" fill="red"></circle><circle id="linePoint_9" class="linePoint" opacity="0" cx="853.5134286068837" cy="158.11314508433682" r="5" fill="red"></circle><path d="M0,-59.16A59.16,59.16,0,1,1,0,59.16L0,44.16A44.16,44.16,0,1,0,0,-44.16Z" class="type f6 t1" transform="translate(875,180)" stroke="#ff9c9c" stroke-width="3" stroke-dasharray="0" stroke-linejoin="round" fill="#ff9c9c"></path><path d="M0,59.16A59.16,59.16,0,1,1,0,-59.16L0,-44.16A44.16,44.16,0,1,0,0,44.16Z" class="type f6 t2" transform="translate(875,180)" stroke="#f4f4d0" stroke-width="3" stroke-dasharray="0" stroke-linejoin="round" fill="#f4f4d0"></path><path d="M0,-74.16A74.16,74.16,0,0,1,21.937,70.841L18.387,59.378A62.16,62.16,0,0,0,0,-62.16Z" class="son f6 s7" transform="translate(875,180)" stroke="rgb(100, 181, 208)" stroke-width="3" stroke-dasharray="0" stroke-linejoin="round" fill="rgb(100, 181, 208)"></path><path d="M-34.58,65.604A74.16,74.16,0,0,1,-52.439,-52.439L-43.954,-43.954A62.16,62.16,0,0,0,-28.985,54.988Z" class="son f6 s8" transform="translate(875,180)" stroke="rgb(100, 181, 208)" stroke-width="3" stroke-dasharray="0" stroke-linejoin="round" fill="rgb(100, 181, 208)"></path><text y="291.2398363905793" x="875" id="text_6_0" fill="grey" font-size="16" style="text-anchor: middle;"> Expectation</text><circle id="entCircle_9" class="entCircle" opacity="1" cx="1048.611111111111" cy="80" r="38.611111111111114" fill="rgb(151, 205, 208)"></circle><path d="M1015.653,96.719L1016.638,96.719C1017.624,96.719,1019.595,96.719,1021.189,88.294C1022.783,79.87,1023.999,63.02,1025.902,66.179C1027.805,69.337,1030.394,92.503,1032.305,93.064C1034.215,93.625,1035.447,71.581,1036.657,68.422C1037.867,65.264,1039.055,80.991,1046.617,88.855C1054.179,96.719,1068.114,96.719,1075.082,96.719L1082.049,96.719" stroke="white" class="sonLine " id="sonLine " stroke-dasharray="0" stroke-width="2" fill="none"></path><circle id="linePoint_6" class="linePoint" opacity="0" cx="1022.9974475437376" cy="57.376109891774846" r="5" fill="red"></circle><circle id="linePoint_9" class="linePoint" opacity="0" cx="1027.5784813671453" cy="58.57554342762547" r="5" fill="red"></circle><path d="M0,-58.438A58.438,58.438,0,0,1,43.543,-38.975L32.366,-28.97A43.438,43.438,0,0,0,0,-43.438Z" class="type f9 t1" transform="translate(1048.611111111111,80)" stroke="#ff9c9c" stroke-width="3" stroke-dasharray="0" stroke-linejoin="round" fill="#ff9c9c"></path><path d="M43.543,-38.975A58.438,58.438,0,1,1,0,-58.438L0,-43.438A43.438,43.438,0,1,0,32.366,-28.97Z" class="type f9 t2" transform="translate(1048.611111111111,80)" stroke="#f4f4d0" stroke-width="3" stroke-dasharray="0" stroke-linejoin="round" fill="#f4f4d0"></path><path d="M0,-73.438A73.438,73.438,0,1,1,-63.599,-36.719L-53.207,-30.719A61.438,61.438,0,1,0,0,-61.438Z" class="son f9 s10" transform="translate(1048.611111111111,80)" stroke="rgb(151, 205, 208)" stroke-width="3" stroke-dasharray="0" stroke-linejoin="round" fill="rgb(151, 205, 208)"></path><text y="190.15730463584873" x="1048.611111111111" id="text_9_0" fill="grey" font-size="16" style="text-anchor: middle;"> expectation</text><text y="215.15730463584873" x="1048.611111111111" id="text_9_3" fill="grey" font-size="16" style="text-anchor: middle;"> of linear functions</text><polygon points="1187.1837670101927,193.33333333333334,1233.371788545363,193.33333333333334,1210.2777777777778,153.33333333333334" fill="rgb(250, 199, 88)" stroke-linejoin="round" opacity="1" stroke="rgb(250, 199, 88)" stroke-width="15px"></polygon><text y="188" x="1210.2777777777778" id="T_0" fill="white" font-size="28" style="text-anchor: middle;"> T</text><text y="233.33333333333334" x="1210.2777777777778" id="text_10_0" fill="grey" font-size="16" style="text-anchor: middle;"> Test</text><circle id="entCircle_11" class="entCircle" opacity="1" cx="1388.0555555555557" cy="80" r="42.77777777777777" fill="rgb(177, 218, 209)"></circle><path d="M1351.972,98.523L1354.592,98.523C1357.211,98.523,1362.45,98.523,1365.956,89.779C1369.463,81.034,1371.238,63.545,1373.013,63.545C1374.788,63.545,1376.562,81.034,1385.244,89.779C1393.926,98.523,1409.514,98.523,1417.308,98.523L1425.102,98.523" stroke="white" class="sonLine " id="sonLine " stroke-dasharray="0" stroke-width="2" fill="none"></path><circle id="linePoint_11" class="linePoint" opacity="0" cx="1370.2731672645152" cy="49.61920766366432" r="5" fill="red"></circle><path d="M0,-62.047A62.047,62.047,0,1,1,0,62.047L0,47.047A47.047,47.047,0,1,0,0,-47.047Z" class="type f11 t1" transform="translate(1388.0555555555557,80)" stroke="#ff9c9c" stroke-width="3" stroke-dasharray="0" stroke-linejoin="round" fill="#ff9c9c"></path><path d="M0,62.047A62.047,62.047,0,1,1,0,-62.047L0,-47.047A47.047,47.047,0,1,0,0,47.047Z" class="type f11 t2" transform="translate(1388.0555555555557,80)" stroke="#f4f4d0" stroke-width="3" stroke-dasharray="0" stroke-linejoin="round" fill="#f4f4d0"></path><path d="M0,-77.047A77.047,77.047,0,1,1,-66.724,-38.523L-56.332,-32.523A65.047,65.047,0,1,0,0,-65.047Z" class="son f11 s12" transform="translate(1388.0555555555557,80)" stroke="rgb(151, 205, 208)" stroke-width="3" stroke-dasharray="0" stroke-linejoin="round" fill="rgb(151, 205, 208)"></path><text y="195.56996340950147" x="1388.0555555555557" id="text_11_1" fill="grey" font-size="16" style="text-anchor: middle;"> Two random</text><text y="220.56996340950147" x="1388.0555555555557" id="text_11_2" fill="grey" font-size="16" style="text-anchor: middle;"> variables</text><circle id="entCircle_12" class="entCircle" opacity="1" cx="1563.3333333333335" cy="180" r="40.27777777777777" fill="rgb(151, 205, 208)"></circle><path d="M1529.125,197.441L1531.715,197.441C1534.305,197.441,1539.484,197.441,1542.866,189.251C1546.249,181.061,1547.834,164.682,1549.419,164.682C1551.004,164.682,1552.589,181.061,1560.722,189.251C1568.854,197.441,1583.535,197.441,1590.875,197.441L1598.215,197.441" stroke="white" class="sonLine " id="sonLine " stroke-dasharray="0" stroke-width="2" fill="none"></path><circle id="linePoint_12" class="linePoint" opacity="0" cx="1546.9041097357062" cy="155.14833145042456" r="5" fill="red"></circle><path d="M0,-59.882A59.882,59.882,0,1,1,0,59.882L0,44.882A44.882,44.882,0,1,0,0,-44.882Z" class="type f12 t1" transform="translate(1563.3333333333335,180)" stroke="#ff9c9c" stroke-width="3" stroke-dasharray="0" stroke-linejoin="round" fill="#ff9c9c"></path><path d="M0,59.882A59.882,59.882,0,1,1,0,-59.882L0,-44.882A44.882,44.882,0,1,0,0,44.882Z" class="type f12 t2" transform="translate(1563.3333333333335,180)" stroke="#f4f4d0" stroke-width="3" stroke-dasharray="0" stroke-linejoin="round" fill="#f4f4d0"></path><path d="M0,-74.882A74.882,74.882,0,0,1,65.619,36.074L55.104,30.293A62.882,62.882,0,0,0,0,-62.882Z" class="son f12 s13" transform="translate(1563.3333333333335,180)" stroke="rgb(203, 230, 209)" stroke-width="3" stroke-dasharray="0" stroke-linejoin="round" fill="rgb(203, 230, 209)"></path><path d="M20.891,71.908A74.882,74.882,0,0,1,-52.949,-52.949L-44.464,-44.464A62.882,62.882,0,0,0,17.543,60.385Z" class="son f12 s14" transform="translate(1563.3333333333335,180)" stroke="rgb(100, 181, 208)" stroke-width="3" stroke-dasharray="0" stroke-linejoin="round" fill="rgb(100, 181, 208)"></path><text y="292.32236814530984" x="1563.3333333333335" id="text_12_2" fill="grey" font-size="16" style="text-anchor: middle;"> Let x and</text><text y="317.32236814530984" x="1563.3333333333335" id="text_12_5" fill="grey" font-size="16" style="text-anchor: middle;"> y be random</text><text y="342.32236814530984" x="1563.3333333333335" id="text_12_6" fill="grey" font-size="16" style="text-anchor: middle;"> variables</text><circle id="entCircle_15" class="entCircle" opacity="1" cx="1737.2222222222224" cy="80" r="38.888888888888886" fill="rgb(151, 205, 208)"></circle><path d="M1704.056,96.839L1707.273,96.839C1710.491,96.839,1716.925,96.839,1720.885,89.449C1724.845,82.058,1726.329,67.277,1727.814,67.277C1729.298,67.277,1730.783,82.058,1737.964,89.449C1745.145,96.839,1758.023,96.839,1764.462,96.839L1770.901,96.839" stroke="white" class="sonLine " id="sonLine " stroke-dasharray="0" stroke-width="2" fill="none"></path><circle id="linePoint_15" class="linePoint" opacity="0" cx="1726.108229540322" cy="58.01872312849787" r="5" fill="red"></circle><path d="M0,-58.679A58.679,58.679,0,0,1,0.005,58.679L0.004,43.679A43.679,43.679,0,0,0,0,-43.679Z" class="type f15 t1" transform="translate(1737.2222222222224,80)" stroke="#ff9c9c" stroke-width="3" stroke-dasharray="0" stroke-linejoin="round" fill="#ff9c9c"></path><path d="M0.005,58.679A58.679,58.679,0,1,1,0,-58.679L0,-43.679A43.679,43.679,0,1,0,0.004,43.679Z" class="type f15 t2" transform="translate(1737.2222222222224,80)" stroke="#f4f4d0" stroke-width="3" stroke-dasharray="0" stroke-linejoin="round" fill="#f4f4d0"></path><path d="M0,-73.679A73.679,73.679,0,1,1,-63.808,-36.839L-53.415,-30.839A61.679,61.679,0,1,0,0,-61.679Z" class="son f15 s16" transform="translate(1737.2222222222224,80)" stroke="rgb(151, 205, 208)" stroke-width="3" stroke-dasharray="0" stroke-linejoin="round" fill="rgb(151, 205, 208)"></path><text y="190.51814855409225" x="1737.2222222222224" id="text_15_2" fill="grey" font-size="16" style="text-anchor: middle;"> Sum of two</text><text y="215.51814855409225" x="1737.2222222222224" id="text_15_4" fill="grey" font-size="16" style="text-anchor: middle;"> random variables</text><circle id="entCircle_16" class="entCircle" opacity="1" cx="1910.8333333333335" cy="180" r="38.611111111111114" fill="rgb(151, 205, 208)"></circle><path d="M1877.875,196.719L1881.074,196.719C1884.272,196.719,1890.67,196.719,1894.601,189.379C1898.532,182.039,1899.997,167.359,1901.461,167.359C1902.926,167.359,1904.391,182.039,1911.526,189.379C1918.661,196.719,1931.466,196.719,1937.869,196.719L1944.272,196.719" stroke="white" class="sonLine " id="sonLine " stroke-dasharray="0" stroke-width="2" fill="none"></path><circle id="linePoint_16" class="linePoint" opacity="0" cx="1899.765288110356" cy="158.57554342762546" r="5" fill="red"></circle><path d="M0,-58.438A58.438,58.438,0,1,1,0,58.438L0,43.438A43.438,43.438,0,1,0,0,-43.438Z" class="type f16 t1" transform="translate(1910.8333333333335,180)" stroke="#ff9c9c" stroke-width="3" stroke-dasharray="0" stroke-linejoin="round" fill="#ff9c9c"></path><path d="M0,58.438A58.438,58.438,0,1,1,0,-58.438L0,-43.438A43.438,43.438,0,1,0,0,43.438Z" class="type f16 t2" transform="translate(1910.8333333333335,180)" stroke="#f4f4d0" stroke-width="3" stroke-dasharray="0" stroke-linejoin="round" fill="#f4f4d0"></path><path d="M0,-73.438A73.438,73.438,0,0,1,57.584,45.576L48.175,38.129A61.438,61.438,0,0,0,0,-61.438Z" class="son f16 s17" transform="translate(1910.8333333333335,180)" stroke="rgb(125, 193, 208)" stroke-width="3" stroke-dasharray="0" stroke-linejoin="round" fill="rgb(125, 193, 208)"></path><path d="M8.491,72.946A73.438,73.438,0,0,1,-51.929,-51.929L-43.443,-43.443A61.438,61.438,0,0,0,7.103,61.026Z" class="son f16 s18" transform="translate(1910.8333333333335,180)" stroke="rgb(100, 181, 208)" stroke-width="3" stroke-dasharray="0" stroke-linejoin="round" fill="rgb(100, 181, 208)"></path><text y="290.15730463584873" x="1910.8333333333335" id="text_16_0" fill="grey" font-size="16" style="text-anchor: middle;"> z=x+y</text><polygon points="2049.8525712198,95,2101.8140954468668,95,2075.8333333333335,50" fill="rgb(250, 199, 88)" stroke-linejoin="round" opacity="1" stroke="rgb(250, 199, 88)" stroke-width="15px"></polygon><text y="88" x="2075.8333333333335" id="T_0" fill="white" font-size="28" style="text-anchor: middle;"> T</text><text y="140" x="2075.8333333333335" id="text_19_0" fill="grey" font-size="16" style="text-anchor: middle;"> Test</text><circle id="entCircle_20" class="entCircle" opacity="1" cx="2270.8333333333335" cy="80" r="60" fill="rgb(48, 156, 207)"></circle><path d="M2221.833,105.981L2227.993,105.981C2234.152,105.981,2246.471,105.981,2254.321,97.636C2262.171,89.291,2265.553,72.601,2268.935,72.601C2272.317,72.601,2275.7,89.291,2284.676,97.636C2293.653,105.981,2308.224,105.981,2315.509,105.981L2322.795,105.981" stroke="white" class="sonLine " id="sonLine " stroke-dasharray="0" stroke-width="2" fill="none"></path><circle id="linePoint_20" class="linePoint" opacity="0" cx="2268.3391801704347" cy="-1.1319578589119743" r="5" fill="red"></circle><path d="M0,-76.962A76.962,76.962,0,1,1,-0.182,76.961L-0.147,61.961A61.962,61.962,0,1,0,0,-61.962Z" class="type f20 t1" transform="translate(2270.8333333333335,80)" stroke="#ff9c9c" stroke-width="3" stroke-dasharray="0" stroke-linejoin="round" fill="#ff9c9c"></path><path d="M-0.182,76.961A76.962,76.962,0,0,1,0,-76.962L0,-61.962A61.962,61.962,0,0,0,-0.147,61.961Z" class="type f20 t2" transform="translate(2270.8333333333335,80)" stroke="#f4f4d0" stroke-width="3" stroke-dasharray="0" stroke-linejoin="round" fill="#f4f4d0"></path><path d="M0,-91.962A91.962,91.962,0,0,1,32.761,-85.928L28.486,-74.716A79.962,79.962,0,0,0,0,-79.962Z" class="son f20 s21" transform="translate(2270.8333333333335,80)" stroke="rgb(203, 230, 209)" stroke-width="3" stroke-dasharray="0" stroke-linejoin="round" fill="rgb(203, 230, 209)"></path><path d="M71.336,-58.036A91.962,91.962,0,0,1,81.97,-41.687L71.274,-36.248A79.962,79.962,0,0,0,62.027,-50.463Z" class="son f20 s22" transform="translate(2270.8333333333335,80)" stroke="rgb(203, 230, 209)" stroke-width="3" stroke-dasharray="0" stroke-linejoin="round" fill="rgb(203, 230, 209)"></path><path d="M91.832,4.883A91.962,91.962,0,0,1,-19.393,89.893L-16.862,78.163A79.962,79.962,0,0,0,79.849,4.245Z" class="son f20 s23" transform="translate(2270.8333333333335,80)" stroke="rgb(151, 205, 208)" stroke-width="3" stroke-dasharray="0" stroke-linejoin="round" fill="rgb(151, 205, 208)"></path><path d="M-61.741,68.154A91.962,91.962,0,0,1,-45.981,-79.641L-39.981,-69.249A79.962,79.962,0,0,0,-53.685,59.26Z" class="son f20 s27" transform="translate(2270.8333333333335,80)" stroke="rgb(151, 205, 208)" stroke-width="3" stroke-dasharray="0" stroke-linejoin="round" fill="rgb(151, 205, 208)"></path><text y="217.94228634059948" x="2270.8333333333335" id="text_20_2" fill="grey" font-size="16" style="text-anchor: middle;"> n Random Variables</text><circle id="entCircle_21" class="entCircle" opacity="1" cx="2429.166666666667" cy="180" r="23.333333333333332" fill="rgb(203, 230, 209)"></circle><path d="M2407.667,190.104L2410.458,190.104C2413.249,190.104,2418.832,190.104,2421.918,187.753C2425.004,185.402,2425.594,180.699,2426.184,180.699C2426.774,180.699,2427.364,185.402,2431.229,187.753C2435.094,190.104,2442.234,190.104,2445.804,190.104L2449.374,190.104" stroke="white" class="sonLine " id="sonLine " stroke-dasharray="0" stroke-width="2" fill="none"></path><circle id="linePoint_21" class="linePoint" opacity="0" cx="2425.771847083832" cy="180.34153448295325" r="5" fill="red"></circle><text y="230.51814855409225" x="2429.166666666667" id="text_21_1" fill="grey" font-size="16" style="text-anchor: middle;"> Joint density</text><circle id="entCircle_22" class="entCircle" opacity="1" cx="2523.2777777777783" cy="180" r="21.944444444444446" fill="rgb(203, 230, 209)"></circle><path d="M2502.819,189.502L2505.544,189.502C2508.269,189.502,2513.719,189.502,2516.709,187.565C2519.7,185.627,2520.231,181.752,2520.762,181.752C2521.293,181.752,2521.824,185.627,2525.411,187.565C2528.997,189.502,2535.64,189.502,2538.961,189.502L2542.282,189.502" stroke="white" class="sonLine " id="sonLine " stroke-dasharray="0" stroke-width="2" fill="none"></path><circle id="linePoint_22" class="linePoint" opacity="0" cx="2520.446115270015" cy="181.45735911817553" r="5" fill="red"></circle><text y="227.51111590206295" x="2523.2777777777783" id="text_22_0" fill="grey" font-size="16" style="text-anchor: middle;"> marginal</text><text y="252.51111590206295" x="2523.2777777777783" id="text_22_1" fill="grey" font-size="16" style="text-anchor: middle;"> density</text><circle id="entCircle_23" class="entCircle" opacity="1" cx="2694.1111111111118" cy="180" r="35.833333333333336" fill="rgb(151, 205, 208)"></circle><path d="M2663.236,195.516L2667.373,195.516C2671.509,195.516,2679.783,195.516,2684.557,190.219C2689.331,184.921,2690.606,174.326,2691.881,174.326C2693.156,174.326,2694.431,184.921,2699.975,190.219C2705.518,195.516,2715.331,195.516,2720.237,195.516L2725.144,195.516" stroke="white" class="sonLine " id="sonLine " stroke-dasharray="0" stroke-width="2" fill="none"></path><circle id="linePoint_23" class="linePoint" opacity="0" cx="2691.4733420687517" cy="163.82734908330545" r="5" fill="red"></circle><path d="M0,-56.033A56.033,56.033,0,0,1,0.015,56.033L0.011,41.033A41.033,41.033,0,0,0,0,-41.033Z" class="type f23 t1" transform="translate(2694.1111111111118,180)" stroke="#ff9c9c" stroke-width="3" stroke-dasharray="0" stroke-linejoin="round" fill="#ff9c9c"></path><path d="M0.015,56.033A56.033,56.033,0,1,1,0,-56.033L0,-41.033A41.033,41.033,0,1,0,0.011,41.033Z" class="type f23 t2" transform="translate(2694.1111111111118,180)" stroke="#f4f4d0" stroke-width="3" stroke-dasharray="0" stroke-linejoin="round" fill="#f4f4d0"></path><path d="M0,-71.033A71.033,71.033,0,0,1,52.26,-48.109L43.432,-39.982A59.033,59.033,0,0,0,0,-59.033Z" class="son f23 s24" transform="translate(2694.1111111111118,180)" stroke="rgb(125, 193, 208)" stroke-width="3" stroke-dasharray="0" stroke-linejoin="round" fill="rgb(125, 193, 208)"></path><path d="M70.972,2.935A71.033,71.033,0,1,1,-50.228,-50.228L-41.742,-41.742A59.033,59.033,0,1,0,58.982,2.44Z" class="son f23 s25" transform="translate(2694.1111111111118,180)" stroke="rgb(125, 193, 208)" stroke-width="3" stroke-dasharray="0" stroke-linejoin="round" fill="rgb(125, 193, 208)"></path><text y="286.54886545341355" x="2694.1111111111118" id="text_23_0" fill="grey" font-size="16" style="text-anchor: middle;"> expectation</text><text y="311.54886545341355" x="2694.1111111111118" id="text_23_3" fill="grey" font-size="16" style="text-anchor: middle;"> of n random</text><text y="336.54886545341355" x="2694.1111111111118" id="text_23_4" fill="grey" font-size="16" style="text-anchor: middle;"> cariables</text><circle id="entCircle_27" class="entCircle" opacity="1" cx="2866.333333333334" cy="180" r="37.22222222222223" fill="rgb(151, 205, 208)"></circle><path d="M2834.417,196.118L2839.211,196.118C2844.006,196.118,2853.595,196.118,2859.074,187.726C2864.553,179.334,2865.921,162.551,2867.289,162.551C2868.657,162.551,2870.025,179.334,2875.238,187.726C2880.452,196.118,2889.51,196.118,2894.039,196.118L2898.569,196.118" stroke="white" class="sonLine " id="sonLine " stroke-dasharray="0" stroke-width="2" fill="none"></path><circle id="linePoint_27" class="linePoint" opacity="0" cx="2867.429336594346" cy="161.2733547408282" r="5" fill="red"></circle><path d="M0,-57.235A57.235,57.235,0,1,1,-0.458,57.234L-0.338,42.234A42.235,42.235,0,1,0,0,-42.235Z" class="type f27 t1" transform="translate(2866.333333333334,180)" stroke="#ff9c9c" stroke-width="3" stroke-dasharray="0" stroke-linejoin="round" fill="#ff9c9c"></path><path d="M-0.458,57.234A57.235,57.235,0,0,1,0,-57.235L0,-42.235A42.235,42.235,0,0,0,-0.338,42.234Z" class="type f27 t2" transform="translate(2866.333333333334,180)" stroke="#f4f4d0" stroke-width="3" stroke-dasharray="0" stroke-linejoin="round" fill="#f4f4d0"></path><path d="M0,-72.235A72.235,72.235,0,0,1,36.701,62.217L30.604,51.882A60.235,60.235,0,0,0,0,-60.235Z" class="son f27 s28" transform="translate(2866.333333333334,180)" stroke="rgb(151, 205, 208)" stroke-width="3" stroke-dasharray="0" stroke-linejoin="round" fill="rgb(151, 205, 208)"></path><path d="M-18.043,69.946A72.235,72.235,0,0,1,-51.078,-51.078L-42.593,-42.593A60.235,60.235,0,0,0,-15.045,58.326Z" class="son f27 s29" transform="translate(2866.333333333334,180)" stroke="rgb(151, 205, 208)" stroke-width="3" stroke-dasharray="0" stroke-linejoin="round" fill="rgb(151, 205, 208)"></path><text y="288.35308504463114" x="2866.333333333334" id="text_27_1" fill="grey" font-size="16" style="text-anchor: middle;"> linear function</text><text y="313.35308504463114" x="2866.333333333334" id="text_27_4" fill="grey" font-size="16" style="text-anchor: middle;"> of n random</text><text y="338.35308504463114" x="2866.333333333334" id="text_27_5" fill="grey" font-size="16" style="text-anchor: middle;"> variables</text><polygon points="3006.059659366494,97.63888888888889,3067.1625628557294,97.63888888888889,3036.6111111111118,44.72222222222223" fill="rgb(250, 199, 88)" stroke-linejoin="round" opacity="1" stroke="rgb(250, 199, 88)" stroke-width="15px"></polygon><text y="88" x="3036.6111111111118" id="T_0" fill="white" font-size="28" style="text-anchor: middle;"> T</text><text y="150.55555555555554" x="3036.6111111111118" id="text_30_0" fill="grey" font-size="16" style="text-anchor: middle;"> Test</text><circle id="entCircle_31" class="entCircle" opacity="1" cx="3205.5000000000005" cy="80" r="33.888888888888886" fill="rgb(151, 205, 208)"></circle><path d="M3176.083,94.674L3181.474,94.674C3186.866,94.674,3197.648,94.674,3203.614,88.048C3209.58,81.422,3210.731,68.17,3211.881,68.17C3213.032,68.17,3214.182,81.422,3218.01,88.048C3221.838,94.674,3228.343,94.674,3231.596,94.674L3234.849,94.674" stroke="white" class="sonLine " id="sonLine " stroke-dasharray="0" stroke-width="2" fill="none"></path><circle id="linePoint_31" class="linePoint" opacity="0" cx="3213.0132515030546" cy="67.16132865195473" r="5" fill="red"></circle><path d="M0,-54.349A54.349,54.349,0,1,1,0,54.349L0,39.349A39.349,39.349,0,1,0,0,-39.349Z" class="type f31 t1" transform="translate(3205.5000000000005,80)" stroke="#ff9c9c" stroke-width="3" stroke-dasharray="0" stroke-linejoin="round" fill="#ff9c9c"></path><path d="M0,54.349A54.349,54.349,0,1,1,0,-54.349L0,-39.349A39.349,39.349,0,1,0,0,39.349Z" class="type f31 t2" transform="translate(3205.5000000000005,80)" stroke="#f4f4d0" stroke-width="3" stroke-dasharray="0" stroke-linejoin="round" fill="#f4f4d0"></path><path d="M0,-69.349A69.349,69.349,0,0,1,61.068,-32.862L50.501,-27.176A57.349,57.349,0,0,0,0,-57.349Z" class="son f31 s32" transform="translate(3205.5000000000005,80)" stroke="rgb(177, 218, 209)" stroke-width="3" stroke-dasharray="0" stroke-linejoin="round" fill="rgb(177, 218, 209)"></path><path d="M66.419,19.945A69.349,69.349,0,1,1,-49.037,-49.037L-40.552,-40.552A57.349,57.349,0,1,0,54.926,16.493Z" class="son f31 s33" transform="translate(3205.5000000000005,80)" stroke="rgb(177, 218, 209)" stroke-width="3" stroke-dasharray="0" stroke-linejoin="round" fill="rgb(177, 218, 209)"></path><text y="184.02295802570896" x="3205.5000000000005" id="text_31_1" fill="grey" font-size="16" style="text-anchor: middle;"> linear transformations</text><text y="209.02295802570896" x="3205.5000000000005" id="text_31_4" fill="grey" font-size="16" style="text-anchor: middle;"> of the n</text><text y="234.02295802570896" x="3205.5000000000005" id="text_31_5" fill="grey" font-size="16" style="text-anchor: middle;"> random</text><text y="259.02295802570893" x="3205.5000000000005" id="text_31_6" fill="grey" font-size="16" style="text-anchor: middle;"> variables</text><circle id="entCircle_32" class="entCircle" opacity="1" cx="3362.7222222222226" cy="180" r="22.22222222222222" fill="rgb(177, 218, 209)"></circle><path d="M3342.056,189.623L3345.876,189.623C3349.697,189.623,3357.338,189.623,3361.43,187.605C3365.522,185.588,3366.064,181.553,3366.607,181.553C3367.15,181.553,3367.692,185.588,3370.252,187.605C3372.812,189.623,3377.39,189.623,3379.678,189.623L3381.967,189.623" stroke="white" class="sonLine " id="sonLine " stroke-dasharray="0" stroke-width="2" fill="none"></path><circle id="linePoint_32" class="linePoint" opacity="0" cx="3367.4180044116315" cy="181.24569954878913" r="5" fill="red"></circle><text y="228.1125224324688" x="3362.7222222222226" id="text_32_0" fill="grey" font-size="16" style="text-anchor: middle;"> Mean</text><text y="253.1125224324688" x="3362.7222222222226" id="text_32_1" fill="grey" font-size="16" style="text-anchor: middle;"> Vector</text><circle id="entCircle_33" class="entCircle" opacity="1" cx="3462.388888888889" cy="180" r="27.5" fill="rgb(177, 218, 209)"></circle><path d="M3437.764,191.908L3442.405,191.908C3447.047,191.908,3456.33,191.908,3461.365,188.108C3466.401,184.309,3467.188,176.71,3467.976,176.71C3468.764,176.71,3469.551,184.309,3472.59,188.108C3475.628,191.908,3480.916,191.908,3483.56,191.908L3486.205,191.908" stroke="white" class="sonLine " id="sonLine " stroke-dasharray="0" stroke-width="2" fill="none"></path><circle id="linePoint_33" class="linePoint" opacity="0" cx="3469.0334687994255" cy="176.13115875293343" r="5" fill="red"></circle><text y="239.53924651018013" x="3462.388888888889" id="text_33_0" fill="grey" font-size="16" style="text-anchor: middle;"> Covariance</text><text y="264.53924651018013" x="3462.388888888889" id="text_33_1" fill="grey" font-size="16" style="text-anchor: middle;"> Matrix</text><circle id="entCircle_34" class="entCircle" opacity="1" cx="3559.8333333333335" cy="80" r="25.27777777777778" fill="rgb(203, 230, 209)"></circle><path d="M3536.875,90.946L3541.357,90.946C3545.838,90.946,3554.802,90.946,3559.623,87.957C3564.444,84.969,3565.122,78.993,3565.801,78.993C3566.479,78.993,3567.158,84.969,3569.812,87.957C3572.466,90.946,3577.095,90.946,3579.41,90.946L3581.725,90.946" stroke="white" class="sonLine " id="sonLine " stroke-dasharray="0" stroke-width="2" fill="none"></path><circle id="linePoint_34" class="linePoint" opacity="0" cx="3566.9479725880346" cy="78.53776748282323" r="5" fill="red"></circle><text y="134.72799426693328" x="3559.8333333333335" id="text_34_0" fill="grey" font-size="16" style="text-anchor: middle;"> invite</text></g></g></svg>