<?xml version="1.0" standalone="no"?>
<!DOCTYPE svg PUBLIC "-//W3C//DTD SVG 1.1//EN" "http://www.w3.org/Graphics/SVG/1.1/DTD/svg11.dtd">
<svg t="1679468177819" class="icon" viewBox="0 0 5024 5024" version="1.1" xmlns="http://www.w3.org/2000/svg" p-id="2610" xmlns:xlink="http://www.w3.org/1999/xlink" width="5000" height="5000"><g id="groups" width="1714" height="519" transform="translate(-235.33042866666668,100) scale(1)"><g id="backG" width="1714" height="519"><rect x="115" y="-1.1111111111111143" rx="20" ry="20" height="335.55555555555554" width="724.3888888888889" fill="rgb(91, 107, 255)" opacity="0.1" stroke="white" stroke-width="1.5px"></rect><rect x="448.33333333333337" y="103.88888888888889" rx="20" ry="20" height="230.55555555555557" width="391.05555555555554" fill="rgb(6, 214, 160)" opacity="0.1" stroke="white" stroke-width="1.5px"></rect><rect x="879.9444444444445" y="-1.1111111111111143" rx="20" ry="20" height="343.8888888888889" width="576.6111111111112" fill="rgb(6, 214, 160)" opacity="0.1" stroke="white" stroke-width="1.5px"></rect><rect x="1056.0555555555557" y="100.55555555555554" rx="20" ry="20" height="242.22222222222223" width="400.5" fill="rgb(255, 120, 90)" opacity="0.1" stroke="white" stroke-width="1.5px"></rect><rect x="1496.5555555555557" y="1.3888888888888857" rx="20" ry="20" height="231.94444444444446" width="293.6111111111111" fill="rgb(255, 120, 90)" opacity="0.1" stroke="white" stroke-width="1.5px"></rect><rect x="1831.8333333333335" y="-2.7777777777777715" rx="20" ry="20" height="338.3333333333333" width="574.666666666667" fill="rgb(125, 98, 211)" opacity="0.1" stroke="white" stroke-width="1.5px"></rect><rect x="2009.6111111111113" y="99.72222222222223" rx="20" ry="20" height="235.83333333333331" width="396.88888888888914" fill="rgb(255, 113, 212)" opacity="0.1" stroke="white" stroke-width="1.5px"></rect><rect x="2445.944444444445" y="1.1111111111111143" rx="20" ry="20" height="336.66666666666663" width="574.3888888888891" fill="rgb(255, 113, 212)" opacity="0.1" stroke="white" stroke-width="1.5px"></rect><rect x="2619.8333333333335" y="101.38888888888889" rx="20" ry="20" height="236.38888888888889" width="400.50000000000045" fill="rgb(112, 214, 255)" opacity="0.1" stroke="white" stroke-width="1.5px"></rect><rect x="3159.7222222222226" y="-20" rx="20" ry="20" height="462.22222222222223" width="1504.0555555555566" fill="rgb(112, 214, 255)" opacity="0.1" stroke="white" stroke-width="1.5px"></rect><rect x="3607.1666666666674" y="104.16666666666666" rx="20" ry="20" height="338.05555555555554" width="630.0000000000005" fill="rgb(255, 159, 28)" opacity="0.1" stroke="white" stroke-width="1.5px"></rect><rect x="3935.7777777777787" y="206.94444444444446" rx="20" ry="20" height="235.27777777777777" width="301.38888888888914" fill="rgb(255, 77, 109)" opacity="0.1" stroke="white" stroke-width="1.5px"></rect><rect x="4269.944444444445" y="102.77777777777777" rx="20" ry="20" height="234.44444444444446" width="393.83333333333394" fill="rgb(91, 107, 255)" opacity="0.1" stroke="white" stroke-width="1.5px"></rect><rect x="4812.333333333335" y="6.111111111111114" rx="20" ry="20" height="228.88888888888889" width="385.7777777777783" fill="rgb(255, 159, 28)" opacity="0.1" stroke="white" stroke-width="1.5px"></rect></g><g id="arcG" width="1714" height="519"><path d="M232.66019642841837,23.12851314179916A67.60326660002693,67.60326660002693,0,0,1,262.1694311987402,65.62989206043821" stroke="rgb(200,200,200)" class="midArc " id="midArc " stroke-dasharray="9,5" stroke-width="3" fill="none"></path><path d="M577.0541372811105,215.15267290095616A63.27313958110473,63.27313958110473,0,0,1,536.7884216202937,242.05736394604654" stroke="rgb(200,200,200)" class="midArc " id="midArc " stroke-dasharray="9,5" stroke-width="3" fill="none"></path><path d="M1155.0705008663983,243.19910334267274A66.15989092705286,66.15989092705286,0,0,1,1104.6499193353343,238.5269484123608" stroke="rgb(200,200,200)" class="midArc " id="midArc " stroke-dasharray="9,5" stroke-width="3" fill="none"></path><path d="M2148.497663131259,212.22044629905858A66.88157876353989,66.88157876353989,0,0,1,2108.548254521779,244.22595777473248" stroke="rgb(200,200,200)" class="midArc " id="midArc " stroke-dasharray="9,5" stroke-width="3" fill="none"></path><path d="M2749.7558355945466,220.6115693117537A65.43820309056582,65.43820309056582,0,0,1,2706.010361023829,244.99934868932104" stroke="rgb(200,200,200)" class="midArc " id="midArc " stroke-dasharray="9,5" stroke-width="3" fill="none"></path><path d="M3289.632819320529,1.5468692036128573A83.96152422706632,83.96152422706632,0,0,1,3324.8521245499105,27.01289427305864" stroke="rgb(200,200,200)" class="midArc " id="midArc " stroke-dasharray="9,5" stroke-width="3" fill="none"></path><path d="M3334.561391763315,41.9390455593679A83.96152422706632,83.96152422706632,0,0,1,3343.5653214632553,84.45783133267666" stroke="rgb(200,200,200)" class="midArc " id="midArc " stroke-dasharray="9,5" stroke-width="3" fill="none"></path><path d="M3242.0164366560507,162.07339829699373A83.96152422706632,83.96152422706632,0,0,1,3203.3518629794607,142.22475511702902" stroke="rgb(200,200,200)" class="midArc " id="midArc " stroke-dasharray="9,5" stroke-width="3" fill="none"></path><path d="M3729.374574027396,137.3091972068542A63.03257696894239,63.03257696894239,0,0,1,3745.978731918741,182.60481962007788" stroke="rgb(200,200,200)" class="midArc " id="midArc " stroke-dasharray="9,5" stroke-width="3" fill="none"></path><path d="M4379.80308463308,235.3267526120614A64.23539002975411,64.23539002975411,0,0,1,4331.122177171338,242.1993544107081" stroke="rgb(200,200,200)" class="midArc " id="midArc " stroke-dasharray="9,5" stroke-width="3" fill="none"></path><path d="M4940.245559332677,50.928802642365596A61.34863868380597,61.34863868380597,0,0,1,4944.978931024148,97.64382722433243" stroke="rgb(200,200,200)" class="midArc " id="midArc " stroke-dasharray="9,5" stroke-width="3" fill="none"></path></g><g id="timeLineG" width="1714" height="519"><path d="M20,80C75,80,45,80,100,80M292.22222222222223,80C347.22222222222223,80,248.61111111111114,180,325.61111111111114,180M381.0555555555556,180C436.0555555555556,180,378.33333333333337,180,433.33333333333337,180M615.5555555555555,180C670.5555555555555,180,576.9444444444445,280,653.9444444444445,280M717.1666666666666,280C772.1666666666666,280,675.2222222222223,280,752.2222222222223,280M817.6666666666666,280C872.6666666666666,280,809.9444444444445,80,864.9444444444445,80M1057.1666666666667,80C1112.1666666666667,80,986.0555555555557,180,1041.0555555555557,180M1229.9444444444443,180C1284.9444444444443,180,1188,280,1265,280M1338.7777777777778,280C1393.7777777777778,280,1291.5555555555557,280,1368.5555555555557,280M1434.5555555555557,280C1489.5555555555557,280,1426.5555555555557,80,1481.5555555555557,80M1668.7777777777778,80C1723.7777777777778,80,1627.6666666666667,180,1704.6666666666667,180M1769.0000000000002,180C1824.0000000000002,180,1761.8333333333335,80,1816.8333333333335,80M2012.3888888888891,80C2067.388888888889,80,1939.6111111111113,180,1994.6111111111113,180M2185.166666666667,180C2240.166666666667,180,2142.388888888889,280,2219.388888888889,280M2282.6111111111118,280C2337.6111111111118,280,2240.666666666667,280,2317.666666666667,280M2384.2222222222226,280C2439.2222222222226,280,2375.944444444445,80,2430.944444444445,80M2618.722222222222,80C2673.722222222222,80,2549.8333333333335,180,2604.8333333333335,180M2792.055555555556,180C2847.055555555556,180,2750.944444444445,280,2827.944444444445,280M2895.055555555556,280C2950.055555555556,280,2851.1666666666674,280,2928.1666666666674,280M2996.944444444445,280C3051.944444444445,280,2952.2222222222226,80,3029.2222222222226,80M3100.2222222222226,80C3155.2222222222226,80,3089.7222222222226,80,3144.7222222222226,80M3374.7222222222226,80C3429.7222222222226,80,3312.2222222222226,180,3389.2222222222226,180M3446.8888888888896,180C3501.8888888888896,180,3407.722222222223,180,3484.722222222223,180M3539.6111111111118,180C3594.6111111111118,180,3537.1666666666674,180,3592.1666666666674,180M3773.8333333333344,180C3828.8333333333344,180,3735.500000000001,280,3812.500000000001,280M3869.0555555555566,280C3924.0555555555566,280,3865.7777777777787,280,3920.7777777777787,280M4096.88888888889,280C4151.88888888889,280,4061.333333333334,380,4138.333333333334,380M4211.555555555557,380C4266.555555555557,380,4199.944444444445,180,4254.944444444445,180M4439.3888888888905,180C4494.3888888888905,180,4399.666666666668,280,4476.666666666668,280M4544.8888888888905,280C4599.8888888888905,280,4500.444444444446,280,4577.444444444446,280M4642.333333333335,280C4697.333333333335,280,4599.5555555555575,80,4676.5555555555575,80M4758.111111111112,80C4813.111111111112,80,4742.333333333335,80,4797.333333333335,80M4975.111111111112,80C5030.111111111112,80,4938.7222222222235,180,5015.7222222222235,180M5071.166666666669,180C5126.166666666669,180,5033.111111111113,180,5110.111111111113,180M5176.111111111113,180C5231.111111111113,180,5132.77777777778,80,5209.77777777778,80M5271.333333333335,80" stroke="rgb(200,200,200)" class="timeLine " id="timeLine " stroke-dasharray="0" stroke-width="5" fill="none"></path></g><g id="circleG" width="1714" height="519"><circle id="entCircle_0" class="entCircle" opacity="1" cx="196.11111111111111" cy="80" r="41.111111111111114" fill="rgb(125, 193, 208)"></circle><path d="M161.278,97.802L162.138,97.802C162.998,97.802,164.718,97.802,165.917,88.725C167.117,79.648,167.794,61.495,169.28,65.063C170.765,68.631,173.058,93.92,174.782,94.223C176.506,94.526,177.661,69.843,178.916,66.275C180.171,62.707,181.524,80.254,190.34,89.028C199.157,97.802,215.436,97.802,223.575,97.802L231.714,97.802" stroke="white" class="sonLine " id="sonLine " stroke-dasharray="0" stroke-width="2" fill="none"></path><circle id="linePoint_0" class="linePoint" opacity="0" cx="165.59865940603305" cy="53.35706429763233" r="5" fill="red"></circle><circle id="linePoint_5" class="linePoint" opacity="0" cx="168.62538929589033" cy="53.35706429763233" r="5" fill="red"></circle><path d="M0,-60.603A60.603,60.603,0,1,1,0,60.603A60.603,60.603,0,1,1,0,-60.603M0,-45.603A45.603,45.603,0,1,0,0,45.603A45.603,45.603,0,1,0,0,-45.603Z" class="type f0 t1" transform="translate(196.11111111111111,80)" stroke="#ff9c9c" stroke-width="3" stroke-dasharray="0" stroke-linejoin="round" fill="#ff9c9c"></path><path d="M0,-75.603A75.603,75.603,0,0,1,40.874,-63.602L34.387,-53.506A63.603,63.603,0,0,0,0,-63.603Z" class="son f0 s1" transform="translate(196.11111111111111,80)" stroke="rgb(203, 230, 209)" stroke-width="3" stroke-dasharray="0" stroke-linejoin="round" fill="rgb(203, 230, 209)"></path><path d="M73.875,-16.071A75.603,75.603,0,1,1,-53.46,-53.46L-44.974,-44.974A63.603,63.603,0,1,0,62.15,-13.52Z" class="son f0 s2" transform="translate(196.11111111111111,80)" stroke="rgb(151, 205, 208)" stroke-width="3" stroke-dasharray="0" stroke-linejoin="round" fill="rgb(151, 205, 208)"></path><circle id="entCircle_1" class="entCircle" opacity="1" cx="353.33333333333337" cy="180" r="22.22222222222222" fill="rgb(203, 230, 209)"></circle><path d="M332.667,189.623L333.483,189.623C334.299,189.623,335.931,189.623,336.863,187.605C337.795,185.588,338.027,181.553,338.259,181.553C338.49,181.553,338.722,185.588,344.442,187.605C350.162,189.623,361.37,189.623,366.974,189.623L372.578,189.623" stroke="white" class="sonLine " id="sonLine " stroke-dasharray="0" stroke-width="2" fill="none"></path><circle id="linePoint_1" class="linePoint" opacity="0" cx="335.72390567502003" cy="181.24569954878913" r="5" fill="red"></circle><circle id="entCircle_2" class="entCircle" opacity="1" cx="524.4444444444445" cy="180" r="36.111111111111114" fill="rgb(151, 205, 208)"></circle><path d="M493.361,195.637L494.318,195.637C495.274,195.637,497.187,195.637,498.573,187.856C499.959,180.075,500.818,164.513,501.677,164.513C502.537,164.513,503.396,180.075,512.403,187.856C521.409,195.637,538.564,195.637,547.141,195.637L555.718,195.637" stroke="white" class="sonLine " id="sonLine " stroke-dasharray="0" stroke-width="2" fill="none"></path><circle id="linePoint_2" class="linePoint" opacity="0" cx="497.64296659538945" cy="163.32805557246803" r="5" fill="red"></circle><path d="M0,-56.273A56.273,56.273,0,1,1,0,56.273L0,41.273A41.273,41.273,0,1,0,0,-41.273Z" class="type f2 t1" transform="translate(524.4444444444445,180)" stroke="#ff9c9c" stroke-width="3" stroke-dasharray="0" stroke-linejoin="round" fill="#ff9c9c"></path><path d="M0,56.273A56.273,56.273,0,1,1,0,-56.273L0,-41.273A41.273,41.273,0,1,0,0,41.273Z" class="type f2 t2" transform="translate(524.4444444444445,180)" stroke="#f4f4d0" stroke-width="3" stroke-dasharray="0" stroke-linejoin="round" fill="#f4f4d0"></path><path d="M0,-71.273A71.273,71.273,0,0,1,59.261,39.597L49.284,32.93A59.273,59.273,0,0,0,0,-59.273Z" class="son f2 s3" transform="translate(524.4444444444445,180)" stroke="rgb(151, 205, 208)" stroke-width="3" stroke-dasharray="0" stroke-linejoin="round" fill="rgb(151, 205, 208)"></path><path d="M13.905,69.904A71.273,71.273,0,0,1,-50.398,-50.398L-41.912,-41.912A59.273,59.273,0,0,0,11.564,58.134Z" class="son f2 s4" transform="translate(524.4444444444445,180)" stroke="rgb(177, 218, 209)" stroke-width="3" stroke-dasharray="0" stroke-linejoin="round" fill="rgb(177, 218, 209)"></path><circle id="entCircle_3" class="entCircle" opacity="1" cx="685.5555555555555" cy="280" r="26.11111111111111" fill="rgb(151, 205, 208)"></circle><path d="M661.972,291.306L662.828,291.306C663.683,291.306,665.394,291.306,666.483,288.024C667.573,284.742,668.042,278.178,668.51,278.178C668.979,278.178,669.448,284.742,676.057,288.024C682.667,291.306,695.418,291.306,701.793,291.306L708.168,291.306" stroke="white" class="sonLine " id="sonLine " stroke-dasharray="0" stroke-width="2" fill="none"></path><circle id="linePoint_3" class="linePoint" opacity="0" cx="665.5880903944217" cy="277.6784343003322" r="5" fill="red"></circle><circle id="entCircle_4" class="entCircle" opacity="1" cx="784.9444444444445" cy="280" r="27.22222222222222" fill="rgb(177, 218, 209)"></circle><path d="M760.528,291.788L761.394,291.788C762.261,291.788,763.994,291.788,765.191,288.094C766.388,284.401,767.048,277.014,767.708,277.014C768.368,277.014,769.028,284.401,775.83,288.094C782.632,291.788,795.576,291.788,802.048,291.788L808.52,291.788" stroke="white" class="sonLine " id="sonLine " stroke-dasharray="0" stroke-width="2" fill="none"></path><circle id="linePoint_4" class="linePoint" opacity="0" cx="764.7402534505413" cy="276.45211922007127" r="5" fill="red"></circle><circle id="entCircle_5" class="entCircle" opacity="1" cx="961.0555555555555" cy="80" r="41.111111111111114" fill="rgb(151, 205, 208)"></circle><path d="M926.222,97.802L927.082,97.802C927.943,97.802,929.663,97.802,930.862,88.725C932.061,79.648,932.739,61.495,934.224,65.063C935.709,68.631,938.002,93.92,939.726,94.223C941.45,94.526,942.606,69.843,943.86,66.275C945.115,62.707,946.469,80.254,955.285,89.028C964.101,97.802,980.38,97.802,988.519,97.802L996.659,97.802" stroke="white" class="sonLine " id="sonLine " stroke-dasharray="0" stroke-width="2" fill="none"></path><circle id="linePoint_0" class="linePoint" opacity="0" cx="930.5431038504775" cy="53.35706429763233" r="5" fill="red"></circle><circle id="linePoint_5" class="linePoint" opacity="0" cx="933.5698337403347" cy="53.35706429763233" r="5" fill="red"></circle><path d="M0,-60.603A60.603,60.603,0,1,1,0,60.603L0,45.603A45.603,45.603,0,1,0,0,-45.603Z" class="type f5 t1" transform="translate(961.0555555555555,80)" stroke="#ff9c9c" stroke-width="3" stroke-dasharray="0" stroke-linejoin="round" fill="#ff9c9c"></path><path d="M0,60.603A60.603,60.603,0,1,1,0,-60.603L0,-45.603A45.603,45.603,0,1,0,0,45.603Z" class="type f5 t2" transform="translate(961.0555555555555,80)" stroke="#f4f4d0" stroke-width="3" stroke-dasharray="0" stroke-linejoin="round" fill="#f4f4d0"></path><path d="M0,-75.603A75.603,75.603,0,1,1,-65.474,-37.802L-55.082,-31.802A63.603,63.603,0,1,0,0,-63.603Z" class="son f5 s6" transform="translate(961.0555555555555,80)" stroke="rgb(22, 144, 207)" stroke-width="3" stroke-dasharray="0" stroke-linejoin="round" fill="rgb(22, 144, 207)"></path><circle id="entCircle_6" class="entCircle" opacity="1" cx="1135.5" cy="180" r="39.44444444444444" fill="rgb(22, 144, 207)"></circle><path d="M1101.917,197.08L1102.911,197.08C1103.905,197.08,1105.894,197.08,1107.509,188.467C1109.124,179.855,1110.366,162.63,1112.298,165.856C1114.23,169.083,1116.851,192.761,1118.787,193.325C1120.723,193.888,1121.973,171.337,1123.205,168.111C1124.436,164.884,1125.649,180.982,1133.389,189.031C1141.128,197.08,1155.394,197.08,1162.527,197.08L1169.66,197.08" stroke="white" class="sonLine " id="sonLine " stroke-dasharray="0" stroke-width="2" fill="none"></path><circle id="linePoint_6" class="linePoint" opacity="0" cx="1109.3335235498776" cy="156.8878244937556" r="5" fill="red"></circle><circle id="linePoint_9" class="linePoint" opacity="0" cx="1114.0134286068837" cy="158.11314508433682" r="5" fill="red"></circle><path d="M0,-59.16A59.16,59.16,0,1,1,0,59.16L0,44.16A44.16,44.16,0,1,0,0,-44.16Z" class="type f6 t1" transform="translate(1135.5,180)" stroke="#ff9c9c" stroke-width="3" stroke-dasharray="0" stroke-linejoin="round" fill="#ff9c9c"></path><path d="M0,59.16A59.16,59.16,0,1,1,0,-59.16L0,-44.16A44.16,44.16,0,1,0,0,44.16Z" class="type f6 t2" transform="translate(1135.5,180)" stroke="#f4f4d0" stroke-width="3" stroke-dasharray="0" stroke-linejoin="round" fill="#f4f4d0"></path><path d="M0,-74.16A74.16,74.16,0,0,1,21.937,70.841L18.387,59.378A62.16,62.16,0,0,0,0,-62.16Z" class="son f6 s7" transform="translate(1135.5,180)" stroke="rgb(100, 181, 208)" stroke-width="3" stroke-dasharray="0" stroke-linejoin="round" fill="rgb(100, 181, 208)"></path><path d="M-34.58,65.604A74.16,74.16,0,0,1,-52.439,-52.439L-43.954,-43.954A62.16,62.16,0,0,0,-28.985,54.988Z" class="son f6 s8" transform="translate(1135.5,180)" stroke="rgb(100, 181, 208)" stroke-width="3" stroke-dasharray="0" stroke-linejoin="round" fill="rgb(100, 181, 208)"></path><circle id="entCircle_7" class="entCircle" opacity="1" cx="1301.888888888889" cy="280" r="31.388888888888886" fill="rgb(100, 181, 208)"></circle><path d="M1274.347,293.592L1275.159,293.592C1275.971,293.592,1277.594,293.592,1278.678,288.159C1279.761,282.726,1280.305,271.861,1282.476,273.672C1284.646,275.483,1288.444,289.97,1291.052,290.909C1293.659,291.849,1295.077,279.24,1297.087,278.927C1299.097,278.614,1301.699,290.596,1303.509,292.083C1305.32,293.571,1306.339,284.563,1307.913,284.067C1309.486,283.571,1311.614,291.588,1313.109,289.944C1314.604,288.3,1315.465,276.996,1317.203,277.544C1318.94,278.092,1321.553,290.492,1323.372,292.292C1325.19,294.093,1326.213,285.293,1326.869,283.743C1327.526,282.193,1327.815,287.893,1328.121,290.742C1328.428,293.592,1328.75,293.592,1328.911,293.592L1329.072,293.592" stroke="white" class="sonLine " id="sonLine " stroke-dasharray="0" stroke-width="2" fill="none"></path><circle id="linePoint_7" class="linePoint" opacity="0" cx="1280.386680925982" cy="271.03368093595725" r="5" fill="red"></circle><circle id="linePoint_17" class="linePoint" opacity="0" cx="1292.1843525516479" cy="274.93399718203267" r="5" fill="red"></circle><circle id="linePoint_24" class="linePoint" opacity="0" cx="1298.3550241162243" cy="281.10949790498546" r="5" fill="red"></circle><circle id="linePoint_28" class="linePoint" opacity="0" cx="1302.296642516504" cy="274.28394447435346" r="5" fill="red"></circle><circle id="linePoint_32" class="linePoint" opacity="0" cx="1308.521681231429" cy="281.75955061266467" r="5" fill="red"></circle><circle id="entCircle_8" class="entCircle" opacity="1" cx="1401.5555555555557" cy="280" r="27.5" fill="rgb(100, 181, 208)"></circle><path d="M1376.931,291.908L1378.04,291.908C1379.15,291.908,1381.369,291.908,1382.721,288.108C1384.073,284.309,1384.557,276.71,1386.563,277.976C1388.569,279.243,1392.095,289.375,1394.547,289.032C1396.998,288.689,1398.376,277.871,1400.675,277.985C1402.975,278.1,1406.198,289.146,1408.447,289.626C1410.697,290.106,1411.973,280.02,1412.846,278.639C1413.72,277.258,1414.192,284.583,1416.212,288.245C1418.232,291.908,1421.802,291.908,1423.587,291.908L1425.371,291.908" stroke="white" class="sonLine " id="sonLine " stroke-dasharray="0" stroke-width="2" fill="none"></path><circle id="linePoint_8" class="linePoint" opacity="0" cx="1384.3368054648115" cy="276.13115875293346" r="5" fill="red"></circle><circle id="linePoint_18" class="linePoint" opacity="0" cx="1394.5061087687502" cy="274.70737074275104" r="5" fill="red"></circle><circle id="linePoint_29" class="linePoint" opacity="0" cx="1403.246470156445" cy="276.7006739570064" r="5" fill="red"></circle><circle id="entCircle_9" class="entCircle" opacity="1" cx="1575.1666666666667" cy="80" r="38.611111111111114" fill="rgb(151, 205, 208)"></circle><path d="M1542.208,96.719L1543.194,96.719C1544.179,96.719,1546.151,96.719,1547.744,88.294C1549.338,79.87,1550.555,63.02,1552.458,66.179C1554.36,69.337,1556.95,92.503,1558.86,93.064C1560.771,93.625,1562.003,71.581,1563.213,68.422C1564.423,65.264,1565.611,80.991,1573.173,88.855C1580.734,96.719,1594.67,96.719,1601.637,96.719L1608.605,96.719" stroke="white" class="sonLine " id="sonLine " stroke-dasharray="0" stroke-width="2" fill="none"></path><circle id="linePoint_6" class="linePoint" opacity="0" cx="1549.5530030992934" cy="57.376109891774846" r="5" fill="red"></circle><circle id="linePoint_9" class="linePoint" opacity="0" cx="1554.134036922701" cy="58.57554342762547" r="5" fill="red"></circle><path d="M0,-58.438A58.438,58.438,0,1,1,0,58.438L0,43.438A43.438,43.438,0,1,0,0,-43.438Z" class="type f9 t1" transform="translate(1575.1666666666667,80)" stroke="#ff9c9c" stroke-width="3" stroke-dasharray="0" stroke-linejoin="round" fill="#ff9c9c"></path><path d="M0,58.438A58.438,58.438,0,1,1,0,-58.438L0,-43.438A43.438,43.438,0,1,0,0,43.438Z" class="type f9 t2" transform="translate(1575.1666666666667,80)" stroke="#f4f4d0" stroke-width="3" stroke-dasharray="0" stroke-linejoin="round" fill="#f4f4d0"></path><path d="M0,-73.438A73.438,73.438,0,1,1,-63.599,-36.719L-53.207,-30.719A61.438,61.438,0,1,0,0,-61.438Z" class="son f9 s10" transform="translate(1575.1666666666667,80)" stroke="rgb(151, 205, 208)" stroke-width="3" stroke-dasharray="0" stroke-linejoin="round" fill="rgb(151, 205, 208)"></path><polygon points="1713.7393225657484,193.33333333333334,1759.9273441009186,193.33333333333334,1736.8333333333335,153.33333333333334" fill="rgb(250, 199, 88)" stroke-linejoin="round" opacity="1" stroke="rgb(250, 199, 88)" stroke-width="15px"></polygon><text y="188" x="1736.8333333333335" fill="white" font-size="28" style="text-anchor: middle;">T</text><circle id="entCircle_11" class="entCircle" opacity="1" cx="1914.6111111111113" cy="80" r="42.77777777777777" fill="rgb(177, 218, 209)"></circle><path d="M1878.528,98.523L1881.147,98.523C1883.766,98.523,1889.005,98.523,1892.512,89.779C1896.019,81.034,1897.793,63.545,1899.568,63.545C1901.343,63.545,1903.118,81.034,1911.8,89.779C1920.481,98.523,1936.069,98.523,1943.864,98.523L1951.658,98.523" stroke="white" class="sonLine " id="sonLine " stroke-dasharray="0" stroke-width="2" fill="none"></path><circle id="linePoint_11" class="linePoint" opacity="0" cx="1896.8287228200709" cy="49.61920766366432" r="5" fill="red"></circle><path d="M0,-62.047A62.047,62.047,0,1,1,0,62.047L0,47.047A47.047,47.047,0,1,0,0,-47.047Z" class="type f11 t1" transform="translate(1914.6111111111113,80)" stroke="#ff9c9c" stroke-width="3" stroke-dasharray="0" stroke-linejoin="round" fill="#ff9c9c"></path><path d="M0,62.047A62.047,62.047,0,1,1,0,-62.047L0,-47.047A47.047,47.047,0,1,0,0,47.047Z" class="type f11 t2" transform="translate(1914.6111111111113,80)" stroke="#f4f4d0" stroke-width="3" stroke-dasharray="0" stroke-linejoin="round" fill="#f4f4d0"></path><path d="M0,-77.047A77.047,77.047,0,1,1,-66.724,-38.523L-56.332,-32.523A65.047,65.047,0,1,0,0,-65.047Z" class="son f11 s12" transform="translate(1914.6111111111113,80)" stroke="rgb(151, 205, 208)" stroke-width="3" stroke-dasharray="0" stroke-linejoin="round" fill="rgb(151, 205, 208)"></path><circle id="entCircle_12" class="entCircle" opacity="1" cx="2089.888888888889" cy="180" r="40.27777777777777" fill="rgb(151, 205, 208)"></circle><path d="M2055.681,197.441L2058.27,197.441C2060.86,197.441,2066.04,197.441,2069.422,189.251C2072.804,181.061,2074.389,164.682,2075.975,164.682C2077.56,164.682,2079.145,181.061,2087.277,189.251C2095.41,197.441,2110.09,197.441,2117.43,197.441L2124.77,197.441" stroke="white" class="sonLine " id="sonLine " stroke-dasharray="0" stroke-width="2" fill="none"></path><circle id="linePoint_12" class="linePoint" opacity="0" cx="2073.459665291262" cy="155.14833145042456" r="5" fill="red"></circle><path d="M0,-59.882A59.882,59.882,0,1,1,0,59.882L0,44.882A44.882,44.882,0,1,0,0,-44.882Z" class="type f12 t1" transform="translate(2089.888888888889,180)" stroke="#ff9c9c" stroke-width="3" stroke-dasharray="0" stroke-linejoin="round" fill="#ff9c9c"></path><path d="M0,59.882A59.882,59.882,0,1,1,0,-59.882L0,-44.882A44.882,44.882,0,1,0,0,44.882Z" class="type f12 t2" transform="translate(2089.888888888889,180)" stroke="#f4f4d0" stroke-width="3" stroke-dasharray="0" stroke-linejoin="round" fill="#f4f4d0"></path><path d="M0,-74.882A74.882,74.882,0,0,1,65.619,36.074L55.104,30.293A62.882,62.882,0,0,0,0,-62.882Z" class="son f12 s13" transform="translate(2089.888888888889,180)" stroke="rgb(203, 230, 209)" stroke-width="3" stroke-dasharray="0" stroke-linejoin="round" fill="rgb(203, 230, 209)"></path><path d="M20.891,71.908A74.882,74.882,0,0,1,-52.949,-52.949L-44.464,-44.464A62.882,62.882,0,0,0,17.543,60.385Z" class="son f12 s14" transform="translate(2089.888888888889,180)" stroke="rgb(100, 181, 208)" stroke-width="3" stroke-dasharray="0" stroke-linejoin="round" fill="rgb(100, 181, 208)"></path><circle id="entCircle_13" class="entCircle" opacity="1" cx="2251.0000000000005" cy="280" r="26.11111111111111" fill="rgb(203, 230, 209)"></circle><path d="M2227.417,291.306L2229.451,291.306C2231.485,291.306,2235.554,291.306,2237.948,288.024C2240.341,284.742,2241.06,278.178,2241.778,278.178C2242.496,278.178,2243.215,284.742,2248.521,288.024C2253.826,291.306,2263.72,291.306,2268.666,291.306L2273.613,291.306" stroke="white" class="sonLine " id="sonLine " stroke-dasharray="0" stroke-width="2" fill="none"></path><circle id="linePoint_13" class="linePoint" opacity="0" cx="2240.2362664814086" cy="277.6784343003322" r="5" fill="red"></circle><circle id="entCircle_14" class="entCircle" opacity="1" cx="2350.944444444445" cy="280" r="27.77777777777778" fill="rgb(100, 181, 208)"></circle><path d="M2326.111,292.028L2328.235,292.028C2330.358,292.028,2334.606,292.028,2336.977,288.121C2339.349,284.214,2339.846,276.399,2341.693,277.702C2343.54,279.004,2346.738,289.423,2348.972,288.592C2351.206,287.761,2352.476,275.679,2354.682,275.956C2356.888,276.233,2360.03,288.869,2362.226,289.77C2364.422,290.67,2365.673,279.835,2366.544,278.256C2367.414,276.676,2367.904,284.352,2369.25,288.19C2370.596,292.028,2372.798,292.028,2373.899,292.028L2375.001,292.028" stroke="white" class="sonLine " id="sonLine " stroke-dasharray="0" stroke-width="2" fill="none"></path><circle id="linePoint_14" class="linePoint" opacity="0" cx="2340.696477166329" cy="275.8044456069666" r="5" fill="red"></circle><circle id="linePoint_26" class="linePoint" opacity="0" cx="2349.308618681741" cy="272.3528383095547" r="5" fill="red"></circle><circle id="linePoint_33" class="linePoint" opacity="0" cx="2357.656141323774" cy="276.0920795484176" r="5" fill="red"></circle><circle id="entCircle_15" class="entCircle" opacity="1" cx="2524.8333333333335" cy="80" r="38.888888888888886" fill="rgb(151, 205, 208)"></circle><path d="M2491.667,96.839L2494.884,96.839C2498.102,96.839,2504.537,96.839,2508.496,89.449C2512.456,82.058,2513.94,67.277,2515.425,67.277C2516.909,67.277,2518.394,82.058,2525.575,89.449C2532.756,96.839,2545.634,96.839,2552.073,96.839L2558.512,96.839" stroke="white" class="sonLine " id="sonLine " stroke-dasharray="0" stroke-width="2" fill="none"></path><circle id="linePoint_15" class="linePoint" opacity="0" cx="2513.7193406514334" cy="58.01872312849787" r="5" fill="red"></circle><path d="M0,-58.679A58.679,58.679,0,1,1,0,58.679A58.679,58.679,0,1,1,0,-58.679M0,-43.679A43.679,43.679,0,1,0,0,43.679A43.679,43.679,0,1,0,0,-43.679Z" class="type f15 t2" transform="translate(2524.8333333333335,80)" stroke="#f4f4d0" stroke-width="3" stroke-dasharray="0" stroke-linejoin="round" fill="#f4f4d0"></path><path d="M0,-73.679A73.679,73.679,0,1,1,-63.808,-36.839L-53.415,-30.839A61.679,61.679,0,1,0,0,-61.679Z" class="son f15 s16" transform="translate(2524.8333333333335,80)" stroke="rgb(151, 205, 208)" stroke-width="3" stroke-dasharray="0" stroke-linejoin="round" fill="rgb(151, 205, 208)"></path><circle id="entCircle_16" class="entCircle" opacity="1" cx="2698.444444444445" cy="180" r="38.611111111111114" fill="rgb(151, 205, 208)"></circle><path d="M2665.486,196.719L2668.685,196.719C2671.884,196.719,2678.281,196.719,2682.212,189.379C2686.143,182.039,2687.608,167.359,2689.073,167.359C2690.537,167.359,2692.002,182.039,2699.137,189.379C2706.272,196.719,2719.077,196.719,2725.48,196.719L2731.883,196.719" stroke="white" class="sonLine " id="sonLine " stroke-dasharray="0" stroke-width="2" fill="none"></path><circle id="linePoint_16" class="linePoint" opacity="0" cx="2687.376399221467" cy="158.57554342762546" r="5" fill="red"></circle><path d="M0,-58.438A58.438,58.438,0,1,1,0,58.438L0,43.438A43.438,43.438,0,1,0,0,-43.438Z" class="type f16 t1" transform="translate(2698.444444444445,180)" stroke="#ff9c9c" stroke-width="3" stroke-dasharray="0" stroke-linejoin="round" fill="#ff9c9c"></path><path d="M0,58.438A58.438,58.438,0,1,1,0,-58.438L0,-43.438A43.438,43.438,0,1,0,0,43.438Z" class="type f16 t2" transform="translate(2698.444444444445,180)" stroke="#f4f4d0" stroke-width="3" stroke-dasharray="0" stroke-linejoin="round" fill="#f4f4d0"></path><path d="M0,-73.438A73.438,73.438,0,0,1,57.584,45.576L48.175,38.129A61.438,61.438,0,0,0,0,-61.438Z" class="son f16 s17" transform="translate(2698.444444444445,180)" stroke="rgb(125, 193, 208)" stroke-width="3" stroke-dasharray="0" stroke-linejoin="round" fill="rgb(125, 193, 208)"></path><path d="M8.491,72.946A73.438,73.438,0,0,1,-51.929,-51.929L-43.443,-43.443A61.438,61.438,0,0,0,7.103,61.026Z" class="son f16 s18" transform="translate(2698.444444444445,180)" stroke="rgb(100, 181, 208)" stroke-width="3" stroke-dasharray="0" stroke-linejoin="round" fill="rgb(100, 181, 208)"></path><circle id="entCircle_17" class="entCircle" opacity="1" cx="2861.5000000000005" cy="280" r="28.055555555555557" fill="rgb(125, 193, 208)"></circle><path d="M2836.458,292.148L2837.245,292.148C2838.031,292.148,2839.605,292.148,2840.635,287.293C2841.666,282.437,2842.153,272.725,2844.152,274.344C2846.15,275.962,2849.659,288.911,2852.067,289.751C2854.474,290.59,2855.781,279.321,2857.655,279.041C2859.528,278.761,2861.968,289.471,2863.663,290.8C2865.359,292.13,2866.309,284.078,2867.792,283.635C2869.276,283.192,2871.293,290.357,2872.706,288.888C2874.119,287.419,2874.928,277.315,2876.558,277.805C2878.188,278.295,2880.638,289.378,2882.34,290.987C2884.043,292.596,2884.996,284.731,2885.604,283.346C2886.211,281.96,2886.472,287.054,2886.446,289.601C2886.42,292.148,2886.109,292.148,2885.953,292.148L2885.797,292.148" stroke="white" class="sonLine " id="sonLine " stroke-dasharray="0" stroke-width="2" fill="none"></path><circle id="linePoint_7" class="linePoint" opacity="0" cx="2842.2812123517388" cy="271.9858564117848" r="5" fill="red"></circle><circle id="linePoint_17" class="linePoint" opacity="0" cx="2852.8260338932632" cy="275.4719797821708" r="5" fill="red"></circle><circle id="linePoint_24" class="linePoint" opacity="0" cx="2858.341412902309" cy="280.9916751186153" r="5" fill="red"></circle><circle id="linePoint_28" class="linePoint" opacity="0" cx="2861.864452357426" cy="274.8909592204398" r="5" fill="red"></circle><circle id="linePoint_32" class="linePoint" opacity="0" cx="2867.428425014129" cy="281.57269568034627" r="5" fill="red"></circle><circle id="entCircle_18" class="entCircle" opacity="1" cx="2962.555555555556" cy="280" r="28.888888888888886" fill="rgb(100, 181, 208)"></circle><path d="M2936.889,292.509L2938.025,292.509C2939.161,292.509,2941.434,292.509,2942.824,288.518C2944.215,284.526,2944.723,276.543,2946.802,277.874C2948.881,279.204,2952.53,289.848,2955.068,289.488C2957.607,289.128,2959.035,277.764,2961.414,277.884C2963.793,278.004,2967.123,289.608,2969.449,290.112C2971.775,290.617,2973.096,280.021,2974.004,278.57C2974.912,277.12,2975.405,284.815,2977.598,288.662C2979.791,292.509,2983.683,292.509,2985.628,292.509L2987.574,292.509" stroke="white" class="sonLine " id="sonLine " stroke-dasharray="0" stroke-width="2" fill="none"></path><circle id="linePoint_8" class="linePoint" opacity="0" cx="2944.4671716218454" cy="275.9357627303543" r="5" fill="red"></circle><circle id="linePoint_18" class="linePoint" opacity="0" cx="2955.15007610275" cy="274.4400662348092" r="5" fill="red"></circle><circle id="linePoint_29" class="linePoint" opacity="0" cx="2964.331869883763" cy="276.5340413285724" r="5" fill="red"></circle><polygon points="3038.7414601086894,95,3090.702984335756,95,3064.7222222222226,50" fill="rgb(250, 199, 88)" stroke-linejoin="round" opacity="1" stroke="rgb(250, 199, 88)" stroke-width="15px"></polygon><text y="88" x="3064.7222222222226" fill="white" font-size="28" style="text-anchor: middle;">T</text><circle id="entCircle_20" class="entCircle" opacity="1" cx="3259.7222222222226" cy="80" r="60" fill="rgb(48, 156, 207)"></circle><path d="M3210.722,105.981L3216.882,105.981C3223.041,105.981,3235.36,105.981,3243.21,97.636C3251.06,89.291,3254.442,72.601,3257.824,72.601C3261.206,72.601,3264.588,89.291,3273.565,97.636C3282.542,105.981,3297.113,105.981,3304.398,105.981L3311.684,105.981" stroke="white" class="sonLine " id="sonLine " stroke-dasharray="0" stroke-width="2" fill="none"></path><circle id="linePoint_20" class="linePoint" opacity="0" cx="3257.2280690593234" cy="-1.1319578589119743" r="5" fill="red"></circle><path d="M0,-76.962A76.962,76.962,0,1,1,0,76.962L0,61.962A61.962,61.962,0,1,0,0,-61.962Z" class="type f20 t1" transform="translate(3259.7222222222226,80)" stroke="#ff9c9c" stroke-width="3" stroke-dasharray="0" stroke-linejoin="round" fill="#ff9c9c"></path><path d="M0,76.962A76.962,76.962,0,1,1,0,-76.962L0,-61.962A61.962,61.962,0,1,0,0,61.962Z" class="type f20 t2" transform="translate(3259.7222222222226,80)" stroke="#f4f4d0" stroke-width="3" stroke-dasharray="0" stroke-linejoin="round" fill="#f4f4d0"></path><path d="M0,-91.962A91.962,91.962,0,0,1,32.761,-85.928L28.486,-74.716A79.962,79.962,0,0,0,0,-79.962Z" class="son f20 s21" transform="translate(3259.7222222222226,80)" stroke="rgb(203, 230, 209)" stroke-width="3" stroke-dasharray="0" stroke-linejoin="round" fill="rgb(203, 230, 209)"></path><path d="M71.336,-58.036A91.962,91.962,0,0,1,81.97,-41.687L71.274,-36.248A79.962,79.962,0,0,0,62.027,-50.463Z" class="son f20 s22" transform="translate(3259.7222222222226,80)" stroke="rgb(203, 230, 209)" stroke-width="3" stroke-dasharray="0" stroke-linejoin="round" fill="rgb(203, 230, 209)"></path><path d="M91.832,4.883A91.962,91.962,0,0,1,-19.393,89.893L-16.862,78.163A79.962,79.962,0,0,0,79.849,4.245Z" class="son f20 s23" transform="translate(3259.7222222222226,80)" stroke="rgb(151, 205, 208)" stroke-width="3" stroke-dasharray="0" stroke-linejoin="round" fill="rgb(151, 205, 208)"></path><path d="M-61.741,68.154A91.962,91.962,0,0,1,-45.981,-79.641L-39.981,-69.249A79.962,79.962,0,0,0,-53.685,59.26Z" class="son f20 s27" transform="translate(3259.7222222222226,80)" stroke="rgb(151, 205, 208)" stroke-width="3" stroke-dasharray="0" stroke-linejoin="round" fill="rgb(151, 205, 208)"></path><circle id="entCircle_21" class="entCircle" opacity="1" cx="3418.055555555556" cy="180" r="23.333333333333332" fill="rgb(203, 230, 209)"></circle><path d="M3396.556,190.104L3399.347,190.104C3402.138,190.104,3407.72,190.104,3410.807,187.753C3413.893,185.402,3414.483,180.699,3415.073,180.699C3415.663,180.699,3416.253,185.402,3420.118,187.753C3423.983,190.104,3431.123,190.104,3434.693,190.104L3438.263,190.104" stroke="white" class="sonLine " id="sonLine " stroke-dasharray="0" stroke-width="2" fill="none"></path><circle id="linePoint_21" class="linePoint" opacity="0" cx="3414.6607359727213" cy="180.34153448295325" r="5" fill="red"></circle><circle id="entCircle_22" class="entCircle" opacity="1" cx="3512.1666666666674" cy="180" r="21.944444444444446" fill="rgb(203, 230, 209)"></circle><path d="M3491.708,189.502L3494.433,189.502C3497.158,189.502,3502.608,189.502,3505.598,187.565C3508.589,185.627,3509.12,181.752,3509.651,181.752C3510.182,181.752,3510.713,185.627,3514.299,187.565C3517.886,189.502,3524.529,189.502,3527.85,189.502L3531.171,189.502" stroke="white" class="sonLine " id="sonLine " stroke-dasharray="0" stroke-width="2" fill="none"></path><circle id="linePoint_22" class="linePoint" opacity="0" cx="3509.3350041589047" cy="181.45735911817553" r="5" fill="red"></circle><circle id="entCircle_23" class="entCircle" opacity="1" cx="3683.000000000001" cy="180" r="35.833333333333336" fill="rgb(151, 205, 208)"></circle><path d="M3652.125,195.516L3656.262,195.516C3660.398,195.516,3668.671,195.516,3673.446,190.219C3678.22,184.921,3679.495,174.326,3680.77,174.326C3682.045,174.326,3683.32,184.921,3688.864,190.219C3694.407,195.516,3704.22,195.516,3709.126,195.516L3714.033,195.516" stroke="white" class="sonLine " id="sonLine " stroke-dasharray="0" stroke-width="2" fill="none"></path><circle id="linePoint_23" class="linePoint" opacity="0" cx="3680.362230957641" cy="163.82734908330545" r="5" fill="red"></circle><path d="M0,-56.033A56.033,56.033,0,1,1,0,56.033A56.033,56.033,0,1,1,0,-56.033M0,-41.033A41.033,41.033,0,1,0,0,41.033A41.033,41.033,0,1,0,0,-41.033Z" class="type f23 t2" transform="translate(3683.000000000001,180)" stroke="#f4f4d0" stroke-width="3" stroke-dasharray="0" stroke-linejoin="round" fill="#f4f4d0"></path><path d="M0,-71.033A71.033,71.033,0,0,1,52.26,-48.109L43.432,-39.982A59.033,59.033,0,0,0,0,-59.033Z" class="son f23 s24" transform="translate(3683.000000000001,180)" stroke="rgb(125, 193, 208)" stroke-width="3" stroke-dasharray="0" stroke-linejoin="round" fill="rgb(125, 193, 208)"></path><path d="M70.972,2.935A71.033,71.033,0,1,1,-50.228,-50.228L-41.742,-41.742A59.033,59.033,0,1,0,58.982,2.44Z" class="son f23 s25" transform="translate(3683.000000000001,180)" stroke="rgb(125, 193, 208)" stroke-width="3" stroke-dasharray="0" stroke-linejoin="round" fill="rgb(125, 193, 208)"></path><circle id="entCircle_24" class="entCircle" opacity="1" cx="3840.7777777777787" cy="280" r="22.77777777777778" fill="rgb(125, 193, 208)"></circle><path d="M3819.694,289.863L3820.441,289.863C3821.188,289.863,3822.682,289.863,3823.628,285.921C3824.574,281.978,3824.973,274.094,3826.699,275.408C3828.424,276.722,3831.476,287.235,3833.567,287.916C3835.659,288.598,3836.789,279.448,3838.447,279.221C3840.104,278.994,3842.288,287.689,3843.801,288.769C3845.313,289.848,3846.155,283.311,3847.496,282.951C3848.837,282.592,3850.677,288.409,3851.961,287.216C3853.244,286.023,3853.971,277.82,3855.431,278.218C3856.89,278.615,3859.083,287.614,3860.601,288.92C3862.119,290.226,3862.963,283.841,3863.493,282.716C3864.022,281.592,3864.237,285.727,3863.687,287.795C3863.136,289.863,3861.82,289.863,3861.162,289.863L3860.504,289.863" stroke="white" class="sonLine " id="sonLine " stroke-dasharray="0" stroke-width="2" fill="none"></path><circle id="linePoint_7" class="linePoint" opacity="0" cx="3825.174405627705" cy="273.4934675818451" r="5" fill="red"></circle><circle id="linePoint_17" class="linePoint" opacity="0" cx="3833.735547869338" cy="276.32378556572286" r="5" fill="red"></circle><circle id="linePoint_24" class="linePoint" opacity="0" cx="3838.2133803321285" cy="280.8051223735293" r="5" fill="red"></circle><circle id="linePoint_28" class="linePoint" opacity="0" cx="3841.073669790738" cy="275.85206590174323" r="5" fill="red"></circle><circle id="linePoint_32" class="linePoint" opacity="0" cx="3845.590954521923" cy="281.27684203750886" r="5" fill="red"></circle><circle id="entCircle_25" class="entCircle" opacity="1" cx="4008.8333333333344" cy="280" r="33.05555555555556" fill="rgb(125, 193, 208)"></circle><path d="M3980.042,294.313L3983.985,294.313C3987.928,294.313,3995.813,294.313,4000.306,289.544C4004.798,284.774,4005.897,275.234,4006.996,275.234C4008.095,275.234,4009.194,284.774,4014.271,289.544C4019.349,294.313,4028.404,294.313,4032.932,294.313L4037.46,294.313" stroke="white" class="sonLine " id="sonLine " stroke-dasharray="0" stroke-width="2" fill="none"></path><circle id="linePoint_25" class="linePoint" opacity="0" cx="4006.686312019785" cy="268.50388685608345" r="5" fill="red"></circle><path d="M0,-53.627A53.627,53.627,0,1,1,0,53.627L0,38.627A38.627,38.627,0,1,0,0,-38.627Z" class="type f25 t1" transform="translate(4008.8333333333344,280)" stroke="#ff9c9c" stroke-width="3" stroke-dasharray="0" stroke-linejoin="round" fill="#ff9c9c"></path><path d="M0,53.627A53.627,53.627,0,1,1,0,-53.627L0,-38.627A38.627,38.627,0,1,0,0,38.627Z" class="type f25 t2" transform="translate(4008.8333333333344,280)" stroke="#f4f4d0" stroke-width="3" stroke-dasharray="0" stroke-linejoin="round" fill="#f4f4d0"></path><path d="M0,-68.627A68.627,68.627,0,1,1,-59.433,-34.313L-49.04,-28.313A56.627,56.627,0,1,0,0,-56.627Z" class="son f25 s26" transform="translate(4008.8333333333344,280)" stroke="rgb(125, 193, 208)" stroke-width="3" stroke-dasharray="0" stroke-linejoin="round" fill="rgb(125, 193, 208)"></path><circle id="entCircle_26" class="entCircle" opacity="1" cx="4174.944444444445" cy="380" r="31.111111111111114" fill="rgb(125, 193, 208)"></circle><path d="M4147.611,393.472L4149.92,393.472C4152.229,393.472,4156.847,393.472,4159.432,389.095C4162.018,384.719,4162.571,375.967,4164.573,377.426C4166.575,378.885,4170.027,390.554,4172.441,389.623C4174.855,388.692,4176.231,375.161,4178.614,375.471C4180.996,375.781,4184.385,389.933,4186.757,390.942C4189.129,391.951,4190.484,379.816,4191.435,378.047C4192.385,376.278,4192.931,384.875,4194.605,389.173C4196.28,393.472,4199.084,393.472,4200.486,393.472L4201.887,393.472" stroke="white" class="sonLine " id="sonLine " stroke-dasharray="0" stroke-width="2" fill="none"></path><circle id="linePoint_14" class="linePoint" opacity="0" cx="4163.466721092955" cy="375.3009790798026" r="5" fill="red"></circle><circle id="linePoint_26" class="linePoint" opacity="0" cx="4173.112319590216" cy="371.4351789067013" r="5" fill="red"></circle><circle id="linePoint_33" class="linePoint" opacity="0" cx="4182.461544949294" cy="375.6231290942277" r="5" fill="red"></circle><circle id="entCircle_27" class="entCircle" opacity="1" cx="4347.166666666668" cy="180" r="37.22222222222223" fill="rgb(151, 205, 208)"></circle><path d="M4315.25,196.118L4320.045,196.118C4324.839,196.118,4334.428,196.118,4339.907,187.726C4345.386,179.334,4346.754,162.551,4348.122,162.551C4349.49,162.551,4350.859,179.334,4356.072,187.726C4361.285,196.118,4370.344,196.118,4374.873,196.118L4379.402,196.118" stroke="white" class="sonLine " id="sonLine " stroke-dasharray="0" stroke-width="2" fill="none"></path><circle id="linePoint_27" class="linePoint" opacity="0" cx="4348.26266992768" cy="161.2733547408282" r="5" fill="red"></circle><path d="M0,-57.235A57.235,57.235,0,1,1,0,57.235A57.235,57.235,0,1,1,0,-57.235M0,-42.235A42.235,42.235,0,1,0,0,42.235A42.235,42.235,0,1,0,0,-42.235Z" class="type f27 t1" transform="translate(4347.166666666668,180)" stroke="#ff9c9c" stroke-width="3" stroke-dasharray="0" stroke-linejoin="round" fill="#ff9c9c"></path><path d="M0,-72.235A72.235,72.235,0,0,1,36.701,62.217L30.604,51.882A60.235,60.235,0,0,0,0,-60.235Z" class="son f27 s28" transform="translate(4347.166666666668,180)" stroke="rgb(151, 205, 208)" stroke-width="3" stroke-dasharray="0" stroke-linejoin="round" fill="rgb(151, 205, 208)"></path><path d="M-18.043,69.946A72.235,72.235,0,0,1,-51.078,-51.078L-42.593,-42.593A60.235,60.235,0,0,0,-15.045,58.326Z" class="son f27 s29" transform="translate(4347.166666666668,180)" stroke="rgb(151, 205, 208)" stroke-width="3" stroke-dasharray="0" stroke-linejoin="round" fill="rgb(151, 205, 208)"></path><circle id="entCircle_28" class="entCircle" opacity="1" cx="4510.777777777779" cy="280" r="28.611111111111114" fill="rgb(151, 205, 208)"></circle><path d="M4485.319,292.389L4486.11,292.389C4486.901,292.389,4488.482,292.389,4489.522,287.437C4490.561,282.485,4491.058,272.581,4493.085,274.232C4495.112,275.882,4498.669,289.088,4501.11,289.944C4503.552,290.8,4504.877,279.307,4506.773,279.022C4508.669,278.736,4511.136,289.658,4512.851,291.014C4514.565,292.37,4515.527,284.159,4517.025,283.707C4518.524,283.255,4520.559,290.562,4521.986,289.064C4523.413,287.566,4524.231,277.262,4525.878,277.761C4527.526,278.261,4530.004,289.563,4531.725,291.204C4533.447,292.845,4534.412,284.825,4535.028,283.412C4535.643,281.999,4535.908,287.194,4535.938,289.792C4535.968,292.389,4535.762,292.389,4535.659,292.389L4535.556,292.389" stroke="white" class="sonLine " id="sonLine " stroke-dasharray="0" stroke-width="2" fill="none"></path><circle id="linePoint_7" class="linePoint" opacity="0" cx="4491.178420077076" cy="271.8271604991468" r="5" fill="red"></circle><circle id="linePoint_17" class="linePoint" opacity="0" cx="4501.932049965957" cy="275.3823160154811" r="5" fill="red"></circle><circle id="linePoint_24" class="linePoint" opacity="0" cx="4507.5566444009255" cy="281.01131224967696" r="5" fill="red"></circle><circle id="linePoint_28" class="linePoint" opacity="0" cx="4511.14944701357" cy="274.789790096092" r="5" fill="red"></circle><circle id="linePoint_32" class="linePoint" opacity="0" cx="4516.8235973466435" cy="281.60383816906597" r="5" fill="red"></circle><circle id="entCircle_29" class="entCircle" opacity="1" cx="4609.8888888888905" cy="280" r="26.944444444444443" fill="rgb(151, 205, 208)"></circle><path d="M4585.681,291.667L4586.779,291.667C4587.878,291.667,4590.076,291.667,4591.412,287.944C4592.749,284.222,4593.225,276.776,4595.201,278.017C4597.177,279.258,4600.654,289.185,4603.071,288.849C4605.488,288.513,4606.845,277.914,4609.114,278.026C4611.382,278.138,4614.561,288.961,4616.78,289.432C4618.999,289.902,4620.257,280.02,4621.117,278.667C4621.977,277.314,4622.439,284.49,4624.391,288.079C4626.342,291.667,4629.783,291.667,4631.503,291.667L4633.223,291.667" stroke="white" class="sonLine " id="sonLine " stroke-dasharray="0" stroke-width="2" fill="none"></path><circle id="linePoint_8" class="linePoint" opacity="0" cx="4593.017992335333" cy="276.2093171619651" r="5" fill="red"></circle><circle id="linePoint_18" class="linePoint" opacity="0" cx="4602.981855168486" cy="274.81429254592774" r="5" fill="red"></circle><circle id="linePoint_29" class="linePoint" opacity="0" cx="4611.545643598853" cy="276.76732700838" r="5" fill="red"></circle><polygon points="4686.781881588717,97.63888888888889,4747.884785077953,97.63888888888889,4717.333333333335,44.72222222222223" fill="rgb(250, 199, 88)" stroke-linejoin="round" opacity="1" stroke="rgb(250, 199, 88)" stroke-width="15px"></polygon><text y="88" x="4717.333333333335" fill="white" font-size="28" style="text-anchor: middle;">T</text><circle id="entCircle_31" class="entCircle" opacity="1" cx="4886.2222222222235" cy="80" r="33.888888888888886" fill="rgb(151, 205, 208)"></circle><path d="M4856.806,94.674L4862.197,94.674C4867.588,94.674,4878.37,94.674,4884.336,88.048C4890.303,81.422,4891.453,68.17,4892.603,68.17C4893.754,68.17,4894.904,81.422,4898.732,88.048C4902.56,94.674,4909.065,94.674,4912.318,94.674L4915.571,94.674" stroke="white" class="sonLine " id="sonLine " stroke-dasharray="0" stroke-width="2" fill="none"></path><circle id="linePoint_31" class="linePoint" opacity="0" cx="4893.735473725278" cy="67.16132865195473" r="5" fill="red"></circle><path d="M0,-54.349A54.349,54.349,0,1,1,0,54.349L0,39.349A39.349,39.349,0,1,0,0,-39.349Z" class="type f31 t1" transform="translate(4886.2222222222235,80)" stroke="#ff9c9c" stroke-width="3" stroke-dasharray="0" stroke-linejoin="round" fill="#ff9c9c"></path><path d="M0,54.349A54.349,54.349,0,1,1,0,-54.349L0,-39.349A39.349,39.349,0,1,0,0,39.349Z" class="type f31 t2" transform="translate(4886.2222222222235,80)" stroke="#f4f4d0" stroke-width="3" stroke-dasharray="0" stroke-linejoin="round" fill="#f4f4d0"></path><path d="M0,-69.349A69.349,69.349,0,0,1,61.068,-32.862L50.501,-27.176A57.349,57.349,0,0,0,0,-57.349Z" class="son f31 s32" transform="translate(4886.2222222222235,80)" stroke="rgb(177, 218, 209)" stroke-width="3" stroke-dasharray="0" stroke-linejoin="round" fill="rgb(177, 218, 209)"></path><path d="M66.419,19.945A69.349,69.349,0,1,1,-49.037,-49.037L-40.552,-40.552A57.349,57.349,0,1,0,54.926,16.493Z" class="son f31 s33" transform="translate(4886.2222222222235,80)" stroke="rgb(177, 218, 209)" stroke-width="3" stroke-dasharray="0" stroke-linejoin="round" fill="rgb(177, 218, 209)"></path><circle id="entCircle_32" class="entCircle" opacity="1" cx="5043.444444444446" cy="180" r="22.22222222222222" fill="rgb(177, 218, 209)"></circle><path d="M5022.778,189.623L5023.52,189.623C5024.263,189.623,5025.748,189.623,5026.686,185.776C5027.623,181.93,5028.013,174.238,5029.71,175.52C5031.407,176.802,5034.41,187.058,5036.468,187.723C5038.526,188.388,5039.638,179.462,5041.273,179.24C5042.907,179.019,5045.064,187.502,5046.558,188.555C5048.051,189.608,5048.881,183.23,5050.207,182.879C5051.533,182.528,5053.355,188.204,5054.625,187.04C5055.895,185.876,5056.613,177.873,5058.055,178.261C5059.496,178.649,5061.662,187.428,5063.161,188.702C5064.66,189.977,5065.492,183.748,5066.013,182.65C5066.535,181.553,5066.745,185.588,5066.139,187.605C5065.533,189.623,5064.111,189.623,5063.4,189.623L5062.689,189.623" stroke="white" class="sonLine " id="sonLine " stroke-dasharray="0" stroke-width="2" fill="none"></path><circle id="linePoint_7" class="linePoint" opacity="0" cx="5028.221642346814" cy="173.652163494483" r="5" fill="red"></circle><circle id="linePoint_17" class="linePoint" opacity="0" cx="5036.573976241089" cy="176.4134493324125" r="5" fill="red"></circle><circle id="linePoint_24" class="linePoint" opacity="0" cx="5040.942593277958" cy="180.78548524246756" r="5" fill="red"></circle><circle id="linePoint_28" class="linePoint" opacity="0" cx="5043.733119579041" cy="175.95323502609094" r="5" fill="red"></circle><circle id="linePoint_32" class="linePoint" opacity="0" cx="5048.1402266338555" cy="181.24569954878913" r="5" fill="red"></circle><circle id="entCircle_33" class="entCircle" opacity="1" cx="5143.111111111113" cy="180" r="27.5" fill="rgb(177, 218, 209)"></circle><path d="M5118.486,191.908L5120.594,191.908C5122.702,191.908,5126.919,191.908,5129.273,188.04C5131.627,184.172,5132.119,176.435,5133.953,177.725C5135.787,179.014,5138.964,189.329,5141.183,188.506C5143.402,187.683,5144.663,175.722,5146.854,175.997C5149.045,176.271,5152.167,188.78,5154.348,189.672C5156.53,190.564,5157.773,179.837,5158.636,178.273C5159.5,176.71,5159.985,184.309,5161.303,188.108C5162.622,191.908,5164.774,191.908,5165.851,191.908L5166.927,191.908" stroke="white" class="sonLine " id="sonLine " stroke-dasharray="0" stroke-width="2" fill="none"></path><circle id="linePoint_14" class="linePoint" opacity="0" cx="5132.965623505778" cy="175.84640115089695" r="5" fill="red"></circle><circle id="linePoint_26" class="linePoint" opacity="0" cx="5141.491643606037" cy="172.4293099264592" r="5" fill="red"></circle><circle id="linePoint_33" class="linePoint" opacity="0" cx="5149.755691021649" cy="176.13115875293343" r="5" fill="red"></circle><circle id="entCircle_34" class="entCircle" opacity="1" cx="5240.5555555555575" cy="80" r="25.27777777777778" fill="rgb(203, 230, 209)"></circle><path d="M5217.597,90.946L5222.079,90.946C5226.561,90.946,5235.524,90.946,5240.345,87.957C5245.166,84.969,5245.844,78.993,5246.523,78.993C5247.201,78.993,5247.88,84.969,5250.534,87.957C5253.188,90.946,5257.817,90.946,5260.132,90.946L5262.447,90.946" stroke="white" class="sonLine " id="sonLine " stroke-dasharray="0" stroke-width="2" fill="none"></path><circle id="linePoint_34" class="linePoint" opacity="0" cx="5247.670194810259" cy="78.53776748282323" r="5" fill="red"></circle></g></g></svg>